<svg width="130" height="130" viewBox="0 0 130 130" fill="none" xmlns="http://www.w3.org/2000/svg">
<g clip-path="url(#clip0_50_1234)">
<path d="M113.725 112.074C110.384 115.519 107.39 117.548 105.103 119.075C82.7715 133.993 57.243 129.694 49.3538 128.222C36.6197 125.849 25.8719 124.178 16.6369 115.83C-4.3484 96.8686 -3.32744 57.3022 12.7062 32.7925C14.6089 29.8861 30.6193 6.14251 56.1988 2.79501C56.8253 2.71144 57.2894 2.66501 57.7024 2.62322C61.6609 2.20536 86.1824 -0.00927997 106.179 16.7514C109.043 19.1518 113.646 23.4789 117.92 30.0764C133.536 54.2146 133.587 91.5896 113.725 112.074Z" fill="#F7F7F7"/>
<path d="M38.6941 104.098C38.4389 104.088 38.2393 103.87 38.2486 103.615C38.2672 103.118 38.2672 102.612 38.244 102.11C38.2347 101.855 38.425 101.641 38.6802 101.628C38.6849 101.628 38.6849 101.628 38.6895 101.628C38.9447 101.618 39.1628 101.813 39.1721 102.073C39.1953 102.598 39.1953 103.132 39.1768 103.656C39.1675 103.898 38.9772 104.088 38.7452 104.102C38.7266 104.098 38.7127 104.098 38.6941 104.098ZM37.9702 99.6822C37.882 99.19 37.766 98.6979 37.6361 98.215C37.5664 97.969 37.7149 97.7136 37.9609 97.644C38.2115 97.579 38.4621 97.7229 38.5317 97.969C38.6709 98.475 38.7869 98.995 38.8844 99.5104C38.9308 99.7611 38.7637 100.003 38.5131 100.049C38.4946 100.054 38.476 100.054 38.4575 100.054C38.2254 100.077 38.0166 99.9143 37.9702 99.6822ZM36.8332 95.9075C36.6383 95.4479 36.4156 94.9929 36.1835 94.5518C36.0629 94.3243 36.1464 94.0458 36.3738 93.925C36.6012 93.8043 36.8796 93.8879 37.0003 94.1154C37.2462 94.5797 37.4783 95.0579 37.6871 95.5408C37.7892 95.7775 37.6778 96.0515 37.4458 96.149C37.3947 96.1722 37.3437 96.1815 37.2926 96.1861C37.0977 96.2 36.9121 96.0933 36.8332 95.9075ZM34.8795 92.4858C34.5825 92.0818 34.2669 91.6872 33.9421 91.3111C33.775 91.1161 33.7936 90.8236 33.9885 90.6565C34.1834 90.4893 34.4757 90.5079 34.6428 90.7029C34.9862 91.0975 35.3203 91.5154 35.6313 91.9425C35.7844 92.1515 35.738 92.4393 35.5292 92.5925C35.4549 92.6483 35.3714 92.6761 35.2832 92.6808C35.1347 92.6854 34.9769 92.6158 34.8795 92.4858ZM32.2157 89.5793C31.8398 89.2497 31.4454 88.934 31.0416 88.6415C30.8328 88.4883 30.791 88.2004 30.9395 87.9915C31.0927 87.7825 31.3804 87.7408 31.5892 87.8893C32.0162 88.2004 32.4292 88.5347 32.8283 88.8783C33.0232 89.0454 33.0418 89.3379 32.8747 89.5329C32.7912 89.6304 32.6751 89.6861 32.5545 89.6908C32.4292 89.7 32.3085 89.6629 32.2157 89.5793ZM28.9719 87.3415C28.531 87.1047 28.0762 86.8865 27.6168 86.6868C27.3801 86.5847 27.2734 86.3108 27.3755 86.074C27.4776 85.8372 27.7514 85.7304 27.988 85.8325C28.4707 86.0415 28.9487 86.2736 29.4127 86.5197C29.6401 86.6404 29.7237 86.9236 29.603 87.1465C29.5241 87.295 29.3756 87.3786 29.2225 87.3879C29.1389 87.4018 29.0508 87.3833 28.9719 87.3415ZM11.7363 87.1233C11.6156 86.8958 11.6992 86.6172 11.9266 86.4965C12.3906 86.2504 12.8686 86.0183 13.3559 85.814C13.5926 85.7118 13.8664 85.8233 13.9638 86.06C14.0659 86.2968 13.9546 86.5708 13.7179 86.6683C13.2584 86.8633 12.8037 87.0815 12.3628 87.3183C12.3025 87.3508 12.2375 87.3693 12.1725 87.374C11.9962 87.3786 11.8245 87.2904 11.7363 87.1233ZM25.315 85.8743C24.8324 85.7397 24.3404 85.6283 23.8485 85.54C23.5979 85.4936 23.4309 85.2522 23.4773 84.9968C23.5237 84.7461 23.765 84.579 24.0202 84.6254C24.5353 84.7229 25.0551 84.839 25.5609 84.9783C25.8069 85.0479 25.9554 85.3033 25.8858 85.5493C25.8301 85.7443 25.6584 85.879 25.4681 85.8883C25.4171 85.8929 25.366 85.8883 25.315 85.8743ZM15.4581 85.5354C15.3932 85.2893 15.537 85.034 15.783 84.9643C16.2888 84.825 16.8086 84.709 17.3283 84.6161C17.5789 84.5697 17.8203 84.7368 17.8667 84.9922C17.9131 85.2429 17.746 85.4843 17.4908 85.5308C16.9989 85.619 16.5069 85.7304 16.0243 85.8604C15.9918 85.8697 15.964 85.8743 15.9315 85.8743C15.718 85.8929 15.5138 85.7536 15.4581 85.5354ZM21.4261 85.2615C20.9295 85.2383 20.4237 85.2383 19.9225 85.2615C19.6673 85.2708 19.4491 85.0758 19.4399 84.8158C19.4306 84.565 19.6208 84.3468 19.8761 84.3329C19.8807 84.3329 19.8807 84.3329 19.8854 84.3329C20.4098 84.3097 20.9434 84.3097 21.4678 84.3329C21.7231 84.3422 21.9226 84.5604 21.9134 84.8158C21.9041 85.0572 21.7138 85.2429 21.4818 85.2615C21.4586 85.2661 21.4446 85.2661 21.4261 85.2615Z" fill="black"/>
<path d="M9.44842 89.1568C9.54123 89.1522 9.62941 89.1197 9.7083 89.0593C9.89393 88.9107 10.0888 88.7622 10.2837 88.6229C10.4926 88.4697 10.5343 88.1818 10.3858 87.9729C10.2327 87.764 9.94497 87.7222 9.73614 87.8707C9.53195 88.0193 9.32776 88.1772 9.12821 88.3304C8.92866 88.4882 8.89154 88.7807 9.05396 88.985C9.15141 89.1057 9.29992 89.1661 9.44842 89.1568Z" fill="black"/>
<path d="M2.67771 101.595C2.90046 101.581 3.08609 101.405 3.1093 101.177C3.1325 100.94 3.16034 100.699 3.19283 100.458C3.22995 100.202 3.04897 99.97 2.79837 99.9329C2.54313 99.8957 2.3111 100.077 2.27397 100.328C2.24148 100.578 2.209 100.834 2.1858 101.084C2.16259 101.34 2.34822 101.567 2.60346 101.59C2.6313 101.595 2.65451 101.595 2.67771 101.595Z" fill="black"/>
<path d="M20.8924 121.425C20.6372 121.429 20.4237 121.225 20.4237 120.965C20.4191 120.71 20.6233 120.496 20.8832 120.496C21.3704 120.487 21.867 120.459 22.3589 120.413C22.6141 120.385 22.8415 120.575 22.8647 120.83C22.8879 121.086 22.7023 121.313 22.4471 121.336C22.2336 121.355 22.0201 121.374 21.8067 121.388C21.5004 121.406 21.1941 121.42 20.8924 121.425ZM24.3823 120.575C24.3219 120.324 24.4797 120.074 24.7257 120.018C25.2037 119.906 25.6816 119.767 26.1504 119.619C26.3917 119.54 26.6562 119.67 26.7351 119.916C26.814 120.157 26.684 120.422 26.4381 120.501C25.9462 120.663 25.4403 120.803 24.9391 120.923C24.9113 120.928 24.8881 120.933 24.8602 120.937C24.6421 120.946 24.4333 120.798 24.3823 120.575ZM18.3633 121.285C17.8528 121.22 17.333 121.137 16.8272 121.03C16.5766 120.979 16.4142 120.733 16.4699 120.478C16.5209 120.227 16.7669 120.064 17.0175 120.12C17.5001 120.222 17.992 120.301 18.4746 120.361C18.7299 120.394 18.9109 120.626 18.8784 120.881C18.8505 121.109 18.6649 121.276 18.4468 121.29C18.4236 121.29 18.3957 121.29 18.3633 121.285ZM28.1644 119.331C28.053 119.099 28.1459 118.82 28.3779 118.709C28.8188 118.495 29.255 118.254 29.6773 118.003C29.8954 117.873 30.1831 117.943 30.3131 118.165C30.443 118.384 30.3734 118.671 30.1506 118.801C29.7051 119.066 29.2457 119.317 28.7816 119.544C28.726 119.572 28.6656 119.586 28.6053 119.591C28.4289 119.605 28.2526 119.507 28.1644 119.331ZM14.3955 120.338C13.9082 120.162 13.4256 119.967 12.9522 119.749C12.7202 119.642 12.6181 119.368 12.7248 119.131C12.8315 118.899 13.1053 118.797 13.342 118.904C13.7875 119.108 14.2516 119.298 14.711 119.461C14.9523 119.549 15.0776 119.814 14.9895 120.055C14.9245 120.236 14.7621 120.352 14.5811 120.361C14.5208 120.371 14.4558 120.361 14.3955 120.338ZM10.7293 118.546C10.2931 118.268 9.8615 117.97 9.44847 117.659C9.24428 117.506 9.20252 117.214 9.3603 117.009C9.51344 116.805 9.80581 116.763 10.01 116.921C10.3998 117.218 10.8082 117.501 11.2259 117.766C11.444 117.905 11.5089 118.189 11.3697 118.407C11.2862 118.537 11.1516 118.611 11.0077 118.62C10.9149 118.625 10.8175 118.602 10.7293 118.546ZM7.54114 115.997C7.17453 115.63 6.81719 115.245 6.4877 114.85C6.32064 114.655 6.34848 114.363 6.54339 114.196C6.7383 114.029 7.03067 114.056 7.19773 114.251C7.5133 114.628 7.85207 114.994 8.20012 115.338C8.38111 115.519 8.38111 115.811 8.20012 115.993C8.11659 116.076 8.00985 116.123 7.90312 116.127C7.77318 116.141 7.64324 116.095 7.54114 115.997ZM4.98876 112.812C4.71032 112.376 4.45044 111.921 4.20912 111.461C4.08846 111.234 4.17663 110.955 4.40403 110.834C4.63142 110.714 4.90987 110.802 5.03052 111.029C5.25792 111.466 5.50852 111.898 5.7684 112.311C5.90762 112.529 5.84265 112.812 5.62453 112.951C5.55492 112.993 5.48067 113.016 5.40642 113.021C5.244 113.035 5.08157 112.961 4.98876 112.812ZM3.19281 109.14C3.01646 108.652 2.86332 108.151 2.72874 107.654C2.66377 107.408 2.81227 107.153 3.05823 107.088C3.30418 107.023 3.55942 107.171 3.62439 107.417C3.74969 107.891 3.89819 108.369 4.06526 108.829C4.15343 109.07 4.02813 109.335 3.78682 109.423C3.74505 109.437 3.70328 109.446 3.66152 109.451C3.45733 109.46 3.26242 109.339 3.19281 109.14ZM2.2461 105.17C2.1997 104.794 2.16257 104.409 2.13937 104.028C2.13008 103.889 2.12544 103.754 2.11616 103.615C2.10688 103.359 2.30179 103.136 2.56167 103.132C2.81691 103.123 3.03502 103.322 3.0443 103.578C3.04894 103.708 3.05823 103.838 3.06287 103.968C3.08607 104.33 3.11855 104.692 3.16496 105.054C3.19745 105.309 3.01646 105.541 2.76122 105.574C2.75194 105.574 2.74266 105.574 2.73338 105.579C2.4967 105.593 2.27859 105.416 2.2461 105.17Z" fill="black"/>
<path d="M31.9837 117.45C32.0765 117.446 32.1693 117.413 32.2436 117.348C32.4385 117.19 32.638 117.028 32.8283 116.861C33.0232 116.694 33.0418 116.396 32.8747 116.206C32.7076 116.011 32.4153 115.992 32.2204 116.16C32.0394 116.317 31.8537 116.475 31.6681 116.624C31.4686 116.786 31.4361 117.079 31.5985 117.279C31.6913 117.404 31.8352 117.46 31.9837 117.45Z" fill="black"/>
<path d="M32.8608 109.539C32.9165 109.465 32.9165 109.363 32.8608 109.288L31.3294 107.134C31.7981 105.992 32.0904 104.771 32.174 103.503L34.4943 102.245C34.5778 102.199 34.6196 102.11 34.6057 102.018L34.0859 98.8929C34.072 98.8 33.9978 98.7304 33.9096 98.7165L31.3061 98.2754C30.8189 97.1054 30.146 96.0375 29.3338 95.109L30.0856 92.5786C30.1135 92.4904 30.081 92.3929 30.0021 92.3418L27.4265 90.4986C27.3523 90.4429 27.2502 90.4429 27.1759 90.4986L25.0226 92.0307C23.881 91.5618 22.6605 91.2693 21.3936 91.1857L20.136 88.8643C20.0896 88.7807 20.0014 88.739 19.9086 88.7529L16.7854 89.2729C16.6926 89.2868 16.623 89.3611 16.609 89.4493L16.1682 92.054C14.9987 92.5415 13.9314 93.2147 13.0032 94.0272L10.474 93.275C10.3859 93.2472 10.2884 93.2797 10.2374 93.3586L8.395 95.9354C8.33931 96.0097 8.33931 96.1118 8.395 96.1861L9.92643 98.3404C9.45772 99.4825 9.16536 100.704 9.08183 101.971L6.76148 103.229C6.67794 103.271 6.63618 103.364 6.6501 103.457L7.16986 106.581C7.18378 106.674 7.25803 106.744 7.3462 106.758L9.94964 107.199C10.4369 108.369 11.1098 109.437 11.9219 110.365L11.1701 112.896C11.1423 112.984 11.1748 113.081 11.2537 113.133L13.8293 114.976C13.9035 115.031 14.0056 115.031 14.0799 114.976L16.2331 113.444C17.3748 113.913 18.5953 114.205 19.8622 114.289L21.1198 116.61C21.1662 116.694 21.2544 116.735 21.3472 116.721L24.4704 116.201C24.5632 116.188 24.6328 116.113 24.6467 116.025L25.0876 113.42C26.2571 112.933 27.3244 112.26 28.2526 111.447L30.7817 112.199C30.8699 112.227 30.9674 112.195 31.0184 112.116L32.8608 109.539Z" fill="url(#paint0_linear_50_1234)"/>
<path opacity="0.56" d="M20.3633 105.904C18.6138 105.76 17.3097 104.214 17.4536 102.463C17.5232 101.614 17.9223 100.848 18.5674 100.295C19.2171 99.7472 20.0385 99.4826 20.8877 99.5522C22.6373 99.6961 23.9413 101.242 23.7974 102.993C23.6629 104.585 22.3774 105.811 20.8274 105.908C20.6789 105.918 20.5211 105.918 20.3633 105.904ZM19.05 100.866C18.5534 101.289 18.2472 101.878 18.1961 102.528C18.0847 103.87 19.0871 105.054 20.4283 105.165C21.7694 105.277 22.9528 104.274 23.0642 102.932C23.1756 101.59 22.1732 100.406 20.832 100.295C20.7114 100.286 20.5907 100.286 20.4701 100.29C19.9457 100.323 19.4537 100.523 19.05 100.866Z" fill="white"/>
<path opacity="0.56" d="M21.0548 110.505C21.3194 110.486 21.5885 110.458 21.853 110.412C21.9366 110.398 22.0201 110.384 22.1036 110.365C22.5167 110.282 22.9204 110.17 23.3102 110.022C23.3149 110.022 23.3195 110.017 23.3241 110.017C23.3381 110.013 23.352 110.008 23.3705 109.999C23.3984 109.989 23.4309 109.975 23.4587 109.966C23.5376 109.934 23.5794 109.859 23.5747 109.78C23.5747 109.762 23.5701 109.743 23.5608 109.725C23.5237 109.627 23.417 109.581 23.3195 109.623C22.8276 109.818 22.3125 109.961 21.7881 110.045C19.18 110.477 16.6601 109.497 15.0126 107.659C14.0984 106.637 13.4487 105.356 13.212 103.903C13.1703 103.647 13.1424 103.392 13.1239 103.141C13.0171 101.433 13.4951 99.7518 14.5022 98.3404C15.6623 96.72 17.384 95.6475 19.3471 95.3225C23.4077 94.6493 27.2502 97.4025 27.9231 101.46C27.9648 101.711 27.9927 101.962 28.0112 102.213C28.0809 103.304 27.9092 104.395 27.5101 105.411C27.5008 105.439 27.4961 105.467 27.4961 105.49C27.5008 105.56 27.5425 105.625 27.6121 105.653C27.7096 105.69 27.8163 105.644 27.8535 105.546C28.2758 104.478 28.4521 103.331 28.3825 102.189C28.3639 101.925 28.3361 101.66 28.2943 101.4C27.5889 97.1379 23.5469 94.2454 19.2914 94.9557C17.2263 95.2993 15.421 96.4229 14.2052 98.1268C13.1471 99.6079 12.6412 101.372 12.7573 103.164C12.7758 103.429 12.8037 103.698 12.8501 103.963C13.1935 106.029 14.3165 107.835 16.0197 109.051C17.5001 110.115 19.2635 110.621 21.0548 110.505Z" fill="white"/>
<path d="M55.3311 115.31C55.4564 115.301 55.5632 115.213 55.591 115.087C55.6467 114.85 55.6931 114.609 55.7302 114.368C55.7581 114.21 55.6513 114.066 55.4936 114.038C55.3358 114.01 55.1919 114.117 55.1641 114.275C55.1269 114.502 55.0805 114.734 55.0295 114.962C54.9924 115.115 55.0898 115.268 55.2476 115.305C55.2754 115.31 55.3033 115.31 55.3311 115.31Z" fill="black"/>
<path d="M55.5864 113.123C55.4286 113.119 55.3033 112.984 55.3126 112.826C55.3265 112.427 55.3218 112.023 55.2986 111.624C55.294 111.54 55.2847 111.456 55.2801 111.368C55.2662 111.21 55.3822 111.071 55.54 111.057C55.6885 111.053 55.837 111.159 55.8509 111.317C55.8602 111.405 55.8648 111.494 55.8695 111.582C55.8973 112 55.9019 112.427 55.8834 112.845C55.8787 112.993 55.7581 113.109 55.6142 113.119C55.6049 113.123 55.5957 113.123 55.5864 113.123ZM55.0666 109.924C54.9692 109.451 54.8392 108.977 54.6814 108.518C54.6304 108.369 54.7093 108.206 54.8578 108.155C55.0063 108.104 55.1687 108.183 55.2198 108.332C55.3822 108.81 55.5214 109.307 55.6235 109.804C55.656 109.957 55.5585 110.11 55.4007 110.143C55.3868 110.147 55.3729 110.147 55.359 110.147C55.2244 110.161 55.0945 110.068 55.0666 109.924ZM54.1246 107.176C53.9111 106.739 53.6698 106.312 53.4052 105.908C53.3171 105.774 53.3542 105.597 53.4888 105.514C53.6234 105.425 53.7997 105.463 53.8879 105.597C54.1663 106.024 54.4169 106.47 54.6397 106.925C54.7093 107.069 54.6489 107.241 54.5097 107.31C54.4772 107.329 54.4401 107.338 54.403 107.338C54.287 107.343 54.1756 107.283 54.1246 107.176ZM52.5374 104.738C52.2265 104.367 51.8877 104.014 51.5304 103.684C51.4144 103.578 51.4051 103.396 51.5165 103.28C51.6232 103.164 51.8042 103.155 51.9202 103.266C52.2915 103.61 52.6488 103.981 52.9737 104.371C53.0757 104.492 53.0618 104.673 52.9412 104.775C52.8901 104.817 52.8344 104.84 52.7741 104.84C52.6859 104.845 52.5978 104.813 52.5374 104.738ZM50.4027 102.765C50.0082 102.482 49.5952 102.222 49.1729 101.99C49.0337 101.915 48.9826 101.739 49.0615 101.6C49.1358 101.46 49.3121 101.409 49.4514 101.488C49.8969 101.73 50.3285 102.004 50.7415 102.301C50.8714 102.394 50.8993 102.575 50.8064 102.7C50.7554 102.774 50.6765 102.811 50.593 102.821C50.5234 102.821 50.4584 102.807 50.4027 102.765ZM47.855 101.368C47.4048 101.191 46.9407 101.038 46.472 100.917C46.3189 100.875 46.2261 100.722 46.2678 100.569C46.3096 100.416 46.4627 100.323 46.6159 100.365C47.1078 100.49 47.5951 100.653 48.0638 100.838C48.2123 100.899 48.2819 101.066 48.2262 101.21C48.1844 101.316 48.087 101.381 47.9756 101.391C47.9385 101.391 47.8967 101.386 47.855 101.368ZM45.0427 100.639C44.5647 100.578 44.0774 100.541 43.5902 100.541C43.4324 100.541 43.3024 100.411 43.3071 100.253C43.3071 100.095 43.437 99.97 43.5948 99.97C44.1053 99.9747 44.6157 100.007 45.1169 100.072C45.2747 100.091 45.3861 100.235 45.3629 100.393C45.3443 100.532 45.233 100.634 45.0984 100.643C45.0798 100.643 45.0613 100.639 45.0427 100.639ZM40.3556 100.666C40.3185 100.513 40.4113 100.355 40.5644 100.318C40.9914 100.216 41.4276 100.133 41.8685 100.072C41.9334 100.063 42.003 100.054 42.068 100.049C42.2258 100.026 42.3696 100.142 42.3836 100.3C42.4021 100.458 42.2908 100.601 42.133 100.615C42.0726 100.625 42.0077 100.629 41.9427 100.639C41.525 100.694 41.1027 100.773 40.699 100.871C40.6804 100.875 40.6665 100.875 40.6479 100.88C40.518 100.894 40.3881 100.806 40.3556 100.666Z" fill="black"/>
<path d="M44.1191 124.73C43.6179 124.754 43.1167 124.749 42.6202 124.716C42.4624 124.707 42.3417 124.568 42.3557 124.41C42.3649 124.252 42.5042 124.136 42.662 124.145C43.1353 124.178 43.6179 124.183 44.0913 124.159C44.2491 124.15 44.3837 124.275 44.3929 124.433C44.3976 124.586 44.2816 124.721 44.1191 124.73ZM45.2793 124.331C45.2515 124.173 45.3582 124.025 45.5113 124.001C45.9801 123.923 46.4488 123.811 46.9082 123.672C47.0613 123.625 47.2191 123.714 47.2655 123.867C47.3119 124.02 47.2238 124.178 47.0753 124.224C46.5973 124.368 46.1054 124.484 45.6134 124.568C45.6042 124.568 45.5949 124.573 45.581 124.573C45.4371 124.582 45.3072 124.48 45.2793 124.331ZM41.1305 124.521C40.6386 124.424 40.1513 124.299 39.678 124.145C39.5295 124.094 39.4459 123.936 39.4924 123.783C39.5434 123.635 39.7012 123.551 39.8543 123.598C40.3045 123.746 40.7732 123.867 41.2419 123.96C41.395 123.992 41.4971 124.141 41.4693 124.294C41.4414 124.424 41.3347 124.517 41.2048 124.526C41.1769 124.526 41.1537 124.526 41.1305 124.521ZM48.1055 123.56C48.0405 123.416 48.1101 123.245 48.254 123.184C48.6902 122.994 49.1172 122.771 49.5302 122.53C49.6648 122.451 49.8411 122.493 49.9247 122.632C50.0035 122.766 49.9618 122.943 49.8226 123.026C49.3956 123.282 48.9455 123.514 48.486 123.714C48.4536 123.728 48.4211 123.737 48.3886 123.737C48.2726 123.737 48.1565 123.672 48.1055 123.56ZM38.2811 123.593C37.831 123.384 37.3855 123.143 36.9632 122.878C36.8286 122.794 36.7868 122.618 36.8704 122.483C36.9539 122.349 37.1302 122.307 37.2648 122.39C37.6686 122.641 38.0909 122.873 38.5224 123.073C38.6663 123.138 38.7266 123.31 38.6617 123.454C38.6153 123.551 38.5224 123.611 38.4204 123.621C38.3739 123.621 38.3275 123.611 38.2811 123.593ZM35.738 122.005C35.3482 121.689 34.977 121.35 34.6289 120.993C34.5175 120.881 34.5222 120.696 34.6335 120.589C34.7449 120.478 34.9305 120.482 35.0373 120.594C35.3668 120.933 35.7241 121.258 36.0954 121.559C36.2207 121.657 36.2392 121.838 36.1371 121.963C36.0861 122.028 36.0072 122.065 35.9329 122.07C35.868 122.075 35.7937 122.051 35.738 122.005ZM33.6451 119.855C33.3434 119.456 33.0603 119.038 32.8097 118.606C32.7309 118.472 32.7773 118.295 32.9118 118.212C33.0464 118.133 33.2228 118.179 33.3063 118.314C33.5476 118.723 33.8121 119.126 34.1045 119.503C34.202 119.628 34.1741 119.809 34.0488 119.906C34.0024 119.944 33.9467 119.962 33.8957 119.967C33.7982 119.971 33.7054 119.934 33.6451 119.855Z" fill="black"/>
<path d="M50.9177 122.228C50.9734 122.223 51.0291 122.205 51.0755 122.168C51.2704 122.019 51.4607 121.861 51.6417 121.703C51.7623 121.601 51.7716 121.42 51.6695 121.299C51.5674 121.179 51.3864 121.169 51.2658 121.271C51.0941 121.425 50.9084 121.573 50.7275 121.717C50.6022 121.815 50.579 121.996 50.6764 122.121C50.7321 122.195 50.8249 122.233 50.9177 122.228Z" fill="black"/>
<path d="M51.6789 116.819C51.716 116.768 51.716 116.703 51.6789 116.652L50.6533 115.213C50.9688 114.451 51.1637 113.629 51.2194 112.784L52.7741 111.944C52.8298 111.916 52.8576 111.856 52.8483 111.791L52.5003 109.697C52.491 109.636 52.4446 109.585 52.3796 109.576L50.6393 109.279C50.3145 108.494 49.8644 107.784 49.3214 107.162L49.8272 105.467C49.8458 105.407 49.8226 105.342 49.7715 105.309L48.0498 104.074C47.9988 104.037 47.9338 104.037 47.8828 104.074L46.4442 105.1C45.6831 104.785 44.8617 104.59 44.0171 104.534L43.1771 102.979C43.1493 102.923 43.0889 102.895 43.024 102.904L40.931 103.253C40.8707 103.262 40.8243 103.308 40.8103 103.373L40.5133 105.114C39.7291 105.439 39.019 105.89 38.3972 106.433L36.7033 105.927C36.643 105.908 36.578 105.931 36.5455 105.983L35.3111 107.705C35.274 107.756 35.274 107.821 35.3111 107.872L36.3367 109.311C36.0211 110.073 35.8262 110.895 35.7705 111.74L34.2159 112.58C34.1602 112.608 34.1324 112.668 34.1417 112.733L34.4897 114.827C34.499 114.888 34.5454 114.934 34.6104 114.948L36.3506 115.245C36.6755 116.03 37.1256 116.74 37.6686 117.362L37.1627 119.057C37.1442 119.117 37.1674 119.182 37.2184 119.215L38.9401 120.45C38.9912 120.487 39.0562 120.487 39.1072 120.45L40.5458 119.424C41.3069 119.739 42.1283 119.934 42.9729 119.99L43.8129 121.545C43.8407 121.601 43.901 121.629 43.966 121.62L46.059 121.271C46.1193 121.262 46.1704 121.216 46.1796 121.151L46.4766 119.41C47.2609 119.085 47.9709 118.634 48.5928 118.091L50.2867 118.597C50.347 118.616 50.412 118.593 50.4444 118.541L51.6789 116.819Z" fill="url(#paint1_linear_50_1234)"/>
<path d="M51.6789 116.819C51.716 116.768 51.716 116.703 51.6789 116.652L50.6533 115.213C50.9688 114.451 51.1637 113.629 51.2194 112.784L52.7741 111.944C52.8298 111.916 52.8576 111.856 52.8483 111.791L52.5003 109.697C52.491 109.636 52.4446 109.585 52.3796 109.576L50.6393 109.279C50.3145 108.494 49.8644 107.784 49.3214 107.162L49.8272 105.467C49.8458 105.407 49.8226 105.342 49.7715 105.309L48.0498 104.074C47.9988 104.037 47.9338 104.037 47.8828 104.074L46.4442 105.1C45.6831 104.785 44.8617 104.59 44.0171 104.534L43.1771 102.979C43.1493 102.923 43.0889 102.895 43.024 102.904L40.931 103.253C40.8707 103.262 40.8243 103.308 40.8103 103.373L40.5133 105.114C39.7291 105.439 39.019 105.89 38.3972 106.433L36.7033 105.927C36.643 105.908 36.578 105.931 36.5455 105.983L35.3111 107.705C35.274 107.756 35.274 107.821 35.3111 107.872L36.3367 109.311C36.0211 110.073 35.8262 110.895 35.7705 111.74L34.2159 112.58C34.1602 112.608 34.1324 112.668 34.1417 112.733L34.4897 114.827C34.499 114.888 34.5454 114.934 34.6104 114.948L36.3506 115.245C36.6755 116.03 37.1256 116.74 37.6686 117.362L37.1627 119.057C37.1442 119.117 37.1674 119.182 37.2184 119.215L38.9401 120.45C38.9912 120.487 39.0562 120.487 39.1072 120.45L40.5458 119.424C41.3069 119.739 42.1283 119.934 42.9729 119.99L43.8129 121.545C43.8407 121.601 43.901 121.629 43.966 121.62L46.059 121.271C46.1193 121.262 46.1704 121.216 46.1796 121.151L46.4766 119.41C47.2609 119.085 47.9709 118.634 48.5928 118.091L50.2867 118.597C50.347 118.616 50.412 118.593 50.4444 118.541L51.6789 116.819Z" fill="url(#paint2_linear_50_1234)"/>
<path opacity="0.56" d="M43.3117 114.423C42.7363 114.377 42.2119 114.108 41.836 113.662C41.4601 113.221 41.2837 112.659 41.3302 112.079C41.4276 110.885 42.4764 109.999 43.6691 110.096C44.8617 110.194 45.7481 111.248 45.6506 112.436C45.6042 113.012 45.3351 113.536 44.8896 113.913C44.5322 114.219 44.0914 114.391 43.6319 114.423C43.5298 114.437 43.4231 114.433 43.3117 114.423ZM41.901 112.13C41.8638 112.557 41.9984 112.97 42.2722 113.295C42.546 113.62 42.9312 113.82 43.3581 113.852C43.7851 113.885 44.1981 113.755 44.523 113.481C44.8478 113.207 45.0474 112.821 45.0798 112.394C45.1541 111.517 44.4998 110.746 43.6227 110.672C43.5438 110.667 43.4649 110.663 43.3906 110.672C42.6156 110.718 41.9706 111.331 41.901 112.13Z" fill="white"/>
<path opacity="0.56" d="M43.799 117.627C43.98 117.618 44.161 117.594 44.3466 117.566C44.7086 117.506 45.0659 117.409 45.4093 117.279C45.4232 117.274 45.4418 117.265 45.4557 117.26C45.5764 117.214 45.646 117.098 45.6367 116.977C45.6367 116.949 45.6274 116.917 45.6181 116.889C45.5578 116.74 45.3954 116.67 45.2469 116.726C44.9267 116.852 44.5972 116.944 44.2584 117C44.2399 117.005 44.2213 117.005 44.2027 117.009C43.3999 117.135 42.5924 117.056 41.8499 116.786C41.4461 116.643 41.0563 116.443 40.6944 116.188C40.6897 116.188 40.6897 116.183 40.6851 116.183C40.6758 116.178 40.6665 116.169 40.6572 116.164C39.6084 115.412 38.9123 114.298 38.7035 113.026C38.6756 112.863 38.6571 112.696 38.6478 112.534C38.5782 111.429 38.8891 110.342 39.5388 109.428C40.2906 108.378 41.4044 107.687 42.6759 107.473C43.9475 107.264 45.2283 107.561 46.2771 108.309C47.3259 109.061 48.022 110.175 48.2309 111.447C48.2587 111.61 48.2773 111.772 48.2865 111.935C48.333 112.64 48.2216 113.346 47.9617 114.005C47.9478 114.047 47.9385 114.089 47.9431 114.131C47.9478 114.238 48.0174 114.34 48.1241 114.382C48.2726 114.437 48.4397 114.368 48.4954 114.219C48.7877 113.481 48.9084 112.691 48.8574 111.902C48.8481 111.721 48.8249 111.54 48.797 111.359C48.5603 109.934 47.7853 108.689 46.6113 107.849C45.4372 107.009 44.0078 106.674 42.5831 106.911C41.1584 107.148 39.9147 107.923 39.0747 109.098C38.3415 110.119 37.9981 111.336 38.077 112.575C38.0909 112.761 38.1095 112.942 38.142 113.128C38.5875 115.877 41.0656 117.799 43.799 117.627Z" fill="white"/>
<path d="M94.3734 32.3236C94.5497 32.1379 94.8467 32.1332 95.0277 32.3097C95.385 32.6532 95.7656 32.9922 96.1554 33.3079C96.3503 33.4657 96.3828 33.7536 96.2297 33.9532C96.2297 33.9579 96.225 33.9579 96.225 33.9625C96.0626 34.1622 95.7702 34.19 95.5707 34.0322C95.1623 33.6979 94.7632 33.345 94.3827 32.9829C94.211 32.8157 94.1924 32.5464 94.3363 32.3654C94.3548 32.3514 94.3641 32.3375 94.3734 32.3236ZM98.1556 34.7147C98.5825 34.9747 99.028 35.2161 99.4735 35.4389C99.7009 35.5504 99.7984 35.8289 99.6823 36.0611C99.5663 36.2932 99.2879 36.3861 99.0605 36.27C98.5918 36.0379 98.1231 35.7825 97.6729 35.5086C97.4548 35.3739 97.3852 35.0907 97.5151 34.8725C97.5244 34.8586 97.5337 34.84 97.5476 34.8261C97.6915 34.645 97.9514 34.5939 98.1556 34.7147ZM101.734 36.3675C102.207 36.5254 102.694 36.6647 103.181 36.7807C103.432 36.8411 103.585 37.0918 103.525 37.3425C103.465 37.5932 103.214 37.7464 102.963 37.6861C102.453 37.5654 101.938 37.4168 101.441 37.2543C101.2 37.1754 101.065 36.9107 101.149 36.6693C101.167 36.6182 101.191 36.5718 101.223 36.53C101.339 36.3722 101.543 36.3072 101.734 36.3675ZM105.59 37.18C106.087 37.2264 106.592 37.2543 107.094 37.2589C107.349 37.2636 107.558 37.4725 107.553 37.7279C107.548 37.9832 107.34 38.1922 107.084 38.1875C106.56 38.1829 106.026 38.155 105.502 38.1039C105.247 38.0807 105.061 37.8532 105.084 37.5979C105.093 37.505 105.126 37.4261 105.182 37.3564C105.274 37.2357 105.428 37.1661 105.59 37.18ZM109.53 37.1104C110.026 37.0454 110.523 36.9618 111.01 36.855C111.261 36.7993 111.507 36.9618 111.563 37.2125C111.618 37.4632 111.456 37.7093 111.205 37.765C110.69 37.8764 110.166 37.9693 109.646 38.0343C109.391 38.0668 109.159 37.8857 109.126 37.635C109.108 37.505 109.145 37.3843 109.219 37.2914C109.298 37.1939 109.405 37.1289 109.53 37.1104ZM113.358 36.1725C113.827 36.0007 114.296 35.8057 114.746 35.5922C114.978 35.4854 115.257 35.5829 115.363 35.815C115.47 36.0472 115.373 36.3257 115.141 36.4325C114.663 36.6554 114.171 36.8597 113.679 37.0407C113.437 37.1289 113.173 37.0036 113.085 36.7668C113.029 36.6089 113.061 36.4418 113.154 36.3211C113.205 36.2561 113.275 36.2004 113.358 36.1725ZM124.96 23.4139C125.211 23.4743 125.364 23.725 125.304 23.9757C125.183 24.4864 125.034 24.9972 124.867 25.4986C124.789 25.74 124.524 25.8747 124.278 25.7911C124.037 25.7122 123.902 25.4475 123.986 25.2014C124.143 24.7279 124.283 24.2404 124.399 23.7529C124.413 23.6879 124.445 23.6275 124.482 23.5764C124.594 23.4418 124.775 23.3675 124.96 23.4139ZM116.881 34.4082C117.298 34.1343 117.711 33.8418 118.106 33.5354C118.31 33.3775 118.598 33.4147 118.756 33.6143C118.913 33.8186 118.876 34.1064 118.677 34.2643C118.264 34.5893 117.827 34.8957 117.387 35.1836C117.173 35.3229 116.885 35.2625 116.746 35.0489C116.635 34.8772 116.649 34.6636 116.769 34.5104C116.797 34.4732 116.834 34.4361 116.881 34.4082ZM123.675 27.2536C123.902 27.3697 124 27.6482 123.884 27.8757C123.652 28.3447 123.392 28.8136 123.118 29.2639C122.983 29.4822 122.7 29.5518 122.482 29.4172C122.264 29.2825 122.194 28.9993 122.329 28.7811C122.589 28.3539 122.835 27.9082 123.058 27.4625C123.071 27.4347 123.09 27.4068 123.109 27.3836C123.234 27.2118 123.475 27.1514 123.675 27.2536ZM119.916 31.9011C120.264 31.5436 120.598 31.1629 120.914 30.7775C121.076 30.5779 121.368 30.55 121.568 30.7125C121.763 30.8704 121.795 31.1582 121.642 31.3579C121.642 31.3625 121.638 31.3625 121.638 31.3672C121.303 31.7757 120.951 32.175 120.589 32.5511C120.412 32.7368 120.115 32.7414 119.934 32.5604C119.763 32.3932 119.749 32.1239 119.893 31.9429C119.897 31.9243 119.907 31.915 119.916 31.9011Z" fill="black"/>
<path d="M124.956 20.3497C124.9 20.424 124.863 20.5122 124.858 20.6097C124.844 20.8511 124.826 21.0925 124.802 21.3293C124.779 21.5847 124.965 21.8122 125.22 21.8354C125.475 21.8586 125.703 21.6729 125.726 21.4175C125.749 21.1668 125.768 20.9115 125.782 20.6561C125.796 20.4007 125.601 20.1825 125.345 20.1686C125.188 20.164 125.044 20.2382 124.956 20.3497Z" fill="black"/>
<path d="M120.148 7.03396C120.009 7.21039 120.018 7.46575 120.176 7.63753C120.338 7.81396 120.501 7.99503 120.658 8.17611C120.825 8.37111 121.118 8.39432 121.313 8.22718C121.508 8.06003 121.531 7.76753 121.364 7.57253C121.197 7.38218 121.03 7.18718 120.858 7.0061C120.681 6.82039 120.389 6.80646 120.204 6.98289C120.18 6.99682 120.162 7.01539 120.148 7.03396Z" fill="black"/>
<path d="M93.2364 7.5029C93.4034 7.3079 93.6958 7.28468 93.8907 7.45647C94.0856 7.62361 94.1042 7.91611 93.9371 8.11111C93.6169 8.48254 93.3106 8.87254 93.0183 9.27182C92.8698 9.48075 92.5774 9.52718 92.3686 9.37397C92.1597 9.2254 92.1133 8.9329 92.2665 8.72397C92.3918 8.54754 92.5217 8.3804 92.6517 8.20861C92.8419 7.97183 93.0368 7.73504 93.2364 7.5029ZM91.5518 10.6786C91.7792 10.7993 91.8627 11.0825 91.7421 11.3054C91.51 11.7372 91.2919 12.1875 91.097 12.6379C90.9949 12.8747 90.7211 12.9815 90.4844 12.8793C90.2478 12.7772 90.141 12.5033 90.2431 12.2665C90.4473 11.7929 90.6794 11.3193 90.9207 10.8643C90.9346 10.8411 90.9485 10.8179 90.9624 10.7993C91.1017 10.6275 91.3523 10.5718 91.5518 10.6786ZM95.0138 5.70611C95.3989 5.36254 95.8073 5.0329 96.225 4.72647C96.4292 4.57325 96.7215 4.61504 96.8747 4.82397C97.0278 5.02825 96.9861 5.32075 96.7772 5.47397C96.3828 5.76647 95.993 6.08218 95.6263 6.40254C95.4361 6.57433 95.1391 6.55575 94.972 6.36075C94.8235 6.18897 94.8189 5.9429 94.9534 5.76647C94.972 5.7479 94.9906 5.72468 95.0138 5.70611ZM89.9693 14.3372C90.2153 14.4068 90.3591 14.6622 90.2942 14.9083C90.1642 15.3818 90.0482 15.8647 89.96 16.3475C89.9136 16.5983 89.6677 16.7654 89.4171 16.719C89.1665 16.6725 88.9994 16.4265 89.0458 16.1758C89.1433 15.665 89.2593 15.1543 89.3985 14.6575C89.4171 14.5972 89.4449 14.5415 89.4774 14.495C89.5934 14.3558 89.7837 14.2861 89.9693 14.3372ZM98.3551 3.36147C98.8099 3.1154 99.2786 2.88325 99.7519 2.67433C99.9886 2.57218 100.262 2.67433 100.364 2.91111C100.467 3.1479 100.365 3.42183 100.128 3.52397C99.6777 3.72361 99.2322 3.94183 98.8006 4.17861C98.5778 4.30397 98.2947 4.2204 98.1694 3.9929C98.0766 3.82575 98.0998 3.62611 98.2112 3.48218C98.2483 3.43575 98.2994 3.39397 98.3551 3.36147ZM102.128 1.81075C102.625 1.66683 103.135 1.54147 103.641 1.44397C103.891 1.3929 104.137 1.5554 104.188 1.81075C104.239 2.06147 104.077 2.30754 103.822 2.35861C103.339 2.45611 102.857 2.57218 102.383 2.70683C102.137 2.77647 101.877 2.63718 101.808 2.39111C101.766 2.24254 101.798 2.08933 101.887 1.9779C101.952 1.89433 102.031 1.83861 102.128 1.81075ZM106.151 1.11433C106.667 1.08183 107.191 1.07254 107.711 1.08647C107.966 1.09111 108.17 1.30468 108.166 1.56004C108.161 1.8154 107.947 2.01968 107.692 2.01504C107.2 2.00575 106.704 2.01504 106.212 2.0429C105.957 2.05683 105.734 1.86183 105.72 1.60647C105.711 1.4904 105.748 1.37897 105.817 1.29075C105.892 1.19325 106.012 1.12361 106.151 1.11433ZM110.226 1.31397C110.736 1.39754 111.252 1.49968 111.753 1.62504C112.003 1.6854 112.152 1.94075 112.092 2.18683C112.031 2.43754 111.776 2.58611 111.53 2.52575C111.052 2.40504 110.565 2.30754 110.082 2.22861C109.827 2.18683 109.655 1.95004 109.697 1.69468C109.711 1.61575 109.743 1.54147 109.79 1.48111C109.887 1.3604 110.054 1.28611 110.226 1.31397ZM114.166 2.40968C114.644 2.60004 115.122 2.81825 115.586 3.0504C115.813 3.16647 115.906 3.44504 115.79 3.67254C115.674 3.90004 115.396 3.9929 115.168 3.87683C114.727 3.65397 114.277 3.44968 113.823 3.26861C113.586 3.17111 113.47 2.90183 113.563 2.66504C113.581 2.62325 113.6 2.58611 113.628 2.55361C113.748 2.39575 113.966 2.33075 114.166 2.40968ZM117.758 4.33647C118.073 4.55004 118.384 4.77754 118.681 5.01433C118.788 5.0979 118.895 5.18611 119.002 5.26968C119.201 5.43218 119.234 5.72468 119.067 5.92433C118.904 6.12397 118.612 6.15183 118.412 5.98933C118.31 5.90575 118.208 5.82683 118.106 5.74325C117.823 5.5204 117.526 5.30683 117.229 5.0979C117.015 4.95397 116.964 4.66147 117.108 4.45254C117.113 4.44325 117.117 4.43861 117.127 4.42933C117.28 4.24361 117.558 4.19718 117.758 4.33647Z" fill="black"/>
<path d="M88.8462 18.4415C88.7906 18.5158 88.7534 18.604 88.7488 18.7015C88.7349 18.9522 88.7302 19.2076 88.7256 19.4629C88.7256 19.7183 88.9298 19.9272 89.185 19.9318C89.4403 19.9318 89.6491 19.7276 89.6537 19.4722C89.6537 19.2308 89.663 18.9893 89.6723 18.7479C89.6862 18.4926 89.4867 18.2743 89.2314 18.2604C89.0783 18.2558 88.9344 18.3254 88.8462 18.4415Z" fill="black"/>
<path d="M94.1784 24.3472C94.1969 24.4354 94.2758 24.505 94.3686 24.5143L96.9953 24.7975C97.5382 25.9072 98.2575 26.9379 99.1486 27.8386L98.5499 30.4108C98.5267 30.499 98.5685 30.5965 98.6474 30.6429L101.33 32.3283C101.409 32.3793 101.511 32.37 101.58 32.3143L103.636 30.6615C104.838 31.0747 106.077 31.279 107.312 31.2883L108.704 33.5308C108.755 33.6097 108.848 33.6468 108.936 33.6283L112.027 32.9225C112.115 32.904 112.184 32.825 112.194 32.7322L112.477 30.1043C113.586 29.5611 114.616 28.8415 115.516 27.95L118.087 28.549C118.175 28.5722 118.273 28.5304 118.319 28.4515L120.004 25.7679C120.055 25.689 120.046 25.5868 119.99 25.5172L118.338 23.4604C118.751 22.2579 118.955 21.0183 118.96 19.7833L121.201 18.3904C121.28 18.3393 121.317 18.2465 121.299 18.1583L120.593 15.0661C120.575 14.9779 120.496 14.9083 120.403 14.899L117.776 14.6158C117.233 13.5061 116.514 12.4754 115.623 11.5747L116.222 9.00254C116.245 8.91433 116.203 8.81683 116.124 8.7704L113.442 7.08504C113.363 7.03397 113.261 7.04326 113.191 7.09897L111.135 8.75183C109.934 8.33862 108.694 8.13433 107.46 8.12504L106.068 5.88254C106.017 5.80362 105.924 5.76647 105.836 5.78504L102.745 6.49076C102.657 6.50933 102.587 6.58826 102.578 6.68112L102.295 9.30897C101.186 9.85219 100.156 10.5718 99.2553 11.4633L96.6843 10.8643C96.5962 10.8411 96.4987 10.8829 96.4523 10.9618L94.7677 13.6454C94.7167 13.7243 94.726 13.8265 94.7817 13.8961L96.4337 15.9529C96.0207 17.1554 95.8165 18.395 95.8119 19.63L93.5704 21.0229C93.4915 21.074 93.4544 21.1668 93.473 21.255L94.1784 24.3472Z" fill="url(#paint3_linear_50_1234)"/>
<path d="M94.1784 24.3472C94.1969 24.4354 94.2758 24.505 94.3686 24.5143L96.9953 24.7975C97.5382 25.9072 98.2575 26.9379 99.1486 27.8386L98.5499 30.4108C98.5267 30.499 98.5685 30.5965 98.6474 30.6429L101.33 32.3283C101.409 32.3793 101.511 32.37 101.58 32.3143L103.636 30.6615C104.838 31.0747 106.077 31.279 107.312 31.2883L108.704 33.5308C108.755 33.6097 108.848 33.6468 108.936 33.6283L112.027 32.9225C112.115 32.904 112.184 32.825 112.194 32.7322L112.477 30.1043C113.586 29.5611 114.616 28.8415 115.516 27.95L118.087 28.549C118.175 28.5722 118.273 28.5304 118.319 28.4515L120.004 25.7679C120.055 25.689 120.046 25.5868 119.99 25.5172L118.338 23.4604C118.751 22.2579 118.955 21.0183 118.96 19.7833L121.201 18.3904C121.28 18.3393 121.317 18.2465 121.299 18.1583L120.593 15.0661C120.575 14.9779 120.496 14.9083 120.403 14.899L117.776 14.6158C117.233 13.5061 116.514 12.4754 115.623 11.5747L116.222 9.00254C116.245 8.91433 116.203 8.81683 116.124 8.7704L113.442 7.08504C113.363 7.03397 113.261 7.04326 113.191 7.09897L111.135 8.75183C109.934 8.33862 108.694 8.13433 107.46 8.12504L106.068 5.88254C106.017 5.80362 105.924 5.76647 105.836 5.78504L102.745 6.49076C102.657 6.50933 102.587 6.58826 102.578 6.68112L102.295 9.30897C101.186 9.85219 100.156 10.5718 99.2553 11.4633L96.6843 10.8643C96.5962 10.8411 96.4987 10.8829 96.4523 10.9618L94.7677 13.6454C94.7167 13.7243 94.726 13.8265 94.7817 13.8961L96.4337 15.9529C96.0207 17.1554 95.8165 18.395 95.8119 19.63L93.5704 21.0229C93.4915 21.074 93.4544 21.1668 93.473 21.255L94.1784 24.3472Z" fill="url(#paint4_linear_50_1234)"/>
<path opacity="0.56" d="M105.191 17.4061C106.462 16.1943 108.481 16.2408 109.692 17.5129C110.282 18.1304 110.593 18.9336 110.574 19.7879C110.555 20.6376 110.203 21.4315 109.59 22.0165C108.319 23.2283 106.3 23.1818 105.089 21.9143C103.984 20.7583 103.924 18.9801 104.88 17.759C104.973 17.6336 105.075 17.5176 105.191 17.4061ZM109.827 19.7693C109.841 19.1193 109.604 18.4972 109.154 18.0283C108.226 17.0533 106.676 17.0161 105.701 17.9493C104.727 18.8779 104.69 20.4286 105.622 21.4036C106.55 22.3786 108.1 22.4158 109.075 21.4826C109.163 21.399 109.242 21.3108 109.316 21.2133C109.637 20.8001 109.818 20.2986 109.827 19.7693Z" fill="white"/>
<path opacity="0.56" d="M101.288 14.8757C101.126 15.0847 100.968 15.3075 100.824 15.535C100.777 15.6093 100.736 15.679 100.689 15.7532C100.476 16.1154 100.295 16.4961 100.146 16.8815C100.146 16.8861 100.142 16.8907 100.142 16.8954C100.137 16.9093 100.132 16.9232 100.123 16.9418C100.114 16.9697 100.1 17.0022 100.091 17.03C100.063 17.109 100.091 17.1925 100.151 17.239C100.165 17.2529 100.183 17.2622 100.202 17.2668C100.299 17.304 100.406 17.2529 100.439 17.1554C100.62 16.6586 100.856 16.1804 101.139 15.73C102.546 13.4922 104.954 12.2572 107.418 12.2432C108.787 12.234 110.18 12.6054 111.423 13.3854C111.641 13.5247 111.85 13.6686 112.05 13.8265C113.4 14.8804 114.338 16.3522 114.723 18.0422C115.164 19.9875 114.825 21.984 113.767 23.674C111.576 27.1561 106.964 28.21 103.483 26.0186C103.27 25.884 103.061 25.74 102.861 25.5822C102.003 24.909 101.297 24.0593 100.801 23.0843C100.787 23.0611 100.768 23.0379 100.75 23.024C100.694 22.9822 100.62 22.9729 100.55 23.0054C100.457 23.0518 100.42 23.1632 100.467 23.2561C100.986 24.2775 101.724 25.1736 102.629 25.8793C102.838 26.0418 103.056 26.195 103.279 26.3343C106.936 28.6325 111.776 27.5275 114.073 23.8736C115.187 22.1047 115.544 20.0015 115.08 17.9632C114.676 16.185 113.693 14.639 112.273 13.534C112.064 13.3715 111.841 13.2136 111.614 13.0697C109.841 11.9554 107.743 11.5979 105.706 12.0622C103.938 12.4707 102.392 13.455 101.288 14.8757Z" fill="white"/>
<path d="M74.952 37.3379C74.8777 37.4354 74.8684 37.5747 74.9473 37.6815C75.0912 37.8811 75.2397 38.0761 75.3928 38.2665C75.4949 38.3872 75.6713 38.4058 75.7966 38.3083C75.9219 38.2108 75.9358 38.0297 75.8383 37.9044C75.6898 37.7233 75.5506 37.5376 75.4114 37.3472C75.3186 37.2172 75.1422 37.1894 75.0123 37.2822C74.9891 37.2961 74.9705 37.3147 74.952 37.3379Z" fill="black"/>
<path d="M76.4184 38.9815C76.5297 38.8654 76.7107 38.8654 76.8221 38.9722C77.1098 39.2508 77.4161 39.5154 77.7317 39.7615C77.7967 39.8126 77.8663 39.8636 77.9312 39.9147C78.0565 40.0076 78.0844 40.1886 77.9916 40.314C77.8987 40.4301 77.7178 40.4672 77.5878 40.3743C77.5182 40.3233 77.4486 40.2676 77.379 40.2118C77.0495 39.9518 76.7293 39.6779 76.423 39.3854C76.3163 39.2833 76.307 39.1161 76.3952 39.0001C76.4044 38.9954 76.4137 38.9861 76.4184 38.9815ZM79.1517 40.7133C79.574 40.9547 80.0103 41.1729 80.4558 41.3586C80.5996 41.419 80.6692 41.5861 80.6089 41.7347C80.5486 41.8786 80.3815 41.9483 80.233 41.8879C79.7643 41.6929 79.3049 41.4654 78.864 41.2147C78.7248 41.1358 78.6784 40.9593 78.7573 40.8247C78.7619 40.8108 78.7712 40.8015 78.7805 40.7922C78.8733 40.6715 79.0264 40.639 79.1517 40.7133ZM81.8341 41.8322C82.2981 41.9622 82.7808 42.0643 83.2588 42.134C83.4165 42.1572 83.5233 42.3011 83.5001 42.459C83.4769 42.6168 83.333 42.7236 83.1752 42.7004C82.674 42.6261 82.1682 42.5194 81.6809 42.3847C81.5278 42.3429 81.4396 42.1851 81.4814 42.0318C81.4907 41.9947 81.5092 41.9622 81.5324 41.9344C81.602 41.8461 81.718 41.7997 81.8341 41.8322ZM84.7113 42.2594C85.1939 42.2733 85.6858 42.2547 86.1638 42.2036C86.3216 42.1897 86.4608 42.3011 86.4794 42.459C86.4933 42.6168 86.382 42.7561 86.2242 42.7747C85.7183 42.8258 85.2079 42.8443 84.6974 42.8304C84.5396 42.8258 84.4143 42.6958 84.4189 42.5379C84.4189 42.4729 84.4421 42.4172 84.4793 42.3708C84.5303 42.3011 84.6138 42.2594 84.7113 42.2594ZM87.6025 41.9761C88.0758 41.8693 88.5445 41.7347 88.9993 41.5676C89.1478 41.5118 89.3102 41.5908 89.3659 41.7393C89.4216 41.8879 89.3427 42.0551 89.1942 42.1061C88.7162 42.2779 88.2243 42.4218 87.7278 42.5333C87.5746 42.5658 87.4215 42.4729 87.3843 42.3151C87.3658 42.2269 87.389 42.1386 87.44 42.0736C87.4772 42.0272 87.5375 41.9901 87.6025 41.9761ZM90.3358 40.9919C90.7674 40.7736 91.1897 40.5276 91.5935 40.2583C91.7234 40.1701 91.9044 40.2072 91.9926 40.3372C92.0807 40.4672 92.0482 40.6483 91.9137 40.7365C91.4914 41.0197 91.0505 41.2797 90.5957 41.5072C90.4565 41.5768 90.2801 41.5211 90.2105 41.3818C90.1595 41.2797 90.1734 41.159 90.2384 41.0754C90.2662 41.0383 90.2987 41.0104 90.3358 40.9919ZM92.749 39.3715C93.111 39.0558 93.4637 38.7122 93.7885 38.3501C93.8952 38.234 94.0762 38.2247 94.1923 38.3268C94.3083 38.4336 94.3176 38.6101 94.2155 38.7308C93.8767 39.1115 93.5101 39.469 93.1295 39.8033C93.0089 39.9054 92.8279 39.8961 92.7258 39.7754C92.633 39.6686 92.633 39.5154 92.7165 39.4133C92.7212 39.3994 92.7351 39.3854 92.749 39.3715ZM95.8351 35.8476C95.9743 35.9218 96.03 36.0936 95.9557 36.2329C95.7515 36.6229 95.5195 37.0036 95.2735 37.3704C95.2364 37.4261 95.1993 37.4818 95.1622 37.5376C95.074 37.6676 94.893 37.7001 94.7631 37.6072C94.6331 37.5143 94.6006 37.3379 94.6934 37.2079C94.7306 37.1569 94.7631 37.1058 94.8002 37.0501C95.0369 36.6972 95.255 36.3351 95.4499 35.9636C95.4592 35.9497 95.4684 35.9358 95.4777 35.9219C95.5613 35.8151 95.7144 35.7826 95.8351 35.8476Z" fill="black"/>
<path d="M75.3464 22.6943C75.6573 22.3043 75.9961 21.9283 76.3534 21.5801C76.4648 21.4686 76.6504 21.4733 76.7572 21.5847C76.8686 21.6961 76.8639 21.8772 76.7525 21.9886C76.4138 22.3229 76.0889 22.6804 75.7919 23.0518C75.6945 23.1772 75.5135 23.1958 75.3882 23.0983C75.2675 22.9961 75.249 22.8197 75.3464 22.6943ZM74.8731 23.8272C75.0076 23.9108 75.0494 24.0872 74.9659 24.2219C74.7153 24.6258 74.4879 25.0529 74.2837 25.4847C74.2187 25.6286 74.047 25.689 73.9031 25.624C73.7593 25.559 73.699 25.3872 73.7639 25.2433C73.9728 24.7929 74.2141 24.3472 74.4786 23.9201C74.4832 23.9108 74.4879 23.9015 74.4972 23.8922C74.5853 23.7808 74.7478 23.7483 74.8731 23.8272ZM77.4904 20.5958C77.8895 20.294 78.3072 20.0108 78.7388 19.7601C78.8733 19.6811 79.0497 19.7276 79.1332 19.8622C79.2121 19.9968 79.1657 20.1733 79.0311 20.2568C78.6227 20.4983 78.219 20.7676 77.8431 21.0554C77.7178 21.1529 77.5368 21.1251 77.4394 20.9997C77.3605 20.8929 77.3651 20.749 77.4394 20.6515C77.4533 20.6283 77.4672 20.6097 77.4904 20.5958ZM73.5783 26.4551C73.7268 26.5015 73.8103 26.664 73.7639 26.8172C73.6154 27.2722 73.4994 27.7365 73.4066 28.2054C73.3741 28.3586 73.2256 28.4608 73.0725 28.4329C72.9147 28.4051 72.8172 28.2519 72.8451 28.0986C72.9379 27.6065 73.0632 27.119 73.221 26.6408C73.2302 26.6083 73.2488 26.5804 73.2674 26.5526C73.337 26.4597 73.4623 26.4179 73.5783 26.4551ZM80.0753 19.0822C80.5347 18.8826 81.0081 18.7108 81.4861 18.5715C81.6392 18.5251 81.797 18.6133 81.8434 18.7665C81.8898 18.9197 81.8016 19.0776 81.6485 19.124C81.1937 19.2586 80.7389 19.4211 80.3027 19.6115C80.1588 19.6765 79.9871 19.6069 79.9268 19.4629C79.885 19.3654 79.9036 19.254 79.9639 19.1704C79.9917 19.1286 80.0289 19.1008 80.0753 19.0822ZM82.9479 18.2279C83.4398 18.1444 83.941 18.0933 84.4422 18.0701C84.6 18.0608 84.7345 18.1861 84.7438 18.344C84.7531 18.5019 84.6278 18.6365 84.47 18.6458C83.9967 18.669 83.514 18.7201 83.0453 18.799C82.8875 18.8268 82.739 18.7201 82.7158 18.5622C82.7019 18.4786 82.7251 18.3997 82.7715 18.3393C82.8133 18.2836 82.8736 18.2419 82.9479 18.2279ZM85.9411 18.0933C86.4377 18.1304 86.9389 18.2001 87.4308 18.2976C87.5839 18.3301 87.686 18.4786 87.6582 18.6365C87.6257 18.7897 87.4772 18.8918 87.3194 18.864C86.8553 18.7711 86.3774 18.7061 85.8994 18.669C85.7416 18.6551 85.6209 18.5204 85.6348 18.3626C85.6395 18.3022 85.6627 18.2511 85.6952 18.2094C85.7509 18.1258 85.8437 18.084 85.9411 18.0933Z" fill="black"/>
<path d="M72.7105 29.4451C72.678 29.4869 72.6548 29.5426 72.6502 29.6029C72.6316 29.849 72.6223 30.0951 72.6223 30.3365C72.6223 30.4944 72.7476 30.6244 72.9054 30.6244C73.0632 30.6244 73.1931 30.499 73.1931 30.3412C73.1931 30.109 73.2024 29.8769 73.221 29.6401C73.2302 29.4822 73.1142 29.3429 72.9564 29.3337C72.8543 29.329 72.7662 29.3708 72.7105 29.4451Z" fill="black"/>
<path d="M76.2467 33.6004C76.2606 33.6608 76.3117 33.7072 76.372 33.7118L78.1308 33.9022C78.4928 34.6451 78.9754 35.3322 79.5741 35.9358L79.175 37.6583C79.1611 37.7186 79.1889 37.779 79.2399 37.8161L81.0359 38.9443C81.0869 38.9768 81.1566 38.9722 81.203 38.9351L82.5813 37.8254C83.3841 38.104 84.2148 38.2386 85.0408 38.2433L85.9736 39.7429C86.0061 39.794 86.0711 39.8218 86.1314 39.8079L88.1965 39.3343C88.2568 39.3204 88.3032 39.2693 88.3079 39.209L88.4981 37.4493C89.2407 37.0872 89.9275 36.6043 90.5354 36.0054L92.2571 36.4047C92.3174 36.4186 92.3778 36.3908 92.4149 36.3397L93.5426 34.5429C93.5751 34.4918 93.5704 34.4222 93.5333 34.3758L92.4242 32.9968C92.7026 32.1936 92.8372 31.3626 92.8418 30.5361L94.3408 29.6029C94.3918 29.5704 94.4197 29.5054 94.4058 29.4451L93.9324 27.379C93.9185 27.3186 93.8674 27.2722 93.8071 27.2676L92.0483 27.0772C91.6863 26.3343 91.2037 25.6472 90.605 25.0436L91.0041 23.3211C91.0181 23.2608 90.9902 23.2004 90.9392 23.1633L89.1432 22.0351C89.0922 22.0026 89.0226 22.0072 88.9761 22.0443L87.5979 23.154C86.795 22.8754 85.9643 22.7408 85.1383 22.7361L84.2055 21.2365C84.173 21.1854 84.108 21.1576 84.0477 21.1715L81.9826 21.6451C81.9223 21.659 81.8759 21.7101 81.8712 21.7704L81.681 23.5301C80.9384 23.8922 80.2516 24.3751 79.6483 24.974L77.9266 24.5747C77.8663 24.5608 77.806 24.5886 77.7688 24.6397L76.6412 26.4365C76.6087 26.4876 76.6133 26.5572 76.6504 26.6036L77.7596 27.9826C77.4811 28.7858 77.3465 29.6168 77.3419 30.4433L75.843 31.3765C75.7919 31.409 75.7641 31.474 75.778 31.5343L76.2467 33.6004Z" fill="url(#paint5_linear_50_1234)"/>
<path d="M76.2467 33.6004C76.2606 33.6608 76.3117 33.7072 76.372 33.7118L78.1308 33.9022C78.4928 34.6451 78.9754 35.3322 79.5741 35.9358L79.175 37.6583C79.1611 37.7186 79.1889 37.779 79.2399 37.8161L81.0359 38.9443C81.0869 38.9768 81.1566 38.9722 81.203 38.9351L82.5813 37.8254C83.3841 38.104 84.2148 38.2386 85.0408 38.2433L85.9736 39.7429C86.0061 39.794 86.0711 39.8218 86.1314 39.8079L88.1965 39.3343C88.2568 39.3204 88.3032 39.2693 88.3079 39.209L88.4981 37.4493C89.2407 37.0872 89.9275 36.6043 90.5354 36.0054L92.2571 36.4047C92.3174 36.4186 92.3778 36.3908 92.4149 36.3397L93.5426 34.5429C93.5751 34.4918 93.5704 34.4222 93.5333 34.3758L92.4242 32.9968C92.7026 32.1936 92.8372 31.3626 92.8418 30.5361L94.3408 29.6029C94.3918 29.5704 94.4197 29.5054 94.4058 29.4451L93.9324 27.379C93.9185 27.3186 93.8674 27.2722 93.8071 27.2676L92.0483 27.0772C91.6863 26.3343 91.2037 25.6472 90.605 25.0436L91.0041 23.3211C91.0181 23.2608 90.9902 23.2004 90.9392 23.1633L89.1432 22.0351C89.0922 22.0026 89.0226 22.0072 88.9761 22.0443L87.5979 23.154C86.795 22.8754 85.9643 22.7408 85.1383 22.7361L84.2055 21.2365C84.173 21.1854 84.108 21.1576 84.0477 21.1715L81.9826 21.6451C81.9223 21.659 81.8759 21.7101 81.8712 21.7704L81.681 23.5301C80.9384 23.8922 80.2516 24.3751 79.6483 24.974L77.9266 24.5747C77.8663 24.5608 77.806 24.5886 77.7688 24.6397L76.6412 26.4365C76.6087 26.4876 76.6133 26.5572 76.6504 26.6036L77.7596 27.9826C77.4811 28.7858 77.3465 29.6168 77.3419 30.4433L75.843 31.3765C75.7919 31.409 75.7641 31.474 75.778 31.5343L76.2467 33.6004Z" fill="url(#paint6_linear_50_1234)"/>
<path opacity="0.56" d="M83.5883 28.9297C84.006 28.5304 84.5582 28.3169 85.1383 28.3308C85.7184 28.3447 86.2567 28.5815 86.6558 29.004C87.4819 29.8676 87.4494 31.2419 86.5862 32.0729C85.7231 32.8994 84.3448 32.8668 83.5187 32.0033C83.1196 31.5854 82.9062 31.0329 82.9201 30.4526C82.9294 29.9836 83.0918 29.5379 83.3749 29.1711C83.4398 29.0829 83.5094 29.004 83.5883 28.9297ZM86.2382 29.3986C85.9458 29.0922 85.5467 28.9158 85.1198 28.9065C84.6928 28.8972 84.2891 29.0551 83.9828 29.3476C83.6765 29.6401 83.5002 30.0394 83.4909 30.4665C83.4816 30.8936 83.6394 31.2976 83.9317 31.604C84.5397 32.2401 85.5513 32.2633 86.1871 31.6551C86.2428 31.5993 86.2985 31.5436 86.3449 31.4833C86.8229 30.8658 86.7904 29.9744 86.2382 29.3986Z" fill="white"/>
<path opacity="0.56" d="M80.8735 27.1654C80.7621 27.3094 80.6554 27.4579 80.5579 27.6158C80.363 27.9269 80.196 28.2565 80.0707 28.6001C80.066 28.614 80.0614 28.6326 80.0521 28.6465C80.0103 28.7672 80.0475 28.8972 80.1449 28.9715C80.1681 28.9901 80.196 29.004 80.2238 29.0133C80.3723 29.069 80.5347 28.9901 80.5904 28.8415C80.7064 28.5211 80.8596 28.2101 81.0406 27.9176C81.0499 27.9036 81.0591 27.8851 81.0731 27.8711C81.5139 27.1886 82.1079 26.6361 82.7994 26.2554C83.1753 26.0465 83.5837 25.8933 84.0153 25.7911C84.0199 25.7911 84.0245 25.7911 84.0245 25.7865C84.0338 25.7819 84.0477 25.7819 84.057 25.7772C85.3147 25.4894 86.6094 25.7122 87.7 26.3994C87.8392 26.4876 87.9784 26.5851 88.1084 26.6826C88.9808 27.3651 89.5887 28.3169 89.8393 29.4126C90.1271 30.6708 89.9043 31.9661 89.2175 33.0572C88.5307 34.1483 87.4587 34.9097 86.201 35.1976C84.9434 35.4854 83.6486 35.2626 82.5581 34.5754C82.4189 34.4872 82.2843 34.3944 82.1543 34.2922C81.5975 33.8558 81.1427 33.3033 80.8225 32.6765C80.8039 32.6394 80.7761 32.6069 80.7436 32.579C80.66 32.514 80.5394 32.4954 80.4373 32.5511C80.2981 32.6254 80.2377 32.7972 80.312 32.9365C80.6693 33.6422 81.1798 34.2597 81.8016 34.7472C81.9455 34.8587 82.094 34.9654 82.2518 35.0629C83.4723 35.8336 84.9202 36.0797 86.3263 35.7547C87.7325 35.4344 88.9298 34.5847 89.7001 33.3636C90.4705 32.1426 90.7164 30.694 90.3916 29.2872C90.1131 28.0615 89.431 26.9936 88.4564 26.2322C88.3126 26.1208 88.1594 26.014 88.0016 25.9119C85.6395 24.4308 82.5534 25.0065 80.8735 27.1654Z" fill="white"/>
<path d="M1.05342 35.0675L0.0881531 39.2879C-0.236696 40.7039 0.371236 42.1665 1.60102 42.9325L4.51538 44.7525C5.3043 45.2447 5.79158 46.0943 5.84262 47.0229C5.96792 49.3582 6.36238 51.6472 6.99816 53.8479C7.25804 54.7439 7.07705 55.705 6.49232 56.4293L4.3344 59.1082C3.42482 60.2364 3.332 61.8197 4.10236 63.05L6.39951 66.7179C7.16986 67.9482 8.63633 68.5518 10.0471 68.2222L13.3977 67.4422C14.3026 67.2332 15.2493 67.4886 15.9408 68.1107C17.6439 69.6429 19.5327 70.9939 21.5792 72.1268C22.3914 72.5772 22.9436 73.385 23.0457 74.3089L23.4123 77.7261C23.5655 79.17 24.6189 80.3539 26.0343 80.6789L30.2527 81.6447C31.6681 81.9697 33.13 81.3614 33.8957 80.1311L35.7148 77.2154C36.2067 76.4261 37.056 75.9386 37.9841 75.8875C40.3184 75.7622 42.6063 75.3675 44.806 74.7314C45.7016 74.4714 46.6622 74.6525 47.3862 75.2375L50.0639 77.3964C51.1916 78.3064 52.774 78.3993 54.0038 77.6286L57.67 75.3304C58.8998 74.5597 59.5031 73.0925 59.1736 71.6811L58.3939 68.3289C58.1851 67.4236 58.4403 66.4764 59.0622 65.7847C60.5936 64.0807 61.9441 62.1911 63.0764 60.1436C63.5265 59.3311 64.334 58.7786 65.2575 58.6764L68.6731 58.3097C70.1163 58.1564 71.2997 57.1025 71.6246 55.6911L72.5898 51.4707C72.9147 50.0547 72.3068 48.5922 71.077 47.8261L68.1626 46.0061C67.3737 45.514 66.8864 44.6643 66.8354 43.7357C66.7101 41.4004 66.3156 39.1114 65.6798 36.9107C65.42 36.0147 65.6009 35.0536 66.1857 34.3293L68.3436 31.6504C69.2532 30.5222 69.346 28.9389 68.5756 27.7086L66.2785 24.0407C65.5081 22.8104 64.0417 22.2068 62.6309 22.5364L59.2803 23.3165C58.3754 23.5254 57.4287 23.27 56.7372 22.6479C55.0341 21.1157 53.1453 19.7647 51.0987 18.6318C50.2866 18.1814 49.7344 17.3736 49.6323 16.4497L49.2657 13.0325C49.1125 11.5886 48.0591 10.4047 46.6437 10.0797L42.4253 9.11395C41.0099 8.78895 39.548 9.39716 38.7823 10.6275L36.9632 13.5432C36.4713 14.3325 35.622 14.82 34.6939 14.8711C32.3596 14.9964 30.0717 15.3911 27.872 16.0272C26.9764 16.2872 26.0158 16.1061 25.2918 15.5211L22.6141 13.3622C21.4864 12.4522 19.904 12.3593 18.6742 13.13L15.008 15.4329C13.7782 16.2036 13.1749 17.6707 13.5044 19.0822L14.2841 22.4343C14.4929 23.3397 14.2377 24.2868 13.6158 24.9786C12.0844 26.6825 10.7339 28.5722 9.60159 30.6197C9.15144 31.4322 8.34396 31.9847 7.42046 32.0868L4.00491 32.4536C2.56165 32.6022 1.37827 33.6514 1.05342 35.0675ZM12.4788 37.3054C16.9385 24.1197 31.2319 17.0486 44.4115 21.5104C57.5865 25.9722 64.6542 40.2722 60.1992 53.4579C55.7394 66.6389 41.4461 73.71 28.2665 69.2529C15.0869 64.7911 8.01911 50.4864 12.4788 37.3054Z" fill="#676767"/>
<mask id="mask0_50_1234" style="mask-type:luminance" maskUnits="userSpaceOnUse" x="8" y="15" width="56" height="56">
<path d="M35.6081 70.6829C50.7682 70.6829 63.0578 58.3875 63.0578 43.2204C63.0578 28.0533 50.7682 15.7579 35.6081 15.7579C20.448 15.7579 8.15833 28.0533 8.15833 43.2204C8.15833 58.3875 20.448 70.6829 35.6081 70.6829Z" fill="white"/>
</mask>
<g mask="url(#mask0_50_1234)">
<path d="M27.9695 72.6375C27.9695 72.6375 16.5626 49.0518 26.0992 25.2107C26.0992 25.2107 38.4528 22.1093 55.4006 31.6364C55.4006 31.6364 45.0148 45.4536 48.4674 69.7775C48.4674 69.7775 33.5244 75.1122 27.9695 72.6375Z" fill="black"/>
</g>
<path d="M42.1422 15.7486L37.1628 24.9136C36.694 25.7772 36.9261 26.8497 37.7104 27.4393C39.0701 28.4607 41.3533 29.6772 43.8407 28.8368C44.6529 28.5629 45.2793 27.9036 45.5392 27.0865L48.0452 19.0543L42.1422 15.7486Z" fill="url(#paint7_linear_50_1234)"/>
<path d="M21.273 67.2147C21.273 67.2147 14.8781 45.63 28.2526 35.8661L26.0993 25.2108C26.0993 25.2108 3.79146 40.3465 18.5767 66.4765L21.273 67.2147Z" fill="url(#paint8_linear_50_1234)"/>
<path d="M21.273 67.2147C21.273 67.2147 14.8781 45.63 28.2526 35.8661L26.0993 25.2108C26.0993 25.2108 3.79146 40.3465 18.5767 66.4765L21.273 67.2147Z" fill="black"/>
<path d="M18.5813 66.4718C18.5813 66.4718 18.7855 69.9354 22.0618 69.6568C25.5145 69.3597 25.8626 73.645 28.7352 72.099C28.944 71.9875 29.0554 71.7415 28.9858 71.514C28.5681 70.0979 26.6654 65.1579 20.549 65.3715L18.5813 66.4718Z" fill="url(#paint9_linear_50_1234)"/>
<path d="M55.4007 31.6365C55.4007 31.6365 66.1021 48.2115 81.3422 47.854L82.4049 50.0315C82.4049 50.0315 62.0879 56.4804 49.4745 40.5786L55.4007 31.6365Z" fill="url(#paint10_linear_50_1234)"/>
<path d="M55.4007 31.6365C55.4007 31.6365 66.1021 48.2115 81.3422 47.854L82.4049 50.0315C82.4049 50.0315 62.0879 56.4804 49.4745 40.5786L55.4007 31.6365Z" fill="black"/>
<path d="M81.1937 49.2097C80.6183 48.3136 81.1473 47.0925 82.2008 46.9532C82.2518 46.9486 82.3075 46.9393 82.3632 46.9347C84.1452 46.7954 85.9133 46.3172 86.5259 45.7832C86.7301 45.6068 87.0457 45.6114 87.2127 45.825C87.4308 46.0989 87.3427 46.6236 85.7463 47.5475C85.7463 47.5475 89.6352 48.5689 92.466 46.8C95.2272 45.0729 91.8534 52.9147 82.5581 50.4075C82.0894 50.2822 81.6903 49.9804 81.4258 49.5718L81.1937 49.2097Z" fill="url(#paint11_linear_50_1234)"/>
<path d="M50.4165 7.57718C50.4165 7.57718 54.1384 18.9057 49.4977 21.3897C44.8616 23.8782 40.3462 13.0836 40.3462 13.0836C40.3462 13.0836 41.2094 1.49503 50.4165 7.57718Z" fill="url(#paint12_linear_50_1234)"/>
<path d="M42.1422 15.7486C42.0076 15.9947 39.7244 18.0515 37.7382 15.73C35.752 13.4086 36.8286 11.4354 39.1443 10.8318C39.1443 10.8318 37.5433 10.2004 38.3368 8.79825C39.135 7.39611 40.4252 8.14361 40.4252 8.14361C40.4252 8.14361 39.4228 -0.770675 47.1217 0.055754C54.8206 0.882182 54.0317 5.33468 53.6326 6.69504C53.2335 8.0554 49.8736 10.349 45.4882 8.84468C45.4882 8.84468 46.6623 9.89861 45.697 11.3797C44.7317 12.8608 41.6967 13.8172 41.6967 13.8172L42.1422 15.7486Z" fill="url(#paint13_linear_50_1234)"/>
<path d="M42.1422 15.7486C42.0076 15.9947 39.7244 18.0515 37.7382 15.73C35.752 13.4086 36.8286 11.4354 39.1443 10.8318C39.1443 10.8318 37.5433 10.2004 38.3368 8.79825C39.135 7.39611 40.4252 8.14361 40.4252 8.14361C40.4252 8.14361 39.4228 -0.770675 47.1217 0.055754C54.8206 0.882182 54.0317 5.33468 53.6326 6.69504C53.2335 8.0554 49.8736 10.349 45.4882 8.84468C45.4882 8.84468 46.6623 9.89861 45.697 11.3797C44.7317 12.8608 41.6967 13.8172 41.6967 13.8172L42.1422 15.7486Z" fill="url(#paint14_linear_50_1234)"/>
<path d="M43.7943 15.6836C43.7943 15.6836 42.6248 12.1875 40.9309 13.6175C38.7452 15.4607 42.9728 16.9325 42.9728 16.9325L43.7943 15.6836Z" fill="url(#paint15_linear_50_1234)"/>
<path d="M58.7977 89.909L58.5331 94.1108C58.445 95.5176 59.2571 96.8268 60.5611 97.3701L63.6425 98.6561C64.4779 99.0043 65.0765 99.7426 65.2714 100.625C65.7587 102.844 66.4966 104.98 67.4526 106.99C67.8424 107.807 67.8192 108.759 67.3737 109.548L65.7216 112.459C65.0255 113.685 65.1833 115.217 66.116 116.276L68.9005 119.433C69.8332 120.491 71.3322 120.84 72.6362 120.301L75.7269 119.029C76.5623 118.685 77.509 118.783 78.2747 119.27C80.1495 120.473 82.1729 121.471 84.3169 122.233C85.1661 122.534 85.8251 123.226 86.0664 124.094L86.9528 127.316C87.3287 128.677 88.5214 129.647 89.9275 129.735L94.1273 130C95.5335 130.088 96.8421 129.276 97.3851 127.971L98.6706 124.888C99.0186 124.053 99.7565 123.454 100.638 123.259C102.856 122.771 104.991 122.033 107.001 121.076C107.817 120.686 108.769 120.71 109.558 121.155L112.467 122.808C113.693 123.505 115.224 123.347 116.282 122.414L119.438 119.628C120.496 118.695 120.844 117.195 120.306 115.89L119.034 112.798C118.691 111.963 118.788 111.015 119.275 110.249C120.477 108.374 121.475 106.349 122.236 104.204C122.538 103.355 123.229 102.695 124.097 102.454L127.318 101.563C128.677 101.186 129.647 99.9933 129.735 98.5865L130 94.3847C130.088 92.9779 129.276 91.6686 127.972 91.1254L124.891 89.8393C124.055 89.4911 123.457 88.7529 123.262 87.8708C122.774 85.6515 122.037 83.5158 121.081 81.5054C120.691 80.6883 120.714 79.7365 121.159 78.9472L122.811 76.0361C123.508 74.8104 123.35 73.2783 122.417 72.2197L119.633 69.0626C118.7 68.004 117.201 67.6558 115.897 68.1944L112.806 69.4665C111.971 69.8101 111.024 69.7126 110.258 69.2251C108.384 68.0226 106.36 67.0243 104.216 66.2629C103.367 65.9611 102.708 65.2693 102.467 64.4011L101.58 61.179C101.204 59.8186 100.012 58.8483 98.6056 58.7601L94.4058 58.4954C92.9996 58.4072 91.691 59.2197 91.148 60.5243L89.8625 63.6072C89.5145 64.4429 88.7766 65.0418 87.8949 65.2368C85.6766 65.7243 83.5419 66.4626 81.5325 67.419C80.7157 67.809 79.7643 67.7858 78.9754 67.3401L76.0657 65.6872C74.8406 64.9908 73.3091 65.1486 72.2511 66.0818L69.0954 68.8676C68.0373 69.8008 67.6892 71.3004 68.2276 72.6051L69.4991 75.6972C69.8425 76.5329 69.7451 77.4801 69.2578 78.2461C68.0559 80.1219 67.0581 82.1461 66.297 84.2911C65.9954 85.1408 65.3039 85.8001 64.4361 86.0415L61.2155 86.9283C59.8557 87.3044 58.8858 88.5022 58.7977 89.909ZM70.107 90.2572C72.3114 76.909 84.9109 67.8786 98.2529 70.084C111.595 72.2893 120.621 84.8947 118.417 98.2429C116.212 111.591 103.613 120.621 90.2709 118.416C76.9335 116.211 67.9027 103.601 70.107 90.2572Z" fill="url(#paint16_linear_50_1234)"/>
<path d="M58.7977 89.909L58.5331 94.1108C58.445 95.5176 59.2571 96.8268 60.5611 97.3701L63.6425 98.6561C64.4779 99.0043 65.0765 99.7426 65.2714 100.625C65.7587 102.844 66.4966 104.98 67.4526 106.99C67.8424 107.807 67.8192 108.759 67.3737 109.548L65.7216 112.459C65.0255 113.685 65.1833 115.217 66.116 116.276L68.9005 119.433C69.8332 120.491 71.3322 120.84 72.6362 120.301L75.7269 119.029C76.5623 118.685 77.509 118.783 78.2747 119.27C80.1495 120.473 82.1729 121.471 84.3169 122.233C85.1661 122.534 85.8251 123.226 86.0664 124.094L86.9528 127.316C87.3287 128.677 88.5214 129.647 89.9275 129.735L94.1273 130C95.5335 130.088 96.8421 129.276 97.3851 127.971L98.6706 124.888C99.0186 124.053 99.7565 123.454 100.638 123.259C102.856 122.771 104.991 122.033 107.001 121.076C107.817 120.686 108.769 120.71 109.558 121.155L112.467 122.808C113.693 123.505 115.224 123.347 116.282 122.414L119.438 119.628C120.496 118.695 120.844 117.195 120.306 115.89L119.034 112.798C118.691 111.963 118.788 111.015 119.275 110.249C120.477 108.374 121.475 106.349 122.236 104.204C122.538 103.355 123.229 102.695 124.097 102.454L127.318 101.563C128.677 101.186 129.647 99.9933 129.735 98.5865L130 94.3847C130.088 92.9779 129.276 91.6686 127.972 91.1254L124.891 89.8393C124.055 89.4911 123.457 88.7529 123.262 87.8708C122.774 85.6515 122.037 83.5158 121.081 81.5054C120.691 80.6883 120.714 79.7365 121.159 78.9472L122.811 76.0361C123.508 74.8104 123.35 73.2783 122.417 72.2197L119.633 69.0626C118.7 68.004 117.201 67.6558 115.897 68.1944L112.806 69.4665C111.971 69.8101 111.024 69.7126 110.258 69.2251C108.384 68.0226 106.36 67.0243 104.216 66.2629C103.367 65.9611 102.708 65.2693 102.467 64.4011L101.58 61.179C101.204 59.8186 100.012 58.8483 98.6056 58.7601L94.4058 58.4954C92.9996 58.4072 91.691 59.2197 91.148 60.5243L89.8625 63.6072C89.5145 64.4429 88.7766 65.0418 87.8949 65.2368C85.6766 65.7243 83.5419 66.4626 81.5325 67.419C80.7157 67.809 79.7643 67.7858 78.9754 67.3401L76.0657 65.6872C74.8406 64.9908 73.3091 65.1486 72.2511 66.0818L69.0954 68.8676C68.0373 69.8008 67.6892 71.3004 68.2276 72.6051L69.4991 75.6972C69.8425 76.5329 69.7451 77.4801 69.2578 78.2461C68.0559 80.1219 67.0581 82.1461 66.297 84.2911C65.9954 85.1408 65.3039 85.8001 64.4361 86.0415L61.2155 86.9283C59.8557 87.3044 58.8858 88.5022 58.7977 89.909ZM70.107 90.2572C72.3114 76.909 84.9109 67.8786 98.2529 70.084C111.595 72.2893 120.621 84.8947 118.417 98.2429C116.212 111.591 103.613 120.621 90.2709 118.416C76.9335 116.211 67.9027 103.601 70.107 90.2572Z" fill="#676767"/>
<mask id="mask1_50_1234" style="mask-type:luminance" maskUnits="userSpaceOnUse" x="41" y="52" width="84" height="67">
<path d="M99.6358 118.151C89.3613 120.329 78.451 115.886 72.3392 108.174C69.8564 105.04 42.6434 94.4868 41.757 90.3083C38.6941 75.8504 72.381 56.1183 86.8321 53.0493C101.283 49.985 120.974 69.2111 124.041 83.669C125.41 90.1179 117.925 100.332 115.024 105.718C111.423 112.399 107.641 116.452 99.6358 118.151Z" fill="white"/>
</mask>
<g mask="url(#mask1_50_1234)">
<path d="M83.941 67.9622C83.941 67.9622 79.7551 60.3386 89.714 59.7815C89.714 59.7815 94.0299 57.7247 95.501 61.9311C95.501 61.9311 98.9815 63.0083 97.9188 67.3308C97.9188 67.3308 105.622 61.4529 111.613 67.9622C117.609 74.4715 115.349 79.6715 112.022 81.8211C112.022 81.8211 115.405 82.4433 114.983 86.1993C114.56 89.9554 108.17 94.3754 102.805 91.52C102.805 91.52 91.3707 96.5529 89.1618 88.0797C89.1618 88.0797 82.5905 86.1158 86.382 77.48C90.1781 68.8443 83.941 67.9622 83.941 67.9622Z" fill="url(#paint17_linear_50_1234)"/>
<path d="M83.941 67.9622C83.941 67.9622 79.7551 60.3386 89.714 59.7815C89.714 59.7815 94.0299 57.7247 95.501 61.9311C95.501 61.9311 98.9815 63.0083 97.9188 67.3308C97.9188 67.3308 105.622 61.4529 111.613 67.9622C117.609 74.4715 115.349 79.6715 112.022 81.8211C112.022 81.8211 115.405 82.4433 114.983 86.1993C114.56 89.9554 108.17 94.3754 102.805 91.52C102.805 91.52 91.3707 96.5529 89.1618 88.0797C89.1618 88.0797 82.5905 86.1158 86.382 77.48C90.1781 68.8443 83.941 67.9622 83.941 67.9622Z" fill="url(#paint18_linear_50_1234)"/>
<path d="M70.9563 96.6272C70.9563 96.6272 73.7407 105.815 81.5046 105.662C89.2685 105.509 90.1363 90.3082 90.1363 90.3082L94.4104 104.868C94.4104 104.868 91.4589 113.114 80.5858 111.614C69.708 110.115 67.4108 98.4239 67.4108 98.4239C67.4108 98.4239 61.6981 99.645 61.0438 93.6882C60.9974 93.2797 61.48 93.0289 61.7909 93.2936C62.9465 94.2825 65.1879 95.8564 67.4154 95.4618C70.599 94.8814 70.9563 96.6272 70.9563 96.6272Z" fill="url(#paint19_linear_50_1234)"/>
<path d="M88.9251 87.0072C90.6375 85.8976 95.7934 83.2697 102.383 86.5568C103.502 87.114 104.221 88.2468 104.244 89.4911C104.342 95.0347 105.075 111.285 110.212 116.912C110.212 116.912 106.351 124.837 98.6752 121.592C98.6752 121.592 92.3639 110.263 87.1663 105.996C83.579 103.048 87.1616 91.014 88.1037 88.0843C88.2429 87.6386 88.5353 87.2579 88.9251 87.0072Z" fill="#474747"/>
<path d="M91.1341 75.2933C91.1341 75.2933 96.1878 82.3365 97.4036 85.7351C97.4036 85.7351 94.7445 88.0194 91.1712 86.5104C91.1712 86.5104 88.5863 78.7615 87.7417 77.4847L91.1341 75.2933Z" fill="url(#paint20_linear_50_1234)"/>
<path d="M84.1683 65.7104C84.1683 65.7104 79.8664 77.9768 85.064 79.6668C90.2569 81.3568 93.3244 72.6329 93.3244 72.6329C93.3244 72.6329 93.3894 66.5832 91.083 65.2089C88.7719 63.8393 84.1683 65.7104 84.1683 65.7104Z" fill="url(#paint21_linear_50_1234)"/>
<path d="M86.8229 62.3072C86.8229 62.3072 83.7183 64.0668 83.6904 65.7104C83.6626 67.354 89.2593 67.2425 90.735 66.885L93.6772 72.6329C93.6772 72.6329 95.4778 65.8961 93.1435 62.9897C90.8092 60.0833 86.8229 62.3072 86.8229 62.3072Z" fill="url(#paint22_linear_50_1234)"/>
<path d="M86.8229 62.3072C86.8229 62.3072 83.7183 64.0668 83.6904 65.7104C83.6626 67.354 89.2593 67.2425 90.735 66.885L93.6772 72.6329C93.6772 72.6329 95.4778 65.8961 93.1435 62.9897C90.8092 60.0833 86.8229 62.3072 86.8229 62.3072Z" fill="url(#paint23_linear_50_1234)"/>
<path d="M91.7002 72.294C91.7002 72.294 93.5704 68.199 95.3153 70.005C97.0602 71.8111 93.8581 74.4808 92.2849 73.8029L91.7002 72.294Z" fill="url(#paint24_linear_50_1234)"/>
<path d="M49.2239 90.3036L73.75 99.5893C73.9449 99.6636 74.1584 99.6311 74.3254 99.5104L79.7087 95.4851C80.0614 95.2204 80.0242 94.6818 79.6344 94.4729C76.3209 92.6854 63.7864 86.1529 55.6559 84.9597C55.5074 84.9365 55.3543 84.9736 55.229 85.0618L49.1032 89.2451C48.6948 89.519 48.7645 90.1318 49.2239 90.3036Z" fill="black"/>
<path d="M49.4419 88.6972L73.7453 98.7954C73.9356 98.8743 74.1583 98.8511 74.3254 98.7304L79.9638 94.7329C80.3444 94.4636 80.2887 93.8832 79.8664 93.6929C75.8336 91.8729 60.2501 84.8854 56.0642 83.6968C55.9018 83.6504 55.7255 83.6736 55.5816 83.7664L49.3584 87.6293C48.9361 87.8847 48.9872 88.5068 49.4419 88.6972Z" fill="#3E3E3E"/>
<path d="M50.2449 86.2504L73.9078 98.0757C74.1074 98.1779 74.3487 98.1547 74.5297 98.0247L79.9732 94.1293C80.3491 93.86 80.2934 93.2797 79.8711 93.0893L56.0782 82.2854C55.9065 82.2065 55.707 82.2157 55.5399 82.304L50.2263 85.1779C49.7947 85.4147 49.8086 86.0322 50.2449 86.2504Z" fill="black"/>
<path d="M65.9119 96.6272C65.9119 96.6272 67.8517 97.4861 68.4689 97.1147C70.0653 96.1397 73.1328 94.64 74.9984 95.1461C77.5786 95.8472 81.2726 100.374 85.2033 103.568C89.1293 106.758 98.1091 108.067 101.497 103.884C104.884 99.7008 98.2576 90.9861 102.272 88.4418C106.281 85.8975 110.05 99.1483 109.688 102.315C109.326 105.481 105.757 114.623 93.9371 113.198C82.1218 111.772 75.2907 99.5475 75.2907 99.5475C75.2907 99.5475 71.9216 99.9561 70.0189 99.8354C68.1116 99.71 65.9119 96.6272 65.9119 96.6272Z" fill="url(#paint25_linear_50_1234)"/>
</g>
</g>
<defs>
<linearGradient id="paint0_linear_50_1234" x1="-23.5177" y1="43.3136" x2="78.0331" y2="179.869" gradientUnits="userSpaceOnUse">
<stop stop-color="#E13030"/>
<stop offset="1" stop-color="#DA2929"/>
</linearGradient>
<linearGradient id="paint1_linear_50_1234" x1="-13.3511" y1="35.7531" x2="88.1997" y2="172.308" gradientUnits="userSpaceOnUse">
<stop stop-color="#FF928E"/>
<stop offset="1" stop-color="#FE7062"/>
</linearGradient>
<linearGradient id="paint2_linear_50_1234" x1="13.9547" y1="72.4984" x2="81.908" y2="163.875" gradientUnits="userSpaceOnUse">
<stop stop-color="#E13030"/>
<stop offset="1" stop-color="#DA2929"/>
</linearGradient>
<linearGradient id="paint3_linear_50_1234" x1="181.111" y1="26.1008" x2="11.6182" y2="11.4263" gradientUnits="userSpaceOnUse">
<stop stop-color="#FF928E"/>
<stop offset="1" stop-color="#FE7062"/>
</linearGradient>
<linearGradient id="paint4_linear_50_1234" x1="63.4388" y1="-39.4594" x2="164.554" y2="96.488" gradientUnits="userSpaceOnUse">
<stop stop-color="#E13030"/>
<stop offset="1" stop-color="#DA2929"/>
</linearGradient>
<linearGradient id="paint5_linear_50_1234" x1="180.018" y1="38.7263" x2="10.5248" y2="24.0518" gradientUnits="userSpaceOnUse">
<stop stop-color="#FF928E"/>
<stop offset="1" stop-color="#FE7062"/>
</linearGradient>
<linearGradient id="paint6_linear_50_1234" x1="55.6704" y1="-9.11401" x2="123.35" y2="81.8952" gradientUnits="userSpaceOnUse">
<stop stop-color="#E13030"/>
<stop offset="1" stop-color="#DA2929"/>
</linearGradient>
<linearGradient id="paint7_linear_50_1234" x1="36.4261" y1="23.6745" x2="48.4795" y2="21.1769" gradientUnits="userSpaceOnUse">
<stop stop-color="#FEB3B1"/>
<stop offset="1" stop-color="#FF928E"/>
</linearGradient>
<linearGradient id="paint8_linear_50_1234" x1="33.5793" y1="21.9937" x2="6.05663" y2="77.9874" gradientUnits="userSpaceOnUse">
<stop stop-color="#090056"/>
<stop offset="1" stop-color="#020039"/>
</linearGradient>
<linearGradient id="paint9_linear_50_1234" x1="19.2648" y1="69.92" x2="28.2699" y2="68.054" gradientUnits="userSpaceOnUse">
<stop stop-color="#FEB3B1"/>
<stop offset="1" stop-color="#FF928E"/>
</linearGradient>
<linearGradient id="paint10_linear_50_1234" x1="68.8718" y1="39.3411" x2="41.3491" y2="95.3347" gradientUnits="userSpaceOnUse">
<stop stop-color="#090056"/>
<stop offset="1" stop-color="#020039"/>
</linearGradient>
<linearGradient id="paint11_linear_50_1234" x1="81.1515" y1="49.5034" x2="93.4311" y2="46.9589" gradientUnits="userSpaceOnUse">
<stop stop-color="#FEB3B1"/>
<stop offset="1" stop-color="#FF928E"/>
</linearGradient>
<linearGradient id="paint12_linear_50_1234" x1="50.9653" y1="16.4381" x2="38.2251" y2="6.74178" gradientUnits="userSpaceOnUse">
<stop stop-color="#FEB3B1"/>
<stop offset="1" stop-color="#FF928E"/>
</linearGradient>
<linearGradient id="paint13_linear_50_1234" x1="72.958" y1="-19.9514" x2="51.0439" y2="1.22239" gradientUnits="userSpaceOnUse">
<stop stop-color="#090056"/>
<stop offset="1" stop-color="#020039"/>
</linearGradient>
<linearGradient id="paint14_linear_50_1234" x1="36.6548" y1="8.42219" x2="53.811" y2="8.42219" gradientUnits="userSpaceOnUse">
<stop/>
<stop offset="1"/>
</linearGradient>
<linearGradient id="paint15_linear_50_1234" x1="48.4124" y1="19.7925" x2="35.6722" y2="10.0962" gradientUnits="userSpaceOnUse">
<stop stop-color="#FEB3B1"/>
<stop offset="1" stop-color="#FF928E"/>
</linearGradient>
<linearGradient id="paint16_linear_50_1234" x1="193.708" y1="43.3287" x2="-14.4442" y2="149.809" gradientUnits="userSpaceOnUse">
<stop stop-color="#A2A3FF"/>
<stop offset="1" stop-color="#7B7CF5"/>
</linearGradient>
<linearGradient id="paint17_linear_50_1234" x1="75.2924" y1="59.4694" x2="129.707" y2="101.448" gradientUnits="userSpaceOnUse">
<stop stop-color="#090056"/>
<stop offset="1" stop-color="#020039"/>
</linearGradient>
<linearGradient id="paint18_linear_50_1234" x1="82.9853" y1="76.16" x2="115.242" y2="76.16" gradientUnits="userSpaceOnUse">
<stop/>
<stop offset="1"/>
</linearGradient>
<linearGradient id="paint19_linear_50_1234" x1="60.5647" y1="109.437" x2="73.6981" y2="102.639" gradientUnits="userSpaceOnUse">
<stop stop-color="#FEB3B1"/>
<stop offset="1" stop-color="#FF928E"/>
</linearGradient>
<linearGradient id="paint20_linear_50_1234" x1="91.1429" y1="91.7758" x2="92.7075" y2="80.6722" gradientUnits="userSpaceOnUse">
<stop stop-color="#FEB3B1"/>
<stop offset="1" stop-color="#FF928E"/>
</linearGradient>
<linearGradient id="paint21_linear_50_1234" x1="83.9768" y1="67.9834" x2="98.6004" y2="84.7888" gradientUnits="userSpaceOnUse">
<stop stop-color="#FEB3B1"/>
<stop offset="1" stop-color="#FF928E"/>
</linearGradient>
<linearGradient id="paint22_linear_50_1234" x1="77.7795" y1="56.2456" x2="132.194" y2="98.2239" gradientUnits="userSpaceOnUse">
<stop stop-color="#090056"/>
<stop offset="1" stop-color="#020039"/>
</linearGradient>
<linearGradient id="paint23_linear_50_1234" x1="83.6631" y1="67.0695" x2="94.3053" y2="67.0695" gradientUnits="userSpaceOnUse">
<stop/>
<stop offset="1"/>
</linearGradient>
<linearGradient id="paint24_linear_50_1234" x1="87.6286" y1="64.8058" x2="102.252" y2="81.6112" gradientUnits="userSpaceOnUse">
<stop stop-color="#FEB3B1"/>
<stop offset="1" stop-color="#FF928E"/>
</linearGradient>
<linearGradient id="paint25_linear_50_1234" x1="80.4665" y1="110.512" x2="119.413" y2="58.6849" gradientUnits="userSpaceOnUse">
<stop stop-color="#FEB3B1"/>
<stop offset="1" stop-color="#FF928E"/>
</linearGradient>
<clipPath id="clip0_50_1234">
<rect width="130" height="130" fill="white"/>
</clipPath>
</defs>
</svg>
