<svg width="484" height="484" viewBox="0 0 484 484" fill="none" xmlns="http://www.w3.org/2000/svg">
<path d="M57.4204 408.165C69.8457 420.973 80.9575 428.51 89.4599 434.196C172.445 489.666 267.301 473.677 296.628 468.214C343.944 459.399 383.881 453.176 418.201 422.148C496.174 351.624 492.39 204.507 432.804 113.377C425.736 102.574 366.237 14.2967 271.172 1.85116C268.839 1.54002 267.111 1.36716 265.591 1.21159C250.884 -0.344103 159.743 -8.57201 85.4333 53.7423C74.7881 62.6616 57.6796 78.7544 41.7982 103.3C-16.215 193.029 -16.3878 332.005 57.4204 408.165Z" fill="white"/>
<path d="M273.92 387.543L282.526 464.603H182.848L195.826 387.543H273.92Z" fill="#242424"/>
<path d="M483.006 159.461V371.468C483.006 388.909 469.112 403.169 451.675 403.619C374.255 405.624 103.492 410.464 29.7877 409.375C17.1206 409.185 6.85553 399.055 6.49261 386.385C5.07556 337.139 2.75983 218.698 11.2968 163.713C13.094 152.132 22.8753 143.472 34.5747 143.109C99.4485 141.034 386.473 134.449 460.143 136.091C472.862 136.385 483.006 146.756 483.006 159.461Z" fill="#343434"/>
<path d="M469.699 158.441V359.869C469.699 370.05 461.525 378.347 451.347 378.503L40.3983 383.585C30.306 383.74 22.0283 375.616 21.9937 365.521L21.3025 165.891C21.2679 158.666 27.0226 152.754 34.2461 152.581L454.993 144.077C463.063 143.869 469.699 150.369 469.699 158.441Z" fill="#747474"/>
<path d="M18.9004 391.882L469.717 384.207C470.062 384.207 470.339 383.913 470.339 383.567C470.339 383.222 470.028 382.928 469.699 382.945L18.9004 390.62C18.5547 390.62 18.2783 390.914 18.2783 391.26C18.2783 391.605 18.5547 391.882 18.9004 391.882Z" fill="white"/>
<path d="M239.859 401.268C242.797 401.268 245.181 398.883 245.181 395.944C245.181 393.006 242.797 390.62 239.859 390.62C236.921 390.62 234.536 393.006 234.536 395.944C234.536 398.883 236.921 401.268 239.859 401.268ZM239.859 391.882C242.105 391.882 243.92 393.697 243.92 395.944C243.92 398.191 242.105 400.006 239.859 400.006C237.612 400.006 235.798 398.191 235.798 395.944C235.798 393.714 237.612 391.882 239.859 391.882Z" fill="white"/>
<path d="M161.385 480.384H307.256C311.213 480.384 314.203 477.566 313.425 474.524L311.559 467.126C310.988 464.896 308.552 463.271 305.631 463.167L164.996 458.777C161.955 458.69 159.259 460.298 158.602 462.614L155.232 474.403C154.351 477.463 157.358 480.384 161.385 480.384Z" fill="#343434"/>
<path d="M228.73 465.328C229.075 465.328 229.352 465.051 229.352 464.705C229.352 464.36 229.075 464.066 228.73 464.066L222.698 463.979C222.37 463.997 222.059 464.256 222.059 464.602C222.059 464.948 222.335 465.241 222.681 465.241L228.73 465.328Z" fill="white"/>
<path d="M308.033 476.443C308.068 476.443 308.102 476.443 308.137 476.443C308.483 476.391 308.707 476.062 308.655 475.717L307.791 470.323C307.325 467.35 304.802 465.172 301.795 465.12L237.871 464.187C237.508 464.187 237.231 464.464 237.231 464.809C237.231 465.155 237.508 465.449 237.853 465.449L301.777 466.382C304.162 466.417 306.184 468.163 306.547 470.514L307.411 475.907C307.446 476.235 307.722 476.443 308.033 476.443Z" fill="white"/>
<g opacity="0.64">
<path d="M385.072 258.541H431.473C437.815 258.541 442.862 263.467 442.551 269.362L437.262 369.635C436.969 375.132 432.095 379.453 426.185 379.453H385.055C378.92 379.453 373.96 374.838 373.96 369.134V268.86C373.978 263.156 378.937 258.541 385.072 258.541Z" fill="#A3A3A3"/>
<path d="M273.436 167.55L436.312 169.884C442.585 169.97 447.528 174.879 447.217 180.704L444.503 232.199C444.21 237.695 439.336 242.017 433.426 242.017H273.263C267.129 242.017 262.169 237.402 262.169 231.697V177.852C262.186 172.096 267.25 167.446 273.436 167.55Z" fill="#BEBEBE"/>
<path d="M273.281 258.541H349.128C355.263 258.541 360.223 263.156 360.223 268.86V369.134C360.223 374.838 355.263 379.453 349.128 379.453H273.281C267.146 379.453 262.186 374.838 262.186 369.134V268.86C262.186 263.156 267.146 258.541 273.281 258.541Z" fill="#BEBEBE"/>
</g>
<path d="M321.806 369.03H340.055V379.453H321.806V369.03Z" fill="#BEBEBE"/>
<path d="M291.305 351.658H309.554V379.454H291.305V351.658Z" fill="#BEBEBE"/>
<path d="M260.786 339.368H279.035V379.454H260.786V339.368Z" fill="#BEBEBE"/>
<path d="M230.285 322.964H248.534V379.454H230.285V322.964Z" fill="#BEBEBE"/>
<path d="M199.783 301.928H218.032V379.454H199.783V301.928Z" fill="#BEBEBE"/>
<path d="M169.282 274.167H187.531V379.436H169.282V274.167Z" fill="#BEBEBE"/>
<path d="M138.78 240.374H157.03V379.436H138.78V240.374Z" fill="#BEBEBE"/>
<path d="M108.262 204.8H126.511V379.453H108.262V204.8Z" fill="#BEBEBE"/>
<path d="M77.7603 178.44H96.0095V379.453H77.7603V178.44Z" fill="#BEBEBE"/>
<path d="M10.6747 481.714H151.396C155.889 481.714 159.518 479.018 159.518 475.716V375.322C159.518 372.021 155.889 369.324 151.413 369.324L9.56868 369.047C5.05826 369.03 1.39467 371.744 1.42923 375.08L2.55251 475.768C2.56979 479.052 6.21614 481.714 10.6747 481.714Z" fill="black"/>
<path d="M17.5698 376.705L143.395 377.276C147.94 377.293 151.603 380.041 151.586 383.395L150.705 467.834C150.687 471.153 147.093 473.832 142.617 473.902L20.3694 475.544C15.8071 475.613 12.0398 472.916 11.9707 469.546L9.27481 382.876C9.22296 379.471 12.9557 376.688 17.5698 376.705Z" fill="#5A5A5A"/>
<path d="M22.6852 384.536V385.175C22.6852 386.178 23.7912 386.99 25.1564 386.99H122.104C123.469 386.99 124.575 386.178 124.575 385.175V384.536C124.575 383.533 123.469 382.721 122.104 382.721H25.1564C23.7912 382.721 22.6852 383.533 22.6852 384.536Z" fill="#BDD0FB"/>
<path d="M22.6852 384.536V385.175C22.6852 386.178 23.7912 386.99 25.1564 386.99H122.104C123.469 386.99 124.575 386.178 124.575 385.175V384.536C124.575 383.533 123.469 382.721 122.104 382.721H25.1564C23.7912 382.721 22.6852 383.533 22.6852 384.536Z" fill="white"/>
<path d="M33.5032 392.608C33.5723 393.559 34.6265 394.319 35.9226 394.337L120.704 395.477C122.087 395.495 123.21 394.682 123.21 393.662V393.507C123.21 392.504 122.122 391.692 120.791 391.692L36.009 390.707C34.5746 390.672 33.4341 391.554 33.5032 392.608Z" fill="#BDD0FB"/>
<path d="M33.5032 392.608C33.5723 393.559 34.6265 394.319 35.9226 394.337L120.704 395.477C122.087 395.495 123.21 394.682 123.21 393.662V393.507C123.21 392.504 122.122 391.692 120.791 391.692L36.009 390.707C34.5746 390.672 33.4341 391.554 33.5032 392.608Z" fill="white"/>
<path d="M24.8451 471.085C24.8797 471.085 24.897 471.085 24.9315 471.085L139.61 470.065C141.805 470.048 143.827 469.253 145.14 467.887C146.09 466.919 146.592 465.692 146.557 464.447L143.602 404.812C143.533 401.856 140.388 399.453 136.586 399.453C136.534 399.453 136.499 399.453 136.448 399.453L21.9764 401.095C19.799 401.13 17.7944 401.925 16.481 403.273C15.5478 404.241 15.0467 405.469 15.0812 406.696C15.0812 406.696 15.0812 406.713 15.0812 406.73L17.8289 465.709C17.8981 468.734 20.9741 471.085 24.8451 471.085ZM136.586 401.804C139.092 401.804 141.234 403.204 141.269 404.915L144.224 464.551C144.241 465.294 143.827 465.899 143.464 466.28C142.6 467.179 141.148 467.732 139.593 467.732L24.9143 468.752C24.897 468.752 24.8797 468.752 24.8624 468.752C22.3566 468.752 20.2138 467.334 20.1792 465.64L17.4315 406.644C17.4142 405.883 17.8289 405.278 18.1919 404.915C19.0559 404.017 20.4903 403.481 22.0283 403.446L136.499 401.804C136.517 401.804 136.551 401.804 136.586 401.804Z" fill="#BDD0FB"/>
<path d="M24.8451 471.085C24.8797 471.085 24.897 471.085 24.9315 471.085L139.61 470.065C141.805 470.048 143.827 469.253 145.14 467.887C146.09 466.919 146.592 465.692 146.557 464.447L143.602 404.812C143.533 401.856 140.388 399.453 136.586 399.453C136.534 399.453 136.499 399.453 136.448 399.453L21.9764 401.095C19.799 401.13 17.7944 401.925 16.481 403.273C15.5478 404.241 15.0467 405.469 15.0812 406.696C15.0812 406.696 15.0812 406.713 15.0812 406.73L17.8289 465.709C17.8981 468.734 20.9741 471.085 24.8451 471.085ZM136.586 401.804C139.092 401.804 141.234 403.204 141.269 404.915L144.224 464.551C144.241 465.294 143.827 465.899 143.464 466.28C142.6 467.179 141.148 467.732 139.593 467.732L24.9143 468.752C24.897 468.752 24.8797 468.752 24.8624 468.752C22.3566 468.752 20.2138 467.334 20.1792 465.64L17.4315 406.644C17.4142 405.883 17.8289 405.278 18.1919 404.915C19.0559 404.017 20.4903 403.481 22.0283 403.446L136.499 401.804C136.517 401.804 136.551 401.804 136.586 401.804Z" fill="white"/>
<path d="M17.7253 413.299H142.617C143.256 413.299 143.792 412.781 143.792 412.124C143.792 411.484 143.274 410.948 142.617 410.948H17.7253C17.0859 410.948 16.5501 411.467 16.5501 412.124C16.5674 412.781 17.0859 413.299 17.7253 413.299Z" fill="#BDD0FB"/>
<path d="M17.7253 413.299H142.617C143.256 413.299 143.792 412.781 143.792 412.124C143.792 411.484 143.274 410.948 142.617 410.948H17.7253C17.0859 410.948 16.5501 411.467 16.5501 412.124C16.5674 412.781 17.0859 413.299 17.7253 413.299Z" fill="white"/>
<path d="M249.052 437.135L247.964 476.235C247.877 479.278 243.747 481.715 238.684 481.715H110.681C105.549 481.715 101.401 479.226 101.401 476.149V439.555C101.401 436.547 105.376 434.093 110.388 433.989L239.479 431.483C244.767 431.379 249.139 433.954 249.052 437.135Z" fill="black"/>
<path d="M238.459 440.955L235.677 476.909C235.573 478.292 233.655 479.364 231.339 479.347L114.794 478.119C112.478 478.102 110.612 476.961 110.612 475.561V444.378C110.612 443.012 112.392 441.888 114.656 441.819L233.983 438.276C236.506 438.207 238.58 439.451 238.459 440.955Z" fill="#9A9A9A"/>
<path d="M229.162 444.326V446.919C229.162 447.835 227.917 448.561 226.397 448.561L125.872 447.576C124.385 447.558 123.193 446.832 123.193 445.934C123.193 445.052 124.368 444.326 125.854 444.291L226.379 442.684C227.9 442.667 229.162 443.41 229.162 444.326Z" fill="white"/>
<path d="M227.658 454.109V456.477C227.658 457.41 226.379 458.136 224.841 458.119L129.086 456.114C127.617 456.079 126.459 455.353 126.459 454.472V453.729C126.459 452.83 127.686 452.086 129.207 452.086L224.962 452.449C226.449 452.484 227.658 453.21 227.658 454.109Z" fill="url(#paint0_linear_29_3915)"/>
<path d="M227.658 454.109V456.477C227.658 457.41 226.379 458.136 224.841 458.119L129.086 456.114C127.617 456.079 126.459 455.353 126.459 454.472V453.729C126.459 452.83 127.686 452.086 129.207 452.086L224.962 452.449C226.449 452.484 227.658 453.21 227.658 454.109Z" fill="white"/>
<path d="M145.313 409.081C145.261 409.064 114.465 355.115 110.301 350.033C109.592 349.186 108.521 348.737 107.415 348.875L98.8257 349.895L88.7334 371.744L105.566 361.943C103.906 373.456 125.508 390.568 132.922 396.826C133.682 397.465 133.734 398.589 133.06 399.298L130.105 402.392C134.961 407.318 140.578 410.482 146.903 411.951L145.313 409.081Z" fill="url(#paint1_linear_29_3915)"/>
<path d="M131.782 400.749C131.782 400.749 129.898 401.354 129.258 403.048C128.947 403.86 129.276 404.759 129.984 405.261C133.095 407.49 143.36 414.681 148.078 416.099C148.458 416.22 148.838 415.857 148.752 415.459C148.51 414.353 147.715 412.158 145.192 408.942L145.417 409.409C145.71 409.997 145.071 410.602 144.501 410.273C141.338 408.476 134.892 404.569 131.782 400.749Z" fill="url(#paint2_linear_29_3915)"/>
<path d="M131.782 400.749C131.782 400.749 129.898 401.354 129.258 403.048C128.947 403.86 129.276 404.759 129.984 405.261C133.095 407.49 143.36 414.681 148.078 416.099C148.458 416.22 148.838 415.857 148.752 415.459C148.51 414.353 147.715 412.158 145.192 408.942L145.417 409.409C145.71 409.997 145.071 410.602 144.501 410.273C141.338 408.476 134.892 404.569 131.782 400.749Z" fill="url(#paint3_linear_29_3915)"/>
<path d="M133.302 422.322C133.25 422.287 128.636 411.155 128.584 411.121C124.351 385.313 114.016 363.222 110.957 357.414C110.439 356.429 109.471 355.789 108.365 355.703L99.7417 354.959L85.4326 374.319L103.889 368.131C99.9318 379.073 117.628 400.213 123.625 407.819C124.23 408.597 124.057 409.721 123.262 410.274L119.736 412.711C123.504 418.519 128.343 422.754 134.253 425.468L133.302 422.322Z" fill="url(#paint4_linear_29_3915)"/>
<path d="M121.758 411.414C121.758 411.414 119.788 411.621 118.82 413.143C118.354 413.869 118.492 414.837 119.08 415.459C121.672 418.276 130.261 427.386 134.616 429.737C134.979 429.927 135.411 429.668 135.393 429.253C135.376 428.129 135.048 425.813 133.216 422.148L133.337 422.65C133.492 423.272 132.767 423.739 132.265 423.324C129.552 420.938 124.022 415.787 121.758 411.414Z" fill="url(#paint5_linear_29_3915)"/>
<path d="M121.758 411.414C121.758 411.414 119.788 411.621 118.82 413.143C118.354 413.869 118.492 414.837 119.08 415.459C121.672 418.276 130.261 427.386 134.616 429.737C134.979 429.927 135.411 429.668 135.393 429.253C135.376 428.129 135.048 425.813 133.216 422.148L133.337 422.65C133.492 423.272 132.767 423.739 132.265 423.324C129.552 420.938 124.022 415.787 121.758 411.414Z" fill="url(#paint6_linear_29_3915)"/>
<path d="M59.3726 350.88C59.3726 350.88 51.5613 362.496 50.9219 367.786C50.2825 373.075 53.0821 374.908 61.2389 375.582C85.5367 377.587 97.5301 370.31 97.5301 370.31C99.1891 359.713 100.382 357.017 114.259 351.243C114.259 351.243 96.7006 352.644 93.1579 351.261C89.6497 349.895 59.3726 350.88 59.3726 350.88Z" fill="url(#paint7_linear_29_3915)"/>
<path d="M59.3726 350.88C59.3726 350.88 51.5613 362.496 50.9219 367.786C50.2825 373.075 53.0821 374.908 61.2389 375.582C85.5367 377.587 97.5301 370.31 97.5301 370.31C99.1891 359.713 100.382 357.017 114.259 351.243C114.259 351.243 96.7006 352.644 93.1579 351.261C89.6497 349.895 59.3726 350.88 59.3726 350.88Z" fill="url(#paint8_linear_29_3915)"/>
<path d="M82.4608 282.447C82.4608 282.447 78.5898 284.003 77.743 286.043C77.069 287.685 72.9214 287.598 72.2647 290.865C71.9364 292.559 70.5712 293.821 68.8603 293.96C64.5918 294.305 57.9211 296.034 56.3485 303.294C55.1561 308.843 57.852 311.176 60.7899 312.127C62.95 312.818 64.2634 315.065 63.6586 317.261C63.071 319.37 63.5376 321.876 67.0976 324.089C75.0644 329.05 84.3791 314.927 84.3791 314.927L87.9218 289.362L82.4608 282.447Z" fill="url(#paint9_linear_29_3915)"/>
<path d="M82.4608 282.447C82.4608 282.447 78.5898 284.003 77.743 286.043C77.069 287.685 72.9214 287.598 72.2647 290.865C71.9364 292.559 70.5712 293.821 68.8603 293.96C64.5918 294.305 57.9211 296.034 56.3485 303.294C55.1561 308.843 57.852 311.176 60.7899 312.127C62.95 312.818 64.2634 315.065 63.6586 317.261C63.071 319.37 63.5376 321.876 67.0976 324.089C75.0644 329.05 84.3791 314.927 84.3791 314.927L87.9218 289.362L82.4608 282.447Z" fill="url(#paint10_linear_29_3915)"/>
<path d="M82.4608 282.447C82.4608 282.447 78.5898 284.003 77.743 286.043C77.069 287.685 72.9214 287.598 72.2647 290.865C71.9364 292.559 70.5712 293.821 68.8603 293.96C64.5918 294.305 57.9211 296.034 56.3485 303.294C55.1561 308.843 57.852 311.176 60.7899 312.127C62.95 312.818 64.2634 315.065 63.6586 317.261C63.071 319.37 63.5376 321.876 67.0976 324.089C75.0644 329.05 84.3791 314.927 84.3791 314.927L87.9218 289.362L82.4608 282.447Z" fill="url(#paint11_linear_29_3915)"/>
<path d="M80.4734 349.342C80.4734 349.342 89.5635 340.682 94.0394 334.961C96.4588 331.867 97.2192 327.787 96.0959 324.019C94.0567 317.139 90.4276 310.017 90.0992 308.894C89.5981 307.2 79.402 307.269 79.402 307.269C79.402 307.269 59.3555 320.285 51.4751 342.324L60.3233 345.073C60.3233 345.073 65.5595 336.292 70.7267 330.708C70.7267 330.708 61.7749 342.532 61.4638 347.372L80.4734 349.342Z" fill="white"/>
<path d="M97.7895 352.765L90.9633 345.332L83.083 347.458C83.083 347.458 73.8892 348.875 68.6356 347.458C63.3821 346.04 63.3821 346.04 63.3821 346.04L51.4924 342.341L49.626 347.613C49.1594 348.962 49.626 350.448 50.7839 351.261C51.8208 351.987 53.0132 352.799 53.7909 353.128C55.3635 353.819 89.8573 353.352 89.8573 353.352L97.7895 352.765Z" fill="url(#paint12_linear_29_3915)"/>
<path d="M84.4827 294.374L79.5575 307.753C80.0068 310.536 87.0059 310.605 88.0946 308.946C88.1983 308.773 88.2674 308.583 88.302 308.392L90.514 297.935C90.6868 297.105 90.2893 296.258 89.5462 295.86L86.833 294.408C85.7789 293.855 84.8456 293.25 84.4827 294.374Z" fill="url(#paint13_linear_29_3915)"/>
<path d="M91.62 282.084C91.62 282.084 95.059 284.78 96.165 291.124C97.271 297.468 94.5924 299.508 92.0175 299.196C89.4425 298.868 85.7616 297.796 82.8237 293.112C79.8859 288.393 87.1095 278.765 91.62 282.084Z" fill="url(#paint14_linear_29_3915)"/>
<path d="M86.2628 290.831C86.2628 290.831 85.5888 281.808 92.8816 283.709L94.2641 285.368C94.2641 285.368 98.187 281.548 94.3851 278.178C90.6004 274.807 84.9667 275.187 81.4931 280.598C78.0022 285.991 76.6024 289.863 78.9354 293.545C81.2684 297.226 83.4286 294.374 83.4286 294.374C83.4286 294.374 82.4608 291.263 83.5323 290.036C84.6037 288.808 85.7271 290.952 85.7271 290.952L86.2628 290.831Z" fill="url(#paint15_linear_29_3915)"/>
<path d="M86.2628 290.831C86.2628 290.831 85.5888 281.808 92.8816 283.709L94.2641 285.368C94.2641 285.368 98.187 281.548 94.3851 278.178C90.6004 274.807 84.9667 275.187 81.4931 280.598C78.0022 285.991 76.6024 289.863 78.9354 293.545C81.2684 297.226 83.4286 294.374 83.4286 294.374C83.4286 294.374 82.4608 291.263 83.5323 290.036C84.6037 288.808 85.7271 290.952 85.7271 290.952L86.2628 290.831Z" fill="url(#paint16_linear_29_3915)"/>
<path d="M86.2628 290.831C86.2628 290.831 85.5888 281.808 92.8816 283.709L94.2641 285.368C94.2641 285.368 98.187 281.548 94.3851 278.178C90.6004 274.807 84.9667 275.187 81.4931 280.598C78.0022 285.991 76.6024 289.863 78.9354 293.545C81.2684 297.226 83.4286 294.374 83.4286 294.374C83.4286 294.374 82.4608 291.263 83.5323 290.036C84.6037 288.808 85.7271 290.952 85.7271 290.952L86.2628 290.831Z" fill="url(#paint17_linear_29_3915)"/>
<path d="M85.2086 291.522C85.2086 291.522 84.8803 286.889 82.4436 288.03C80.0069 289.171 82.9793 292.386 84.189 293.475L85.2086 291.522Z" fill="url(#paint18_linear_29_3915)"/>
<path d="M75.1852 355.703C75.2025 355.703 75.237 355.703 75.2543 355.703L106.655 355.668C107.432 355.668 108.055 355.046 108.055 354.268C108.055 353.49 107.415 352.851 106.655 352.868L75.2543 352.903C74.4767 352.903 73.8545 353.525 73.8545 354.303C73.8545 355.046 74.4421 355.668 75.1852 355.703Z" fill="#979797"/>
<path d="M134.759 326.996H108.612C106.676 326.996 104.931 328.102 104.101 329.848L92.0042 355.5H124.511C125.755 355.5 126.878 354.74 127.328 353.582L136.711 329.848C137.247 328.483 136.245 326.996 134.759 326.996Z" fill="url(#paint19_linear_29_3915)"/>
<path d="M134.759 326.996H108.612C106.676 326.996 104.931 328.102 104.101 329.848L92.0042 355.5H124.511C125.755 355.5 126.878 354.74 127.328 353.582L136.711 329.848C137.247 328.483 136.245 326.996 134.759 326.996Z" fill="url(#paint20_linear_29_3915)"/>
<path d="M116.471 340.336C115.9 342.099 116.315 343.81 117.404 344.156C118.492 344.502 119.823 343.361 120.393 341.598C120.964 339.835 120.549 338.123 119.46 337.778C118.371 337.432 117.041 338.573 116.471 340.336Z" fill="black"/>
<path d="M387.631 160.117C387.631 160.117 346.829 209.831 331.812 197.852C316.794 185.873 357.319 120.585 357.319 120.585L387.631 160.117Z" fill="#D80707"/>
<path d="M385.954 482.855C385.954 482.613 385.971 482.371 386.023 482.112C389.704 467.506 408.005 458.396 408.005 458.396L415.246 458.966C419.411 471.844 418.875 479.744 418.201 483.27C418.184 483.374 418.149 483.46 418.132 483.564C412.17 484.083 399.866 484.428 385.954 482.855Z" fill="url(#paint21_linear_29_3915)"/>
<path d="M385.954 482.855C385.954 482.613 385.971 482.371 386.023 482.112C389.704 467.506 408.005 458.396 408.005 458.396L415.246 458.966C419.411 471.844 418.875 479.744 418.201 483.27C418.184 483.374 418.149 483.46 418.132 483.564C412.17 484.083 399.866 484.428 385.954 482.855Z" fill="url(#paint22_linear_29_3915)"/>
<path d="M418.167 448.163L415.091 462.942C414.866 464.031 414.037 464.844 413.034 464.93C411.807 465.051 410.044 465.12 408.282 464.861C406.692 464.636 405.603 463.012 405.88 461.283L408.005 448.163H418.167Z" fill="url(#paint23_linear_29_3915)"/>
<path d="M321.771 482.198C321.823 482.094 321.875 481.973 321.944 481.87C325.832 476.442 335.717 465.638 355.246 460.954L364.612 460.66C364.612 460.66 368.777 467.92 368.863 481.351C366.72 482.233 362.59 483.166 354.572 483.391C342.198 483.737 327.526 482.682 321.771 482.198Z" fill="url(#paint24_linear_29_3915)"/>
<path d="M321.771 482.198C321.823 482.094 321.875 481.973 321.944 481.87C325.832 476.442 335.717 465.638 355.246 460.954L364.612 460.66C364.612 460.66 368.777 467.92 368.863 481.351C366.72 482.233 362.59 483.166 354.572 483.391C342.198 483.737 327.526 482.682 321.771 482.198Z" fill="url(#paint25_linear_29_3915)"/>
<path d="M366.34 446.452C366.237 447.143 364.958 457.774 364.457 461.888C364.336 462.873 363.627 463.617 362.728 463.738C361.139 463.928 358.546 464.101 356.3 463.634C355.073 463.392 354.191 462.217 354.191 460.851V444.188L366.34 446.452Z" fill="url(#paint26_linear_29_3915)"/>
<path d="M373.858 252.681C373.858 252.681 351.254 338.59 351.668 446.711C351.668 448.682 353.068 450.376 354.986 450.79C357.821 451.395 362.003 452.104 365.459 452C367.308 451.949 368.846 450.583 369.157 448.751C372.32 430.169 390.517 325.436 400.868 308.444C400.868 308.444 407.677 401.717 405.5 450.099C405.448 451.309 406.329 452.346 407.522 452.484C409.336 452.692 412.239 452.847 415.938 452.467C417.337 452.312 418.478 451.257 418.668 449.857C420.932 434.127 433.91 340.474 433.357 273.026C433.322 269.223 423.299 252.681 423.299 252.681H373.858Z" fill="url(#paint27_linear_29_3915)"/>
<path d="M373.858 252.681C373.858 252.681 351.254 338.59 351.668 446.711C351.668 448.682 353.068 450.376 354.986 450.79C357.821 451.395 362.003 452.104 365.459 452C367.308 451.949 368.846 450.583 369.157 448.751C372.32 430.169 390.517 325.436 400.868 308.444C400.868 308.444 407.677 401.717 405.5 450.099C405.448 451.309 406.329 452.346 407.522 452.484C409.336 452.692 412.239 452.847 415.938 452.467C417.337 452.312 418.478 451.257 418.668 449.857C420.932 434.127 433.91 340.474 433.357 273.026C433.322 269.223 423.299 252.681 423.299 252.681H373.858Z" fill="url(#paint28_linear_29_3915)"/>
<path d="M358.304 121C389.411 116.506 423.576 120.637 440.166 122.711C445.54 123.385 450.448 126.03 453.991 130.127C468.023 146.375 498.818 190.833 462.58 235.655C457.948 233.079 451.347 228.948 446.871 224.177C450.88 212.872 451.209 198.422 442.81 180.704C442.516 182.104 442.17 183.504 441.738 184.87C430.16 221.567 429.538 252.11 429.572 259.146C429.572 260.096 429.002 260.961 428.121 261.324C412.879 267.425 383.535 263.795 373.685 262.326C371.87 262.05 370.661 260.373 370.92 258.558C374.376 233.442 362.625 196.728 353.258 172.632C349.526 163.107 356.369 123.662 358.304 121Z" fill="#D80707"/>
<path d="M407.867 84.4932L412.153 119.998C412.343 121.606 411.358 123.127 409.803 123.593C405.137 124.959 395.165 127.016 386.041 123.265C384.312 122.556 383.362 120.672 383.759 118.857L389.203 93.862L407.867 84.4932Z" fill="url(#paint29_linear_29_3915)"/>
<path d="M380.027 59.2562C379.75 59.7402 374.013 96.2131 374.013 96.2131L394.889 99.0479L405.465 65.3062C405.482 65.3062 384.52 51.0628 380.027 59.2562Z" fill="url(#paint30_linear_29_3915)"/>
<path d="M397.74 68.6598C398.328 69.3858 398.552 70.3365 398.345 71.2526L394.232 89.1952C394.163 89.4718 394.076 89.731 393.938 89.973C393.195 91.3213 390.465 95.418 386.352 92.393C382.843 89.8175 379.577 87.4839 376.743 87.0172C375.084 86.7406 373.529 87.8988 373.27 89.5582C372.751 92.9808 371.818 99.9123 371.87 106.187C371.887 107.76 373.114 109.056 374.687 109.16C378.817 109.454 386.922 109.782 393.61 108.572C394.716 108.382 395.614 107.587 395.96 106.533C397.481 101.848 401.819 88.763 403.616 85.254C405.275 82.0043 410.131 81.4339 412.378 81.3648C413.224 81.3302 414.019 80.9499 414.572 80.3103C416.249 78.3743 418.858 74.0875 413.812 69.887C412.568 68.8499 412.412 66.9485 413.432 65.6866C415.264 63.4049 416.836 59.723 412.931 55.851C408.973 51.9445 404.497 52.9298 401.663 54.2608C400.401 54.8485 398.863 54.5892 397.965 53.5348C397.567 53.068 396.98 52.7396 396.098 52.8433C394.439 53.0335 392.97 51.9445 392.763 50.3023C392.417 47.4675 390.897 44.1486 385.902 43.1979C376.726 41.452 372.164 50.648 372.354 57.0956C372.544 63.5432 382.602 64.8742 388.304 63.7852C392.469 62.99 396.098 66.6546 397.74 68.6598Z" fill="url(#paint31_linear_29_3915)"/>
<path d="M397.74 68.6598C398.328 69.3858 398.552 70.3365 398.345 71.2526L394.232 89.1952C394.163 89.4718 394.076 89.731 393.938 89.973C393.195 91.3213 390.465 95.418 386.352 92.393C382.843 89.8175 379.577 87.4839 376.743 87.0172C375.084 86.7406 373.529 87.8988 373.27 89.5582C372.751 92.9808 371.818 99.9123 371.87 106.187C371.887 107.76 373.114 109.056 374.687 109.16C378.817 109.454 386.922 109.782 393.61 108.572C394.716 108.382 395.614 107.587 395.96 106.533C397.481 101.848 401.819 88.763 403.616 85.254C405.275 82.0043 410.131 81.4339 412.378 81.3648C413.224 81.3302 414.019 80.9499 414.572 80.3103C416.249 78.3743 418.858 74.0875 413.812 69.887C412.568 68.8499 412.412 66.9485 413.432 65.6866C415.264 63.4049 416.836 59.723 412.931 55.851C408.973 51.9445 404.497 52.9298 401.663 54.2608C400.401 54.8485 398.863 54.5892 397.965 53.5348C397.567 53.068 396.98 52.7396 396.098 52.8433C394.439 53.0335 392.97 51.9445 392.763 50.3023C392.417 47.4675 390.897 44.1486 385.902 43.1979C376.726 41.452 372.164 50.648 372.354 57.0956C372.544 63.5432 382.602 64.8742 388.304 63.7852C392.469 62.99 396.098 66.6546 397.74 68.6598Z" fill="url(#paint32_linear_29_3915)"/>
<path d="M397.74 68.6598C398.328 69.3858 398.552 70.3365 398.345 71.2526L394.232 89.1952C394.163 89.4718 394.076 89.731 393.938 89.973C393.195 91.3213 390.465 95.418 386.352 92.393C382.843 89.8175 379.577 87.4839 376.743 87.0172C375.084 86.7406 373.529 87.8988 373.27 89.5582C372.751 92.9808 371.818 99.9123 371.87 106.187C371.887 107.76 373.114 109.056 374.687 109.16C378.817 109.454 386.922 109.782 393.61 108.572C394.716 108.382 395.614 107.587 395.96 106.533C397.481 101.848 401.819 88.763 403.616 85.254C405.275 82.0043 410.131 81.4339 412.378 81.3648C413.224 81.3302 414.019 80.9499 414.572 80.3103C416.249 78.3743 418.858 74.0875 413.812 69.887C412.568 68.8499 412.412 66.9485 413.432 65.6866C415.264 63.4049 416.836 59.723 412.931 55.851C408.973 51.9445 404.497 52.9298 401.663 54.2608C400.401 54.8485 398.863 54.5892 397.965 53.5348C397.567 53.068 396.98 52.7396 396.098 52.8433C394.439 53.0335 392.97 51.9445 392.763 50.3023C392.417 47.4675 390.897 44.1486 385.902 43.1979C376.726 41.452 372.164 50.648 372.354 57.0956C372.544 63.5432 382.602 64.8742 388.304 63.7852C392.469 62.99 396.098 66.6546 397.74 68.6598Z" fill="url(#paint33_linear_29_3915)"/>
<path d="M402.009 91.8567C402.009 91.8567 402.181 80.6037 406.726 79.5319C411.272 78.4602 416.197 81.7445 412.326 88.5032C407.504 96.8868 402.009 91.8567 402.009 91.8567Z" fill="url(#paint34_linear_29_3915)"/>
<path d="M444.313 177.957C450.465 161.138 448.236 140.827 448.202 140.637L446.508 140.827C446.525 141.034 448.72 160.947 442.706 177.369L444.313 177.957Z" fill="url(#paint35_linear_29_3915)"/>
<path d="M401.715 306.249C402.095 306.249 402.441 305.99 402.544 305.609C404.411 298.384 418.461 290.432 418.599 290.346C419.014 290.121 419.152 289.603 418.927 289.188C418.703 288.773 418.184 288.635 417.769 288.859C417.164 289.205 402.959 297.243 400.903 305.177C400.782 305.627 401.058 306.093 401.507 306.214C401.577 306.249 401.646 306.249 401.715 306.249Z" fill="url(#paint36_linear_29_3915)"/>
<path d="M401.715 306.249C402.095 306.249 402.441 305.99 402.544 305.609C404.411 298.384 418.461 290.432 418.599 290.346C419.014 290.121 419.152 289.603 418.927 289.188C418.703 288.773 418.184 288.635 417.769 288.859C417.164 289.205 402.959 297.243 400.903 305.177C400.782 305.627 401.058 306.093 401.507 306.214C401.577 306.249 401.646 306.249 401.715 306.249Z" fill="url(#paint37_linear_29_3915)"/>
<path d="M446.853 224.177C451.329 228.948 457.913 233.079 462.562 235.655C455.632 244.211 446.266 252.785 433.858 261.186L432.354 264.557C431.075 267.443 428.258 269.362 425.096 269.5C407.763 270.33 402.958 266.648 418.926 255.516C418.909 255.516 439.336 245.352 446.853 224.177Z" fill="url(#paint38_linear_29_3915)"/>
<path d="M319.369 148.899C319.369 148.899 341.248 171.647 346.311 179.91C351.375 188.155 345.741 203.193 334.249 199.702C322.757 196.21 309.398 156.729 309.398 156.729L319.369 148.899Z" fill="url(#paint39_linear_29_3915)"/>
<path d="M355.989 116.592C355.989 116.592 336.754 167.309 330.689 177.87C323.638 190.126 303.038 182.313 304.075 172.062C305.095 161.812 329.151 119.444 329.151 119.444L355.989 116.592Z" fill="black"/>
<path d="M329.998 79.6528L210.498 38.2021L211.759 150.351L333.264 123.23L329.998 79.6528Z" fill="url(#paint40_linear_29_3915)"/>
<path d="M329.998 79.6528L210.498 38.2021L211.759 150.351L333.264 123.23L329.998 79.6528Z" fill="#D80707"/>
<path d="M210.394 152.235C203.913 152.235 198.66 126.433 198.66 94.605C198.66 62.7769 203.913 36.9751 210.394 36.9751C216.875 36.9751 222.128 62.7769 222.128 94.605C222.128 126.433 216.875 152.235 210.394 152.235Z" fill="url(#paint41_linear_29_3915)"/>
<path d="M210.394 152.235C203.913 152.235 198.66 126.433 198.66 94.605C198.66 62.7769 203.913 36.9751 210.394 36.9751C216.875 36.9751 222.128 62.7769 222.128 94.605C222.128 126.433 216.875 152.235 210.394 152.235Z" fill="#FF6161"/>
<path d="M209.495 148.294C210.55 147.222 212.865 143.056 214.853 132.287C216.771 121.881 217.825 108.382 217.825 94.2765C217.825 80.1715 216.771 66.6715 214.853 56.2657C212.865 45.4968 210.567 41.331 209.495 40.2593C208.441 41.331 206.126 45.4968 204.138 56.2657C202.22 66.6715 201.166 80.1715 201.166 94.2765C201.166 108.382 202.22 121.881 204.138 132.287C206.126 143.056 208.441 147.222 209.495 148.294Z" fill="url(#paint42_linear_29_3915)"/>
<path d="M209.495 148.294C210.55 147.222 212.865 143.056 214.853 132.287C216.771 121.881 217.825 108.382 217.825 94.2765C217.825 80.1715 216.771 66.6715 214.853 56.2657C212.865 45.4968 210.567 41.331 209.495 40.2593C208.441 41.331 206.126 45.4968 204.138 56.2657C202.22 66.6715 201.166 80.1715 201.166 94.2765C201.166 108.382 202.22 121.881 204.138 132.287C206.126 143.056 208.441 147.222 209.495 148.294Z" fill="#D80707"/>
<mask id="mask0_29_3915" style="mask-type:luminance" maskUnits="userSpaceOnUse" x="187" y="40" width="31" height="109">
<path d="M209.495 148.294C210.55 147.222 212.865 143.056 214.853 132.287C216.771 121.881 217.825 108.382 217.825 94.2765C217.825 80.1715 216.771 66.6715 214.853 56.2657C212.865 45.4968 210.567 41.331 209.495 40.2593C208.441 41.331 206.126 45.4968 204.138 56.2657C202.22 66.6715 187.116 80.1715 187.116 94.2765C187.116 108.382 202.237 121.881 204.138 132.287C206.126 143.056 208.441 147.222 209.495 148.294Z" fill="white"/>
</mask>
<g mask="url(#mask0_29_3915)">
<path d="M194.443 93.8445C194.443 103.646 199.714 111.58 210.152 111.58C220.59 111.58 229.058 103.646 229.058 93.8445C229.058 84.0435 220.59 76.1094 210.152 76.1094C199.714 76.1094 194.443 84.0608 194.443 93.8445Z" fill="black"/>
</g>
<path d="M349.284 77.2329C343.667 76.5761 335.597 76.3514 326.887 78.3392C329.755 93.3432 329.323 108.987 326.005 125.184H350.597C354.52 125.184 357.855 122.331 358.477 118.459C359.704 110.698 361.208 97.6474 359.601 87.1722C358.771 81.9174 354.554 77.8552 349.284 77.2329Z" fill="black"/>
<path d="M334.525 89.0046H353.673C354.416 89.0046 355.107 88.5897 355.453 87.9501C355.816 87.2933 355.781 86.4981 355.367 85.8759C355.142 85.5129 354.658 85.4091 354.295 85.6511C353.932 85.8759 353.829 86.3599 354.07 86.7229C354.209 86.9303 354.122 87.1377 354.088 87.2069C354.053 87.276 353.932 87.4489 353.673 87.4489H334.525C334.266 87.4489 334.041 87.2414 334.041 86.9649V85.5993C334.041 85.34 334.249 85.1153 334.525 85.1153H353.829C354.261 85.1153 354.606 84.7696 354.606 84.3374C354.606 83.9053 354.261 83.5596 353.829 83.5596H334.525C333.402 83.5596 332.486 84.4757 332.486 85.5993V86.9649C332.486 88.1057 333.402 89.0046 334.525 89.0046Z" fill="white"/>
<path d="M336.236 97.4919H355.384C356.127 97.4919 356.818 97.077 357.164 96.4375C357.527 95.7806 357.492 94.9855 357.077 94.3632C356.836 94.0002 356.369 93.8964 356.006 94.1384C355.643 94.3804 355.539 94.8472 355.781 95.2102C355.92 95.4176 355.833 95.625 355.799 95.6942C355.764 95.7633 355.643 95.9362 355.384 95.9362H336.236C335.977 95.9362 335.752 95.7287 335.752 95.4522V94.0866C335.752 93.8273 335.96 93.6026 336.236 93.6026H355.522C355.954 93.6026 356.3 93.2569 356.3 92.8247C356.3 92.3926 355.954 92.0469 355.522 92.0469H336.219C335.095 92.0469 334.18 92.963 334.18 94.0866V95.4522C334.197 96.593 335.113 97.4919 336.236 97.4919Z" fill="white"/>
<path opacity="0.69" d="M312.647 76.8878C312.976 76.8878 313.287 76.6804 313.391 76.352C313.529 75.9371 313.287 75.505 312.889 75.3667L222.37 46.5514C221.955 46.4131 221.523 46.6551 221.385 47.0527C221.247 47.4675 221.489 47.8997 221.886 48.038L312.405 76.8533C312.475 76.8878 312.561 76.8878 312.647 76.8878Z" fill="white"/>
<path opacity="0.69" d="M324.883 81.9004C325.194 81.9004 325.487 81.7103 325.608 81.4164C325.764 81.0188 325.574 80.5694 325.176 80.3965L320.51 78.4951C320.113 78.3395 319.664 78.5297 319.491 78.9273C319.335 79.3248 319.525 79.7743 319.923 79.9471L324.589 81.8485C324.675 81.8831 324.779 81.9004 324.883 81.9004Z" fill="white"/>
<path d="M334.525 107.431H353.673C354.416 107.431 355.107 107.016 355.453 106.377C355.816 105.72 355.781 104.925 355.367 104.303C355.125 103.94 354.658 103.836 354.295 104.078C353.932 104.32 353.829 104.787 354.07 105.15C354.209 105.357 354.122 105.564 354.088 105.634C354.053 105.703 353.932 105.876 353.673 105.876H334.525C334.266 105.876 334.041 105.668 334.041 105.392V104.026C334.041 103.767 334.249 103.542 334.525 103.542H353.829C354.261 103.542 354.606 103.196 354.606 102.764C354.606 102.332 354.261 101.986 353.829 101.986H334.525C333.402 101.986 332.486 102.902 332.486 104.026V105.392C332.486 106.515 333.402 107.431 334.525 107.431Z" fill="white"/>
<path d="M332.728 118.459H351.893C352.636 118.459 353.327 118.044 353.673 117.405C354.036 116.748 354.001 115.953 353.587 115.33C353.345 114.967 352.878 114.864 352.515 115.106C352.152 115.348 352.049 115.814 352.29 116.177C352.429 116.385 352.342 116.592 352.308 116.661C352.273 116.731 352.152 116.903 351.893 116.903H332.745C332.486 116.903 332.261 116.696 332.261 116.419V115.054C332.261 114.795 332.469 114.57 332.745 114.57H352.031C352.463 114.57 352.809 114.224 352.809 113.792C352.809 113.36 352.463 113.014 352.031 113.014H332.728C331.605 113.014 330.689 113.93 330.689 115.054V116.419C330.706 117.56 331.605 118.459 332.728 118.459Z" fill="white"/>
<path d="M315.619 178.44C316.518 178.44 317.434 178.337 318.35 178.147C322.342 177.282 325.574 174.655 327.25 170.938L342.561 136.937C342.734 136.54 342.561 136.09 342.164 135.9C341.766 135.727 341.317 135.9 341.127 136.298L325.816 170.299C324.347 173.549 321.495 175.865 318.004 176.625C314.565 177.369 311.092 176.487 308.465 174.188C308.327 174.067 308.171 173.929 308.033 173.808C307.722 173.514 307.221 173.531 306.927 173.86C306.633 174.171 306.65 174.672 306.979 174.966C307.134 175.104 307.29 175.243 307.428 175.381C309.761 177.369 312.63 178.44 315.619 178.44Z" fill="white"/>
<path d="M344.099 132.357C344.393 132.357 344.687 132.184 344.808 131.89L346.518 128.104C346.691 127.707 346.518 127.257 346.121 127.067C345.724 126.894 345.274 127.067 345.084 127.465L343.373 131.25C343.2 131.648 343.373 132.097 343.771 132.288C343.892 132.339 343.995 132.357 344.099 132.357Z" fill="white"/>
<path d="M197.243 93.6199C197.64 93.6199 197.986 93.3088 198.021 92.8939C198.349 88.1922 199.973 84.6832 202.842 82.4706C207.802 78.6505 214.956 79.9642 215.026 79.9642C215.44 80.0506 215.855 79.774 215.941 79.3419C216.028 78.927 215.751 78.5122 215.319 78.4258C214.991 78.3566 207.422 76.9738 201.892 81.2088C198.66 83.6979 196.828 87.5872 196.448 92.7556C196.413 93.1878 196.742 93.5508 197.174 93.5853C197.208 93.6199 197.226 93.6199 197.243 93.6199Z" fill="white"/>
<path d="M327.647 135.831C327.647 135.831 321.409 130.542 316.535 135.831C311.662 141.121 310.694 150.369 311.697 150.818C312.682 151.267 342.803 143.783 327.647 135.831Z" fill="url(#paint43_linear_29_3915)"/>
<path d="M132.94 172.01C196.466 257.988 250.901 295.342 344.704 312.627C346.588 312.973 347.953 314.615 347.953 316.517V332.99C347.953 335.462 345.689 337.346 343.253 336.879C244.525 318.349 179.824 266.804 122.381 176.711C120.756 174.17 122.467 170.817 125.491 170.627L129.501 170.385C130.866 170.333 132.145 170.938 132.94 172.01Z" fill="#D80707"/>
<path d="M148.113 182.468L117.887 184.11C117.438 184.128 117.04 183.799 116.989 183.35L112.305 145.736C112.202 144.924 113.204 144.44 113.774 145.027L148.7 180.999C149.201 181.535 148.856 182.434 148.113 182.468Z" fill="url(#paint44_linear_29_3915)"/>
<path d="M148.113 182.468L117.887 184.11C117.438 184.128 117.04 183.799 116.989 183.35L112.305 145.736C112.202 144.924 113.204 144.44 113.774 145.027L148.7 180.999C149.201 181.535 148.856 182.434 148.113 182.468Z" fill="#D80707"/>
<defs>
<linearGradient id="paint0_linear_29_3915" x1="227.66" y1="455.114" x2="126.461" y2="455.114" gradientUnits="userSpaceOnUse">
<stop stop-color="#DAE3FE"/>
<stop offset="1" stop-color="#E9EFFD"/>
</linearGradient>
<linearGradient id="paint1_linear_29_3915" x1="152.687" y1="363.896" x2="104.127" y2="391.606" gradientUnits="userSpaceOnUse">
<stop stop-color="#FEBBBA"/>
<stop offset="1" stop-color="#FF928E"/>
</linearGradient>
<linearGradient id="paint2_linear_29_3915" x1="146.34" y1="391.612" x2="124.46" y2="444.554" gradientUnits="userSpaceOnUse">
<stop stop-color="#09005D"/>
<stop offset="1" stop-color="#1A0F91"/>
</linearGradient>
<linearGradient id="paint3_linear_29_3915" x1="148.815" y1="408.444" x2="129.205" y2="408.444" gradientUnits="userSpaceOnUse">
<stop/>
<stop offset="1"/>
</linearGradient>
<linearGradient id="paint4_linear_29_3915" x1="147.99" y1="370.809" x2="314.14" y2="266.822" gradientUnits="userSpaceOnUse">
<stop stop-color="#FEBBBA"/>
<stop offset="1" stop-color="#FF928E"/>
</linearGradient>
<linearGradient id="paint5_linear_29_3915" x1="137.858" y1="405.425" x2="105.718" y2="452.835" gradientUnits="userSpaceOnUse">
<stop stop-color="#09005D"/>
<stop offset="1" stop-color="#1A0F91"/>
</linearGradient>
<linearGradient id="paint6_linear_29_3915" x1="135.437" y1="420.617" x2="118.596" y2="420.617" gradientUnits="userSpaceOnUse">
<stop/>
<stop offset="1"/>
</linearGradient>
<linearGradient id="paint7_linear_29_3915" x1="46.8309" y1="165.974" x2="62.6203" y2="251.917" gradientUnits="userSpaceOnUse">
<stop stop-color="#09005D"/>
<stop offset="1" stop-color="#1A0F91"/>
</linearGradient>
<linearGradient id="paint8_linear_29_3915" x1="114.421" y1="363.248" x2="51.041" y2="363.248" gradientUnits="userSpaceOnUse">
<stop/>
<stop offset="1"/>
</linearGradient>
<linearGradient id="paint9_linear_29_3915" x1="90.1276" y1="267.935" x2="77.0182" y2="294.99" gradientUnits="userSpaceOnUse">
<stop stop-color="#09005D"/>
<stop offset="1" stop-color="#1A0F91"/>
</linearGradient>
<linearGradient id="paint10_linear_29_3915" x1="148.408" y1="280.155" x2="75.0373" y2="287.209" gradientUnits="userSpaceOnUse">
<stop stop-color="#03013A"/>
<stop offset="1" stop-color="#03013A"/>
</linearGradient>
<linearGradient id="paint11_linear_29_3915" x1="88.0033" y1="303.82" x2="56.1633" y2="303.82" gradientUnits="userSpaceOnUse">
<stop/>
<stop offset="1"/>
</linearGradient>
<linearGradient id="paint12_linear_29_3915" x1="67.6476" y1="347.917" x2="19.2808" y2="347.917" gradientUnits="userSpaceOnUse">
<stop stop-color="#FEBBBA"/>
<stop offset="1" stop-color="#FF928E"/>
</linearGradient>
<linearGradient id="paint13_linear_29_3915" x1="86.5119" y1="325.252" x2="85.363" y2="307.354" gradientUnits="userSpaceOnUse">
<stop stop-color="#FEBBBA"/>
<stop offset="1" stop-color="#FF928E"/>
</linearGradient>
<linearGradient id="paint14_linear_29_3915" x1="92.6864" y1="305.242" x2="81.6732" y2="261.141" gradientUnits="userSpaceOnUse">
<stop stop-color="#FEBBBA"/>
<stop offset="1" stop-color="#FF928E"/>
</linearGradient>
<linearGradient id="paint15_linear_29_3915" x1="97.1811" y1="270.693" x2="79.0659" y2="294.685" gradientUnits="userSpaceOnUse">
<stop stop-color="#09005D"/>
<stop offset="1" stop-color="#1A0F91"/>
</linearGradient>
<linearGradient id="paint16_linear_29_3915" x1="130.705" y1="274.968" x2="88.8858" y2="280.034" gradientUnits="userSpaceOnUse">
<stop stop-color="#03013A"/>
<stop offset="1" stop-color="#03013A"/>
</linearGradient>
<linearGradient id="paint17_linear_29_3915" x1="96.0907" y1="285.73" x2="77.8452" y2="285.73" gradientUnits="userSpaceOnUse">
<stop/>
<stop offset="1"/>
</linearGradient>
<linearGradient id="paint18_linear_29_3915" x1="87.4129" y1="306.559" x2="76.3998" y2="262.458" gradientUnits="userSpaceOnUse">
<stop stop-color="#FEBBBA"/>
<stop offset="1" stop-color="#FF928E"/>
</linearGradient>
<linearGradient id="paint19_linear_29_3915" x1="103.976" y1="330.824" x2="121.934" y2="349.799" gradientUnits="userSpaceOnUse">
<stop stop-color="#09005D"/>
<stop offset="1" stop-color="#1A0F91"/>
</linearGradient>
<linearGradient id="paint20_linear_29_3915" x1="137.004" y1="326.996" x2="103.177" y2="353.02" gradientUnits="userSpaceOnUse">
<stop stop-color="white"/>
<stop offset="1" stop-color="#E3E3E3"/>
</linearGradient>
<linearGradient id="paint21_linear_29_3915" x1="418.679" y1="471.195" x2="385.961" y2="471.195" gradientUnits="userSpaceOnUse">
<stop stop-color="#09005D"/>
<stop offset="1" stop-color="#1A0F91"/>
</linearGradient>
<linearGradient id="paint22_linear_29_3915" x1="418.746" y1="471.212" x2="386.061" y2="471.212" gradientUnits="userSpaceOnUse">
<stop/>
<stop offset="1"/>
</linearGradient>
<linearGradient id="paint23_linear_29_3915" x1="409.58" y1="433.938" x2="415.833" y2="488.494" gradientUnits="userSpaceOnUse">
<stop stop-color="#FEBBBA"/>
<stop offset="1" stop-color="#FF928E"/>
</linearGradient>
<linearGradient id="paint24_linear_29_3915" x1="368.859" y1="472.065" x2="321.763" y2="472.065" gradientUnits="userSpaceOnUse">
<stop stop-color="#09005D"/>
<stop offset="1" stop-color="#1A0F91"/>
</linearGradient>
<linearGradient id="paint25_linear_29_3915" x1="368.984" y1="472.072" x2="321.925" y2="472.072" gradientUnits="userSpaceOnUse">
<stop/>
<stop offset="1"/>
</linearGradient>
<linearGradient id="paint26_linear_29_3915" x1="358.673" y1="439.773" x2="364.926" y2="494.328" gradientUnits="userSpaceOnUse">
<stop stop-color="#FEBBBA"/>
<stop offset="1" stop-color="#FF928E"/>
</linearGradient>
<linearGradient id="paint27_linear_29_3915" x1="357.484" y1="248.352" x2="434.678" y2="493.908" gradientUnits="userSpaceOnUse">
<stop stop-color="#09005D"/>
<stop offset="1" stop-color="#1A0F91"/>
</linearGradient>
<linearGradient id="paint28_linear_29_3915" x1="433.583" y1="352.802" x2="351.929" y2="352.802" gradientUnits="userSpaceOnUse">
<stop/>
<stop offset="1"/>
</linearGradient>
<linearGradient id="paint29_linear_29_3915" x1="413.178" y1="68.9024" x2="394.148" y2="127.556" gradientUnits="userSpaceOnUse">
<stop stop-color="#FEBBBA"/>
<stop offset="1" stop-color="#FF928E"/>
</linearGradient>
<linearGradient id="paint30_linear_29_3915" x1="387.199" y1="63.4669" x2="397.436" y2="132.936" gradientUnits="userSpaceOnUse">
<stop stop-color="#FEBBBA"/>
<stop offset="1" stop-color="#FF928E"/>
</linearGradient>
<linearGradient id="paint31_linear_29_3915" x1="409.096" y1="90.798" x2="364.739" y2="66.5138" gradientUnits="userSpaceOnUse">
<stop stop-color="#09005D"/>
<stop offset="1" stop-color="#1A0F91"/>
</linearGradient>
<linearGradient id="paint32_linear_29_3915" x1="501.977" y1="39.4145" x2="398.434" y2="48.4254" gradientUnits="userSpaceOnUse">
<stop stop-color="#03013A"/>
<stop offset="1" stop-color="#03013A"/>
</linearGradient>
<linearGradient id="paint33_linear_29_3915" x1="416.873" y1="76.2451" x2="372.014" y2="76.2451" gradientUnits="userSpaceOnUse">
<stop/>
<stop offset="1"/>
</linearGradient>
<linearGradient id="paint34_linear_29_3915" x1="-477.792" y1="778.445" x2="-526.365" y2="816.415" gradientUnits="userSpaceOnUse">
<stop stop-color="#FEBBBA"/>
<stop offset="1" stop-color="#FF928E"/>
</linearGradient>
<linearGradient id="paint35_linear_29_3915" x1="421.592" y1="115.133" x2="471.008" y2="205.897" gradientUnits="userSpaceOnUse">
<stop stop-color="#E1473D"/>
<stop offset="1" stop-color="#E9605A"/>
</linearGradient>
<linearGradient id="paint36_linear_29_3915" x1="396.517" y1="273.606" x2="413.284" y2="303.437" gradientUnits="userSpaceOnUse">
<stop stop-color="#090056"/>
<stop offset="1" stop-color="#020039"/>
</linearGradient>
<linearGradient id="paint37_linear_29_3915" x1="419.081" y1="297.51" x2="400.933" y2="297.51" gradientUnits="userSpaceOnUse">
<stop/>
<stop offset="1"/>
</linearGradient>
<linearGradient id="paint38_linear_29_3915" x1="462.55" y1="246.893" x2="409.182" y2="246.893" gradientUnits="userSpaceOnUse">
<stop stop-color="#FEBBBA"/>
<stop offset="1" stop-color="#FF928E"/>
</linearGradient>
<linearGradient id="paint39_linear_29_3915" x1="340.449" y1="192.743" x2="309.652" y2="145.195" gradientUnits="userSpaceOnUse">
<stop stop-color="#FEBBBA"/>
<stop offset="1" stop-color="#FF928E"/>
</linearGradient>
<linearGradient id="paint40_linear_29_3915" x1="311.236" y1="157.993" x2="212.423" y2="52.7747" gradientUnits="userSpaceOnUse">
<stop stop-color="#FF928E"/>
<stop offset="1" stop-color="#FE7062"/>
</linearGradient>
<linearGradient id="paint41_linear_29_3915" x1="144.892" y1="67.3078" x2="222.782" y2="99.7544" gradientUnits="userSpaceOnUse">
<stop stop-color="#FEBBBA"/>
<stop offset="1" stop-color="#FF928E"/>
</linearGradient>
<linearGradient id="paint42_linear_29_3915" x1="124.528" y1="44.5992" x2="245.543" y2="115.321" gradientUnits="userSpaceOnUse">
<stop stop-color="#FF928E"/>
<stop offset="1" stop-color="#FE7062"/>
</linearGradient>
<linearGradient id="paint43_linear_29_3915" x1="331.906" y1="142.151" x2="311.347" y2="142.151" gradientUnits="userSpaceOnUse">
<stop stop-color="#FEBBBA"/>
<stop offset="1" stop-color="#FF928E"/>
</linearGradient>
<linearGradient id="paint44_linear_29_3915" x1="173.247" y1="209.539" x2="917.397" y2="790.228" gradientUnits="userSpaceOnUse">
<stop stop-color="#FF928E"/>
<stop offset="1" stop-color="#FE7062"/>
</linearGradient>
</defs>
</svg>
