<svg id="line" viewBox="0 0 178 259" fill="none" xmlns="http://www.w3.org/2000/svg">
<path d="M173.675 35.6093L171.395 36.2858C171.173 36.3582 170.971 36.1891 170.911 35.9475C170.85 35.6818 170.991 35.4402 171.193 35.3677H171.213L173.433 34.7155H173.453C173.675 34.643 173.877 34.8121 173.937 35.0537C174.018 35.2711 173.897 35.5369 173.675 35.6093Z" fill="#636363"/>
<path d="M169.094 36.7448L166.774 37.0347C166.552 37.0588 166.37 36.8897 166.35 36.624C166.33 36.3582 166.471 36.1408 166.693 36.1166H166.713L168.994 35.8026H169.014C169.236 35.7784 169.417 35.9475 169.437 36.2133C169.478 36.479 169.316 36.7206 169.094 36.7448Z" fill="#636363"/>
<path d="M164.433 37.1796L162.092 37.1554C161.891 37.1554 161.709 36.938 161.709 36.6964C161.709 36.4548 161.891 36.2374 162.092 36.2374H162.113H164.413H164.433C164.655 36.2374 164.817 36.4548 164.817 36.6964C164.837 36.9863 164.655 37.1796 164.433 37.1796Z" fill="#636363"/>
<path d="M159.792 36.9864L157.472 36.6965C157.27 36.6723 157.129 36.4549 157.149 36.2133C157.169 35.9717 157.351 35.8026 157.552 35.8268H157.573L159.853 36.1167H159.873C160.075 36.1408 160.236 36.3582 160.216 36.5998C160.176 36.8414 159.994 37.0105 159.792 36.9864Z" fill="#636363"/>
<path d="M155.151 36.2858L152.871 35.7543C152.669 35.706 152.548 35.4885 152.589 35.2469C152.629 35.0054 152.811 34.8604 153.012 34.9087H153.032L155.292 35.4161H155.313C155.514 35.4644 155.635 35.6818 155.615 35.9234C155.555 36.1891 155.353 36.3341 155.151 36.2858Z" fill="#636363"/>
<path d="M150.611 35.1503L148.371 34.4497C148.19 34.4014 148.069 34.1598 148.109 33.9424C148.149 33.725 148.351 33.58 148.533 33.6283L150.752 34.3289H150.773C150.974 34.3772 151.075 34.6188 151.035 34.8604C150.994 35.0778 150.793 35.2228 150.611 35.1503Z" fill="#636363"/>
<path d="M146.132 33.6525L143.932 32.7828C143.75 32.7103 143.65 32.4687 143.71 32.2513C143.771 32.0339 143.972 31.9131 144.154 31.9856L146.353 32.8311C146.535 32.9036 146.636 33.1452 146.575 33.3626C146.515 33.6042 146.313 33.725 146.132 33.6525Z" fill="#636363"/>
<path d="M141.733 31.8648L139.573 30.8743C139.392 30.8018 139.311 30.5603 139.372 30.3428C139.432 30.1254 139.634 30.0288 139.816 30.1012L141.975 31.0917C142.156 31.1642 142.237 31.4058 142.176 31.6232C142.116 31.8406 141.914 31.9373 141.733 31.8648Z" fill="#636363"/>
<path d="M137.414 29.8113L135.296 28.7C135.134 28.6034 135.054 28.386 135.134 28.1927C135.215 27.9995 135.397 27.9028 135.558 27.9995L137.677 29.0866C137.838 29.1832 137.919 29.4006 137.858 29.6181C137.778 29.7872 137.596 29.8838 137.414 29.8113Z" fill="#636363"/>
<path d="M133.177 27.5163L131.078 26.3083C130.917 26.2117 130.856 25.9943 130.937 25.801C131.018 25.6078 131.2 25.5353 131.361 25.6319L133.439 26.8157C133.601 26.9123 133.661 27.1297 133.601 27.323C133.54 27.5404 133.338 27.6129 133.177 27.5163Z" fill="#636363"/>
<path d="M129.02 25.0521L126.962 23.7476C126.801 23.651 126.76 23.4335 126.841 23.2403C126.922 23.047 127.103 22.9987 127.265 23.0953L129.323 24.3999C129.484 24.4965 129.545 24.7139 129.464 24.9072C129.363 25.1005 129.182 25.1729 129.02 25.0521Z" fill="#636363"/>
<path d="M124.944 22.443L122.926 21.066C122.785 20.9694 122.725 20.752 122.805 20.5587C122.886 20.3896 123.068 20.3171 123.229 20.4137L125.247 21.7666C125.388 21.8632 125.449 22.0807 125.368 22.2739C125.267 22.4672 125.085 22.5397 124.944 22.443Z" fill="#636363"/>
<path d="M120.909 19.6649L118.931 18.2395C118.79 18.1429 118.749 17.9255 118.83 17.7563C118.911 17.5872 119.093 17.5389 119.234 17.6356L121.211 19.0609C121.352 19.1575 121.393 19.375 121.312 19.5441C121.252 19.7132 121.07 19.7615 120.909 19.6649Z" fill="#636363"/>
<path d="M116.954 16.7659L114.996 15.2681C114.855 15.1714 114.815 14.954 114.916 14.7849C114.996 14.6158 115.178 14.5675 115.319 14.6883L117.276 16.1861C117.418 16.2827 117.458 16.5243 117.377 16.6692C117.276 16.8142 117.095 16.8625 116.954 16.7659Z" fill="#636363"/>
<path d="M113.079 13.746L111.162 12.1999C111.021 12.0791 111.001 11.8617 111.082 11.7168C111.183 11.5476 111.364 11.5235 111.485 11.6201L113.402 13.1662C113.544 13.287 113.564 13.5045 113.483 13.6494C113.382 13.7944 113.2 13.8427 113.079 13.746Z" fill="#636363"/>
<path d="M109.245 10.6055L107.349 9.01105C107.207 8.89026 107.187 8.67283 107.288 8.52788C107.389 8.35877 107.571 8.33462 107.692 8.45541L109.568 10.0499C109.71 10.1706 109.73 10.3881 109.629 10.533C109.548 10.678 109.367 10.7263 109.245 10.6055Z" fill="#636363"/>
<path d="M105.452 7.44074L103.474 6.03956H103.454C103.313 5.94293 103.273 5.7255 103.353 5.55639C103.434 5.38729 103.616 5.33897 103.757 5.4356L105.755 6.86094C105.896 6.95758 105.936 7.175 105.856 7.34411C105.775 7.51322 105.613 7.56153 105.452 7.44074Z" fill="#636363"/>
<path d="M101.436 4.80749L99.3379 3.72037H99.3177C99.1765 3.64789 99.0958 3.43047 99.1765 3.26136C99.237 3.09225 99.4186 2.99562 99.5599 3.09225L101.699 4.20353C101.84 4.27601 101.921 4.49343 101.84 4.66254C101.759 4.80749 101.598 4.87996 101.436 4.80749Z" fill="#636363"/>
<path d="M97.1586 2.77819L94.9592 2.00512H94.939C94.7776 1.9568 94.6969 1.76354 94.7372 1.57027C94.7776 1.37701 94.939 1.28037 95.0802 1.32869L97.32 2.10175C97.4815 2.15007 97.5622 2.34334 97.5218 2.5366C97.5017 2.72987 97.3402 2.8265 97.1586 2.77819Z" fill="#636363"/>
<path d="M92.7194 1.42533L90.4595 1.01464H90.4393C90.2779 0.990481 90.177 0.821373 90.1971 0.628107C90.2173 0.43484 90.3586 0.314049 90.52 0.338207L92.8203 0.773056C92.9817 0.797215 93.0826 0.966323 93.0625 1.15959C93.0423 1.3287 92.8809 1.44949 92.7194 1.42533Z" fill="#636363"/>
<path d="M88.1592 0.748907L85.8588 0.676432H85.8387C85.6772 0.676432 85.5562 0.507324 85.5562 0.338216C85.5562 0.14495 85.6974 0 85.8387 0L88.1793 0.0724749C88.3408 0.0724749 88.4618 0.241583 88.4618 0.410691C88.4618 0.603957 88.3408 0.748907 88.1592 0.748907Z" fill="#636363"/>
<path d="M83.5786 0.77307L81.2984 1.03881H81.2783C81.1168 1.06297 80.9958 0.91802 80.9756 0.748912C80.9554 0.555645 81.0765 0.410696 81.2177 0.386537L83.5382 0.0966379C83.6997 0.0724797 83.8207 0.217429 83.8409 0.386537C83.8611 0.579804 83.74 0.748912 83.5786 0.77307Z" fill="#636363"/>
<path d="M79.0183 1.49783L76.7785 2.12594H76.7583C76.6171 2.17426 76.4557 2.05347 76.4355 1.88436C76.3951 1.71525 76.496 1.52199 76.6373 1.49783L78.9174 0.869714C79.0587 0.821397 79.2201 0.942189 79.2403 1.1113C79.2806 1.25625 79.1797 1.44951 79.0183 1.49783Z" fill="#636363"/>
<path d="M74.5791 2.89901L72.42 3.84119H72.3999C72.2586 3.91366 72.0972 3.81703 72.0568 3.64792C71.9963 3.47881 72.077 3.28555 72.2183 3.23723L74.3975 2.2709C74.5388 2.19842 74.7002 2.29506 74.7607 2.46416C74.8213 2.63327 74.7406 2.82654 74.5791 2.89901Z" fill="#636363"/>
<path d="M70.3417 4.97662L68.3238 6.28116H68.3036C68.1624 6.3778 68.001 6.30532 67.9404 6.13621C67.8597 5.9671 67.9203 5.77384 68.0413 5.70136L70.0995 4.37266C70.2408 4.27603 70.4022 4.3485 70.4627 4.51761C70.5434 4.66256 70.4829 4.87998 70.3417 4.97662Z" fill="#636363"/>
<path d="M66.3665 7.73062L64.5101 9.34923H64.4899C64.3689 9.44586 64.2074 9.42171 64.1065 9.27676C64.0258 9.13181 64.046 8.93854 64.1671 8.81775L66.0437 7.17498C66.1647 7.07835 66.3261 7.10251 66.427 7.24746C66.5279 7.41657 66.5078 7.60983 66.3665 7.73062Z" fill="#636363"/>
<path d="M62.7345 11.0886L61.0597 12.973L61.0395 12.9971C60.9386 13.1179 60.757 13.1179 60.6561 12.973C60.5552 12.8522 60.5552 12.6348 60.6763 12.514L62.3712 10.6055C62.4721 10.4847 62.6537 10.4847 62.7546 10.6296C62.8757 10.7504 62.8555 10.9679 62.7345 11.0886Z" fill="#636363"/>
<path d="M59.4655 14.954L57.9723 17.0557V17.0799C57.8714 17.2248 57.71 17.2248 57.6091 17.1041C57.4881 16.9833 57.4881 16.79 57.5889 16.6692L59.1023 14.5433C59.2032 14.3983 59.3646 14.3983 59.4857 14.5191C59.5664 14.6157 59.5664 14.809 59.4655 14.954Z" fill="#636363"/>
<path d="M56.58 19.2541L55.3088 21.5492V21.5733C55.2281 21.7183 55.0667 21.7666 54.9456 21.67C54.8245 21.5733 54.7842 21.3801 54.8649 21.2351L56.1563 18.9159C56.237 18.771 56.3984 18.7227 56.5195 18.8193C56.6406 18.8918 56.6809 19.085 56.58 19.2541Z" fill="#636363"/>
<path d="M54.1385 23.8925L53.1094 26.3567V26.3808C53.0489 26.5258 52.8875 26.5983 52.7664 26.5258C52.6453 26.4533 52.5848 26.26 52.6453 26.1151L53.6946 23.6268C53.7551 23.4818 53.9166 23.4094 54.0376 23.4818C54.1587 23.5301 54.2192 23.7234 54.1385 23.8925Z" fill="#636363"/>
<path d="M52.2013 28.8933L51.4547 31.4782V31.5024C51.4143 31.6715 51.2529 31.744 51.1318 31.6956C50.9906 31.6473 50.93 31.4541 50.9704 31.3091L51.7372 28.6759C51.7775 28.5067 51.939 28.4343 52.06 28.4826C52.1811 28.5309 52.2618 28.7 52.2013 28.8933Z" fill="#636363"/>
<path d="M50.8494 34.1356L50.4459 36.8414V36.8655C50.4257 37.0346 50.2845 37.1313 50.1432 37.1071C50.002 37.0829 49.9212 36.9138 49.9414 36.7447L50.3652 33.9907C50.3853 33.8216 50.5266 33.7249 50.6678 33.7491C50.8091 33.7733 50.8898 33.9424 50.8696 34.1115L50.8494 34.1356Z" fill="#636363"/>
<path d="M50.2239 39.5712L50.2037 42.3011V42.3253C50.2037 42.4944 50.0826 42.6152 49.9414 42.6152C49.8001 42.6152 49.6791 42.4702 49.6992 42.3011L49.7194 39.4988C49.7194 39.3296 49.8405 39.1847 49.9817 39.1847C50.123 39.1847 50.244 39.3296 50.244 39.4988L50.2239 39.5712Z" fill="#636363"/>
<path d="M50.4055 45.031L50.8293 47.7126V47.7368C50.8494 47.9059 50.7687 48.0508 50.6275 48.0991C50.4862 48.1233 50.3652 48.0267 50.3248 47.8576L49.8809 45.1035C49.8607 44.9344 49.9414 44.7894 50.0827 44.7411C50.2239 44.717 50.345 44.8136 50.3853 44.9827L50.4055 45.031Z" fill="#636363"/>
<path d="M51.4951 50.3459L52.3628 52.8825V52.9066C52.4233 53.0516 52.3627 53.2207 52.2215 53.2932C52.1004 53.3656 51.9592 53.2932 51.8986 53.1241L51.0108 50.5391C50.9503 50.3942 51.0108 50.2009 51.1521 50.1526C51.2731 50.0801 51.4345 50.1526 51.4749 50.3217L51.4951 50.3459Z" fill="#636363"/>
<path d="M53.4928 55.25C53.9166 55.9989 54.4008 56.6995 54.9255 57.3518C55.0264 57.4726 55.0264 57.6417 54.9255 57.7625C54.8246 57.8833 54.6833 57.8833 54.5824 57.7625C54.0174 57.086 53.513 56.3613 53.0691 55.5882C52.9883 55.4433 53.0287 55.2742 53.1296 55.1775C53.2507 55.0809 53.4121 55.1292 53.4928 55.25Z" fill="#636363"/>
<path d="M56.7011 59.0428C57.3468 59.526 58.0329 59.9125 58.7391 60.2024C58.8602 60.2507 58.9409 60.4199 58.9006 60.5648C58.8602 60.7097 58.719 60.8064 58.5979 60.7581C57.8513 60.444 57.1249 60.0333 56.459 59.5502C56.3379 59.4535 56.3177 59.2844 56.3783 59.1395C56.4186 58.9945 56.5801 58.9462 56.7011 59.0428Z" fill="#636363"/>
<path d="M60.9386 60.7581C61.6852 60.8547 62.452 60.8547 63.1986 60.7339C63.3398 60.7098 63.4407 60.8306 63.4609 60.9997C63.4811 61.1688 63.3802 61.2896 63.239 61.3137C62.452 61.4104 61.665 61.4345 60.8781 61.3379C60.7368 61.3137 60.6561 61.1688 60.6561 61.0238C60.6763 60.8547 60.7974 60.7581 60.9386 60.7581Z" fill="#636363"/>
<path d="M65.3979 60.2024C66.1243 59.9367 66.8306 59.5743 67.4965 59.1636C67.6175 59.0912 67.7588 59.1395 67.8193 59.2844C67.8799 59.4294 67.8395 59.5985 67.7184 59.671C67.0324 60.1058 66.3059 60.4682 65.5392 60.7581C65.4181 60.8064 65.2768 60.7098 65.2365 60.5648C65.2163 60.3957 65.2769 60.2508 65.3979 60.2024Z" fill="#636363"/>
<path d="M69.4135 57.69C70.0189 57.1344 70.5839 56.5304 71.0883 55.854C71.169 55.7332 71.3305 55.7332 71.4314 55.8298C71.5322 55.9264 71.5323 56.1197 71.4515 56.2405C70.9269 56.9411 70.3417 57.5692 69.7162 58.149C69.6153 58.2456 69.4539 58.2215 69.3732 58.1007C69.2925 57.9557 69.3126 57.7866 69.4135 57.69Z" fill="#636363"/>
<path d="M72.5007 53.7039L73.0859 52.5201C73.2877 52.1336 73.4491 51.7229 73.6106 51.3122V51.288C73.6711 51.1431 73.8123 51.0948 73.9334 51.1672C74.0545 51.2397 74.0948 51.4088 74.0343 51.5538C73.8527 51.9645 73.7114 52.3993 73.4895 52.81L72.8841 54.0179C72.8236 54.1629 72.6824 54.187 72.5613 54.1145C72.4402 54.0421 72.42 53.873 72.4806 53.728L72.5007 53.7039Z" fill="#636363"/>
<path d="M74.3975 48.7756C74.5993 47.9059 74.7607 47.0121 74.8213 46.094C74.8415 45.9491 74.9423 45.8283 75.0836 45.8525C75.2047 45.8766 75.3056 45.9974 75.2854 46.1665C75.2047 47.1087 75.0634 48.0267 74.8415 48.9447C74.8011 49.0897 74.68 49.1863 74.559 49.138C74.4177 49.0655 74.3572 48.9206 74.3975 48.7756Z" fill="#636363"/>
<path d="M74.8415 43.3883C74.7809 42.4944 74.6397 41.6006 74.4177 40.7309C74.3774 40.5859 74.4581 40.441 74.5791 40.3927C74.7002 40.3443 74.8213 40.441 74.8616 40.5859C75.0836 41.4798 75.2249 42.422 75.3056 43.3641C75.3257 43.5091 75.2249 43.654 75.1038 43.654C74.9827 43.654 74.8415 43.5332 74.8415 43.3883Z" fill="#636363"/>
<path d="M73.5702 38.1943C73.2272 37.397 72.8236 36.624 72.3595 35.8751C72.2788 35.7543 72.299 35.5852 72.3999 35.4885C72.5007 35.3919 72.642 35.416 72.7227 35.5368C73.1868 36.2857 73.6106 37.083 73.9738 37.9285C74.0343 38.0735 73.9939 38.2184 73.8729 38.2909C73.772 38.3875 73.6307 38.3392 73.5702 38.1943Z" fill="#636363"/>
<path d="M70.8663 33.8457C70.3215 33.2176 69.7363 32.6137 69.1309 32.0822C69.03 31.9856 69.0099 31.8164 69.0906 31.6957C69.1713 31.5749 69.3125 31.5507 69.4134 31.6473C70.039 32.203 70.6443 32.8069 71.2093 33.4592C71.29 33.5558 71.3102 33.7249 71.2093 33.8457C71.1084 33.9424 70.9672 33.9424 70.8663 33.8457Z" fill="#636363"/>
<path d="M67.2139 30.5844C66.548 30.1495 65.862 29.7389 65.1557 29.4006C65.0347 29.3523 64.9943 29.1832 65.0347 29.0624C65.075 28.9175 65.2163 28.8692 65.3172 28.9175C66.0436 29.2798 66.7498 29.6664 67.4157 30.1254C67.5166 30.1979 67.557 30.367 67.4964 30.4878C67.4561 30.6086 67.3148 30.6569 67.2139 30.5844Z" fill="#636363"/>
<path d="M62.9967 28.5068C62.2703 28.241 61.5035 28.0961 60.7569 27.8786H60.7367C60.6157 27.8545 60.535 27.6854 60.5753 27.5404C60.5955 27.3955 60.7367 27.2988 60.8578 27.3472C61.6044 27.5646 62.3712 27.7579 63.1178 27.9994C63.2389 28.0478 63.2994 28.1927 63.2792 28.3377C63.2389 28.4584 63.1178 28.5551 62.9967 28.5068Z" fill="#636363"/>
<path d="M58.497 27.4197L56.2169 27.1539H56.1967C56.0554 27.1298 55.9747 27.009 55.9747 26.8399C55.9949 26.6708 56.0958 26.5741 56.237 26.5741L58.5576 26.864C58.6786 26.8882 58.7795 27.009 58.7593 27.1781C58.7392 27.323 58.6383 27.4438 58.497 27.4197Z" fill="#636363"/>
<path d="M53.8963 27.0814L51.596 27.1539H51.5758C51.4346 27.1539 51.3135 27.0331 51.3135 26.864C51.3135 26.6949 51.4144 26.5499 51.5556 26.5499L53.8761 26.5016C54.0174 26.5016 54.1183 26.6224 54.1183 26.7915C54.1586 26.9365 54.0577 27.0573 53.8963 27.0814Z" fill="#636363"/>
<path d="M49.3159 27.3713L47.0358 27.7337H47.0156C46.8743 27.7579 46.7331 27.6371 46.7129 27.468C46.6927 27.2989 46.7936 27.1298 46.9349 27.1056L49.2352 26.7432C49.3764 26.7191 49.4975 26.8399 49.5177 27.009C49.558 27.1781 49.4773 27.3472 49.3159 27.3713Z" fill="#636363"/>
<path d="M44.7758 28.241L42.536 28.8933H42.5158C42.3746 28.9416 42.2131 28.8208 42.1728 28.6517C42.1324 28.4826 42.2333 28.2894 42.3746 28.241L44.6345 27.5888C44.7758 27.5405 44.917 27.6612 44.9574 27.8304C45.0179 28.0236 44.9372 28.1927 44.7758 28.241Z" fill="#636363"/>
<path d="M40.3365 29.7147L38.1774 30.6569H38.1572C38.016 30.7293 37.8344 30.6327 37.794 30.4394C37.7335 30.2703 37.8142 30.0529 37.9756 30.0046L40.1751 29.0624C40.3163 28.9899 40.4777 29.0866 40.5383 29.2798C40.5786 29.449 40.4979 29.6422 40.3365 29.7147Z" fill="#636363"/>
<path d="M36.0788 31.7198L34.0206 32.9519H34.0004C33.8592 33.0485 33.6776 32.9761 33.5969 32.7828C33.5162 32.6137 33.5767 32.3963 33.7381 32.2996L35.8367 31.0675C35.9779 30.9709 36.1595 31.0434 36.2402 31.2367C36.3008 31.4299 36.2402 31.6232 36.0788 31.7198Z" fill="#636363"/>
<path d="M32.023 34.3289L30.1061 35.8509L30.0859 35.8751C29.9447 35.9958 29.7429 35.9475 29.642 35.7784C29.5411 35.6093 29.5814 35.3677 29.7227 35.2469L31.68 33.725C31.8212 33.6042 32.023 33.6525 32.1037 33.8216C32.2248 33.9665 32.1844 34.2081 32.023 34.3289Z" fill="#636363"/>
<path d="M28.2699 37.4937L26.4942 39.2572H26.474C26.3328 39.4022 26.131 39.378 26.0099 39.2089C25.8888 39.0398 25.909 38.7982 26.0503 38.6533L27.8461 36.8897C27.9874 36.7448 28.1892 36.7689 28.3102 36.938C28.4313 37.1071 28.4111 37.3487 28.2699 37.4937Z" fill="#636363"/>
<path d="M24.7991 41.0932L23.1647 43.0259C23.0235 43.195 22.8217 43.1708 22.6804 43.0259C22.5392 42.8568 22.5594 42.6152 22.6804 42.4461L24.3552 40.5134C24.4965 40.3685 24.6983 40.3685 24.8395 40.5134C24.9404 40.6584 24.9404 40.9241 24.7991 41.0932Z" fill="#636363"/>
<path d="M21.5706 45.0069L20.037 47.0603C19.916 47.2294 19.6738 47.2536 19.5326 47.1086C19.3913 46.9637 19.3711 46.6738 19.4922 46.5047L21.0459 44.4271C21.167 44.258 21.389 44.2338 21.5302 44.4029C21.6917 44.572 21.7118 44.8378 21.5706 45.0069Z" fill="#636363"/>
<path d="M18.5641 49.2104L17.1516 51.3847C17.0305 51.5779 16.7884 51.6021 16.6472 51.4571C16.4857 51.3122 16.4655 51.0223 16.5866 50.8532L18.0193 48.6789C18.1404 48.4857 18.3623 48.4615 18.5237 48.6065C18.665 48.7272 18.7053 48.993 18.5641 49.2104Z" fill="#636363"/>
<path d="M15.7997 53.6072L14.4881 55.8781C14.367 56.0955 14.1249 56.1438 13.9634 55.9989C13.7818 55.8539 13.7415 55.564 13.8625 55.3708L15.1943 53.0999C15.3154 52.9066 15.5373 52.8583 15.7189 53.0033C15.8804 53.0999 15.9207 53.3898 15.7997 53.6072Z" fill="#636363"/>
<path d="M13.2168 58.1731L12.0061 60.5165C11.885 60.7339 11.6429 60.8064 11.4613 60.6614C11.2797 60.5165 11.2191 60.2266 11.3402 60.0092L12.5711 57.6417C12.6922 57.4242 12.9141 57.3518 13.0957 57.4967C13.2773 57.6658 13.3379 57.9316 13.2168 58.1731Z" fill="#636363"/>
<path d="M10.8358 62.884L9.72597 65.2999C9.62508 65.5414 9.38294 65.6139 9.18116 65.4931C8.97937 65.3723 8.91884 65.0824 9.01973 64.8409L10.1497 62.425C10.2506 62.2076 10.4927 62.111 10.6945 62.2318C10.8761 62.3767 10.9367 62.6424 10.8358 62.884Z" fill="#636363"/>
<path d="M8.65649 67.764L7.64758 70.2523C7.54669 70.4939 7.30454 70.5905 7.08258 70.4697C6.8808 70.3489 6.80009 70.059 6.90098 69.7933L7.93007 67.305C8.03096 67.0634 8.27311 66.9668 8.47489 67.0876C8.67667 67.2083 8.75739 67.4982 8.65649 67.764Z" fill="#636363"/>
<path d="M6.679 72.7406L5.77098 75.2772V75.3014C5.67009 75.5671 5.42795 75.6879 5.20599 75.5671C4.98402 75.4463 4.88313 75.1564 4.98403 74.8907L5.91223 72.3299C6.01312 72.0642 6.25526 71.9675 6.45704 72.0642C6.67901 72.185 6.75972 72.4749 6.679 72.7406Z" fill="#636363"/>
<path d="M4.92353 77.838L4.13658 80.4229V80.4471C4.05587 80.7128 3.79355 80.8578 3.57159 80.7611C3.34963 80.6645 3.22855 80.3505 3.30927 80.0847L4.1164 77.4756C4.19711 77.2099 4.43926 77.0649 4.6814 77.1616C4.88318 77.2582 5.00425 77.5481 4.92353 77.838Z" fill="#636363"/>
<path d="M3.4102 83.0562L2.76449 85.6894V85.7136C2.70396 86.0035 2.44164 86.1726 2.1995 86.0759C1.95736 86.0035 1.81611 85.6894 1.89682 85.3995L2.56271 82.7179C2.62324 82.428 2.88556 82.2831 3.10752 82.3556C3.34966 82.4522 3.49091 82.7421 3.4102 83.0562Z" fill="#636363"/>
<path d="M2.21962 88.3469L1.75551 91.0284V91.0526C1.69498 91.3425 1.45284 91.5357 1.2107 91.4874C0.96856 91.415 0.807132 91.1251 0.847489 90.8352C1.00892 89.9171 1.17034 89.0233 1.33177 88.1053C1.3923 87.8154 1.63444 87.6221 1.87658 87.6946C2.11872 87.7429 2.25997 88.0328 2.21962 88.3469Z" fill="#636363"/>
<path d="M1.37207 93.7583L1.10975 96.4882V96.5123C1.08957 96.8022 0.847433 97.0197 0.605293 96.9955C0.363153 96.9713 0.181548 96.6814 0.201727 96.3915L0.464043 93.6133C0.484221 93.2993 0.726361 93.106 0.968501 93.1302C1.23082 93.1543 1.39225 93.4442 1.37207 93.7341V93.7583Z" fill="#636363"/>
<path d="M0.948381 99.218L0.908025 101.972V101.996C0.908025 102.286 0.706241 102.528 0.443923 102.528C0.201783 102.528 0 102.286 0 101.972L0.040356 99.1697C0.040356 98.8798 0.24214 98.6382 0.504458 98.6382C0.746598 98.6382 0.948381 98.8798 0.948381 99.1939V99.218Z" fill="#636363"/>
<path d="M0.98878 104.702L1.19056 107.432V107.456C1.21074 107.746 1.02914 108.012 0.786997 108.036C0.544857 108.06 0.322896 107.843 0.302718 107.553L0.0807551 104.774C0.0605768 104.485 0.242182 104.219 0.484322 104.195C0.726462 104.171 0.948422 104.388 0.9686 104.678L0.98878 104.702Z" fill="#636363"/>
<path d="M1.53355 110.138L1.99765 112.819V112.843C2.038 113.133 1.89676 113.423 1.65462 113.471C1.41248 113.52 1.17034 113.351 1.12998 113.061L0.6457 110.331C0.585165 110.041 0.746592 109.751 0.988732 109.703C1.23087 109.63 1.47301 109.824 1.51337 110.113L1.53355 110.138Z" fill="#636363"/>
<path d="M2.60302 115.452L3.32944 118.062V118.086C3.41015 118.351 3.28908 118.665 3.04694 118.762C2.82498 118.859 2.56266 118.714 2.48195 118.424L1.73535 115.766C1.65464 115.501 1.77571 115.187 2.01785 115.09C2.23981 114.993 2.50213 115.138 2.58284 115.428L2.60302 115.452Z" fill="#636363"/>
<path d="M4.17694 120.598L5.1455 123.086V123.111C5.24639 123.376 5.1455 123.69 4.92354 123.811C4.70157 123.932 4.43926 123.811 4.33837 123.545L3.34963 121.009C3.24873 120.743 3.34963 120.429 3.57159 120.308C3.79355 120.187 4.05587 120.308 4.15676 120.574L4.17694 120.598Z" fill="#636363"/>
<path d="M6.19479 125.526L7.36513 127.894L7.38531 127.918C7.50638 128.16 7.44585 128.474 7.24406 128.619C7.04228 128.764 6.77996 128.691 6.65889 128.45L5.46837 126.058C5.3473 125.816 5.40783 125.502 5.60962 125.357C5.79122 125.188 6.05354 125.261 6.19479 125.526Z" fill="#636363"/>
<path d="M8.63626 130.189L9.98821 132.412L10.0084 132.436C10.1496 132.653 10.1093 132.991 9.9075 133.136C9.72589 133.305 9.4434 133.257 9.32233 133.016L7.9502 130.769C7.80895 130.551 7.84931 130.213 8.05109 130.044C8.21252 129.875 8.47483 129.923 8.63626 130.189Z" fill="#636363"/>
<path d="M11.4209 134.537L12.9343 136.615L12.9545 136.639C13.1159 136.857 13.0957 137.171 12.9141 137.34C12.7325 137.533 12.4702 137.509 12.3289 137.292L10.7954 135.19C10.6339 134.972 10.6541 134.658 10.8357 134.465C10.977 134.296 11.2595 134.32 11.4209 134.537Z" fill="#636363"/>
<path d="M14.488 138.62L16.1224 140.553H16.1426C16.304 140.746 16.304 141.06 16.1426 141.253C15.9812 141.447 15.7189 141.447 15.5574 141.253L13.9028 139.297C13.7414 139.103 13.7414 138.789 13.9028 138.596C14.0441 138.427 14.3266 138.427 14.488 138.62Z" fill="#636363"/>
<path d="M17.8174 142.437L19.5528 144.249C19.7344 144.418 19.7344 144.732 19.5931 144.95C19.4519 145.167 19.1896 145.167 19.008 144.998L17.2524 143.162C17.0708 142.993 17.0708 142.679 17.2121 142.461C17.3735 142.268 17.6358 142.244 17.8174 142.437Z" fill="#636363"/>
<path d="M21.3284 145.988L23.1445 147.68C23.3261 147.849 23.3463 148.163 23.2252 148.356C23.084 148.573 22.8216 148.598 22.6602 148.453L20.824 146.762C20.6424 146.592 20.602 146.278 20.7433 146.061C20.8845 145.868 21.1266 145.819 21.3284 145.988Z" fill="#636363"/>
<path d="M25.0009 149.322L26.8977 150.893C27.0793 151.038 27.1197 151.352 26.9986 151.569C26.8775 151.787 26.6152 151.835 26.4336 151.69L24.5167 150.095C24.335 149.95 24.2947 149.636 24.4158 149.419C24.557 149.226 24.7991 149.153 25.0009 149.322Z" fill="#636363"/>
<path d="M28.8147 152.439L30.7518 153.961C30.9334 154.106 30.994 154.396 30.8729 154.613C30.7518 154.83 30.5097 154.903 30.3281 154.758L28.391 153.236C28.2094 153.091 28.1488 152.801 28.2699 152.56C28.3708 152.366 28.6129 152.294 28.8147 152.439Z" fill="#636363"/>
<path d="M32.6687 155.483L34.6058 157.005C34.7874 157.15 34.848 157.44 34.7269 157.657C34.6058 157.874 34.3637 157.947 34.1821 157.802L32.245 156.28C32.0634 156.135 32.0028 155.845 32.1239 155.628C32.245 155.41 32.4871 155.338 32.6687 155.483Z" fill="#636363"/>
<path d="M36.543 158.527L38.4801 160.049C38.6617 160.194 38.7021 160.483 38.6012 160.701C38.4801 160.918 38.238 160.967 38.0564 160.846L36.1192 159.324C35.9376 159.179 35.8771 158.889 35.9982 158.672C36.1192 158.454 36.3614 158.382 36.543 158.527Z" fill="#636363"/>
<path d="M40.4172 161.571L42.3543 163.093C42.5359 163.238 42.5763 163.527 42.4552 163.721C42.3342 163.938 42.092 163.986 41.9306 163.841L39.9935 162.32C39.8119 162.175 39.7715 161.885 39.8724 161.667C39.9733 161.45 40.2356 161.426 40.4172 161.571Z" fill="#636363"/>
<path d="M44.2713 164.639L46.1883 166.185C46.3699 166.33 46.4102 166.62 46.2892 166.813C46.1681 167.03 45.926 167.079 45.7645 166.934L43.8476 165.388C43.666 165.243 43.6256 164.953 43.7467 164.759C43.8678 164.542 44.0897 164.494 44.2713 164.639Z" fill="#636363"/>
<path d="M48.0849 167.779L49.9817 169.374C50.1431 169.519 50.1835 169.809 50.0624 170.002C49.9413 170.195 49.6992 170.243 49.5378 170.123L47.641 168.528C47.4796 168.383 47.419 168.093 47.5401 167.9C47.6814 167.683 47.9235 167.634 48.0849 167.779Z" fill="#636363"/>
<path d="M51.8583 170.992L53.7147 172.635C53.8762 172.78 53.9165 173.07 53.7955 173.263C53.6744 173.456 53.4322 173.505 53.2708 173.36L51.4144 171.717C51.253 171.572 51.2126 171.282 51.3337 171.089C51.4749 170.872 51.6969 170.847 51.8583 170.992Z" fill="#636363"/>
<path d="M55.5711 174.326L57.4074 176.041C57.5688 176.186 57.589 176.476 57.4679 176.67C57.3468 176.863 57.1047 176.887 56.9634 176.742L55.1474 175.051C54.986 174.906 54.9658 174.616 55.0869 174.423C55.1878 174.205 55.4097 174.157 55.5711 174.326Z" fill="#636363"/>
<path d="M59.2033 177.757L60.9991 179.52C61.1606 179.665 61.1807 179.955 61.0395 180.124C60.9184 180.317 60.6763 180.342 60.535 180.173L58.7593 178.433C58.5979 178.288 58.5777 177.998 58.6988 177.829C58.8199 177.636 59.062 177.612 59.2033 177.757Z" fill="#636363"/>
<path d="M62.7748 181.308L64.5304 183.144C64.6716 183.289 64.6918 183.579 64.5707 183.748C64.4496 183.917 64.2075 183.941 64.0663 183.796L62.3309 181.984C62.1897 181.839 62.1695 181.549 62.2906 181.38C62.3914 181.187 62.6134 181.163 62.7748 181.308Z" fill="#636363"/>
<path d="M66.2454 185.004L67.9404 186.913C68.0817 187.082 68.0817 187.347 67.9606 187.517C67.8194 187.686 67.5974 187.686 67.4561 187.541L65.7813 185.656C65.6401 185.487 65.6401 185.222 65.7612 185.052C65.8822 184.859 66.1042 184.835 66.2454 185.004Z" fill="#636363"/>
<path d="M69.5748 188.869L71.1891 190.875C71.3303 191.044 71.3102 191.309 71.1891 191.454C71.0479 191.623 70.8259 191.599 70.7048 191.454L69.1107 189.473C68.9695 189.304 68.9897 189.039 69.1107 188.869C69.2318 188.7 69.4538 188.7 69.5748 188.869Z" fill="#636363"/>
<path d="M72.763 192.928L74.2764 195.054C74.3975 195.223 74.3773 195.489 74.236 195.634C74.0948 195.779 73.8728 195.755 73.7518 195.585L72.2586 193.484C72.1375 193.315 72.1577 193.049 72.2989 192.904C72.42 192.735 72.6218 192.759 72.763 192.928Z" fill="#636363"/>
<path d="M75.709 197.252L77.0812 199.499C77.1821 199.692 77.1619 199.934 77.0005 200.055C76.839 200.176 76.6373 200.151 76.5364 199.958V199.934L75.1844 197.711V197.687C75.0633 197.494 75.1037 197.252 75.2651 197.107C75.4265 196.963 75.588 197.059 75.709 197.252Z" fill="#636363"/>
<path d="M78.3525 201.818L79.543 204.21C79.6439 204.403 79.5834 204.645 79.422 204.766C79.2605 204.886 79.0588 204.814 78.9579 204.621V204.597L77.7673 202.229V202.205C77.6665 202.012 77.727 201.77 77.8884 201.649C78.0498 201.577 78.2516 201.625 78.3525 201.818Z" fill="#636363"/>
<path d="M80.6528 206.674L81.6214 209.211C81.7021 209.404 81.6214 209.646 81.46 209.718C81.2985 209.815 81.0968 209.718 81.0362 209.525V209.501L80.0677 207.012V206.988C79.987 206.795 80.0677 206.553 80.2291 206.457C80.3703 206.408 80.5721 206.481 80.6528 206.674Z" fill="#636363"/>
<path d="M82.4688 211.82L83.1952 214.477C83.2558 214.67 83.1549 214.888 82.9935 214.96C82.832 215.033 82.6504 214.912 82.5899 214.719V214.695L81.8635 212.086V212.061C81.8029 211.868 81.9038 211.651 82.0652 211.578C82.2468 211.506 82.4285 211.602 82.4688 211.82Z" fill="#636363"/>
<path d="M83.7805 217.159L84.2244 219.913C84.2648 220.106 84.1437 220.299 83.9823 220.324C83.8208 220.372 83.6594 220.227 83.6392 220.034V220.009L83.1953 217.304V217.28C83.155 217.086 83.276 216.893 83.4375 216.845C83.5989 216.845 83.7603 216.966 83.7805 217.159Z" fill="#636363"/>
<path d="M84.527 222.691L84.6683 225.469C84.6683 225.663 84.5674 225.832 84.406 225.832C84.2446 225.832 84.1033 225.711 84.1033 225.518V225.493L83.9419 222.739V222.715C83.9217 222.522 84.0629 222.353 84.2244 222.329C84.3656 222.353 84.5069 222.498 84.527 222.691Z" fill="#636363"/>
<path d="M84.648 228.272L84.4866 231.05C84.4664 231.243 84.3454 231.364 84.1839 231.364C84.0427 231.34 83.9216 231.195 83.9216 231.026V231.002L84.0831 228.247V228.223C84.1032 228.03 84.2243 227.909 84.3857 227.909C84.5472 227.909 84.648 228.078 84.648 228.272Z" fill="#636363"/>
<path d="M84.2042 233.804L83.8208 236.558C83.8006 236.727 83.6594 236.848 83.5181 236.824C83.3769 236.8 83.276 236.63 83.2962 236.461V236.437L83.6594 233.707V233.683C83.6795 233.514 83.8208 233.393 83.962 233.417C84.1235 233.466 84.2244 233.635 84.2042 233.804Z" fill="#636363"/>
<path d="M83.3366 239.288L82.7514 241.994C82.711 242.163 82.59 242.259 82.4487 242.211C82.3075 242.163 82.2267 242.018 82.2671 241.849V241.824L82.8321 239.167V239.143C82.8724 238.974 83.0137 238.877 83.1348 238.925C83.2962 238.95 83.3769 239.119 83.3366 239.288Z" fill="#636363"/>
<path d="M82.0249 244.627L81.1572 247.212C81.1168 247.357 80.9756 247.429 80.8545 247.357C80.7335 247.308 80.6729 247.139 80.7335 246.994V246.97L81.581 244.409V244.385C81.6213 244.24 81.7626 244.168 81.9038 244.216C82.0249 244.313 82.0854 244.482 82.0249 244.627Z" fill="#636363"/>
<path d="M80.0879 249.7C79.6843 250.497 79.2404 251.294 78.7561 252.019C78.6754 252.14 78.5341 252.14 78.4332 252.068C78.3323 251.971 78.3323 251.802 78.3929 251.681C78.8772 250.98 79.3009 250.207 79.6843 249.434C79.7448 249.313 79.8861 249.265 80.0071 249.338C80.108 249.41 80.1484 249.579 80.0879 249.7Z" fill="#636363"/>
<path d="M77.0611 254C76.4355 254.58 75.7495 255.063 75.0029 255.401C74.902 255.45 74.7809 255.377 74.7405 255.256C74.7002 255.136 74.7607 254.991 74.8616 254.942C75.5679 254.628 76.2136 254.169 76.7987 253.614C76.8996 253.517 77.0207 253.541 77.1014 253.662C77.1821 253.783 77.1619 253.928 77.0611 254Z" fill="#636363"/>
<path d="M171.658 32.5115L175.743 33.152L175.208 38.0496" stroke="#636363" stroke-width="2" stroke-linecap="round" stroke-linejoin="round"/>
<ellipse cx="73.9385" cy="256.012" rx="2.49231" ry="2.98846" fill="#636363"/>
</svg>
