<svg width="545" height="545" viewBox="0 0 545 545" fill="none" xmlns="http://www.w3.org/2000/svg">
<path d="M477.732 467.136C466.63 478.811 456.13 486.33 447.847 492.275C350.338 562.173 234.96 541.794 210.442 536.821C174.238 529.478 104.241 515.276 53.6292 455.81C-22.9201 365.862 -11.0012 224.141 48.3794 130.58C59.2484 113.464 116.626 18.4848 233.249 3.25386C303.829 -5.95462 386.095 12.6178 445.67 62.5067C570.731 167.2 561.826 378.703 477.732 467.136Z" fill="white"/>
<path d="M9.609 185.093C9.08401 184.84 8.71457 184.315 8.69513 183.694C8.69513 181.673 8.71457 179.614 8.79235 177.593C8.83124 176.758 9.53123 176.117 10.3868 176.155C12.4478 176.253 11.7479 178.254 11.7673 183.733C11.7673 184.568 11.0868 185.229 10.2312 185.229C10.0173 185.229 9.80345 185.17 9.609 185.093Z" fill="#C4C4C4"/>
<path d="M10.7562 158.671C11.3979 154.844 12.2145 150.997 13.1672 147.228C13.3811 146.413 14.1977 145.946 15.0338 146.16C17.2698 146.762 15.6949 147.928 13.7894 159.215C13.6533 160.031 12.8561 160.575 12.02 160.42C11.1645 160.284 10.6201 159.487 10.7562 158.671ZM19.0003 129.181C20.4391 125.548 22.0335 121.915 23.7056 118.496C24.6 116.65 27.3416 118.088 26.4861 119.856C24.8139 123.275 23.2779 126.772 21.8585 130.327C21.5474 131.104 20.653 131.473 19.8752 131.162C19.0781 130.832 18.6892 129.958 19.0003 129.181ZM33.1358 102.041C35.2745 98.816 37.5883 95.6299 39.9799 92.5604C41.2243 90.9868 43.6547 92.8713 42.4298 94.4449C40.0771 97.4367 37.8217 100.564 35.7217 103.731C34.6135 105.382 32.0469 103.692 33.1358 102.041ZM52.696 80.535C52.0932 79.9328 52.0932 78.9809 52.6765 78.398C55.457 75.6782 58.3735 73.0361 61.3678 70.53C62.9039 69.2478 64.926 71.5791 63.3705 72.8613C60.4345 75.3091 57.5763 77.8929 54.8542 80.5739C54.2709 81.1567 53.2987 81.1373 52.696 80.535ZM76.3588 61.3798C75.8922 60.6805 76.0866 59.748 76.7866 59.2817C80.092 57.1836 83.4946 55.1826 86.9555 53.3564C88.7249 52.4239 90.2221 55.0854 88.4527 56.0179C85.0695 57.8247 81.7252 59.7674 78.4781 61.8267C77.7782 62.2735 76.8254 62.0792 76.3588 61.3798ZM104.358 48.2277C104.008 48.0722 103.716 47.7808 103.56 47.3923C103.249 46.6152 103.619 45.741 104.416 45.4301C108.091 44.0314 111.863 42.7686 115.635 41.6807C116.451 41.4476 117.307 41.8944 117.56 42.7103C117.812 43.5068 117.365 44.3616 116.549 44.5948C112.854 45.6827 109.16 46.9066 105.563 48.2859C105.155 48.4219 104.727 48.4025 104.358 48.2277ZM134.028 40.3208C133.581 40.1071 133.231 39.6991 133.153 39.194C132.998 38.3781 133.562 37.601 134.398 37.465C138.287 36.8433 142.253 36.3577 146.181 36.0468C147.017 35.9691 147.775 36.5908 147.872 37.4261C147.95 38.2615 147.347 38.9803 146.492 39.058C142.642 39.3689 138.753 39.8351 134.942 40.4568C134.612 40.4956 134.301 40.4374 134.028 40.3208ZM163.933 37.1153C163.952 36.2799 164.671 35.6388 165.508 35.6777C169.455 35.8525 173.46 36.1828 177.388 36.6685C179.41 36.921 179.079 39.9128 177.057 39.6797C173.207 39.2134 169.28 38.8832 165.41 38.7083C164.574 38.6695 163.913 37.9507 163.933 37.1153ZM259.964 76.8244C251.273 69.1507 249.193 69.1313 250.593 67.3051C251.098 66.6446 252.07 66.528 252.751 67.0331C255.92 69.4227 259.031 71.9482 262.006 74.5709C263.503 75.9308 261.481 78.1649 259.964 76.8244ZM194.595 41.2922C194.79 40.4762 195.626 39.9905 196.442 40.2042C200.292 41.1756 204.142 42.3024 207.914 43.5457C209.858 44.1868 208.906 47.062 206.981 46.4015C203.286 45.1776 199.514 44.0702 195.742 43.1183C194.906 42.924 194.401 42.1081 194.595 41.2922ZM235.018 58.9709C224.966 53.201 222.905 53.5896 223.897 51.5108C224.519 50.1898 226.133 50.8115 225.938 50.8115C229.535 52.5211 233.093 54.3861 236.535 56.3482C237.274 56.7756 237.526 57.7081 237.118 58.4269C236.71 59.1263 235.796 59.4177 235.018 58.9709Z" fill="#C4C4C4"/>
<path d="M277.366 94.9505C274.1 90.9288 272.019 89.5105 273.575 88.1699C274.216 87.6259 275.189 87.7036 275.753 88.3448C279.291 92.3665 281.1 93.979 279.525 95.203C279.058 95.5722 277.891 95.5916 277.366 94.9505Z" fill="#C4C4C4"/>
<path d="M310.634 207.725C310.031 207.453 309.662 206.812 309.74 206.152C309.992 204.17 310.187 202.169 310.362 200.207C310.44 199.371 311.179 198.769 312.015 198.847C312.851 198.924 313.492 199.663 313.415 200.498C313.24 202.519 313.026 204.559 312.773 206.56C312.676 207.395 311.898 207.959 311.062 207.842C310.926 207.842 310.77 207.803 310.634 207.725Z" fill="#C4C4C4"/>
<path d="M94.6356 319.703C90.8053 317.819 86.9943 315.74 83.3389 313.545C82.6001 313.098 82.3667 312.165 82.7945 311.466C84.0194 309.465 84.7389 311.466 95.9772 317.022C96.7355 317.391 97.0661 318.304 96.6966 319.062C96.055 320.344 94.4606 319.703 94.6356 319.703ZM112.971 325.784C113.71 323.569 114.935 325.395 126.99 328.407C127.826 328.601 128.331 329.436 128.137 330.252C127.942 331.068 127.106 331.554 126.29 331.34C122.168 330.31 118.007 329.087 113.963 327.707C113.146 327.435 112.699 326.561 112.971 325.784ZM66.2091 301.597C62.8843 298.936 59.6178 296.099 56.5263 293.146C55.9041 292.563 55.8846 291.612 56.4679 291.009C58.1206 289.319 58.3734 291.437 68.1341 299.266C68.7951 299.79 68.9118 300.742 68.3868 301.403C67.823 302.044 66.8702 302.141 66.2091 301.597ZM146.336 334.915C145.753 334.643 145.364 334.04 145.442 333.38C145.519 332.545 146.278 331.962 147.114 332.039C151.275 332.506 155.494 332.797 159.655 332.914C160.51 332.933 161.191 333.632 161.172 334.468C161.172 335.303 160.472 335.964 159.616 335.944C155.358 335.828 151.061 335.517 146.822 335.051C146.647 335.031 146.492 334.973 146.336 334.915ZM179.585 334.973C179.118 334.759 178.768 334.312 178.69 333.769C178.593 332.933 179.176 332.195 180.032 332.098C184.173 331.651 188.334 331.029 192.417 330.233C193.253 330.077 194.07 330.602 194.245 331.437C194.42 332.253 193.895 333.05 193.059 333.205C188.898 334.002 184.64 334.643 180.421 335.109C180.11 335.148 179.818 335.09 179.585 334.973ZM211.9 327.863C211.53 327.688 211.239 327.396 211.083 326.988C210.791 326.192 211.2 325.337 212.016 325.065C215.944 323.744 219.852 322.229 223.644 320.577C224.421 320.247 225.335 320.597 225.685 321.355C226.035 322.112 225.705 323.006 224.927 323.356C221.058 325.046 217.072 326.58 213.066 327.921C212.658 328.057 212.25 328.018 211.9 327.863ZM241.746 313.953C241.473 313.836 241.24 313.642 241.085 313.37C240.637 312.651 240.851 311.719 241.551 311.291C245.07 309.154 248.551 306.842 251.856 304.414C252.537 303.928 253.49 304.064 254.015 304.744C254.52 305.424 254.403 306.357 253.723 306.862C250.34 309.349 246.782 311.699 243.204 313.894C242.757 314.147 242.212 314.166 241.746 313.953ZM267.256 293.593C265.564 291.903 267.703 291.748 275.752 282.481C277.055 280.965 279.408 282.966 278.105 284.462C275.364 287.629 272.447 290.698 269.433 293.613C268.831 294.215 267.858 294.195 267.256 293.593ZM288.255 268.551C286.232 267.269 288.274 266.648 294.01 255.827C294.943 254.078 297.685 255.496 296.732 257.264C294.768 260.955 292.629 264.608 290.374 268.105C289.927 268.823 288.955 268.998 288.255 268.551ZM302.954 239.45C302.235 239.119 301.865 238.284 302.137 237.546C303.537 233.68 304.801 229.736 305.87 225.792C306.084 224.996 306.92 224.53 307.757 224.743C308.573 224.976 309.059 225.812 308.845 226.608C307.757 230.63 306.473 234.651 305.034 238.595C304.743 239.372 303.868 239.78 303.071 239.469C303.032 239.488 302.993 239.469 302.954 239.45Z" fill="#C4C4C4"/>
<path d="M42.3326 277.76C38.9882 273.583 37.2576 271.893 38.8715 270.747C40.5437 269.562 41.302 271.64 44.7242 275.915C45.2492 276.575 45.152 277.527 44.4909 278.032C43.8298 278.557 42.877 278.421 42.3326 277.76Z" fill="#C4C4C4"/>
<path d="M61.8149 240.848L83.825 239.683C89.9109 247.959 97.3772 255.38 106.049 261.519C105.407 282.597 103.871 284.035 106.068 284.948L130.626 295.089C131.345 295.38 132.162 295.205 132.667 294.642L147.114 278.498C157.594 280.266 168.093 280.285 178.243 278.712L193.04 295.069C193.564 295.652 194.381 295.827 195.101 295.555L219.444 285.764C220.163 285.472 220.591 284.773 220.533 284.015L218.977 262.335C227.28 256.487 234.688 249.26 240.773 240.829L262.803 242.305C263.581 242.363 264.281 241.917 264.572 241.217L274.45 217.225C274.741 216.525 274.547 215.709 273.964 215.204L257.32 200.692C258.934 190.396 258.759 180.061 256.989 170.036C272.68 155.757 274.741 155.893 273.808 153.737C263.211 130.23 264.047 128.365 261.636 128.481L239.626 129.647C233.54 121.371 226.074 113.95 217.402 107.811C218.044 86.7519 219.58 85.2949 217.383 84.3818C192.826 74.7265 192.34 72.9586 190.784 74.6876L176.357 90.8316C165.877 89.0637 155.377 89.0443 145.228 90.6179C130.626 75.115 130.567 72.8809 128.39 73.7745C104.474 83.8961 102.783 82.9636 102.938 85.3143L104.494 106.995C96.1912 112.843 88.7831 120.069 82.6973 128.501C61.6399 127.53 59.8122 125.917 58.8984 128.112C49.546 152.027 47.6989 152.552 49.5072 154.125L66.1508 168.637C64.537 178.934 64.712 189.269 66.4814 199.293C50.8488 213.534 48.7294 213.436 49.6627 215.593C60.24 239.1 59.4039 240.965 61.8149 240.848Z" fill="#404040"/>
<path d="M136.167 180.799C138.092 166.947 151.119 157.428 165.216 159.565C179.312 161.702 189.229 174.699 187.304 188.531C185.379 202.383 172.352 211.902 158.255 209.765C144.158 207.647 134.262 194.651 136.167 180.799ZM164.594 164.053C153.141 162.324 142.331 169.959 140.736 181.498C139.161 192.863 147.289 203.548 158.877 205.297C170.466 207.045 181.16 199.216 182.734 187.851C184.329 176.447 176.163 165.801 164.594 164.053Z" fill="white"/>
<path d="M135.039 243.315C131.559 241.722 128.234 239.819 125.084 237.682C124.151 237.041 123.82 235.836 124.268 234.865C124.326 234.748 124.384 234.632 124.462 234.534C125.181 233.505 126.62 233.272 127.67 233.99C131.267 236.458 135.175 238.556 139.239 240.246C169.941 252.932 204.861 239.508 218.336 210.309C218.686 209.57 219.016 208.813 219.327 208.036C232.082 177.069 216.644 141.634 185.204 128.617C153.822 115.64 117.851 129.958 105.116 160.828C97.5522 179.206 102.102 192.222 101.227 194.106C100.294 196.146 97.2022 195.68 96.8522 193.465C94.9079 181.323 96.4439 168.482 101.908 156.631C125.493 105.48 200.584 107.578 223.099 159.954C230.021 176.078 230.216 193.776 223.605 209.804C223.255 210.639 222.905 211.455 222.535 212.271C215.691 227.113 203.578 238.595 188.159 244.792C171.904 251.339 153.919 251.203 137.528 244.423C136.692 244.054 135.856 243.704 135.039 243.315Z" fill="white"/>
<path d="M326.675 147.19C330.389 151.58 334.841 155.388 339.916 158.438L340.169 170.735C340.188 172.095 341.355 171.571 354.927 176.214C356.19 176.622 356.035 175.456 363.443 166.034C369.334 166.52 375.187 166.015 380.767 164.635L389.653 173.164C390.644 174.116 391.092 172.911 403.963 166.597C404.352 166.403 404.566 165.976 404.508 165.548L402.777 153.367C407.171 149.657 410.982 145.208 414.035 140.138C425.779 139.652 426.868 140.468 427.276 139.186C431.515 125.198 432.526 124.829 431.457 124.032L421.618 116.65C422.104 110.764 421.599 104.916 420.218 99.3405L428.754 90.4623C429.707 89.4715 428.501 89.0247 422.182 76.1639C421.579 74.9983 420.899 75.9114 408.941 77.349C405.227 72.9584 400.775 69.1507 395.7 66.1007L395.447 53.8033C395.428 52.4434 394.261 52.9679 380.689 48.3248C379.445 47.9168 379.601 49.0436 372.173 58.5046C366.282 58.019 360.429 58.5241 354.849 59.9034L345.963 51.3749C345.652 51.0835 345.185 51.0057 344.797 51.2L331.653 57.9218C331.264 58.1161 331.05 58.5435 331.108 58.9709L332.839 71.1517C328.445 74.8623 324.634 79.3111 321.581 84.3816C309.837 84.8673 308.748 84.0514 308.34 85.3336C304.101 99.3211 303.09 99.6902 304.16 100.487L313.998 107.869C313.512 113.755 314.017 119.603 315.398 125.179C307.426 133.824 306.084 134.018 306.707 135.203L313.434 148.336C314.056 149.56 314.795 148.627 326.675 147.19Z" fill="#404040"/>
<path d="M352.418 111.269C352.963 102.779 360.293 96.349 368.79 96.893C377.287 97.4369 383.723 104.761 383.179 113.251C382.635 121.721 375.285 128.171 366.807 127.627C358.31 127.083 351.874 119.759 352.418 111.269ZM357.007 111.58C356.618 117.525 361.149 122.673 367.099 123.061C376.665 123.683 382.265 112.357 375.926 105.149C369.607 97.9614 357.629 101.963 357.007 111.58Z" fill="white"/>
<path d="M290.452 135.301C289.869 133.319 289.344 131.279 288.896 129.259C288.721 128.423 289.246 127.627 290.063 127.432C292.144 126.986 291.852 129.298 293.369 134.407C293.602 135.223 293.155 136.078 292.338 136.311C291.541 136.583 290.685 136.117 290.452 135.301Z" fill="#C4C4C4"/>
<path d="M287.166 108.879C287.341 104.819 287.827 100.603 288.663 96.3683C289.052 94.3868 292.066 94.989 291.657 96.9706C289.46 107.927 291.171 110.589 288.624 110.472C287.788 110.434 287.127 109.734 287.166 108.879ZM295.915 79.0393C295.157 78.6702 294.846 77.7571 295.215 76.9994C297.043 73.2306 299.201 69.5783 301.612 66.1397C302.779 64.4883 305.287 66.2368 304.121 67.8881C301.807 71.1907 299.726 74.707 297.976 78.3399C297.315 79.661 295.721 79.0393 295.915 79.0393ZM315.69 53.5314C315.495 53.4343 315.32 53.3177 315.165 53.1429C314.62 52.5018 314.698 51.5304 315.34 50.9865C318.528 48.2667 321.95 45.7606 325.528 43.5653C326.247 43.1185 327.2 43.3516 327.628 44.0704C328.075 44.7892 327.842 45.7411 327.122 46.1685C323.681 48.2861 320.395 50.6951 317.323 53.3177C316.856 53.7063 316.214 53.784 315.69 53.5314ZM343.98 37.9897C343.591 37.8148 343.28 37.4846 343.163 37.0572C342.911 36.2412 343.377 35.3865 344.174 35.1533C348.18 33.9294 352.321 32.9969 356.482 32.4141C357.318 32.2975 358.096 32.8803 358.213 33.7157C358.329 34.5511 357.746 35.3282 356.91 35.4447C352.904 36.0081 348.919 36.8823 345.069 38.0674C344.699 38.184 344.31 38.1451 343.98 37.9897ZM375.245 33.4826C375.342 32.6472 376.101 32.045 376.937 32.1421C381.117 32.6084 385.278 33.4243 389.322 34.5317C391.267 35.0562 390.469 38.0285 388.506 37.4846C384.617 36.4161 380.612 35.639 376.587 35.1922C375.731 35.0756 375.148 34.318 375.245 33.4826Z" fill="#C4C4C4"/>
<path d="M411.799 48.3254C407.172 45.1391 405.13 44.8088 406.18 43.0214C406.608 42.2831 407.522 42.0306 408.28 42.458C410.069 43.4877 411.838 44.6146 413.549 45.7997C414.249 46.2854 414.424 47.2374 413.938 47.9368C413.452 48.6168 412.519 48.8111 411.799 48.3254Z" fill="#C4C4C4"/>
<path d="M444.834 102.372C444.114 96.7763 443.006 95.0666 445.028 94.6392C445.864 94.4643 446.661 95.0083 446.836 95.8243C447.264 97.8449 447.595 99.9043 447.867 101.983C447.984 102.819 447.381 103.596 446.545 103.693C445.709 103.79 444.931 103.207 444.834 102.372Z" fill="#C4C4C4"/>
<path d="M341.394 186.88C342.191 184.471 343.999 186.957 354.907 188.764C356.89 189.094 356.404 192.125 354.402 191.775C350.318 191.095 346.274 190.085 342.366 188.803C341.588 188.55 341.122 187.696 341.394 186.88ZM372.873 191.231C372.795 190.396 373.437 189.658 374.273 189.58C385.395 188.667 387.3 186.336 387.903 188.822C388.097 189.638 387.592 190.474 386.775 190.668C382.77 191.639 378.648 192.3 374.526 192.63C373.67 192.688 372.931 192.067 372.873 191.231ZM403.516 182.897C402.33 180.644 405.344 181.071 414.229 174.446C415.843 173.242 417.69 175.69 416.057 176.894C412.752 179.361 409.213 181.595 405.577 183.519C404.838 183.927 403.905 183.635 403.516 182.897ZM428.404 163.198C426.421 161.585 429.376 160.808 434.956 151.231C435.967 149.482 438.631 151.017 437.601 152.766C435.52 156.321 433.148 159.759 430.562 162.965C430.037 163.625 429.065 163.722 428.404 163.198ZM442.52 133.416C445.553 122.692 444.036 120.089 446.564 120.4C447.4 120.497 448.003 121.274 447.906 122.109C447.4 126.209 446.584 130.308 445.456 134.271C445.223 135.087 444.386 135.553 443.57 135.32C442.773 135.067 442.287 134.232 442.52 133.416Z" fill="#C4C4C4"/>
<path d="M324.148 180.1C322.398 178.973 320.687 177.768 319.034 176.525C318.353 176.02 318.237 175.048 318.742 174.388C320.025 172.698 321.309 174.64 325.8 177.535C326.52 178.002 326.714 178.934 326.267 179.653C325.8 180.352 324.848 180.547 324.148 180.1Z" fill="#C4C4C4"/>
<path d="M349.113 144.956C347.849 144.237 347.596 142.819 348.199 141.77C348.841 140.682 350.26 140.293 351.33 140.934C353.371 142.119 355.549 143.071 357.824 143.809C358.329 143.868 369.995 148.53 383.256 141.75C409.563 128.287 406.452 89.4716 378.298 80.3991C362.082 75.1732 344.738 83.0606 337.797 98.1361C330.797 113.328 338.711 121.235 333.869 122.342C332.625 122.634 331.4 121.857 331.108 120.633C329.553 113.969 329.864 106.995 331.964 100.467C338.361 80.6128 359.768 69.5976 379.717 76.028C401.163 82.944 412.11 107.17 402.505 128.035C394.747 144.858 375.226 154.222 356.443 148.18C353.877 147.365 351.407 146.277 349.113 144.956Z" fill="white"/>
<path d="M342.834 199.818C342.775 199.099 342.037 198.477 340.812 197.992C342.153 197.253 342.911 196.457 342.834 195.68C342.639 193.31 335.153 191.989 326.092 192.727C317.051 193.465 309.856 195.971 310.051 198.322C310.109 199.041 310.848 199.662 312.073 200.148C310.731 200.886 309.973 201.683 310.051 202.46C310.109 203.179 310.848 203.8 312.073 204.286C310.731 205.024 309.973 205.821 310.051 206.598C310.109 207.317 310.848 207.938 312.073 208.424C310.731 209.162 309.973 209.959 310.051 210.736C310.129 211.785 311.645 212.62 314.095 213.184C314.056 213.961 314.076 214.796 314.154 215.729C314.504 220.08 319.404 223.5 325.898 223.5C332.392 223.5 337.992 218.837 338.05 214.466C338.07 213.397 338.012 212.446 337.914 211.61C341.025 210.581 342.912 209.318 342.814 208.074C342.756 207.356 342.017 206.734 340.792 206.248C342.134 205.51 342.892 204.713 342.814 203.936C342.756 203.218 342.017 202.596 340.792 202.11C342.153 201.391 342.892 200.595 342.834 199.818Z" fill="black"/>
<path d="M321.912 214.156C319.229 214.156 316.759 213.961 314.737 213.573C314.62 213.553 314.542 213.437 314.562 213.32C314.581 213.204 314.698 213.126 314.815 213.145C318.004 213.748 322.242 213.884 326.773 213.514C330.487 213.223 333.948 212.621 336.806 211.785C336.923 211.746 337.039 211.824 337.078 211.941C337.117 212.057 337.039 212.174 336.923 212.213C334.045 213.048 330.545 213.65 326.812 213.961C325.12 214.078 323.487 214.156 321.912 214.156Z" fill="white"/>
<path d="M321.951 209.979C318.451 209.979 315.34 209.648 313.142 209.027C313.026 208.988 312.967 208.871 312.987 208.755C313.026 208.638 313.142 208.58 313.259 208.599C316.39 209.493 321.445 209.765 326.773 209.338C332.042 208.91 336.942 207.842 339.917 206.482C340.034 206.423 340.15 206.482 340.209 206.579C340.267 206.695 340.209 206.812 340.112 206.87C337.098 208.25 332.139 209.338 326.831 209.765C325.159 209.92 323.526 209.979 321.951 209.979Z" fill="url(#paint0_linear_8_83)"/>
<path d="M321.951 209.979C318.451 209.979 315.34 209.648 313.142 209.027C313.026 208.988 312.967 208.871 312.987 208.755C313.026 208.638 313.142 208.58 313.259 208.599C316.39 209.493 321.445 209.765 326.773 209.338C332.042 208.91 336.942 207.842 339.917 206.482C340.034 206.423 340.15 206.482 340.209 206.579C340.267 206.695 340.209 206.812 340.112 206.87C337.098 208.25 332.139 209.338 326.831 209.765C325.159 209.92 323.526 209.979 321.951 209.979Z" fill="white"/>
<path d="M321.912 205.841C318.14 205.841 314.834 205.452 312.618 204.714C312.501 204.675 312.442 204.558 312.481 204.442C312.52 204.325 312.637 204.267 312.754 204.306C315.845 205.316 321.076 205.666 326.773 205.2C332.042 204.772 336.942 203.704 339.917 202.344C340.034 202.285 340.15 202.344 340.209 202.441C340.267 202.557 340.209 202.674 340.112 202.732C337.098 204.112 332.139 205.2 326.831 205.627C325.12 205.763 323.487 205.841 321.912 205.841Z" fill="url(#paint1_linear_8_83)"/>
<path d="M321.912 205.841C318.14 205.841 314.834 205.452 312.618 204.714C312.501 204.675 312.442 204.558 312.481 204.442C312.52 204.325 312.637 204.267 312.754 204.306C315.845 205.316 321.076 205.666 326.773 205.2C332.042 204.772 336.942 203.704 339.917 202.344C340.034 202.285 340.15 202.344 340.209 202.441C340.267 202.557 340.209 202.674 340.112 202.732C337.098 204.112 332.139 205.2 326.831 205.627C325.12 205.763 323.487 205.841 321.912 205.841Z" fill="white"/>
<path d="M321.951 201.683C318.956 201.683 316.234 201.45 314.115 200.965C313.998 200.945 313.92 200.829 313.959 200.712C313.979 200.595 314.095 200.518 314.212 200.557C317.401 201.256 321.97 201.45 326.773 201.062C331.984 200.634 336.884 199.585 339.839 198.245C339.956 198.186 340.073 198.245 340.131 198.361C340.189 198.478 340.131 198.594 340.014 198.653C337 200.013 332.062 201.101 326.792 201.509C325.14 201.606 323.506 201.683 321.951 201.683Z" fill="url(#paint2_linear_8_83)"/>
<path d="M321.951 201.683C318.956 201.683 316.234 201.45 314.115 200.965C313.998 200.945 313.92 200.829 313.959 200.712C313.979 200.595 314.095 200.518 314.212 200.557C317.401 201.256 321.97 201.45 326.773 201.062C331.984 200.634 336.884 199.585 339.839 198.245C339.956 198.186 340.073 198.245 340.131 198.361C340.189 198.478 340.131 198.594 340.014 198.653C337 200.013 332.062 201.101 326.792 201.509C325.14 201.606 323.506 201.683 321.951 201.683Z" fill="white"/>
<path d="M303.984 178.837C302.876 174.951 301.01 171.318 298.501 168.152C293.116 161.372 284.327 147.578 283.238 128.734C281.663 101.342 305.987 87.6261 328.172 89.4911C350.357 91.3561 372.251 107.85 369.859 133.338C368.382 149.016 359.593 160.905 353.06 167.744C348.899 172.076 345.944 177.399 344.349 183.169C342.386 190.24 337.719 199.08 326.617 199.604C312.248 200.304 306.279 186.938 303.984 178.837Z" fill="url(#paint3_linear_8_83)"/>
<path d="M303.984 178.837C302.876 174.951 301.01 171.318 298.501 168.152C293.116 161.372 284.327 147.578 283.238 128.734C281.663 101.342 305.987 87.6261 328.172 89.4911C350.357 91.3561 372.251 107.85 369.859 133.338C368.382 149.016 359.593 160.905 353.06 167.744C348.899 172.076 345.944 177.399 344.349 183.169C342.386 190.24 337.719 199.08 326.617 199.604C312.248 200.304 306.279 186.938 303.984 178.837Z" fill="url(#paint4_linear_8_83)"/>
<path d="M330.272 194.145L338.03 143.693C338.186 142.644 338.711 141.944 339.178 142.139C339.644 142.313 339.897 143.304 339.742 144.353C339.742 144.373 339.722 144.412 339.722 144.45L330.875 194.437C330.817 194.806 330.622 195.058 330.447 194.961C330.292 194.864 330.214 194.514 330.272 194.145Z" fill="url(#paint5_linear_8_83)"/>
<path d="M322.223 194.553L314.465 144.101C314.309 143.052 313.784 142.352 313.317 142.547C312.851 142.721 312.598 143.712 312.754 144.761C312.754 144.781 312.773 144.82 312.773 144.858L321.62 194.845C321.678 195.214 321.873 195.466 322.048 195.369C322.184 195.272 322.262 194.922 322.223 194.553Z" fill="url(#paint6_linear_8_83)"/>
<path d="M337.973 139.381C337.778 139.07 337.311 138.953 336.961 139.109L332.645 141.129L331.148 136.855C331.07 136.641 330.875 136.427 330.623 136.33C330.117 136.117 329.534 136.311 329.3 136.738V136.758L325.742 143.227L322.437 133.999V133.979C322.359 133.746 322.184 133.552 321.931 133.416C321.387 133.105 320.648 133.261 320.298 133.746L315.32 140.585C315.126 140.857 315.184 141.246 315.495 141.44C315.826 141.654 316.292 141.615 316.545 141.323L320.92 136.447L324.867 145.209C324.926 145.345 325.042 145.481 325.217 145.539C325.587 145.714 326.053 145.598 326.248 145.267L330.059 139.167L331.498 142.256L331.517 142.275C331.537 142.295 331.537 142.314 331.556 142.334C331.75 142.645 332.217 142.761 332.567 142.606L337.7 140.216C338.05 140.08 338.186 139.691 337.973 139.381Z" fill="white"/>
<path d="M353.235 161.236C353.021 161.236 352.827 161.178 352.652 161.042C352.224 160.711 352.127 160.109 352.457 159.662C353.78 157.875 354.985 156.049 356.054 154.203C356.327 153.737 356.929 153.562 357.396 153.834C357.863 154.106 358.038 154.708 357.766 155.174C356.657 157.078 355.413 158.982 354.032 160.828C353.818 161.1 353.527 161.236 353.235 161.236Z" fill="white"/>
<path d="M359.613 150.279C359.476 150.279 359.34 150.259 359.224 150.201C358.718 149.987 358.504 149.404 358.718 148.899C366.924 130.016 359.846 114.183 359.768 114.027C359.535 113.542 359.749 112.94 360.254 112.726C360.76 112.493 361.343 112.726 361.557 113.212C361.868 113.891 369.062 130.016 360.526 149.696C360.351 150.065 360.001 150.279 359.613 150.279Z" fill="white"/>
<path d="M195.489 509.176C195.489 509.176 194.206 516.034 193.545 522.834C193.292 525.495 195.314 527.826 197.978 527.962C207.039 528.429 226.424 529.342 233.385 529.109C234.435 529.07 235.135 528.001 234.746 527.03C234.435 526.214 233.813 525.553 233.015 525.165L201.109 510.148L195.489 509.176Z" fill="url(#paint7_linear_8_83)"/>
<path d="M195.489 509.176C195.489 509.176 194.206 516.034 193.545 522.834C193.292 525.495 195.314 527.826 197.978 527.962C207.039 528.429 226.424 529.342 233.385 529.109C234.435 529.07 235.135 528.001 234.746 527.03C234.435 526.214 233.813 525.553 233.015 525.165L201.109 510.148L195.489 509.176Z" fill="url(#paint8_linear_8_83)"/>
<path d="M194.537 505.135L195.431 513.373C195.431 513.373 201.012 516.035 204.881 513.14L202.645 503.95L194.537 505.135Z" fill="url(#paint9_linear_8_83)"/>
<path d="M196.754 350.592C196.307 352.729 193.468 457.694 204.259 504.844C204.434 505.621 204.046 506.398 203.307 506.69C201.576 507.369 198.193 508.36 194.149 508.457C192.904 508.496 191.776 507.661 191.446 506.456C188.335 495.519 173.479 440.676 171.963 388.417C170.271 330.019 171.982 386.435 171.982 386.435L173.635 350.359L196.754 350.592Z" fill="url(#paint10_linear_8_83)"/>
<path d="M196.754 350.592C196.307 352.729 193.468 457.694 204.259 504.844C204.434 505.621 204.046 506.398 203.307 506.69C201.576 507.369 198.193 508.36 194.149 508.457C192.904 508.496 191.776 507.661 191.446 506.456C188.335 495.519 173.479 440.676 171.963 388.417C170.271 330.019 171.982 386.435 171.982 386.435L173.635 350.359L196.754 350.592Z" fill="black"/>
<path d="M158.605 512.401C158.605 512.401 156.641 515.859 154.677 525.048C154.327 526.719 155.475 528.312 157.166 528.506C160.161 528.837 164.769 529.244 168.463 529.264C170.174 529.264 171.516 527.807 171.322 526.117C170.952 522.756 169.727 517.219 165.819 512.867L158.605 512.401Z" fill="url(#paint11_linear_8_83)"/>
<path d="M158.605 512.401C158.605 512.401 156.641 515.859 154.677 525.048C154.327 526.719 155.475 528.312 157.166 528.506C160.161 528.837 164.769 529.244 168.463 529.264C170.174 529.264 171.516 527.807 171.322 526.117C170.952 522.756 169.727 517.219 165.819 512.867L158.605 512.401Z" fill="url(#paint12_linear_8_83)"/>
<path d="M157.011 501.813L159.169 514.267C159.169 514.267 161.405 515.957 165.877 514.792L164.924 501.405L157.011 501.813Z" fill="url(#paint13_linear_8_83)"/>
<path d="M152.266 353.39C142.545 408.699 152.947 490.312 156.563 506.301C156.777 507.272 157.574 508.03 158.547 508.205C160.219 508.496 162.999 508.749 165.741 507.991C166.694 507.719 167.355 506.884 167.393 505.912C168.016 493.013 167.86 413.828 176.726 382.628C177.174 381.054 178.165 379.675 179.507 378.723L196.228 367.086L197.687 348.028L152.266 353.39Z" fill="url(#paint14_linear_8_83)"/>
<path d="M152.266 353.39C142.545 408.699 152.947 490.312 156.563 506.301C156.777 507.272 157.574 508.03 158.547 508.205C160.219 508.496 162.999 508.749 165.741 507.991C166.694 507.719 167.355 506.884 167.393 505.912C168.016 493.013 167.86 413.828 176.726 382.628C177.174 381.054 178.165 379.675 179.507 378.723L196.228 367.086L197.687 348.028L152.266 353.39Z" fill="black"/>
<path d="M211.803 248.988C184.271 248.27 153.841 255.652 153.841 255.652C145.17 303.404 151.43 358.655 151.43 358.655C172.682 364.444 196.812 355.682 196.812 355.682C200.545 335.731 217.616 279.606 217.616 279.606C231.091 278.071 242.193 274.302 251.37 269.251C244.487 261.13 241.298 250.834 239.937 244.753C230.157 247.687 220.28 249.221 211.803 248.988Z" fill="black"/>
<path d="M211.803 248.988C184.271 248.27 153.841 255.652 153.841 255.652C145.17 303.404 151.43 358.655 151.43 358.655C172.682 364.444 196.812 355.682 196.812 355.682C200.545 335.731 217.616 279.606 217.616 279.606C231.091 278.071 242.193 274.302 251.37 269.251C244.487 261.13 241.298 250.834 239.937 244.753C230.157 247.687 220.28 249.221 211.803 248.988Z" fill="#383838"/>
<path d="M293.504 209.26C290.841 205.976 287.399 207.472 287.399 207.472C283.18 224.529 261.811 238.187 239.918 244.753C241.279 250.834 244.468 261.111 251.351 269.251C287.749 249.26 293.504 209.26 293.504 209.26Z" fill="url(#paint15_linear_8_83)"/>
<path d="M292.824 210.076C293.096 210.969 289.81 212.31 287.905 208.619C287.846 206.851 286.855 199.293 287.924 197.875C293.602 190.279 304.588 180.799 304.588 180.799C306.416 182.625 304.879 184.393 304.879 184.393L299.552 189.832C300.641 191.833 301.963 193.524 302.566 195.952C303.032 197.778 302.721 199.721 301.768 201.392C300.835 203.043 299.532 205.199 298.327 206.89C296.052 210.076 292.824 210.076 292.824 210.076Z" fill="url(#paint16_linear_8_83)"/>
<path d="M297.218 193.387L292.377 197.409L290.821 201.45L295.06 206.249C295.06 206.249 296.577 198.206 297.666 196.477C298.755 194.747 298.21 193.912 297.218 193.387Z" fill="url(#paint17_linear_8_83)"/>
<path d="M164.127 282.384L153.822 255.652C153.822 255.652 127.943 272.864 123.509 294.953C128.37 295.361 137.198 296.701 145.811 301.15C147.814 290.737 164.127 282.384 164.127 282.384Z" fill="url(#paint18_linear_8_83)"/>
<path d="M164.127 282.384L153.822 255.652C153.822 255.652 127.943 272.864 123.509 294.953C128.37 295.361 137.198 296.701 145.811 301.15C147.814 290.737 164.127 282.384 164.127 282.384Z" fill="black"/>
<path d="M164.127 282.384L153.822 255.652C153.822 255.652 127.943 272.864 123.509 294.953C128.37 295.361 137.198 296.701 145.811 301.15C147.814 290.737 164.127 282.384 164.127 282.384Z" fill="#383838"/>
<path d="M186.37 307.658C186.37 307.658 157.341 323.686 147.736 309.679C145.733 306.765 145.286 303.889 145.811 301.15C137.198 296.701 128.37 295.361 123.509 294.953C122.168 301.616 122.771 308.707 126.64 315.934C143.4 347.29 190.123 314.807 190.123 314.807L186.37 307.658Z" fill="url(#paint19_linear_8_83)"/>
<path d="M184.135 226.394L175.132 251.611C174.976 252.038 175.151 252.485 175.54 252.718C177.913 254.059 186.487 257.963 196.909 251.494C197.998 250.814 198.737 249.707 198.912 248.444L201.965 226.569L184.135 226.394Z" fill="url(#paint20_linear_8_83)"/>
<path d="M203.404 203.14C203.404 203.14 212.853 221.324 211.551 228.609C210.248 235.914 198.329 235.273 187.984 229.231L180.887 209.648L203.404 203.14Z" fill="url(#paint21_linear_8_83)"/>
<path d="M188.529 219.653C188.956 219.478 189.112 218.954 188.859 218.565C188.101 217.38 186.681 214.971 186.234 212.854C186.234 212.854 184.523 211.727 190.667 210.328C196.812 208.929 205.97 206.734 207.953 201.547C209.878 196.477 205.075 183.655 197.123 193.757C196.812 194.145 196.228 194.145 195.937 193.757C194.673 192.067 191.309 188.57 186.604 190.629C182.19 192.552 181.665 195.777 181.704 197.39C181.723 197.875 181.296 198.225 180.81 198.147C178.593 197.7 173.265 197.292 170.718 202.732C168.618 207.22 169.941 209.784 171.127 211.047C171.516 211.455 171.341 212.115 170.796 212.271C169.338 212.698 167.432 213.922 167.588 217.341C167.802 222.082 173.09 221.712 174.607 221.499C174.86 221.46 175.093 221.557 175.268 221.732C176.551 223.169 182.307 229.289 188.606 230.086C189.151 230.163 189.579 229.619 189.404 229.095L186.759 221.149C186.643 220.78 186.818 220.372 187.168 220.217L188.529 219.653Z" fill="url(#paint22_linear_8_83)"/>
<path d="M188.529 219.653C188.956 219.478 189.112 218.954 188.859 218.565C188.101 217.38 186.681 214.971 186.234 212.854C186.234 212.854 184.523 211.727 190.667 210.328C196.812 208.929 205.97 206.734 207.953 201.547C209.878 196.477 205.075 183.655 197.123 193.757C196.812 194.145 196.228 194.145 195.937 193.757C194.673 192.067 191.309 188.57 186.604 190.629C182.19 192.552 181.665 195.777 181.704 197.39C181.723 197.875 181.296 198.225 180.81 198.147C178.593 197.7 173.265 197.292 170.718 202.732C168.618 207.22 169.941 209.784 171.127 211.047C171.516 211.455 171.341 212.115 170.796 212.271C169.338 212.698 167.432 213.922 167.588 217.341C167.802 222.082 173.09 221.712 174.607 221.499C174.86 221.46 175.093 221.557 175.268 221.732C176.551 223.169 182.307 229.289 188.606 230.086C189.151 230.163 189.579 229.619 189.404 229.095L186.759 221.149C186.643 220.78 186.818 220.372 187.168 220.217L188.529 219.653Z" fill="url(#paint23_linear_8_83)"/>
<path d="M188.529 219.653C188.956 219.478 189.112 218.954 188.859 218.565C188.101 217.38 186.681 214.971 186.234 212.854C186.234 212.854 184.523 211.727 190.667 210.328C196.812 208.929 205.97 206.734 207.953 201.547C209.878 196.477 205.075 183.655 197.123 193.757C196.812 194.145 196.228 194.145 195.937 193.757C194.673 192.067 191.309 188.57 186.604 190.629C182.19 192.552 181.665 195.777 181.704 197.39C181.723 197.875 181.296 198.225 180.81 198.147C178.593 197.7 173.265 197.292 170.718 202.732C168.618 207.22 169.941 209.784 171.127 211.047C171.516 211.455 171.341 212.115 170.796 212.271C169.338 212.698 167.432 213.922 167.588 217.341C167.802 222.082 173.09 221.712 174.607 221.499C174.86 221.46 175.093 221.557 175.268 221.732C176.551 223.169 182.307 229.289 188.606 230.086C189.151 230.163 189.579 229.619 189.404 229.095L186.759 221.149C186.643 220.78 186.818 220.372 187.168 220.217L188.529 219.653Z" fill="url(#paint24_linear_8_83)"/>
<path d="M189.618 220.78C189.618 220.78 182.812 216.02 182.268 219.964C181.723 223.908 188.373 225.754 191.698 224.316L189.618 220.78Z" fill="url(#paint25_linear_8_83)"/>
<path d="M180.44 332.991L196.248 277.818C196.423 277.196 196.967 276.73 197.609 276.652C200.467 276.322 208.769 275.39 218.355 274.574C229.905 273.602 243.301 272.806 251.312 273.486C252.459 273.583 253.14 274.787 252.634 275.817C248.084 285.025 229.341 322.481 219.949 334.759C219.638 335.167 219.152 335.4 218.647 335.4L181.957 335.05C180.907 335.05 180.129 334.021 180.44 332.991Z" fill="url(#paint26_linear_8_83)"/>
<path d="M184.251 319.664C184.251 319.664 182.054 310.611 182.929 307.406C183.823 304.2 185.534 300.062 191.271 300.995C197.007 301.908 203.773 304.336 203.773 304.336C203.773 304.336 203.423 308.513 199.068 307.172L201.77 309.271C201.77 309.271 201.381 312.612 197.707 310.825L200.215 313.603C200.215 313.603 198.64 316.361 195.918 314.594C193.234 312.787 191.932 320.752 184.251 319.664Z" fill="url(#paint27_linear_8_83)"/>
<path d="M217.305 291.048C217.305 293.613 219.386 295.692 221.952 295.692C224.519 295.692 226.599 293.613 226.599 291.048C226.599 288.484 224.519 286.405 221.952 286.405C219.386 286.424 217.305 288.503 217.305 291.048Z" fill="#C4C4C4"/>
<path d="M198.037 294.118L196.85 293.768L200.078 282.85C200.603 281.082 202.042 279.742 203.831 279.372C214.039 277.235 240.91 276.808 242.037 276.789L242.057 278.012C241.785 278.012 214.155 278.459 204.083 280.557C202.742 280.829 201.672 281.84 201.264 283.18L198.037 294.118Z" fill="#C4C4C4"/>
<path d="M10.912 448.505C9.23979 450.992 2.53156 507.409 1.48158 528.254C1.4038 529.672 2.53156 530.838 3.95098 530.838C5.17597 530.838 6.20651 529.944 6.40095 528.74L18.6508 450.293L10.912 448.505Z" fill="#7D97F4"/>
<path d="M10.912 448.505C9.23979 450.992 2.53156 507.409 1.48158 528.254C1.4038 529.672 2.53156 530.838 3.95098 530.838C5.17597 530.838 6.20651 529.944 6.40095 528.74L18.6508 450.293L10.912 448.505Z" fill="#353535"/>
<path d="M64.7706 448.505C66.4622 450.992 73.151 507.409 74.201 528.254C74.2788 529.672 73.151 530.838 71.7316 530.838C70.5066 530.838 69.4761 529.944 69.2816 528.74L57.0318 450.293L64.7706 448.505Z" fill="#7D97F4"/>
<path d="M64.7706 448.505C66.4622 450.992 73.151 507.409 74.201 528.254C74.2788 529.672 73.151 530.838 71.7316 530.838C70.5066 530.838 69.4761 529.944 69.2816 528.74L57.0318 450.293L64.7706 448.505Z" fill="#353535"/>
<path d="M0.781606 444.095V444.717C0.742719 449.146 4.55366 452.779 9.33677 452.857L65.9759 453.828C70.6812 453.906 74.6088 450.506 74.8421 446.154L74.881 445.591C75.1143 441.045 71.2645 437.218 66.3453 437.121L9.68676 436.111C4.82587 436.013 0.820493 439.607 0.781606 444.095Z" fill="#7D97F4"/>
<path d="M0.781606 444.095V444.717C0.742719 449.146 4.55366 452.779 9.33677 452.857L65.9759 453.828C70.6812 453.906 74.6088 450.506 74.8421 446.154L74.881 445.591C75.1143 441.045 71.2645 437.218 66.3453 437.121L9.68676 436.111C4.82587 436.013 0.820493 439.607 0.781606 444.095Z" fill="#353535"/>
<path d="M120.087 526.194C110.016 526.194 105.563 525.34 103.58 524.543C103.969 526.194 105.446 527.496 107.293 527.496H142.914C144.12 527.496 144.878 526.35 144.586 525.32C140.503 525.65 131.89 526.194 120.087 526.194Z" fill="#C4C4C4"/>
<path d="M120.087 526.194C110.016 526.194 105.563 525.34 103.58 524.543C103.969 526.194 105.446 527.496 107.293 527.496H142.914C144.12 527.496 144.878 526.35 144.586 525.32C140.503 525.65 131.89 526.194 120.087 526.194Z" fill="url(#paint28_linear_8_83)"/>
<path d="M144.567 525.321C144.508 525.107 144.431 524.913 144.275 524.719C141.553 521.26 136.109 515.82 128.701 515.918C117.832 516.073 114.06 517.239 105.621 515.976L103.638 522.562C103.444 523.242 103.424 523.903 103.58 524.524C105.563 525.321 110.035 526.176 120.087 526.176C131.89 526.195 140.503 525.651 144.567 525.321Z" fill="url(#paint29_linear_8_83)"/>
<path d="M144.567 525.321C144.508 525.107 144.431 524.913 144.275 524.719C141.553 521.26 136.109 515.82 128.701 515.918C117.832 516.073 114.06 517.239 105.621 515.976L103.638 522.562C103.444 523.242 103.424 523.903 103.58 524.524C105.563 525.321 110.035 526.176 120.087 526.176C131.89 526.195 140.503 525.651 144.567 525.321Z" fill="url(#paint30_linear_8_83)"/>
<path d="M108.052 508.885L105.602 517.181C105.602 517.181 111.007 519.648 115.771 517.666L116.704 510.478L108.052 508.885Z" fill="url(#paint31_linear_8_83)"/>
<path d="M181.879 520.969C174.024 527.263 170.019 529.381 167.977 530.022C169.319 531.071 171.263 531.148 172.721 529.983L200.488 507.7C201.421 506.942 201.304 505.582 200.429 504.961C197.454 507.758 191.077 513.586 181.879 520.969Z" fill="#C4C4C4"/>
<path d="M181.879 520.969C174.024 527.263 170.019 529.381 167.977 530.022C169.319 531.071 171.263 531.148 172.721 529.983L200.488 507.7C201.421 506.942 201.304 505.582 200.429 504.961C197.454 507.758 191.077 513.586 181.879 520.969Z" fill="url(#paint32_linear_8_83)"/>
<path d="M200.409 504.961C200.234 504.825 200.039 504.727 199.806 504.669C195.528 503.678 187.887 502.882 182.171 507.603C173.81 514.519 171.574 517.802 164.224 522.095L166.791 528.448C167.044 529.089 167.471 529.614 167.977 530.002C170.018 529.361 174.024 527.244 181.879 520.949C191.076 513.586 197.453 507.758 200.409 504.961Z" fill="url(#paint33_linear_8_83)"/>
<path d="M200.409 504.961C200.234 504.825 200.039 504.727 199.806 504.669C195.528 503.678 187.887 502.882 182.171 507.603C173.81 514.519 171.574 517.802 164.224 522.095L166.791 528.448C167.044 529.089 167.471 529.614 167.977 530.002C170.018 529.361 174.024 527.244 181.879 520.949C191.076 513.586 197.453 507.758 200.409 504.961Z" fill="url(#paint34_linear_8_83)"/>
<path d="M55.7875 414.275C55.7875 414.275 116.063 419.19 128.429 424.998C140.795 430.807 118.337 512.324 118.337 512.324C118.337 512.324 114.974 513.936 107.488 511.624C107.488 511.624 115.168 451.478 109.452 438.442L44.1991 427.777L55.7875 414.275Z" fill="url(#paint35_linear_8_83)"/>
<path d="M55.7875 414.275C55.7875 414.275 116.063 419.19 128.429 424.998C140.795 430.807 118.337 512.324 118.337 512.324C118.337 512.324 114.974 513.936 107.488 511.624C107.488 511.624 115.168 451.478 109.452 438.442L44.1991 427.777L55.7875 414.275Z" fill="black"/>
<path d="M158.236 510.653C158.799 511.158 164.224 522.095 164.224 522.095C164.224 522.095 170.272 520.794 171.497 516.966L166.052 507.097L158.236 510.653Z" fill="url(#paint36_linear_8_83)"/>
<path d="M19.4863 413.77C19.4863 413.77 17.5225 418.49 17.6003 424.765C17.7169 433.449 24.6972 440.482 33.369 440.909L104.61 444.154C106.107 444.231 107.391 445.261 107.76 446.718C109.432 453.187 117.618 473.061 157.613 512.712C158.683 513.761 160.335 513.955 161.599 513.139L167.296 509.545C167.899 509.176 168.093 508.38 167.724 507.778L126.231 437.004C124.054 433.41 120.554 430.807 116.471 429.778L55.7485 414.275L19.4863 413.77Z" fill="black"/>
<path d="M89.6975 303.19C89.6975 303.19 82.0559 316.672 74.2783 323.2L90.3586 332.175C90.3586 332.175 93.9752 317.896 102.258 313.719L89.6975 303.19Z" fill="url(#paint37_linear_8_83)"/>
<path d="M18.1836 414.274C18.1836 414.274 37.4133 418.956 55.7874 414.274C55.7874 414.274 81.4724 379.772 91.408 370.369C91.408 370.369 107.255 395.372 142.545 398.908L144.508 394.517C144.508 394.517 116.412 381.579 107.76 361.705C99.1077 341.831 95.6467 333.341 87.7721 328.154C82.8723 324.929 79.9363 322.714 78.4197 321.51C77.5837 320.849 76.4365 320.772 75.5421 321.335C67.2008 326.405 27.9248 353.293 18.1836 414.274Z" fill="black"/>
<path d="M18.1836 414.274C18.1836 414.274 37.4133 418.956 55.7874 414.274C55.7874 414.274 81.4724 379.772 91.408 370.369C91.408 370.369 107.255 395.372 142.545 398.908L144.508 394.517C144.508 394.517 116.412 381.579 107.76 361.705C99.1077 341.831 95.6467 333.341 87.7721 328.154C82.8723 324.929 79.9363 322.714 78.4197 321.51C77.5837 320.849 76.4365 320.772 75.5421 321.335C67.2008 326.405 27.9248 353.293 18.1836 414.274Z" fill="#383838"/>
<path d="M90.3779 369.884C90.0084 369.884 89.639 369.709 89.4057 369.398C83.2808 361.413 79.878 352.613 79.7225 352.244C79.4697 351.603 79.8003 350.903 80.4225 350.651C81.0641 350.398 81.7641 350.728 82.0169 351.35C82.0558 351.447 85.4585 360.189 91.3501 367.883C91.7584 368.427 91.6612 369.204 91.1167 369.612C90.9029 369.806 90.6306 369.884 90.3779 369.884Z" fill="#3C3C3C"/>
<path d="M140.425 392.225L144.392 391.176L156.447 388.378C157.906 388.048 159.422 388.3 160.686 389.097L171.05 395.625L142.409 395.586L140.425 392.225Z" fill="url(#paint38_linear_8_83)"/>
<path d="M101.811 282.986C101.811 282.986 109.219 295.303 110.522 302.122C111.805 308.941 113.866 313.195 106.128 315.623C98.3694 318.052 91.1556 314.982 86.6446 308.63C86.6446 308.63 79.5863 298.838 80.2863 294.37C80.9669 289.863 101.811 282.986 101.811 282.986Z" fill="url(#paint39_linear_8_83)"/>
<path d="M88.686 303.326L89.697 303.19C89.697 303.19 84.4473 295.264 87.8888 293.302C91.3303 291.339 105.33 286.502 107.76 281.004C110.113 275.701 106.593 269.698 102.374 268.435C102.102 268.357 101.83 268.513 101.733 268.784L101.48 269.445C101.305 269.911 100.663 269.931 100.469 269.464C100.274 269.037 99.6716 269.018 99.4771 269.445C98.7188 271.096 96.4828 273.913 89.7554 276.089C80.1891 279.178 74.2394 283.996 74.9782 290.776C75.0171 291.203 74.5894 291.495 74.2005 291.32C73.4228 290.97 72.2367 290.912 70.8562 292.427C68.4646 295.05 70.3312 300.762 76.8643 304.802C77.1754 304.997 77.2337 305.424 76.9615 305.677C75.9893 306.512 74.6088 308.377 79.0225 310.048C83.5529 311.738 86.0027 311.175 86.9166 310.805C87.1694 310.708 87.3055 310.456 87.2471 310.203L86.0805 304.259C86.0222 303.948 86.2361 303.656 86.5472 303.617L88.686 303.326Z" fill="url(#paint40_linear_8_83)"/>
<path d="M88.686 303.326L89.697 303.19C89.697 303.19 84.4473 295.264 87.8888 293.302C91.3303 291.339 105.33 286.502 107.76 281.004C110.113 275.701 106.593 269.698 102.374 268.435C102.102 268.357 101.83 268.513 101.733 268.784L101.48 269.445C101.305 269.911 100.663 269.931 100.469 269.464C100.274 269.037 99.6716 269.018 99.4771 269.445C98.7188 271.096 96.4828 273.913 89.7554 276.089C80.1891 279.178 74.2394 283.996 74.9782 290.776C75.0171 291.203 74.5894 291.495 74.2005 291.32C73.4228 290.97 72.2367 290.912 70.8562 292.427C68.4646 295.05 70.3312 300.762 76.8643 304.802C77.1754 304.997 77.2337 305.424 76.9615 305.677C75.9893 306.512 74.6088 308.377 79.0225 310.048C83.5529 311.738 86.0027 311.175 86.9166 310.805C87.1694 310.708 87.3055 310.456 87.2471 310.203L86.0805 304.259C86.0222 303.948 86.2361 303.656 86.5472 303.617L88.686 303.326Z" fill="url(#paint41_linear_8_83)"/>
<path d="M88.686 303.326L89.697 303.19C89.697 303.19 84.4473 295.264 87.8888 293.302C91.3303 291.339 105.33 286.502 107.76 281.004C110.113 275.701 106.593 269.698 102.374 268.435C102.102 268.357 101.83 268.513 101.733 268.784L101.48 269.445C101.305 269.911 100.663 269.931 100.469 269.464C100.274 269.037 99.6716 269.018 99.4771 269.445C98.7188 271.096 96.4828 273.913 89.7554 276.089C80.1891 279.178 74.2394 283.996 74.9782 290.776C75.0171 291.203 74.5894 291.495 74.2005 291.32C73.4228 290.97 72.2367 290.912 70.8562 292.427C68.4646 295.05 70.3312 300.762 76.8643 304.802C77.1754 304.997 77.2337 305.424 76.9615 305.677C75.9893 306.512 74.6088 308.377 79.0225 310.048C83.5529 311.738 86.0027 311.175 86.9166 310.805C87.1694 310.708 87.3055 310.456 87.2471 310.203L86.0805 304.259C86.0222 303.948 86.2361 303.656 86.5472 303.617L88.686 303.326Z" fill="url(#paint42_linear_8_83)"/>
<path d="M89.114 304.55C89.114 304.55 85.8474 296.487 82.4058 299.324C78.9642 302.161 85.5752 308.417 88.6279 308.339L89.114 304.55Z" fill="url(#paint43_linear_8_83)"/>
<path d="M129.362 401.22C129.401 401.22 129.459 401.22 129.498 401.22L190.667 401.162C192.184 401.162 193.409 399.937 193.409 398.422C193.409 396.907 192.184 395.663 190.667 395.702L129.498 395.76C127.981 395.76 126.756 396.984 126.756 398.5C126.776 399.957 127.923 401.142 129.362 401.22Z" fill="url(#paint44_linear_8_83)"/>
<path d="M129.362 401.22C129.401 401.22 129.459 401.22 129.498 401.22L190.667 401.162C192.184 401.162 193.409 399.937 193.409 398.422C193.409 396.907 192.184 395.663 190.667 395.702L129.498 395.76C127.981 395.76 126.756 396.984 126.756 398.5C126.776 399.957 127.923 401.142 129.362 401.22Z" fill="url(#paint45_linear_8_83)"/>
<path d="M214.37 341.364C214.35 341.403 214.331 341.442 214.312 341.481L188.568 396.926C187.926 398.306 188.529 399.918 189.89 400.559C191.251 401.2 192.904 400.598 193.526 399.219L219.27 343.773C219.911 342.394 219.309 340.782 217.948 340.141C216.625 339.538 215.05 340.082 214.37 341.364Z" fill="url(#paint46_linear_8_83)"/>
<path d="M214.37 341.364C214.35 341.403 214.331 341.442 214.312 341.481L188.568 396.926C187.926 398.306 188.529 399.918 189.89 400.559C191.251 401.2 192.904 400.598 193.526 399.219L219.27 343.773C219.911 342.394 219.309 340.782 217.948 340.141C216.625 339.538 215.05 340.082 214.37 341.364Z" fill="url(#paint47_linear_8_83)"/>
<path d="M374.565 456.937H368.109V526.7H374.565V456.937Z" fill="#7D97F4"/>
<path d="M374.565 456.937H368.109V526.7H374.565V456.937Z" fill="#353535"/>
<path d="M399.608 528.06H343.066C343.066 525.748 344.952 523.863 347.266 523.863H395.408C397.722 523.863 399.608 525.728 399.608 528.06Z" fill="#7D97F4"/>
<path d="M399.608 528.06H343.066C343.066 525.748 344.952 523.863 347.266 523.863H395.408C397.722 523.863 399.608 525.728 399.608 528.06Z" fill="#353535"/>
<path d="M408.007 454.528C408.007 458.335 404.877 461.463 401.066 461.463H343.844C340.033 461.463 336.902 458.335 336.902 454.528V448.253C336.902 444.445 340.033 441.317 343.844 441.317H401.066C404.877 441.317 408.007 444.445 408.007 448.253V454.528Z" fill="#7D97F4"/>
<path d="M408.007 454.528C408.007 458.335 404.877 461.463 401.066 461.463H343.844C340.033 461.463 336.902 458.335 336.902 454.528V448.253C336.902 444.445 340.033 441.317 343.844 441.317H401.066C404.877 441.317 408.007 444.445 408.007 448.253V454.528Z" fill="#353535"/>
<path d="M323.681 410.428C323.681 410.428 314.095 411.904 303.304 419.112C301.612 420.239 300.679 422.22 300.932 424.241C302.215 434.459 307.543 467.544 325.042 499.871C325.956 501.58 326.228 503.562 325.82 505.446L322.786 519.589L317.148 524.873H331.672L341.355 498.705L337.214 497.403C334.005 496.393 331.808 493.44 331.75 490.079L331.264 462.007C331.672 449.496 323.584 440.87 323.584 440.87L346.799 439.744L323.681 410.428Z" fill="url(#paint48_linear_8_83)"/>
<path d="M311.451 527.438C310.129 529.167 325.703 531.459 333.559 527.671C333.559 527.671 344.467 508.71 344.467 498.958C344.467 498.958 343.592 496.976 337.195 497.423C337.195 497.423 333.539 519.861 329.67 522.387C325.801 524.893 318.859 522.639 318.859 522.639C318.859 522.639 313.415 524.893 311.451 527.438Z" fill="url(#paint49_linear_8_83)"/>
<path d="M311.451 527.438C310.129 529.167 325.703 531.459 333.559 527.671C333.559 527.671 344.467 508.71 344.467 498.958C344.467 498.958 343.592 496.976 337.195 497.423C337.195 497.423 333.539 519.861 329.67 522.387C325.801 524.893 318.859 522.639 318.859 522.639C318.859 522.639 313.415 524.893 311.451 527.438Z" fill="url(#paint50_linear_8_83)"/>
<path d="M343.844 441.317C343.727 441.103 318.859 438.325 318.859 438.325C318.859 438.325 319.675 445.883 317.128 456.276C314.581 466.67 278.086 511.721 278.086 511.721L281.916 523.844C270.075 527.962 258.428 528.623 246.976 525.942L270.697 511.721C270.697 511.721 292.902 436.13 306.493 422.628L331.419 414.022L343.844 441.317Z" fill="url(#paint51_linear_8_83)"/>
<path d="M399.608 397.315C399.608 397.315 413.938 418.607 415.104 428.32C416.271 438.034 411.177 441.978 396.147 442.638C381.117 443.279 340.986 443.279 340.986 443.279L306.745 414.022C306.745 414.022 331.711 405.124 338.186 402.599C344.68 400.093 399.608 397.315 399.608 397.315Z" fill="url(#paint52_linear_8_83)"/>
<path d="M399.608 397.315C399.608 397.315 413.938 418.607 415.104 428.32C416.271 438.034 411.177 441.978 396.147 442.638C381.117 443.279 340.986 443.279 340.986 443.279L306.745 414.022C306.745 414.022 331.711 405.124 338.186 402.599C344.68 400.093 399.608 397.315 399.608 397.315Z" fill="black"/>
<path d="M280.458 519.764C280.458 519.764 284.58 523.747 281.8 528.196C281.8 528.196 249.154 533.986 240.288 531.363C240.288 531.363 242.135 527.166 252.109 522.387L251.37 522.95C250.437 523.669 250.982 525.146 252.168 525.087C258.74 524.699 272.35 523.514 280.458 519.764Z" fill="url(#paint53_linear_8_83)"/>
<path d="M280.458 519.764C280.458 519.764 284.58 523.747 281.8 528.196C281.8 528.196 249.154 533.986 240.288 531.363C240.288 531.363 242.135 527.166 252.109 522.387L251.37 522.95C250.437 523.669 250.982 525.146 252.168 525.087C258.74 524.699 272.35 523.514 280.458 519.764Z" fill="url(#paint54_linear_8_83)"/>
<path d="M337.564 262.296C366.846 257.322 380.631 281.179 379.62 286.191C379.484 286.852 380.106 287.415 380.767 287.24C384.131 286.327 391.558 285.2 396.166 290.951C400.23 296.041 397.197 300.839 394.708 303.481C394.105 304.122 394.611 305.152 395.486 305.036C401.669 304.258 415.104 304.064 417.302 316.634C419.343 328.348 411.177 331.67 406.335 332.603C405.519 332.758 405.324 333.846 406.024 334.293C408.435 335.828 411.235 338.994 410.107 345.23C408.338 355.022 389.128 354.225 386.872 354.089C386.736 354.089 386.6 354.031 386.464 353.973L355.704 336.43C355.471 336.294 355.296 336.061 355.257 335.789L349.055 299.946C348.996 299.654 349.094 299.363 349.307 299.149L329.242 270.863C321.95 269.814 337.214 262.354 337.564 262.296Z" fill="url(#paint55_linear_8_83)"/>
<path d="M337.564 262.296C366.846 257.322 380.631 281.179 379.62 286.191C379.484 286.852 380.106 287.415 380.767 287.24C384.131 286.327 391.558 285.2 396.166 290.951C400.23 296.041 397.197 300.839 394.708 303.481C394.105 304.122 394.611 305.152 395.486 305.036C401.669 304.258 415.104 304.064 417.302 316.634C419.343 328.348 411.177 331.67 406.335 332.603C405.519 332.758 405.324 333.846 406.024 334.293C408.435 335.828 411.235 338.994 410.107 345.23C408.338 355.022 389.128 354.225 386.872 354.089C386.736 354.089 386.6 354.031 386.464 353.973L355.704 336.43C355.471 336.294 355.296 336.061 355.257 335.789L349.055 299.946C348.996 299.654 349.094 299.363 349.307 299.149L329.242 270.863C321.95 269.814 337.214 262.354 337.564 262.296Z" fill="url(#paint56_linear_8_83)"/>
<path d="M337.564 262.296C366.846 257.322 380.631 281.179 379.62 286.191C379.484 286.852 380.106 287.415 380.767 287.24C384.131 286.327 391.558 285.2 396.166 290.951C400.23 296.041 397.197 300.839 394.708 303.481C394.105 304.122 394.611 305.152 395.486 305.036C401.669 304.258 415.104 304.064 417.302 316.634C419.343 328.348 411.177 331.67 406.335 332.603C405.519 332.758 405.324 333.846 406.024 334.293C408.435 335.828 411.235 338.994 410.107 345.23C408.338 355.022 389.128 354.225 386.872 354.089C386.736 354.089 386.6 354.031 386.464 353.973L355.704 336.43C355.471 336.294 355.296 336.061 355.257 335.789L349.055 299.946C348.996 299.654 349.094 299.363 349.307 299.149L329.242 270.863C321.95 269.814 337.214 262.354 337.564 262.296Z" fill="url(#paint57_linear_8_83)"/>
<path d="M360.876 394.498C360.876 394.498 344.194 378.626 335.989 368.116C331.555 362.423 330.156 354.944 332.217 348.047C335.969 335.42 342.638 322.345 343.241 320.325C344.174 317.197 362.879 317.333 362.879 317.333C362.879 317.333 399.686 341.209 414.152 381.637L397.916 386.688C397.916 386.688 388.311 370.583 378.803 360.325C378.803 360.325 395.233 382.006 395.816 390.884L360.876 394.498Z" fill="black"/>
<path d="M340.947 302.898C341.141 303.54 346.022 319.722 346.41 320.053C346.799 320.383 357.124 320.946 361.985 317.624L349.93 294.059L340.947 302.898Z" fill="url(#paint58_linear_8_83)"/>
<path d="M321.387 282.112C321.387 282.112 319.034 291.378 325.548 303.831C332.081 316.284 339.47 316.284 343.514 312.282C347.558 308.299 352.536 301.519 351.35 289.474C350.164 277.449 324.789 270.319 321.387 282.112Z" fill="url(#paint59_linear_8_83)"/>
<path d="M342.308 290.154C342.308 290.154 331.478 273.603 321.328 286.638L321.153 291.378C321.153 291.378 309.254 289.96 311.334 279.062C313.415 268.163 323.7 261.344 336.941 266.065C350.182 270.786 357.765 275.623 358.621 285.103C359.476 294.584 351.932 292.505 351.932 292.505C351.932 292.505 349.463 285.822 345.963 285.142C342.463 284.443 343.377 289.649 343.377 289.649L342.308 290.154Z" fill="url(#paint60_linear_8_83)"/>
<path d="M342.308 290.154C342.308 290.154 331.478 273.603 321.328 286.638L321.153 291.378C321.153 291.378 309.254 289.96 311.334 279.062C313.415 268.163 323.7 261.344 336.941 266.065C350.182 270.786 357.765 275.623 358.621 285.103C359.476 294.584 351.932 292.505 351.932 292.505C351.932 292.505 349.463 285.822 345.963 285.142C342.463 284.443 343.377 289.649 343.377 289.649L342.308 290.154Z" fill="url(#paint61_linear_8_83)"/>
<path d="M342.308 290.154C342.308 290.154 331.478 273.603 321.328 286.638L321.153 291.378C321.153 291.378 309.254 289.96 311.334 279.062C313.415 268.163 323.7 261.344 336.941 266.065C350.182 270.786 357.765 275.623 358.621 285.103C359.476 294.584 351.932 292.505 351.932 292.505C351.932 292.505 349.463 285.822 345.963 285.142C342.463 284.443 343.377 289.649 343.377 289.649L342.308 290.154Z" fill="url(#paint62_linear_8_83)"/>
<path d="M345.088 289.922C345.088 289.922 339.469 281.451 345.224 280.188C350.98 278.925 350.085 288.445 349.463 291.962L345.088 289.922Z" fill="url(#paint63_linear_8_83)"/>
<path d="M326.889 395.683L339.138 383.871L356.093 391.02C356.093 391.02 372.97 393.623 382.634 391.02C392.297 388.417 392.297 388.417 392.297 388.417L414.132 381.617L417.554 391.292C418.429 393.759 417.554 396.479 415.416 397.995C413.53 399.335 411.313 400.811 409.894 401.433C407.016 402.696 339.022 400.559 339.022 400.559L326.889 395.683Z" fill="url(#paint64_linear_8_83)"/>
<path d="M373.262 401.239C373.204 401.239 373.145 401.239 373.106 401.239L302.001 401.162C300.251 401.162 298.812 399.743 298.812 397.975C298.812 396.227 300.251 394.77 302.001 394.789L373.106 394.867C374.856 394.867 376.295 396.285 376.295 398.053C376.295 399.782 374.953 401.162 373.262 401.239Z" fill="url(#paint65_linear_8_83)"/>
<path d="M373.262 401.239C373.204 401.239 373.145 401.239 373.106 401.239L302.001 401.162C300.251 401.162 298.812 399.743 298.812 397.975C298.812 396.227 300.251 394.77 302.001 394.789L373.106 394.867C374.856 394.867 376.295 396.285 376.295 398.053C376.295 399.782 374.953 401.162 373.262 401.239Z" fill="url(#paint66_linear_8_83)"/>
<path d="M238.09 336.741H297.296C301.671 336.741 305.637 339.266 307.504 343.21L334.88 401.2H261.286C258.467 401.2 255.939 399.49 254.909 396.868L233.677 343.191C232.452 340.102 234.746 336.741 238.09 336.741Z" fill="url(#paint67_linear_8_83)"/>
<path d="M279.797 366.484C281.08 370.466 280.128 374.332 277.678 375.129C275.228 375.925 272.194 373.322 270.911 369.339C269.628 365.357 270.58 361.491 273.03 360.694C275.48 359.917 278.514 362.501 279.797 366.484Z" fill="white"/>
<path d="M454.322 519.259C454.322 519.259 455.061 523.397 455.372 528.312C455.489 530.41 453.953 532.217 451.853 532.431C444.581 533.13 428.015 534.432 417.438 532.916C415.96 532.703 415.377 530.876 416.465 529.866C420.821 525.806 431.359 517.899 448.703 516.189L454.322 519.259Z" fill="url(#paint68_linear_8_83)"/>
<path d="M454.322 519.259C454.322 519.259 455.061 523.397 455.372 528.312C455.489 530.41 453.953 532.217 451.853 532.431C444.581 533.13 428.015 534.432 417.438 532.916C415.96 532.703 415.377 530.876 416.465 529.866C420.821 525.806 431.359 517.899 448.703 516.189L454.322 519.259Z" fill="url(#paint69_linear_8_83)"/>
<path d="M457.958 509.934L454.283 518.948C453.778 520.192 452.534 520.949 451.192 520.813C450.297 520.716 449.228 520.541 448.178 520.231C446.098 519.609 444.931 517.394 445.553 515.315L448.334 506.029L457.958 509.934Z" fill="url(#paint70_linear_8_83)"/>
<path d="M520.858 526.447C520.858 526.447 513.489 532.606 510.611 540.513C509.814 542.688 511.486 544.981 513.8 544.981H528.966C531.183 544.981 532.894 542.98 532.505 540.804C531.553 535.326 528.753 526.467 520.858 526.447Z" fill="url(#paint71_linear_8_83)"/>
<path d="M520.858 526.447C520.858 526.447 513.489 532.606 510.611 540.513C509.814 542.688 511.486 544.981 513.8 544.981H528.966C531.183 544.981 532.894 542.98 532.505 540.804C531.553 535.326 528.753 526.467 520.858 526.447Z" fill="url(#paint72_linear_8_83)"/>
<path d="M529.977 518.424C529.977 518.424 528.48 525.01 527.352 529.362C527.138 530.159 526.302 530.586 525.525 530.314C523.23 529.498 521.364 529.129 520.002 529.323C519.38 529.401 518.836 528.876 518.816 528.255L518.68 517.316L529.977 518.424Z" fill="url(#paint73_linear_8_83)"/>
<path d="M490.798 370.311L445.981 506.923C445.981 506.923 454.575 512.557 458.677 512.304L511.914 402.521C511.914 402.521 521.227 470.167 516.716 518.735L531.96 519.9C531.96 519.9 556.751 395.78 537.968 353.273L490.798 370.311Z" fill="url(#paint74_linear_8_83)"/>
<path d="M490.798 370.311L445.981 506.923C445.981 506.923 454.575 512.557 458.677 512.304L511.914 402.521C511.914 402.521 521.227 470.167 516.716 518.735L531.96 519.9C531.96 519.9 556.751 395.78 537.968 353.273L490.798 370.311Z" fill="black"/>
<path d="M511.622 401.336C511.642 401.336 511.661 401.336 511.681 401.336C511.914 401.297 512.089 401.084 512.05 400.85L510.32 387.057C510.281 386.824 510.067 386.649 509.834 386.688C509.6 386.727 509.425 386.941 509.464 387.174L511.195 400.967C511.214 401.181 511.408 401.336 511.622 401.336Z" fill="url(#paint75_linear_8_83)"/>
<path d="M511.622 401.336C511.642 401.336 511.661 401.336 511.681 401.336C511.914 401.297 512.089 401.084 512.05 400.85L510.32 387.057C510.281 386.824 510.067 386.649 509.834 386.688C509.6 386.727 509.425 386.941 509.464 387.174L511.195 400.967C511.214 401.181 511.408 401.336 511.622 401.336Z" fill="#171717"/>
<path d="M482.399 250.095C482.399 250.095 518.719 253.32 513.567 279.159C513.567 279.159 533.632 316.906 543.024 361.355C543.335 362.792 542.363 364.211 540.904 364.463L480.435 374.798C478.763 375.09 477.149 374.041 476.741 372.409L462.294 316.614L456.655 342.549L438.767 337.887L453.836 261.655C453.817 261.693 455.916 250.581 482.399 250.095Z" fill="url(#paint76_linear_8_83)"/>
<path d="M482.399 250.095C482.399 250.095 518.719 253.32 513.567 279.159C513.567 279.159 533.632 316.906 543.024 361.355C543.335 362.792 542.363 364.211 540.904 364.463L480.435 374.798C478.763 375.09 477.149 374.041 476.741 372.409L462.294 316.614L456.655 342.549L438.767 337.887L453.836 261.655C453.817 261.693 455.916 250.581 482.399 250.095Z" fill="black"/>
<path d="M482.399 250.095C482.399 250.095 518.719 253.32 513.567 279.159C513.567 279.159 533.632 316.906 543.024 361.355C543.335 362.792 542.363 364.211 540.904 364.463L480.435 374.798C478.763 375.09 477.149 374.041 476.741 372.409L462.294 316.614L456.655 342.549L438.767 337.887L453.836 261.655C453.817 261.693 455.916 250.581 482.399 250.095Z" fill="#383838"/>
<path d="M461.983 314.147C462.022 314.147 462.041 314.147 462.08 314.127C462.314 314.069 462.469 313.836 462.43 313.583L457.394 290.465C457.336 290.232 457.103 290.076 456.85 290.115C456.616 290.174 456.461 290.407 456.5 290.659L461.536 313.778C461.575 314.011 461.769 314.147 461.983 314.147Z" fill="#151515"/>
<path d="M461.983 314.147C462.022 314.147 462.041 314.147 462.08 314.127C462.314 314.069 462.469 313.836 462.43 313.583L457.394 290.465C457.336 290.232 457.103 290.076 456.85 290.115C456.616 290.174 456.461 290.407 456.5 290.659L461.536 313.778C461.575 314.011 461.769 314.147 461.983 314.147Z" fill="#3C3C3C"/>
<path d="M465.619 382.958C467.524 381.909 469.76 381.618 471.86 382.142L476.06 383.191C476.954 383.405 477.849 382.803 477.946 381.889L482.301 343.171C487.746 345.755 495.601 345.444 498.187 345.25L488.173 390.904H453.117L465.619 382.958Z" fill="url(#paint77_linear_8_83)"/>
<path d="M372.465 298.975L373.534 295.458C374.137 293.438 375.634 291.787 377.598 291.009L396.769 283.316C396.769 283.316 397.061 280.868 392.725 279.198C388.389 277.527 389.4 272.67 389.4 272.67C389.4 272.67 395.33 275.371 404.002 279.664C408.96 282.112 411.76 286.444 413.218 289.708L456.655 342.608L451.561 346.105C444.853 350.709 435.637 348.456 431.826 341.267L408.299 296.177C396.458 299.693 384.52 300.373 372.465 298.975Z" fill="url(#paint78_linear_8_83)"/>
<path d="M470.636 225.423L481.797 256.662C481.797 256.662 471.899 264.394 464.686 261.771L459.066 243.86C459.066 243.86 463.363 221.985 470.636 225.423Z" fill="url(#paint79_linear_8_83)"/>
<path d="M437.309 214.194C437.309 214.68 448.062 244.617 448.062 244.617L465.036 238.109L459.067 208.211C459.067 208.23 437.309 206.151 437.309 214.194Z" fill="url(#paint80_linear_8_83)"/>
<path d="M456.091 215.515L460.466 230.999C460.525 231.193 460.544 231.407 460.544 231.601C460.544 232.864 460.233 237.215 455.8 236.613C451.775 236.069 448.1 235.642 445.767 236.749C444.717 237.235 444.211 238.459 444.6 239.547C445.573 242.266 447.906 248.367 450.725 253.34C451.289 254.35 452.553 254.739 453.603 254.272C456.791 252.815 463.441 249.571 468.166 245.705C468.808 245.181 469.119 244.365 468.963 243.549C468.224 239.586 466.008 227.541 465.91 224.083C465.813 220.838 469.469 218.371 471.063 217.439C471.588 217.128 471.957 216.623 472.113 216.04C472.619 213.961 473.046 209.221 467.019 208.191C465.755 207.978 464.938 206.773 465.191 205.51C465.697 203.024 465.541 199.332 460.797 197.992C455.975 196.613 452.942 199.507 451.406 201.741C450.783 202.635 449.617 202.926 448.606 202.48C448.042 202.227 447.342 202.208 446.603 202.829C445.611 203.665 444.095 203.412 443.356 202.344C441.956 200.284 439.389 198.206 435.073 199.604C427.393 202.091 427.762 210.93 430.582 215.729C433.401 220.527 441.567 217.38 445.417 214.194C448.353 211.766 452.825 213.223 454.808 214.058C455.43 214.33 455.897 214.855 456.091 215.515Z" fill="url(#paint81_linear_8_83)"/>
<path d="M456.091 215.515L460.466 230.999C460.525 231.193 460.544 231.407 460.544 231.601C460.544 232.864 460.233 237.215 455.8 236.613C451.775 236.069 448.1 235.642 445.767 236.749C444.717 237.235 444.211 238.459 444.6 239.547C445.573 242.266 447.906 248.367 450.725 253.34C451.289 254.35 452.553 254.739 453.603 254.272C456.791 252.815 463.441 249.571 468.166 245.705C468.808 245.181 469.119 244.365 468.963 243.549C468.224 239.586 466.008 227.541 465.91 224.083C465.813 220.838 469.469 218.371 471.063 217.439C471.588 217.128 471.957 216.623 472.113 216.04C472.619 213.961 473.046 209.221 467.019 208.191C465.755 207.978 464.938 206.773 465.191 205.51C465.697 203.024 465.541 199.332 460.797 197.992C455.975 196.613 452.942 199.507 451.406 201.741C450.783 202.635 449.617 202.926 448.606 202.48C448.042 202.227 447.342 202.208 446.603 202.829C445.611 203.665 444.095 203.412 443.356 202.344C441.956 200.284 439.389 198.206 435.073 199.604C427.393 202.091 427.762 210.93 430.582 215.729C433.401 220.527 441.567 217.38 445.417 214.194C448.353 211.766 452.825 213.223 454.808 214.058C455.43 214.33 455.897 214.855 456.091 215.515Z" fill="url(#paint82_linear_8_83)"/>
<path d="M456.091 215.515L460.466 230.999C460.525 231.193 460.544 231.407 460.544 231.601C460.544 232.864 460.233 237.215 455.8 236.613C451.775 236.069 448.1 235.642 445.767 236.749C444.717 237.235 444.211 238.459 444.6 239.547C445.573 242.266 447.906 248.367 450.725 253.34C451.289 254.35 452.553 254.739 453.603 254.272C456.791 252.815 463.441 249.571 468.166 245.705C468.808 245.181 469.119 244.365 468.963 243.549C468.224 239.586 466.008 227.541 465.91 224.083C465.813 220.838 469.469 218.371 471.063 217.439C471.588 217.128 471.957 216.623 472.113 216.04C472.619 213.961 473.046 209.221 467.019 208.191C465.755 207.978 464.938 206.773 465.191 205.51C465.697 203.024 465.541 199.332 460.797 197.992C455.975 196.613 452.942 199.507 451.406 201.741C450.783 202.635 449.617 202.926 448.606 202.48C448.042 202.227 447.342 202.208 446.603 202.829C445.611 203.665 444.095 203.412 443.356 202.344C441.956 200.284 439.389 198.206 435.073 199.604C427.393 202.091 427.762 210.93 430.582 215.729C433.401 220.527 441.567 217.38 445.417 214.194C448.353 211.766 452.825 213.223 454.808 214.058C455.43 214.33 455.897 214.855 456.091 215.515Z" fill="url(#paint83_linear_8_83)"/>
<path d="M467.447 229.756C467.447 229.756 462.897 221.169 465.91 218.468C468.905 215.768 473.999 216.214 473.863 222.917C473.688 231.272 467.447 229.756 467.447 229.756Z" fill="url(#paint84_linear_8_83)"/>
<path d="M494.687 345.833C497.157 345.833 498.926 345.638 499.121 345.619L499.451 345.58L512.673 283.996C512.732 283.743 512.576 283.51 512.323 283.471C512.07 283.413 511.837 283.569 511.798 283.821L498.712 344.784C496.748 344.958 486.229 345.658 480.688 341.734L492.14 288.212L489.749 283.705C489.632 283.491 489.36 283.394 489.146 283.51C488.932 283.627 488.835 283.899 488.951 284.113L491.187 288.328L479.677 342.083L479.91 342.258C483.915 345.269 490.371 345.833 494.687 345.833Z" fill="#151515"/>
<path d="M494.687 345.833C497.157 345.833 498.926 345.638 499.121 345.619L499.451 345.58L512.673 283.996C512.732 283.743 512.576 283.51 512.323 283.471C512.07 283.413 511.837 283.569 511.798 283.821L498.712 344.784C496.748 344.958 486.229 345.658 480.688 341.734L492.14 288.212L489.749 283.705C489.632 283.491 489.36 283.394 489.146 283.51C488.932 283.627 488.835 283.899 488.951 284.113L491.187 288.328L479.677 342.083L479.91 342.258C483.915 345.269 490.371 345.833 494.687 345.833Z" fill="#3C3C3C"/>
<path d="M98.2911 533.616C97.98 533.616 97.6883 533.557 97.3772 533.402C96.2106 532.858 95.6662 531.381 96.1717 530.099L144.489 407.611C144.994 406.329 146.336 405.746 147.522 406.29C148.689 406.834 149.233 408.31 148.728 409.592L100.41 532.081C100.041 533.052 99.1855 533.616 98.2911 533.616Z" fill="url(#paint85_linear_8_83)"/>
<path d="M98.2911 533.616C97.98 533.616 97.6883 533.557 97.3772 533.402C96.2106 532.858 95.6662 531.381 96.1717 530.099L144.489 407.611C144.994 406.329 146.336 405.746 147.522 406.29C148.689 406.834 149.233 408.31 148.728 409.592L100.41 532.081C100.041 533.052 99.1855 533.616 98.2911 533.616Z" fill="#353535"/>
<path d="M152.733 533.616C151.839 533.616 150.983 533.052 150.614 532.1L102.297 409.612C101.791 408.33 102.336 406.853 103.502 406.309C104.669 405.765 106.03 406.348 106.535 407.63L154.853 530.119C155.358 531.401 154.814 532.877 153.647 533.421C153.336 533.557 153.025 533.616 152.733 533.616Z" fill="url(#paint86_linear_8_83)"/>
<path d="M152.733 533.616C151.839 533.616 150.983 533.052 150.614 532.1L102.297 409.612C101.791 408.33 102.336 406.853 103.502 406.309C104.669 405.765 106.03 406.348 106.535 407.63L154.853 530.119C155.358 531.401 154.814 532.877 153.647 533.421C153.336 533.557 153.025 533.616 152.733 533.616Z" fill="#353535"/>
<path d="M426.207 533.616C425.896 533.616 425.604 533.557 425.293 533.402C424.126 532.858 423.582 531.381 424.087 530.099L472.405 407.611C472.91 406.329 474.252 405.746 475.438 406.29C476.604 406.834 477.149 408.31 476.643 409.592L428.326 532.081C427.937 533.052 427.101 533.616 426.207 533.616Z" fill="url(#paint87_linear_8_83)"/>
<path d="M426.207 533.616C425.896 533.616 425.604 533.557 425.293 533.402C424.126 532.858 423.582 531.381 424.087 530.099L472.405 407.611C472.91 406.329 474.252 405.746 475.438 406.29C476.604 406.834 477.149 408.31 476.643 409.592L428.326 532.081C427.937 533.052 427.101 533.616 426.207 533.616Z" fill="#353535"/>
<path d="M480.629 533.616C479.735 533.616 478.879 533.052 478.51 532.1L430.193 409.612C429.687 408.33 430.232 406.853 431.398 406.309C432.565 405.765 433.926 406.348 434.431 407.63L482.749 530.119C483.254 531.401 482.71 532.877 481.543 533.421C481.251 533.557 480.94 533.616 480.629 533.616Z" fill="url(#paint88_linear_8_83)"/>
<path d="M480.629 533.616C479.735 533.616 478.879 533.052 478.51 532.1L430.193 409.612C429.687 408.33 430.232 406.853 431.398 406.309C432.565 405.765 433.926 406.348 434.431 407.63L482.749 530.119C483.254 531.401 482.71 532.877 481.543 533.421C481.251 533.557 480.94 533.616 480.629 533.616Z" fill="#353535"/>
<path d="M419.188 398.986H489.165V391.778H419.188C420.685 391.758 420.685 398.986 419.188 398.986Z" fill="#FFC0C0"/>
<path d="M488.504 398.986C488.873 398.986 489.165 398.694 489.165 398.325V392.419C489.165 392.05 488.873 391.758 488.504 391.758H417.71C417.34 391.758 417.049 391.467 417.049 391.098V390.787C417.049 390.418 417.34 390.126 417.71 390.126H493.17C494.842 390.126 496.184 391.486 496.184 393.138V397.742C496.184 399.316 494.901 400.598 493.326 400.598H417.69C417.321 400.598 417.029 400.307 417.029 399.938V399.627C417.029 399.258 417.321 398.966 417.69 398.966H488.504V398.986Z" fill="#D80707"/>
<path d="M499.314 403.842C499.548 403.046 499.237 402.21 498.44 401.569C497.642 400.928 496.476 400.578 495.231 400.578H75.9504C74.3172 400.578 72.8006 401.122 71.9256 402.036C71.0506 402.949 70.934 404.095 71.6145 405.066L76.1643 411.575C77.2142 413.071 79.4503 414.023 81.939 414.023H492.373C494.687 414.023 496.67 412.935 497.098 411.439L499.314 403.842Z" fill="url(#paint89_linear_8_83)"/>
<path d="M499.314 403.842C499.548 403.046 499.237 402.21 498.44 401.569C497.642 400.928 496.476 400.578 495.231 400.578H75.9504C74.3172 400.578 72.8006 401.122 71.9256 402.036C71.0506 402.949 70.934 404.095 71.6145 405.066L76.1643 411.575C77.2142 413.071 79.4503 414.023 81.939 414.023H492.373C494.687 414.023 496.67 412.935 497.098 411.439L499.314 403.842Z" fill="#4D4D4D"/>
<defs>
<linearGradient id="paint0_linear_8_83" x1="329.28" y1="178.278" x2="317.8" y2="304.984" gradientUnits="userSpaceOnUse">
<stop stop-color="#53D8FF"/>
<stop offset="1" stop-color="#3840F7"/>
</linearGradient>
<linearGradient id="paint1_linear_8_83" x1="328.644" y1="178.221" x2="317.165" y2="304.926" gradientUnits="userSpaceOnUse">
<stop stop-color="#53D8FF"/>
<stop offset="1" stop-color="#3840F7"/>
</linearGradient>
<linearGradient id="paint2_linear_8_83" x1="328.986" y1="178.252" x2="317.507" y2="304.958" gradientUnits="userSpaceOnUse">
<stop stop-color="#53D8FF"/>
<stop offset="1" stop-color="#3840F7"/>
</linearGradient>
<linearGradient id="paint3_linear_8_83" x1="332.477" y1="88.1551" x2="314.768" y2="208.284" gradientUnits="userSpaceOnUse">
<stop stop-color="#FF928E"/>
<stop offset="1" stop-color="#FE7062"/>
</linearGradient>
<linearGradient id="paint4_linear_8_83" x1="324.372" y1="88.6029" x2="330.837" y2="202.868" gradientUnits="userSpaceOnUse">
<stop stop-color="#E13030"/>
<stop offset="1" stop-color="#BA2323"/>
</linearGradient>
<linearGradient id="paint5_linear_8_83" x1="495.975" y1="-56.2616" x2="416.243" y2="55.0678" gradientUnits="userSpaceOnUse">
<stop stop-color="#E1473D"/>
<stop offset="1" stop-color="#E9605A"/>
</linearGradient>
<linearGradient id="paint6_linear_8_83" x1="484.892" y1="-64.1992" x2="405.16" y2="47.13" gradientUnits="userSpaceOnUse">
<stop stop-color="#E1473D"/>
<stop offset="1" stop-color="#E9605A"/>
</linearGradient>
<linearGradient id="paint7_linear_8_83" x1="232.672" y1="500.031" x2="114.25" y2="626.518" gradientUnits="userSpaceOnUse">
<stop stop-color="#09005D"/>
<stop offset="1" stop-color="#1A0F91"/>
</linearGradient>
<linearGradient id="paint8_linear_8_83" x1="193.418" y1="519.172" x2="234.72" y2="519.172" gradientUnits="userSpaceOnUse">
<stop/>
<stop offset="1"/>
</linearGradient>
<linearGradient id="paint9_linear_8_83" x1="194.503" y1="509.138" x2="204.924" y2="509.237" gradientUnits="userSpaceOnUse">
<stop stop-color="#FEBBBA"/>
<stop offset="1" stop-color="#FF928E"/>
</linearGradient>
<linearGradient id="paint10_linear_8_83" x1="243.29" y1="355.919" x2="142.281" y2="490.252" gradientUnits="userSpaceOnUse">
<stop stop-color="#09005D"/>
<stop offset="1" stop-color="#1A0F91"/>
</linearGradient>
<linearGradient id="paint11_linear_8_83" x1="206.586" y1="475.601" x2="88.1579" y2="602.097" gradientUnits="userSpaceOnUse">
<stop stop-color="#09005D"/>
<stop offset="1" stop-color="#1A0F91"/>
</linearGradient>
<linearGradient id="paint12_linear_8_83" x1="154.572" y1="520.842" x2="171.286" y2="520.842" gradientUnits="userSpaceOnUse">
<stop/>
<stop offset="1"/>
</linearGradient>
<linearGradient id="paint13_linear_8_83" x1="156.951" y1="508.246" x2="165.948" y2="508.332" gradientUnits="userSpaceOnUse">
<stop stop-color="#FEBBBA"/>
<stop offset="1" stop-color="#FF928E"/>
</linearGradient>
<linearGradient id="paint14_linear_8_83" x1="225.619" y1="342.634" x2="124.611" y2="476.963" gradientUnits="userSpaceOnUse">
<stop stop-color="#09005D"/>
<stop offset="1" stop-color="#1A0F91"/>
</linearGradient>
<linearGradient id="paint15_linear_8_83" x1="239.979" y1="237.903" x2="293.22" y2="238.409" gradientUnits="userSpaceOnUse">
<stop stop-color="#FEBBBA"/>
<stop offset="1" stop-color="#FF928E"/>
</linearGradient>
<linearGradient id="paint16_linear_8_83" x1="281.445" y1="229.38" x2="245" y2="310.279" gradientUnits="userSpaceOnUse">
<stop stop-color="#FEBBBA"/>
<stop offset="1" stop-color="#FF928E"/>
</linearGradient>
<linearGradient id="paint17_linear_8_83" x1="293.307" y1="202.444" x2="308.415" y2="179.672" gradientUnits="userSpaceOnUse">
<stop stop-color="#FEBBBA"/>
<stop offset="1" stop-color="#FF928E"/>
</linearGradient>
<linearGradient id="paint18_linear_8_83" x1="-242.509" y1="-384.843" x2="-150.644" y2="-225.476" gradientUnits="userSpaceOnUse">
<stop stop-color="#FF928E"/>
<stop offset="1" stop-color="#FE7062"/>
</linearGradient>
<linearGradient id="paint19_linear_8_83" x1="122.761" y1="312.141" x2="190.136" y2="312.781" gradientUnits="userSpaceOnUse">
<stop stop-color="#FEBBBA"/>
<stop offset="1" stop-color="#FF928E"/>
</linearGradient>
<linearGradient id="paint20_linear_8_83" x1="175.182" y1="240.666" x2="201.822" y2="240.919" gradientUnits="userSpaceOnUse">
<stop stop-color="#FEBBBA"/>
<stop offset="1" stop-color="#FF928E"/>
</linearGradient>
<linearGradient id="paint21_linear_8_83" x1="208.319" y1="224.047" x2="179.213" y2="205.898" gradientUnits="userSpaceOnUse">
<stop stop-color="#FEBBBA"/>
<stop offset="1" stop-color="#FF928E"/>
</linearGradient>
<linearGradient id="paint22_linear_8_83" x1="163.875" y1="186.959" x2="201.403" y2="217.208" gradientUnits="userSpaceOnUse">
<stop stop-color="#09005D"/>
<stop offset="1" stop-color="#1A0F91"/>
</linearGradient>
<linearGradient id="paint23_linear_8_83" x1="90.1293" y1="187.831" x2="183.344" y2="200.046" gradientUnits="userSpaceOnUse">
<stop stop-color="#03013A"/>
<stop offset="1" stop-color="#03013A"/>
</linearGradient>
<linearGradient id="paint24_linear_8_83" x1="167.475" y1="210.061" x2="208.244" y2="210.061" gradientUnits="userSpaceOnUse">
<stop/>
<stop offset="1"/>
</linearGradient>
<linearGradient id="paint25_linear_8_83" x1="200.562" y1="230.631" x2="174.375" y2="214.302" gradientUnits="userSpaceOnUse">
<stop stop-color="#FEBBBA"/>
<stop offset="1" stop-color="#FF928E"/>
</linearGradient>
<linearGradient id="paint26_linear_8_83" x1="208.202" y1="269.367" x2="245.32" y2="424.156" gradientUnits="userSpaceOnUse">
<stop stop-color="#BABABA"/>
<stop offset="1" stop-color="#0B0B0B"/>
</linearGradient>
<linearGradient id="paint27_linear_8_83" x1="182.727" y1="310.313" x2="203.792" y2="310.313" gradientUnits="userSpaceOnUse">
<stop stop-color="#FEBBBA"/>
<stop offset="1" stop-color="#FF928E"/>
</linearGradient>
<linearGradient id="paint28_linear_8_83" x1="103.475" y1="526.021" x2="144.515" y2="526.021" gradientUnits="userSpaceOnUse">
<stop/>
<stop offset="1"/>
</linearGradient>
<linearGradient id="paint29_linear_8_83" x1="119.451" y1="412.779" x2="123.825" y2="520.008" gradientUnits="userSpaceOnUse">
<stop stop-color="#4F52FF"/>
<stop offset="1" stop-color="#4042E2"/>
</linearGradient>
<linearGradient id="paint30_linear_8_83" x1="103.371" y1="521.052" x2="144.433" y2="521.052" gradientUnits="userSpaceOnUse">
<stop/>
<stop offset="1"/>
</linearGradient>
<linearGradient id="paint31_linear_8_83" x1="105.617" y1="513.663" x2="116.728" y2="513.663" gradientUnits="userSpaceOnUse">
<stop stop-color="#FEBBBA"/>
<stop offset="1" stop-color="#FF928E"/>
</linearGradient>
<linearGradient id="paint32_linear_8_83" x1="167.892" y1="517.911" x2="201.03" y2="517.911" gradientUnits="userSpaceOnUse">
<stop/>
<stop offset="1"/>
</linearGradient>
<linearGradient id="paint33_linear_8_83" x1="178.11" y1="410.395" x2="182.483" y2="517.616" gradientUnits="userSpaceOnUse">
<stop stop-color="#4F52FF"/>
<stop offset="1" stop-color="#4042E2"/>
</linearGradient>
<linearGradient id="paint34_linear_8_83" x1="164.132" y1="516.973" x2="200.291" y2="516.973" gradientUnits="userSpaceOnUse">
<stop/>
<stop offset="1"/>
</linearGradient>
<linearGradient id="paint35_linear_8_83" x1="44.1805" y1="463.571" x2="132.134" y2="463.571" gradientUnits="userSpaceOnUse">
<stop stop-color="#09005D"/>
<stop offset="1" stop-color="#1A0F91"/>
</linearGradient>
<linearGradient id="paint36_linear_8_83" x1="158.242" y1="514.597" x2="171.507" y2="514.597" gradientUnits="userSpaceOnUse">
<stop stop-color="#FEBBBA"/>
<stop offset="1" stop-color="#FF928E"/>
</linearGradient>
<linearGradient id="paint37_linear_8_83" x1="84.5624" y1="327.836" x2="91.0923" y2="311.355" gradientUnits="userSpaceOnUse">
<stop stop-color="#FEBBBA"/>
<stop offset="1" stop-color="#FF928E"/>
</linearGradient>
<linearGradient id="paint38_linear_8_83" x1="140.432" y1="391.917" x2="171.073" y2="391.917" gradientUnits="userSpaceOnUse">
<stop stop-color="#FEBBBA"/>
<stop offset="1" stop-color="#FF928E"/>
</linearGradient>
<linearGradient id="paint39_linear_8_83" x1="104.529" y1="294.327" x2="75.2827" y2="323.523" gradientUnits="userSpaceOnUse">
<stop stop-color="#FEBBBA"/>
<stop offset="1" stop-color="#FF928E"/>
</linearGradient>
<linearGradient id="paint40_linear_8_83" x1="79.0689" y1="277.691" x2="113.517" y2="311.76" gradientUnits="userSpaceOnUse">
<stop stop-color="#09005D"/>
<stop offset="1" stop-color="#1A0F91"/>
</linearGradient>
<linearGradient id="paint41_linear_8_83" x1="-3.52897" y1="266.118" x2="85.1118" y2="276.436" gradientUnits="userSpaceOnUse">
<stop stop-color="#03013A"/>
<stop offset="1" stop-color="#03013A"/>
</linearGradient>
<linearGradient id="paint42_linear_8_83" x1="69.7587" y1="289.832" x2="108.389" y2="289.832" gradientUnits="userSpaceOnUse">
<stop/>
<stop offset="1"/>
</linearGradient>
<linearGradient id="paint43_linear_8_83" x1="99.796" y1="289.585" x2="70.5477" y2="318.781" gradientUnits="userSpaceOnUse">
<stop stop-color="#FEBBBA"/>
<stop offset="1" stop-color="#FF928E"/>
</linearGradient>
<linearGradient id="paint44_linear_8_83" x1="-6425.5" y1="-6611.92" x2="-6317.49" y2="-6496.35" gradientUnits="userSpaceOnUse">
<stop stop-color="#09005D"/>
<stop offset="1" stop-color="#1A0F91"/>
</linearGradient>
<linearGradient id="paint45_linear_8_83" x1="175.61" y1="396.44" x2="174.765" y2="403.297" gradientUnits="userSpaceOnUse">
<stop stop-color="#2C2C2C"/>
<stop offset="1" stop-color="#161616"/>
</linearGradient>
<linearGradient id="paint46_linear_8_83" x1="9340.15" y1="-2639.88" x2="9189.79" y2="-2590.56" gradientUnits="userSpaceOnUse">
<stop stop-color="#09005D"/>
<stop offset="1" stop-color="#1A0F91"/>
</linearGradient>
<linearGradient id="paint47_linear_8_83" x1="211.191" y1="348.056" x2="187.535" y2="356.202" gradientUnits="userSpaceOnUse">
<stop stop-color="#2C2C2C"/>
<stop offset="1" stop-color="#161616"/>
</linearGradient>
<linearGradient id="paint48_linear_8_83" x1="252.689" y1="734.278" x2="334.452" y2="406.95" gradientUnits="userSpaceOnUse">
<stop stop-color="#FEBBBA"/>
<stop offset="1" stop-color="#FF928E"/>
</linearGradient>
<linearGradient id="paint49_linear_8_83" x1="437.995" y1="333.305" x2="360.241" y2="464.321" gradientUnits="userSpaceOnUse">
<stop stop-color="#09005D"/>
<stop offset="1" stop-color="#1A0F91"/>
</linearGradient>
<linearGradient id="paint50_linear_8_83" x1="311.287" y1="513.558" x2="344.359" y2="513.558" gradientUnits="userSpaceOnUse">
<stop/>
<stop offset="1"/>
</linearGradient>
<linearGradient id="paint51_linear_8_83" x1="292.482" y1="527.271" x2="308.833" y2="283.161" gradientUnits="userSpaceOnUse">
<stop stop-color="#FEBBBA"/>
<stop offset="1" stop-color="#FF928E"/>
</linearGradient>
<linearGradient id="paint52_linear_8_83" x1="306.748" y1="420.299" x2="415.277" y2="420.299" gradientUnits="userSpaceOnUse">
<stop stop-color="#09005D"/>
<stop offset="1" stop-color="#1A0F91"/>
</linearGradient>
<linearGradient id="paint53_linear_8_83" x1="393.523" y1="306.899" x2="315.77" y2="437.899" gradientUnits="userSpaceOnUse">
<stop stop-color="#09005D"/>
<stop offset="1" stop-color="#1A0F91"/>
</linearGradient>
<linearGradient id="paint54_linear_8_83" x1="240.179" y1="525.911" x2="282.625" y2="525.911" gradientUnits="userSpaceOnUse">
<stop/>
<stop offset="1"/>
</linearGradient>
<linearGradient id="paint55_linear_8_83" x1="383.196" y1="239.182" x2="367.241" y2="323.072" gradientUnits="userSpaceOnUse">
<stop stop-color="#09005D"/>
<stop offset="1" stop-color="#1A0F91"/>
</linearGradient>
<linearGradient id="paint56_linear_8_83" x1="155.75" y1="256.651" x2="362.46" y2="282.65" gradientUnits="userSpaceOnUse">
<stop stop-color="#03013A"/>
<stop offset="1" stop-color="#03013A"/>
</linearGradient>
<linearGradient id="paint57_linear_8_83" x1="327.04" y1="307.941" x2="417.328" y2="307.941" gradientUnits="userSpaceOnUse">
<stop/>
<stop offset="1"/>
</linearGradient>
<linearGradient id="paint58_linear_8_83" x1="356.75" y1="344.132" x2="350.221" y2="302.205" gradientUnits="userSpaceOnUse">
<stop stop-color="#FEBBBA"/>
<stop offset="1" stop-color="#FF928E"/>
</linearGradient>
<linearGradient id="paint59_linear_8_83" x1="321.195" y1="299.689" x2="370.216" y2="283.138" gradientUnits="userSpaceOnUse">
<stop stop-color="#FEBBBA"/>
<stop offset="1" stop-color="#FF928E"/>
</linearGradient>
<linearGradient id="paint60_linear_8_83" x1="310.737" y1="255.964" x2="367.925" y2="319.418" gradientUnits="userSpaceOnUse">
<stop stop-color="#09005D"/>
<stop offset="1" stop-color="#1A0F91"/>
</linearGradient>
<linearGradient id="paint61_linear_8_83" x1="220.73" y1="263.034" x2="326.341" y2="286.037" gradientUnits="userSpaceOnUse">
<stop stop-color="#03013A"/>
<stop offset="1" stop-color="#03013A"/>
</linearGradient>
<linearGradient id="paint62_linear_8_83" x1="310.968" y1="278.637" x2="358.533" y2="278.637" gradientUnits="userSpaceOnUse">
<stop/>
<stop offset="1"/>
</linearGradient>
<linearGradient id="paint63_linear_8_83" x1="319.735" y1="295.367" x2="368.756" y2="278.817" gradientUnits="userSpaceOnUse">
<stop stop-color="#FEBBBA"/>
<stop offset="1" stop-color="#FF928E"/>
</linearGradient>
<linearGradient id="paint64_linear_8_83" x1="383.603" y1="391.736" x2="474.607" y2="391.736" gradientUnits="userSpaceOnUse">
<stop stop-color="#FEBBBA"/>
<stop offset="1" stop-color="#FF928E"/>
</linearGradient>
<linearGradient id="paint65_linear_8_83" x1="385.331" y1="382.371" x2="328.896" y2="400.895" gradientUnits="userSpaceOnUse">
<stop stop-color="#09005D"/>
<stop offset="1" stop-color="#1A0F91"/>
</linearGradient>
<linearGradient id="paint66_linear_8_83" x1="385.395" y1="382.14" x2="328.805" y2="400.516" gradientUnits="userSpaceOnUse">
<stop stop-color="#393939"/>
<stop offset="1"/>
</linearGradient>
<linearGradient id="paint67_linear_8_83" x1="307.765" y1="345.375" x2="267.18" y2="388.341" gradientUnits="userSpaceOnUse">
<stop stop-color="#515151"/>
<stop offset="1" stop-color="#161616"/>
</linearGradient>
<linearGradient id="paint68_linear_8_83" x1="435.027" y1="594.232" x2="434.428" y2="657.802" gradientUnits="userSpaceOnUse">
<stop stop-color="#09005D"/>
<stop offset="1" stop-color="#1A0F91"/>
</linearGradient>
<linearGradient id="paint69_linear_8_83" x1="415.802" y1="524.914" x2="455.25" y2="524.914" gradientUnits="userSpaceOnUse">
<stop/>
<stop offset="1"/>
</linearGradient>
<linearGradient id="paint70_linear_8_83" x1="450.364" y1="523.241" x2="453.659" y2="497.453" gradientUnits="userSpaceOnUse">
<stop stop-color="#FEBBBA"/>
<stop offset="1" stop-color="#FF928E"/>
</linearGradient>
<linearGradient id="paint71_linear_8_83" x1="520.987" y1="595.043" x2="520.388" y2="658.612" gradientUnits="userSpaceOnUse">
<stop stop-color="#09005D"/>
<stop offset="1" stop-color="#1A0F91"/>
</linearGradient>
<linearGradient id="paint72_linear_8_83" x1="510.353" y1="535.724" x2="532.488" y2="535.724" gradientUnits="userSpaceOnUse">
<stop/>
<stop offset="1"/>
</linearGradient>
<linearGradient id="paint73_linear_8_83" x1="522.516" y1="532.081" x2="525.728" y2="506.949" gradientUnits="userSpaceOnUse">
<stop stop-color="#FEBBBA"/>
<stop offset="1" stop-color="#FF928E"/>
</linearGradient>
<linearGradient id="paint74_linear_8_83" x1="471.889" y1="329.2" x2="501.625" y2="474.067" gradientUnits="userSpaceOnUse">
<stop stop-color="#09005D"/>
<stop offset="1" stop-color="#1A0F91"/>
</linearGradient>
<linearGradient id="paint75_linear_8_83" x1="524.459" y1="421.413" x2="520.863" y2="414.214" gradientUnits="userSpaceOnUse">
<stop stop-color="#4F52FF"/>
<stop offset="1" stop-color="#4042E2"/>
</linearGradient>
<linearGradient id="paint76_linear_8_83" x1="465.196" y1="270.249" x2="526.924" y2="453.792" gradientUnits="userSpaceOnUse">
<stop stop-color="#4F52FF"/>
<stop offset="1" stop-color="#4042E2"/>
</linearGradient>
<linearGradient id="paint77_linear_8_83" x1="498.202" y1="367.033" x2="453.115" y2="367.033" gradientUnits="userSpaceOnUse">
<stop stop-color="#FEBBBA"/>
<stop offset="1" stop-color="#FF928E"/>
</linearGradient>
<linearGradient id="paint78_linear_8_83" x1="456.653" y1="310.562" x2="372.455" y2="310.562" gradientUnits="userSpaceOnUse">
<stop stop-color="#FEBBBA"/>
<stop offset="1" stop-color="#FF928E"/>
</linearGradient>
<linearGradient id="paint79_linear_8_83" x1="486.967" y1="263.378" x2="457.689" y2="233.314" gradientUnits="userSpaceOnUse">
<stop stop-color="#FEBBBA"/>
<stop offset="1" stop-color="#FF928E"/>
</linearGradient>
<linearGradient id="paint80_linear_8_83" x1="444.47" y1="214.413" x2="480.963" y2="262.734" gradientUnits="userSpaceOnUse">
<stop stop-color="#FEBBBA"/>
<stop offset="1" stop-color="#FF928E"/>
</linearGradient>
<linearGradient id="paint81_linear_8_83" x1="500.16" y1="77.0769" x2="461.674" y2="188.694" gradientUnits="userSpaceOnUse">
<stop stop-color="#E1473D"/>
<stop offset="1" stop-color="#E9605A"/>
</linearGradient>
<linearGradient id="paint82_linear_8_83" x1="345.873" y1="194.583" x2="446.328" y2="204.522" gradientUnits="userSpaceOnUse">
<stop stop-color="#03013A"/>
<stop offset="1" stop-color="#03013A"/>
</linearGradient>
<linearGradient id="paint83_linear_8_83" x1="428.621" y1="226.083" x2="472.238" y2="226.083" gradientUnits="userSpaceOnUse">
<stop/>
<stop offset="1"/>
</linearGradient>
<linearGradient id="paint84_linear_8_83" x1="497.977" y1="252.658" x2="468.698" y2="222.593" gradientUnits="userSpaceOnUse">
<stop stop-color="#FEBBBA"/>
<stop offset="1" stop-color="#FF928E"/>
</linearGradient>
<linearGradient id="paint85_linear_8_83" x1="27.8075" y1="807.111" x2="136.157" y2="420.406" gradientUnits="userSpaceOnUse">
<stop stop-color="#4F52FF"/>
<stop offset="1" stop-color="#4042E2"/>
</linearGradient>
<linearGradient id="paint86_linear_8_83" x1="33.4738" y1="808.699" x2="141.823" y2="421.994" gradientUnits="userSpaceOnUse">
<stop stop-color="#4F52FF"/>
<stop offset="1" stop-color="#4042E2"/>
</linearGradient>
<linearGradient id="paint87_linear_8_83" x1="331.803" y1="892.288" x2="440.152" y2="505.583" gradientUnits="userSpaceOnUse">
<stop stop-color="#4F52FF"/>
<stop offset="1" stop-color="#4042E2"/>
</linearGradient>
<linearGradient id="paint88_linear_8_83" x1="337.469" y1="893.874" x2="445.818" y2="507.169" gradientUnits="userSpaceOnUse">
<stop stop-color="#4F52FF"/>
<stop offset="1" stop-color="#4042E2"/>
</linearGradient>
<linearGradient id="paint89_linear_8_83" x1="161.491" y1="844.599" x2="269.855" y2="457.87" gradientUnits="userSpaceOnUse">
<stop stop-color="#4F52FF"/>
<stop offset="1" stop-color="#4042E2"/>
</linearGradient>
</defs>
</svg>
