<svg width="130" height="130" viewBox="0 0 130 130" fill="none" xmlns="http://www.w3.org/2000/svg">
<g clip-path="url(#clip0_50_1327)">
<path d="M113.039 109.14C110.414 111.874 107.93 113.634 105.967 115.027C82.896 131.393 55.5943 126.625 49.7949 125.459C41.2297 123.737 24.6674 120.413 12.693 106.493C-5.42359 85.4286 -2.60138 52.2462 11.4486 30.3458C14.0172 26.339 27.593 4.09972 55.1858 0.53401C71.8842 -1.62492 91.3486 2.73008 105.446 14.4069C135.039 38.9165 132.93 88.4326 113.039 109.14Z" fill="url(#paint0_linear_50_1327)"/>
<path d="M113.039 109.14C110.414 111.874 107.93 113.634 105.967 115.027C82.896 131.393 55.5943 126.625 49.7949 125.459C41.2297 123.737 24.6674 120.413 12.693 106.493C-5.42359 85.4286 -2.60138 52.2462 11.4486 30.3458C14.0172 26.339 27.593 4.09972 55.1858 0.53401C71.8842 -1.62492 91.3486 2.73008 105.446 14.4069C135.039 38.9165 132.93 88.4326 113.039 109.14Z" fill="#F7F7F7"/>
<path d="M95.5637 61.6304C106.602 50.7172 106.602 33.0233 95.5637 22.1101C84.5259 11.1968 66.6301 11.1968 55.5923 22.1101C44.5545 33.0233 44.5545 50.7172 55.5923 61.6304C66.6301 72.5436 84.5259 72.5436 95.5637 61.6304Z" fill="#BDD0FB"/>
<path d="M95.5637 61.6304C106.602 50.7172 106.602 33.0233 95.5637 22.1101C84.5259 11.1968 66.6301 11.1968 55.5923 22.1101C44.5545 33.0233 44.5545 50.7172 55.5923 61.6304C66.6301 72.5436 84.5259 72.5436 95.5637 61.6304Z" fill="#C1C1C1"/>
<path d="M75.5798 65.7196C88.9023 65.7196 99.7023 55.0415 99.7023 41.8693C99.7023 28.6971 88.9023 18.0189 75.5798 18.0189C62.2572 18.0189 51.4572 28.6971 51.4572 41.8693C51.4572 55.0415 62.2572 65.7196 75.5798 65.7196Z" fill="url(#paint1_linear_50_1327)"/>
<path d="M75.5798 65.7196C88.9023 65.7196 99.7023 55.0415 99.7023 41.8693C99.7023 28.6971 88.9023 18.0189 75.5798 18.0189C62.2572 18.0189 51.4572 28.6971 51.4572 41.8693C51.4572 55.0415 62.2572 65.7196 75.5798 65.7196Z" fill="#424242"/>
<path d="M75.5798 66.9175C61.6143 66.9175 50.2504 55.6818 50.2504 41.8739C50.2504 28.066 61.6143 16.8303 75.5798 16.8303C89.5453 16.8303 100.909 28.066 100.909 41.8739C100.909 55.6818 89.55 66.9175 75.5798 66.9175ZM75.5798 18.0189C62.2764 18.0189 51.4572 28.716 51.4572 41.8693C51.4572 55.0225 62.2764 65.7196 75.5798 65.7196C88.8832 65.7196 99.7024 55.0225 99.7024 41.8693C99.7024 28.7207 88.8832 18.0189 75.5798 18.0189Z" fill="white"/>
<path d="M75.5797 56.4107C83.7024 56.4107 90.2871 49.9003 90.2871 41.8693C90.2871 33.8383 83.7024 27.3279 75.5797 27.3279C67.457 27.3279 60.8723 33.8383 60.8723 41.8693C60.8723 49.9003 67.457 56.4107 75.5797 56.4107Z" fill="#424242"/>
<path d="M75.5798 57.6039C66.8032 57.6039 59.6655 50.5468 59.6655 41.8693C59.6655 33.1918 66.8032 26.1346 75.5798 26.1346C84.3563 26.1346 91.494 33.1918 91.494 41.8693C91.494 50.5468 84.3563 57.6039 75.5798 57.6039ZM75.5798 28.5257C68.1368 28.5257 62.0792 34.5104 62.0792 41.8739C62.0792 49.2329 68.1368 55.2221 75.5798 55.2221C83.0227 55.2221 89.0804 49.2329 89.0804 41.8739C89.0804 34.5104 83.0227 28.5257 75.5798 28.5257Z" fill="white"/>
<path d="M75.5797 47.501C78.7256 47.501 81.2758 44.9796 81.2758 41.8692C81.2758 38.7589 78.7256 36.2374 75.5797 36.2374C72.4339 36.2374 69.8837 38.7589 69.8837 41.8692C69.8837 44.9796 72.4339 47.501 75.5797 47.501Z" fill="url(#paint2_linear_50_1327)"/>
<path d="M75.5797 47.501C78.7256 47.501 81.2758 44.9796 81.2758 41.8692C81.2758 38.7589 78.7256 36.2374 75.5797 36.2374C72.4339 36.2374 69.8837 38.7589 69.8837 41.8692C69.8837 44.9796 72.4339 47.501 75.5797 47.501Z" fill="#424242"/>
<path d="M75.5797 48.6988C71.7714 48.6988 68.6721 45.6346 68.6721 41.8692C68.6721 38.1038 71.7714 35.0396 75.5797 35.0396C79.3881 35.0396 82.4873 38.1038 82.4873 41.8692C82.4873 45.6346 79.3881 48.6988 75.5797 48.6988ZM75.5797 37.4306C73.105 37.4306 71.0905 39.4224 71.0905 41.8692C71.0905 44.316 73.105 46.3078 75.5797 46.3078C78.0544 46.3078 80.069 44.316 80.069 41.8692C80.069 39.4224 78.0544 37.4306 75.5797 37.4306Z" fill="white"/>
<path d="M109.845 7.9021L110.606 8.65889L81.7595 37.18L80.9988 36.4232L109.845 7.9021Z" fill="black"/>
<path d="M81.5388 34.6079C81.9756 34.1761 84.037 36.2143 83.6003 36.6461L75.9602 42.5843C75.6784 42.8025 75.3121 42.4404 75.5328 42.1618L81.5388 34.6079Z" fill="#E13030"/>
<path d="M110.592 8.67285L114.471 9.05357L109.141 14.3232C107.394 16.0504 104.957 16.9093 102.501 16.6679L110.592 8.67285Z" fill="url(#paint3_linear_50_1327)"/>
<path d="M110.592 8.67285L114.471 9.05357L109.141 14.3232C107.394 16.0504 104.957 16.9093 102.501 16.6679L110.592 8.67285Z" fill="#E13030"/>
<path d="M109.831 7.92069L109.446 4.08569L104.116 9.35534C102.37 11.0825 101.501 13.4921 101.745 15.9203L109.831 7.92069Z" fill="url(#paint4_linear_50_1327)"/>
<path d="M109.831 7.92069L109.446 4.08569L104.116 9.35534C102.37 11.0825 101.501 13.4921 101.745 15.9203L109.831 7.92069Z" fill="#E13030"/>
<g opacity="0.3">
<path d="M33.6552 14.4764C33.4767 14.6621 33.1809 14.6714 32.9931 14.4996C32.6268 14.1607 32.237 13.8311 31.8379 13.52C31.636 13.3621 31.5984 13.0743 31.7534 12.8746C31.7534 12.87 31.7581 12.87 31.7581 12.8653C31.9177 12.6657 32.2136 12.6286 32.4155 12.7864C32.8334 13.1114 33.2419 13.4596 33.627 13.8171C33.8054 13.9796 33.8242 14.2489 33.6787 14.4346C33.6787 14.4486 33.6646 14.4625 33.6552 14.4764ZM29.7999 12.1364C29.3632 11.8811 28.9124 11.6443 28.4569 11.4307C28.2221 11.3193 28.1235 11.0453 28.2362 10.8132C28.3489 10.5811 28.6306 10.4836 28.8607 10.595C29.3397 10.8225 29.814 11.0686 30.2742 11.3378C30.4996 11.4678 30.5747 11.7511 30.4432 11.9739C30.4338 11.9878 30.4244 12.0064 30.4103 12.0203C30.2695 12.2014 30.0065 12.2571 29.7999 12.1364ZM26.1606 10.5346C25.6816 10.3861 25.1839 10.2514 24.6955 10.1446C24.4419 10.0889 24.2823 9.8382 24.3386 9.59213C24.395 9.34141 24.6485 9.18355 24.8974 9.23927C25.414 9.35534 25.9352 9.49463 26.4424 9.65248C26.6912 9.73141 26.8274 9.99141 26.7476 10.2328C26.7288 10.2839 26.7053 10.3303 26.6724 10.3721C26.5597 10.5253 26.3531 10.595 26.1606 10.5346ZM22.249 9.77784C21.7465 9.73606 21.2346 9.71748 20.7275 9.72213C20.4692 9.72213 20.2579 9.51784 20.2579 9.25784C20.2579 9.00248 20.4645 8.79355 20.7275 8.79355C21.2581 8.78891 21.7982 8.81213 22.3288 8.85391C22.5871 8.87248 22.7796 9.09998 22.7608 9.35534C22.7514 9.4482 22.7185 9.53177 22.6669 9.59677C22.5683 9.71748 22.418 9.79177 22.249 9.77784ZM18.2669 9.89855C17.7691 9.9682 17.2667 10.0611 16.7736 10.1771C16.52 10.2328 16.2711 10.0796 16.2101 9.82891C16.1537 9.5782 16.3087 9.33213 16.5623 9.27177C17.0788 9.15105 17.6095 9.05355 18.1354 8.97927C18.3937 8.94213 18.6285 9.11855 18.666 9.37391C18.6848 9.50391 18.6472 9.62463 18.5768 9.72213C18.5017 9.81498 18.3937 9.87998 18.2669 9.89855ZM14.4116 10.8875C13.942 11.0639 13.4724 11.2682 13.0169 11.4864C12.7821 11.5978 12.5051 11.5003 12.3877 11.2728C12.275 11.0407 12.3736 10.7668 12.6037 10.6507C13.0826 10.4232 13.5757 10.2096 14.0735 10.0239C14.3177 9.93105 14.5853 10.0518 14.6792 10.2932C14.7403 10.4464 14.7074 10.6182 14.6135 10.7389C14.5665 10.8039 14.4961 10.855 14.4116 10.8875ZM2.85508 23.7946C2.6015 23.7389 2.44184 23.4882 2.50289 23.2375C2.62029 22.7268 2.76116 22.2114 2.92082 21.71C3.00065 21.4639 3.26362 21.3293 3.5125 21.4082C3.76138 21.4871 3.89756 21.7471 3.81773 21.9932C3.66277 22.4714 3.53128 22.9589 3.41858 23.4418C3.40449 23.5068 3.37632 23.5671 3.33406 23.6182C3.22605 23.7621 3.04291 23.8364 2.85508 23.7946ZM10.8756 12.6982C10.4577 12.9768 10.0444 13.2739 9.64998 13.585C9.44806 13.7475 9.15222 13.715 8.98786 13.5153C8.82351 13.3157 8.86107 13.0232 9.0583 12.8607C9.47154 12.5311 9.90825 12.2153 10.3497 11.9228C10.5657 11.7789 10.8568 11.8393 11.0024 12.0482C11.1151 12.2153 11.1057 12.4336 10.9883 12.5868C10.9554 12.6332 10.9179 12.6703 10.8756 12.6982ZM4.10418 19.9411C3.86938 19.8296 3.77077 19.5511 3.88347 19.3236C4.11357 18.85 4.36714 18.3811 4.6395 17.9261C4.77099 17.7032 5.05743 17.6336 5.28283 17.7636C5.50824 17.8936 5.57867 18.1768 5.44719 18.3996C5.18892 18.8314 4.94943 19.2771 4.72872 19.7275C4.71464 19.7553 4.69585 19.7832 4.67707 19.8064C4.55028 19.9736 4.3061 20.0386 4.10418 19.9411ZM7.83738 15.2425C7.48989 15.6046 7.15648 15.99 6.84186 16.38C6.6822 16.5796 6.38636 16.6168 6.18444 16.4543C5.98252 16.2964 5.94965 16.0086 6.09991 15.8089C6.09991 15.8043 6.10461 15.8043 6.10461 15.7996C6.43332 15.3864 6.78551 14.9825 7.15178 14.6018C7.33023 14.4161 7.62607 14.4068 7.8139 14.5832C7.99234 14.7457 8.01113 15.015 7.86555 15.2007C7.86086 15.2193 7.84677 15.2332 7.83738 15.2425Z" fill="black"/>
<path d="M2.90203 26.8497C2.95838 26.7754 2.99125 26.6872 2.99595 26.5897C3.00534 26.3529 3.01943 26.1068 3.04291 25.87C3.06638 25.6147 2.87385 25.3918 2.61558 25.3686C2.35731 25.3454 2.13191 25.5358 2.10843 25.7911C2.08965 26.0418 2.07086 26.2972 2.06147 26.5525C2.05208 26.8079 2.254 27.0261 2.51227 27.0354C2.66724 27.04 2.81281 26.9704 2.90203 26.8497Z" fill="black"/>
</g>
<g opacity="0.3">
<path d="M7.94537 40.091C8.08155 39.9146 8.07216 39.6592 7.9125 39.4921C7.74345 39.3203 7.57909 39.1392 7.41944 38.9582C7.25038 38.7678 6.94985 38.7492 6.75732 38.9164C6.56009 39.0882 6.54601 39.3807 6.71506 39.571C6.88411 39.7614 7.05786 39.9517 7.2363 40.1328C7.41474 40.3185 7.71058 40.3232 7.89841 40.1467C7.9125 40.1328 7.93128 40.1142 7.94537 40.091Z" fill="black"/>
<path d="M35.1484 39.2599C34.984 39.4549 34.6835 39.4828 34.4863 39.3157C34.2891 39.1532 34.2609 38.8607 34.4299 38.661C34.7493 38.285 35.0545 37.895 35.3409 37.4864C35.4912 37.2775 35.7823 37.2264 35.9937 37.3749C36.205 37.5235 36.2566 37.8114 36.1064 38.0203C35.9796 38.1967 35.8528 38.3685 35.7213 38.5403C35.5382 38.7864 35.3409 39.0278 35.1484 39.2599ZM36.806 36.061C36.5759 35.945 36.4867 35.6617 36.6041 35.4342C36.8342 34.9978 37.0455 34.5474 37.2381 34.0924C37.3367 33.8557 37.6137 33.7442 37.8532 33.8417C38.0927 33.9392 38.2054 34.2132 38.1068 34.4499C37.9049 34.9282 37.6795 35.4017 37.44 35.8614C37.4259 35.8846 37.4118 35.9078 37.3977 35.9264C37.2615 36.1074 37.0127 36.1678 36.806 36.061ZM33.3734 41.0799C32.9883 41.4282 32.5798 41.7625 32.1618 42.0735C31.9552 42.2267 31.6594 42.1896 31.5044 41.9853C31.3495 41.781 31.387 41.4885 31.5936 41.3353C31.9881 41.0382 32.3778 40.7178 32.7441 40.3882C32.9367 40.2164 33.2325 40.2303 33.4062 40.4207C33.5612 40.5878 33.5659 40.8385 33.4344 41.0103C33.4156 41.0382 33.3969 41.0614 33.3734 41.0799ZM38.351 32.3885C38.1021 32.3235 37.9518 32.0682 38.0176 31.8221C38.1444 31.3485 38.2524 30.861 38.3369 30.3782C38.3838 30.1274 38.6233 29.9557 38.8816 30.0021C39.1352 30.0485 39.3089 30.2853 39.262 30.5407C39.1727 31.0514 39.06 31.5621 38.9239 32.0635C38.9098 32.1239 38.8816 32.1796 38.844 32.226C38.736 32.3653 38.5435 32.4349 38.351 32.3885ZM30.0252 43.4664C29.5697 43.7217 29.1001 43.9585 28.6212 44.1721C28.3864 44.2789 28.1093 44.1767 27.9966 43.9446C27.8886 43.7125 27.9919 43.4339 28.2267 43.3271C28.6775 43.1228 29.1283 42.8953 29.5603 42.6539C29.7857 42.5285 30.0722 42.6074 30.199 42.8303C30.2929 42.9974 30.2741 43.1971 30.1661 43.341C30.1332 43.3921 30.0863 43.4339 30.0252 43.4664ZM26.2357 45.0682C25.7332 45.2167 25.2214 45.3467 24.7095 45.4582C24.4559 45.5139 24.2071 45.3514 24.1507 45.1007C24.0944 44.85 24.2587 44.6039 24.5123 44.5482C24.996 44.446 25.4843 44.3207 25.9633 44.1814C26.2122 44.1071 26.4752 44.2464 26.5503 44.4924C26.5973 44.641 26.5644 44.7942 26.4752 44.9057C26.4141 44.9799 26.3343 45.0403 26.2357 45.0682ZM22.1785 45.8157C21.6572 45.8528 21.1266 45.8714 20.6053 45.8667C20.3471 45.8621 20.1358 45.6532 20.1405 45.3978C20.1452 45.1424 20.3565 44.9335 20.6147 44.9382C21.1125 44.9428 21.615 44.9242 22.108 44.8917C22.3663 44.8732 22.5917 45.0635 22.6105 45.3189C22.6199 45.4349 22.5823 45.5464 22.5166 45.6346C22.4367 45.7367 22.3146 45.8064 22.1785 45.8157ZM18.0508 45.6717C17.5343 45.5975 17.013 45.5 16.5012 45.3792C16.2476 45.3189 16.0926 45.0728 16.1537 44.8221C16.2147 44.5714 16.4636 44.4182 16.7172 44.4785C17.2009 44.5899 17.6939 44.6828 18.187 44.7571C18.4453 44.7942 18.619 45.031 18.5814 45.2817C18.5673 45.3607 18.5392 45.435 18.4922 45.4953C18.3936 45.6207 18.2292 45.695 18.0508 45.6717ZM14.0593 44.6317C13.571 44.446 13.0873 44.2371 12.6177 44.0096C12.3829 43.8982 12.289 43.6196 12.4017 43.3874C12.5144 43.1599 12.7961 43.0625 13.0309 43.1739C13.477 43.3875 13.9372 43.5871 14.4021 43.7635C14.6416 43.8564 14.7637 44.1257 14.6698 44.3624C14.6557 44.4042 14.6322 44.4414 14.604 44.4739C14.4773 44.641 14.2566 44.7107 14.0593 44.6317ZM10.3966 42.756C10.0772 42.5471 9.75793 42.3196 9.4527 42.0921C9.34 42.0085 9.23199 41.925 9.12399 41.8414C8.92207 41.6835 8.8798 41.391 9.04885 41.1914C9.20851 40.9917 9.50435 40.9546 9.70627 41.1171C9.80958 41.196 9.91289 41.2796 10.0209 41.3585C10.312 41.5767 10.6126 41.7903 10.9178 41.99C11.1338 42.1339 11.1902 42.4217 11.0493 42.6353C11.0446 42.6446 11.0399 42.6492 11.0305 42.6585C10.8802 42.8442 10.6032 42.8907 10.3966 42.756Z" fill="black"/>
<path d="M39.4358 28.2703C39.4921 28.1961 39.525 28.1078 39.5297 28.0057C39.5391 27.755 39.5438 27.4996 39.5438 27.2443C39.5438 26.9889 39.3325 26.78 39.0742 26.7846C38.8159 26.7846 38.6046 26.9936 38.6093 27.2489C38.6093 27.4903 38.6046 27.7318 38.5999 27.9732C38.5905 28.2285 38.7925 28.4421 39.0507 28.4514C39.2057 28.4607 39.3466 28.3864 39.4358 28.2703Z" fill="black"/>
</g>
<path d="M33.9604 22.439C33.9369 22.3507 33.8618 22.2811 33.7678 22.2718L31.11 22.0211C30.5465 20.9207 29.8045 19.8993 28.8888 19.0125L29.4617 16.4357C29.4805 16.3475 29.443 16.25 29.3631 16.2036L26.6254 14.56C26.5456 14.5136 26.4423 14.5182 26.3719 14.5786L24.3151 16.2593C23.0942 15.8647 21.8404 15.6743 20.5913 15.6836L19.1496 13.4597C19.098 13.3807 19.0041 13.3436 18.9149 13.3668L15.8062 14.1143C15.717 14.1375 15.6465 14.2118 15.6372 14.3047L15.3836 16.9325C14.2707 17.4897 13.2376 18.2232 12.3407 19.1286L9.73446 18.5622C9.64524 18.5436 9.54663 18.5807 9.49967 18.6597L7.83264 21.3618C7.78568 21.4408 7.79038 21.5429 7.85143 21.6125L9.55133 23.6461C9.15218 24.8532 8.95965 26.0929 8.96904 27.3279L6.71973 28.7533C6.6399 28.8043 6.60233 28.8972 6.62581 28.9854L7.38184 32.0636C7.40532 32.1518 7.48045 32.2215 7.57437 32.2308L10.2322 32.4815C10.7957 33.5818 11.5377 34.6033 12.4534 35.49L11.8805 38.0668C11.8617 38.155 11.8993 38.2525 11.9791 38.299L14.7121 39.9472C14.7919 39.9936 14.8952 39.989 14.9656 39.9286L17.0224 38.2479C18.2434 38.6425 19.4971 38.8329 20.7462 38.8236L22.1879 41.0475C22.2395 41.1265 22.3334 41.1636 22.4227 41.1404L25.536 40.3929C25.6252 40.3697 25.6957 40.2954 25.7051 40.2025L25.9586 37.5747C27.0716 37.0175 28.1046 36.284 29.0015 35.3786L31.6077 35.945C31.697 35.9636 31.7909 35.9265 31.8425 35.8475L33.5096 33.1454C33.5565 33.0665 33.5518 32.9643 33.4908 32.8947L31.7909 30.8565C32.19 29.6493 32.3826 28.4097 32.3732 27.1747L34.6225 25.7493C34.7023 25.6982 34.7399 25.6054 34.7164 25.5172L33.9604 22.439Z" fill="#91B3FA"/>
<path d="M33.9604 22.439C33.9369 22.3507 33.8618 22.2811 33.7678 22.2718L31.11 22.0211C30.5465 20.9207 29.8045 19.8993 28.8888 19.0125L29.4617 16.4357C29.4805 16.3475 29.443 16.25 29.3631 16.2036L26.6254 14.56C26.5456 14.5136 26.4423 14.5182 26.3719 14.5786L24.3151 16.2593C23.0942 15.8647 21.8404 15.6743 20.5913 15.6836L19.1496 13.4597C19.098 13.3807 19.0041 13.3436 18.9149 13.3668L15.8062 14.1143C15.717 14.1375 15.6465 14.2118 15.6372 14.3047L15.3836 16.9325C14.2707 17.4897 13.2376 18.2232 12.3407 19.1286L9.73446 18.5622C9.64524 18.5436 9.54663 18.5807 9.49967 18.6597L7.83264 21.3618C7.78568 21.4408 7.79038 21.5429 7.85143 21.6125L9.55133 23.6461C9.15218 24.8532 8.95965 26.0929 8.96904 27.3279L6.71973 28.7533C6.6399 28.8043 6.60233 28.8972 6.62581 28.9854L7.38184 32.0636C7.40532 32.1518 7.48045 32.2215 7.57437 32.2308L10.2322 32.4815C10.7957 33.5818 11.5377 34.6033 12.4534 35.49L11.8805 38.0668C11.8617 38.155 11.8993 38.2525 11.9791 38.299L14.7121 39.9472C14.7919 39.9936 14.8952 39.989 14.9656 39.9286L17.0224 38.2479C18.2434 38.6425 19.4971 38.8329 20.7462 38.8236L22.1879 41.0475C22.2395 41.1265 22.3334 41.1636 22.4227 41.1404L25.536 40.3929C25.6252 40.3697 25.6957 40.2954 25.7051 40.2025L25.9586 37.5747C27.0716 37.0175 28.1046 36.284 29.0015 35.3786L31.6077 35.945C31.697 35.9636 31.7909 35.9265 31.8425 35.8475L33.5096 33.1454C33.5565 33.0665 33.5518 32.9643 33.4908 32.8947L31.7909 30.8565C32.19 29.6493 32.3826 28.4097 32.3732 27.1747L34.6225 25.7493C34.7023 25.6982 34.7399 25.6054 34.7164 25.5172L33.9604 22.439Z" fill="url(#paint5_linear_50_1327)"/>
<path d="M22.9251 29.5239C21.6573 30.7543 19.6146 30.7357 18.3702 29.4822C17.7691 28.8739 17.4404 28.0707 17.4498 27.2211C17.4592 26.3714 17.802 25.5729 18.4124 24.9786C19.6803 23.7482 21.723 23.7668 22.9674 25.0204C24.0991 26.1625 24.1836 27.9361 23.2351 29.1711C23.1458 29.2964 23.0378 29.4125 22.9251 29.5239ZM18.2011 27.2304C18.1964 27.8804 18.4453 28.4979 18.9055 28.9622C19.8588 29.9232 21.4225 29.9372 22.3945 28.9947C23.3666 28.0522 23.3806 26.5061 22.4274 25.545C21.4741 24.5839 19.9104 24.57 18.9384 25.5125C18.8491 25.5961 18.7693 25.6889 18.6942 25.7864C18.3843 26.195 18.2105 26.7011 18.2011 27.2304Z" fill="white"/>
<path d="M26.9025 32.0033C27.0669 31.7897 27.2172 31.5715 27.3627 31.3394C27.4097 31.2651 27.452 31.1954 27.4942 31.1212C27.7055 30.7544 27.884 30.3737 28.0295 29.9837C28.0295 29.979 28.0342 29.9744 28.0342 29.9697C28.0389 29.9558 28.0436 29.9372 28.053 29.9233C28.0624 29.8954 28.0765 29.8629 28.0859 29.8351C28.1141 29.7562 28.0859 29.6726 28.0202 29.6262C28.0061 29.6169 27.9873 29.6076 27.9685 29.5983C27.8699 29.5658 27.7619 29.6169 27.729 29.7144C27.5553 30.2112 27.3205 30.694 27.0434 31.149C25.6534 33.4054 23.2351 34.6683 20.7416 34.7194C19.3563 34.7472 17.9475 34.399 16.6797 33.6329C16.459 33.4983 16.243 33.3544 16.0363 33.2012C14.6558 32.1658 13.6884 30.7079 13.2752 29.0226C12.8009 27.0865 13.1155 25.0854 14.1674 23.3862C16.3322 19.8762 20.9811 18.7619 24.5311 20.9022C24.7518 21.0322 24.9632 21.1762 25.1651 21.3294C26.0432 21.9887 26.7664 22.829 27.2829 23.7994C27.297 23.8226 27.3158 23.8458 27.3346 23.8597C27.3909 23.9015 27.4707 23.9108 27.5365 23.8783C27.6304 23.8319 27.6633 23.7204 27.6163 23.6276C27.0763 22.6108 26.3203 21.7287 25.3952 21.0369C25.1839 20.879 24.9585 20.7258 24.7331 20.5912C21.0045 18.344 16.1256 19.514 13.8528 23.1958C12.7492 24.9787 12.4205 27.0819 12.9183 29.1154C13.3503 30.8844 14.3693 32.4165 15.8156 33.5029C16.0316 33.6654 16.257 33.814 16.4871 33.9579C18.2903 35.0444 20.4176 35.374 22.4743 34.8819C24.2588 34.4408 25.8084 33.4333 26.9025 32.0033Z" fill="white"/>
<g opacity="0.3">
<path d="M53.2229 9.20669C53.298 9.10919 53.3027 8.9699 53.2229 8.86312C53.0773 8.66812 52.9223 8.47312 52.7627 8.2874C52.6594 8.16669 52.4762 8.14812 52.3541 8.25026C52.232 8.3524 52.2133 8.53348 52.3166 8.65419C52.4668 8.83062 52.6124 9.01633 52.7533 9.20205C52.8472 9.3274 53.0303 9.35526 53.1571 9.2624C53.1853 9.24383 53.2041 9.22526 53.2229 9.20669Z" fill="#91B3FA"/>
<path d="M51.7154 7.58175C51.6074 7.69782 51.4243 7.70246 51.3069 7.59568C51.0111 7.32175 50.6964 7.06175 50.3771 6.82032C50.3114 6.76925 50.2409 6.71818 50.1705 6.66711C50.039 6.57425 50.0108 6.39318 50.1048 6.26782C50.1987 6.15175 50.3818 6.10996 50.5086 6.20282C50.579 6.25389 50.6542 6.30961 50.7246 6.36068C51.0627 6.61139 51.3914 6.88532 51.7013 7.17318C51.8094 7.27532 51.8234 7.43782 51.7342 7.55389C51.7295 7.56782 51.7248 7.57711 51.7154 7.58175ZM48.9308 5.89175C48.5035 5.65496 48.0574 5.44603 47.6019 5.26496C47.4516 5.20461 47.3812 5.03746 47.4422 4.89353C47.5033 4.74961 47.6723 4.67532 47.8179 4.73568C48.2922 4.92603 48.7617 5.14425 49.2125 5.39032C49.3534 5.46925 49.4051 5.64103 49.3253 5.78032C49.3206 5.79425 49.3112 5.80353 49.3018 5.81282C49.2125 5.92425 49.0576 5.96139 48.9308 5.89175ZM46.2025 4.80532C45.7282 4.67996 45.2446 4.58711 44.7562 4.52211C44.5965 4.49889 44.4885 4.35496 44.5073 4.20175C44.5308 4.04389 44.6764 3.93246 44.8313 3.95568C45.3385 4.02532 45.8503 4.12282 46.3481 4.25282C46.503 4.29461 46.597 4.45246 46.5547 4.60103C46.5453 4.63818 46.5265 4.67068 46.5077 4.70318C46.4373 4.79139 46.3199 4.83782 46.2025 4.80532ZM43.2911 4.41532C42.8027 4.41068 42.3049 4.43389 41.8213 4.48961C41.6616 4.50818 41.5207 4.39211 41.502 4.23889C41.4832 4.08103 41.5959 3.94175 41.7555 3.92318C42.2627 3.86746 42.7839 3.83961 43.2958 3.84425C43.4554 3.84425 43.5822 3.97425 43.5822 4.13211C43.5822 4.19711 43.5587 4.25282 43.5212 4.30389C43.4695 4.37353 43.385 4.41996 43.2911 4.41532ZM40.3703 4.74496C39.896 4.85639 39.4217 5.00032 38.9615 5.17211C38.8112 5.22782 38.6469 5.15353 38.5905 5.00496C38.5342 4.85639 38.6093 4.68925 38.7596 4.63818C39.2386 4.46175 39.7363 4.31318 40.2341 4.19246C40.389 4.15532 40.544 4.25282 40.5816 4.40603C40.6004 4.49425 40.5816 4.58246 40.5299 4.64746C40.4923 4.68925 40.436 4.72639 40.3703 4.74496ZM37.6185 5.76175C37.1865 5.98461 36.7591 6.23996 36.36 6.51389C36.2285 6.60211 36.0454 6.56961 35.9562 6.43961C35.8669 6.30961 35.8998 6.13318 36.0313 6.04032C36.4539 5.75246 36.8953 5.48782 37.3508 5.25103C37.4917 5.17675 37.6701 5.23246 37.7406 5.37175C37.7922 5.47389 37.7781 5.58996 37.7124 5.67818C37.6889 5.71068 37.6561 5.73853 37.6185 5.76175ZM35.2001 7.40996C34.8385 7.73032 34.4864 8.07853 34.167 8.44532C34.0637 8.56603 33.8806 8.57532 33.7585 8.47318C33.6364 8.37103 33.627 8.18996 33.7303 8.06925C34.0684 7.68853 34.4347 7.32175 34.8151 6.98282C34.9325 6.87603 35.1156 6.88996 35.2236 7.00603C35.3175 7.10818 35.3222 7.26139 35.2377 7.36818C35.2283 7.38675 35.2142 7.39603 35.2001 7.40996ZM32.129 10.9757C31.9882 10.9014 31.9318 10.7296 32.0022 10.5903C32.2042 10.2003 32.4296 9.81496 32.6738 9.44353C32.7113 9.38782 32.7489 9.33211 32.7865 9.27639C32.871 9.14175 33.0588 9.10925 33.1903 9.20211C33.3218 9.29032 33.3594 9.47139 33.2654 9.60139C33.2279 9.65246 33.195 9.70353 33.1574 9.75925C32.9226 10.1121 32.7066 10.4835 32.5141 10.855C32.5047 10.8689 32.4953 10.8828 32.4859 10.8967C32.4061 11.0035 32.2558 11.0407 32.129 10.9757Z" fill="black"/>
</g>
<g opacity="0.3">
<path d="M53.0256 23.8411C52.7157 24.2357 52.3776 24.6118 52.0207 24.9693C51.908 25.0807 51.7248 25.0807 51.6121 24.9693C51.4994 24.8579 51.4994 24.6768 51.6121 24.5654C51.9502 24.2311 52.2743 23.8689 52.5701 23.4929C52.6687 23.3675 52.8518 23.3443 52.9786 23.4418C53.1007 23.5346 53.1242 23.7111 53.0256 23.8411ZM53.4858 22.6989C53.3496 22.6154 53.3027 22.4389 53.3872 22.3043C53.6361 21.8957 53.8615 21.4686 54.0587 21.0368C54.1244 20.8929 54.2935 20.8279 54.4437 20.8929C54.5893 20.9579 54.6551 21.125 54.5893 21.2736C54.3827 21.7286 54.1479 22.1743 53.8849 22.6014C53.8802 22.6107 53.8755 22.62 53.8662 22.6293C53.7769 22.7454 53.6126 22.7779 53.4858 22.6989ZM50.8843 25.9629C50.4851 26.2693 50.0672 26.5571 49.6352 26.8171C49.499 26.9007 49.3206 26.8543 49.236 26.7196C49.1515 26.585 49.1985 26.4086 49.3347 26.325C49.7479 26.0789 50.147 25.805 50.5274 25.5125C50.6542 25.415 50.8373 25.4382 50.9359 25.5589C51.0205 25.6657 51.0158 25.8096 50.9406 25.9071C50.9266 25.9304 50.9078 25.9489 50.8843 25.9629ZM54.7584 20.0571C54.6034 20.0107 54.5189 19.8482 54.5658 19.6996C54.7067 19.2446 54.8241 18.7757 54.9086 18.3068C54.9368 18.1489 55.0871 18.0468 55.2467 18.0746C55.4064 18.1025 55.5097 18.2511 55.4815 18.4089C55.3923 18.9011 55.2702 19.3932 55.1246 19.8668C55.1153 19.8993 55.0965 19.9318 55.0777 19.955C55.0072 20.0479 54.8805 20.0943 54.7584 20.0571ZM48.2922 27.5136C47.832 27.7179 47.353 27.8943 46.874 28.0429C46.7191 28.0893 46.5594 28.0057 46.5124 27.8525C46.4655 27.6993 46.55 27.5414 46.705 27.495C47.1652 27.3557 47.6207 27.1839 48.0574 26.9889C48.203 26.9239 48.3767 26.9889 48.4424 27.1329C48.4894 27.2304 48.4706 27.3418 48.4096 27.4254C48.3767 27.4625 48.3391 27.495 48.2922 27.5136ZM45.3995 28.405C44.9018 28.4932 44.3946 28.5536 43.8922 28.5861C43.7325 28.5954 43.5963 28.4746 43.5869 28.3168C43.5775 28.1589 43.6996 28.0243 43.8593 28.015C44.3383 27.9871 44.8219 27.9268 45.2962 27.8432C45.4559 27.8154 45.6061 27.9175 45.6343 28.0754C45.6484 28.1589 45.6296 28.2379 45.578 28.2982C45.5357 28.3493 45.4747 28.3911 45.3995 28.405ZM42.3754 28.5814C41.8682 28.5489 41.3611 28.4886 40.868 28.4004C40.7084 28.3725 40.6051 28.2239 40.6379 28.0661C40.6661 27.9082 40.8164 27.8061 40.976 27.8386C41.4503 27.9268 41.934 27.9825 42.413 28.015C42.5726 28.0243 42.6947 28.1589 42.6853 28.3168C42.6806 28.3771 42.6618 28.4282 42.629 28.47C42.5679 28.5443 42.474 28.5861 42.3754 28.5814Z" fill="black"/>
<path d="M55.5989 17.0578C55.6318 17.016 55.6552 16.9603 55.6552 16.9C55.6693 16.6539 55.674 16.4078 55.674 16.1664C55.674 16.0085 55.5425 15.8785 55.3829 15.8832C55.2232 15.8832 55.0917 16.0132 55.0964 16.171C55.0964 16.4032 55.0917 16.6353 55.0777 16.8721C55.0683 17.03 55.1904 17.1646 55.35 17.1739C55.4533 17.1785 55.5425 17.1321 55.5989 17.0578Z" fill="#91B3FA"/>
</g>
<path d="M51.9644 12.9535C51.9503 12.8931 51.8986 12.8467 51.8376 12.8421L50.0579 12.6749C49.6822 11.9367 49.1844 11.2542 48.574 10.6599L48.9543 8.93743C48.9684 8.87708 48.9402 8.81672 48.8886 8.78422L47.0572 7.67922C47.0056 7.64672 46.9351 7.65136 46.8882 7.69315L45.5123 8.81672C44.6952 8.55208 43.8546 8.42672 43.0188 8.43136L42.0561 6.94565C42.0233 6.89458 41.9575 6.86672 41.8965 6.88065L39.8162 7.38208C39.7552 7.39601 39.7082 7.44708 39.7035 7.50743L39.5345 9.26708C38.7878 9.63851 38.0975 10.1306 37.4964 10.7342L35.7543 10.3581C35.6932 10.3442 35.6322 10.3721 35.5993 10.4231L34.4817 12.2339C34.4488 12.2849 34.4535 12.3546 34.4958 12.401L35.6322 13.7614C35.3645 14.5692 35.2377 15.4003 35.2424 16.2267L33.7398 17.1785C33.6881 17.211 33.6599 17.276 33.674 17.3364L34.1765 19.3978C34.1906 19.4581 34.2422 19.4999 34.3033 19.5092L36.083 19.6764C36.4587 20.4146 36.9564 21.0971 37.5669 21.6914L37.1865 23.4139C37.1724 23.4742 37.2006 23.5346 37.2523 23.5671L39.0836 24.6721C39.1353 24.7046 39.2057 24.6999 39.2527 24.6581L40.6286 23.5346C41.4457 23.7992 42.2862 23.9246 43.1221 23.9199L44.0847 25.4056C44.1176 25.4567 44.1833 25.4846 44.2444 25.4706L46.3293 24.9739C46.3904 24.9599 46.4374 24.9089 46.442 24.8485L46.6111 23.0889C47.3577 22.7174 48.048 22.2253 48.6491 21.6217L50.3913 21.9978C50.4523 22.0117 50.5134 21.9839 50.5462 21.9328L51.6638 20.1221C51.6967 20.071 51.692 20.0014 51.6498 19.9549L50.5134 18.5946C50.781 17.7867 50.9078 16.9556 50.9031 16.1292L52.4058 15.1774C52.4574 15.1449 52.4856 15.0799 52.4715 15.0196L51.9644 12.9535Z" fill="#91B3FA"/>
<path d="M51.9644 12.9535C51.9503 12.8931 51.8986 12.8467 51.8376 12.8421L50.0579 12.6749C49.6822 11.9367 49.1844 11.2542 48.574 10.6599L48.9543 8.93743C48.9684 8.87708 48.9402 8.81672 48.8886 8.78422L47.0572 7.67922C47.0056 7.64672 46.9351 7.65136 46.8882 7.69315L45.5123 8.81672C44.6952 8.55208 43.8546 8.42672 43.0188 8.43136L42.0561 6.94565C42.0233 6.89458 41.9575 6.86672 41.8965 6.88065L39.8162 7.38208C39.7552 7.39601 39.7082 7.44708 39.7035 7.50743L39.5345 9.26708C38.7878 9.63851 38.0975 10.1306 37.4964 10.7342L35.7543 10.3581C35.6932 10.3442 35.6322 10.3721 35.5993 10.4231L34.4817 12.2339C34.4488 12.2849 34.4535 12.3546 34.4958 12.401L35.6322 13.7614C35.3645 14.5692 35.2377 15.4003 35.2424 16.2267L33.7398 17.1785C33.6881 17.211 33.6599 17.276 33.674 17.3364L34.1765 19.3978C34.1906 19.4581 34.2422 19.4999 34.3033 19.5092L36.083 19.6764C36.4587 20.4146 36.9564 21.0971 37.5669 21.6914L37.1865 23.4139C37.1724 23.4742 37.2006 23.5346 37.2523 23.5671L39.0836 24.6721C39.1353 24.7046 39.2057 24.6999 39.2527 24.6581L40.6286 23.5346C41.4457 23.7992 42.2862 23.9246 43.1221 23.9199L44.0847 25.4056C44.1176 25.4567 44.1833 25.4846 44.2444 25.4706L46.3293 24.9739C46.3904 24.9599 46.4374 24.9089 46.442 24.8485L46.6111 23.0889C47.3577 22.7174 48.048 22.2253 48.6491 21.6217L50.3913 21.9978C50.4523 22.0117 50.5134 21.9839 50.5462 21.9328L51.6638 20.1221C51.6967 20.071 51.692 20.0014 51.6498 19.9549L50.5134 18.5946C50.781 17.7867 50.9078 16.9556 50.9031 16.1292L52.4058 15.1774C52.4574 15.1449 52.4856 15.0799 52.4715 15.0196L51.9644 12.9535Z" fill="url(#paint6_linear_50_1327)"/>
<path d="M44.606 17.7217C44.1881 18.1256 43.634 18.3485 43.047 18.3438C42.46 18.3392 41.9106 18.107 41.5021 17.6938C40.6568 16.8395 40.6709 15.4652 41.5302 14.6295C42.3943 13.7938 43.7843 13.8077 44.6295 14.6574C45.038 15.0706 45.2634 15.6185 45.2587 16.1988C45.2541 16.6677 45.0991 17.1181 44.8173 17.4849C44.7563 17.5638 44.6859 17.6427 44.606 17.7217ZM41.92 17.2899C42.2205 17.5963 42.6244 17.7635 43.0564 17.7681C43.4884 17.7727 43.8923 17.6102 44.2022 17.3131C44.5074 17.016 44.6812 16.6167 44.6859 16.1895C44.6905 15.7624 44.5262 15.3631 44.2257 15.0567C43.6011 14.4299 42.5774 14.4206 41.9435 15.0335C41.8871 15.0892 41.8355 15.1495 41.7885 15.2099C41.3095 15.8274 41.3518 16.7188 41.92 17.2899Z" fill="white"/>
<path d="M47.3765 19.4443C47.4892 19.3003 47.5925 19.1471 47.6911 18.9893C47.8836 18.6735 48.048 18.3439 48.1701 17.9957C48.1748 17.9818 48.1795 17.9632 48.1889 17.9493C48.2311 17.8285 48.1889 17.6985 48.0903 17.6243C48.0668 17.6057 48.0386 17.5918 48.0104 17.5825C47.8602 17.5314 47.6958 17.6103 47.6395 17.7589C47.5268 18.0839 47.3765 18.395 47.1934 18.6875C47.184 18.7014 47.1746 18.72 47.1652 18.7339C46.7285 19.4257 46.1368 19.9828 45.4418 20.3728C45.0614 20.5864 44.6529 20.7489 44.2209 20.8557C44.2162 20.8557 44.2162 20.8557 44.2115 20.8603C44.2021 20.865 44.188 20.865 44.1786 20.8696C42.9107 21.1714 41.6006 20.9718 40.4877 20.2985C40.3421 20.2103 40.2059 20.1175 40.0744 20.02C39.1822 19.3514 38.553 18.4043 38.2853 17.3132C37.9801 16.0596 38.182 14.7643 38.8629 13.6639C39.5438 12.5635 40.6145 11.7882 41.8823 11.4864C43.1502 11.1846 44.4604 11.3843 45.5733 12.0575C45.7142 12.141 45.8503 12.2339 45.9818 12.3314C46.55 12.7585 47.0196 13.3018 47.353 13.9285C47.3718 13.9657 47.4 13.9982 47.4328 14.026C47.5174 14.091 47.6395 14.105 47.7428 14.0493C47.8836 13.975 47.94 13.8032 47.8649 13.6639C47.4939 12.9628 46.968 12.3546 46.334 11.8764C46.1884 11.765 46.0335 11.6628 45.8738 11.5653C44.6294 10.8132 43.1596 10.5857 41.7415 10.9293C40.3233 11.2682 39.1259 12.1318 38.3652 13.3668C37.6044 14.5971 37.3743 16.0503 37.7218 17.4478C38.0224 18.6689 38.722 19.7228 39.7223 20.475C39.8725 20.5864 40.0275 20.6885 40.1871 20.786C42.5914 22.2439 45.7048 21.6264 47.3765 19.4443Z" fill="white"/>
<path d="M122.952 36.1352C126.844 36.1352 130 33.0152 130 29.1663C130 25.3175 126.844 22.1974 122.952 22.1974C119.059 22.1974 115.903 25.3175 115.903 29.1663C115.903 33.0152 119.059 36.1352 122.952 36.1352Z" fill="url(#paint7_linear_50_1327)"/>
<path d="M122.952 35.9031C126.715 35.9031 129.765 32.887 129.765 29.1664C129.765 25.4457 126.715 22.4296 122.952 22.4296C119.188 22.4296 116.138 25.4457 116.138 29.1664C116.138 32.887 119.188 35.9031 122.952 35.9031Z" fill="url(#paint8_linear_50_1327)"/>
<path opacity="0.61" d="M117.331 26.65C117.288 26.65 117.241 26.6407 117.204 26.6175C117.063 26.5478 117.007 26.376 117.077 26.2367C118.204 24.0314 120.453 22.6617 122.951 22.6617C123.351 22.6617 123.75 22.6989 124.14 22.7685C124.294 22.7964 124.398 22.945 124.37 23.0982C124.341 23.2514 124.191 23.3535 124.036 23.3257C123.679 23.2607 123.318 23.2282 122.951 23.2282C120.669 23.2282 118.617 24.4771 117.589 26.4921C117.537 26.5942 117.434 26.65 117.331 26.65Z" fill="white"/>
<path opacity="0.78" d="M127.176 33.3415C129.428 31.115 129.428 27.5051 127.176 25.2786C124.925 23.052 121.273 23.0521 119.021 25.2786C116.77 27.5051 116.77 31.115 119.021 33.3415C121.273 35.5681 124.925 35.5681 127.176 33.3415Z" fill="white"/>
<path d="M122.534 33.5538V32.9317C121.881 32.9038 121.233 32.7553 120.773 32.5556C120.608 32.486 120.524 32.3003 120.571 32.1331L120.73 31.5574C120.787 31.3438 121.022 31.2371 121.228 31.3206C121.684 31.511 122.247 31.6596 122.853 31.6596C123.482 31.6596 123.952 31.4506 123.952 31.0142C123.952 30.6242 123.59 30.3921 122.712 30.1599C121.463 29.821 120.566 29.2824 120.566 28.196C120.566 27.2117 121.294 26.4642 122.552 26.2646V25.6424C122.552 25.4428 122.717 25.2803 122.919 25.2803H123.29C123.492 25.2803 123.656 25.4428 123.656 25.6424V26.1996C124.262 26.2228 124.703 26.3249 125.051 26.4456C125.229 26.506 125.328 26.701 125.276 26.8821L125.13 27.416C125.074 27.6203 124.853 27.7363 124.647 27.6574C124.323 27.5367 123.867 27.4113 123.276 27.4113C122.529 27.4113 122.313 27.7178 122.313 27.9917C122.313 28.3306 122.764 28.5628 123.731 28.8599C125.121 29.2731 125.694 29.8442 125.694 30.8656C125.694 31.8035 124.99 32.6485 123.623 32.8621V33.5585C123.623 33.7581 123.459 33.9206 123.257 33.9206H122.886C122.698 33.9113 122.534 33.7535 122.534 33.5538Z" fill="url(#paint9_linear_50_1327)"/>
<path d="M111.024 26.2135C114.064 26.2135 116.528 23.7773 116.528 20.7721C116.528 17.7669 114.064 15.3307 111.024 15.3307C107.985 15.3307 105.521 17.7669 105.521 20.7721C105.521 23.7773 107.985 26.2135 111.024 26.2135Z" fill="url(#paint10_linear_50_1327)"/>
<path d="M111.024 26.0324C113.962 26.0324 116.344 23.6773 116.344 20.7721C116.344 17.8669 113.962 15.5117 111.024 15.5117C108.086 15.5117 105.704 17.8669 105.704 20.7721C105.704 23.6773 108.086 26.0324 111.024 26.0324Z" fill="url(#paint11_linear_50_1327)"/>
<path opacity="0.61" d="M106.638 18.8082C106.605 18.8082 106.568 18.7989 106.539 18.785C106.431 18.7293 106.385 18.5993 106.441 18.4879C107.319 16.7654 109.08 15.6929 111.029 15.6929C111.339 15.6929 111.653 15.7207 111.954 15.7764C112.076 15.7997 112.156 15.9111 112.132 16.0318C112.109 16.1525 111.991 16.2314 111.874 16.2082C111.597 16.1572 111.31 16.1339 111.029 16.1339C109.249 16.1339 107.643 17.1089 106.84 18.6829C106.798 18.7618 106.718 18.8082 106.638 18.8082Z" fill="white"/>
<path opacity="0.78" d="M115.529 21.9181C116.101 19.525 114.602 17.1269 112.181 16.5618C109.761 15.9967 107.336 17.4786 106.764 19.8718C106.192 22.2649 107.691 24.6631 110.112 25.2281C112.532 25.7932 114.958 24.3113 115.529 21.9181Z" fill="white"/>
<path d="M110.7 24.1986V23.7157C110.188 23.6971 109.686 23.5764 109.324 23.4232C109.197 23.3675 109.132 23.2236 109.169 23.0936L109.296 22.6432C109.343 22.4761 109.526 22.3925 109.686 22.4575C110.043 22.6061 110.479 22.7221 110.954 22.7221C111.447 22.7221 111.813 22.555 111.813 22.2207C111.813 21.9143 111.531 21.7332 110.846 21.5521C109.869 21.2875 109.169 20.8696 109.169 20.02C109.169 19.2539 109.737 18.6689 110.719 18.5111V18.0282C110.719 17.8704 110.846 17.745 111.005 17.745H111.292C111.451 17.745 111.578 17.8704 111.578 18.0282V18.4646C112.052 18.4832 112.395 18.5621 112.668 18.6596C112.808 18.7061 112.884 18.8593 112.846 18.9986L112.733 19.4164C112.691 19.5789 112.517 19.6671 112.358 19.6068C112.104 19.5139 111.752 19.4164 111.287 19.4164C110.705 19.4164 110.536 19.6532 110.536 19.8714C110.536 20.1361 110.888 20.3171 111.644 20.5493C112.729 20.8696 113.179 21.3154 113.179 22.1139C113.179 22.8475 112.63 23.5068 111.559 23.6739V24.2171C111.559 24.375 111.433 24.5004 111.273 24.5004H110.986C110.827 24.4818 110.7 24.3564 110.7 24.1986Z" fill="url(#paint12_linear_50_1327)"/>
<path d="M121.416 16.4124C124.689 16.4124 127.342 13.7891 127.342 10.5531C127.342 7.31714 124.689 4.69385 121.416 4.69385C118.143 4.69385 115.49 7.31714 115.49 10.5531C115.49 13.7891 118.143 16.4124 121.416 16.4124Z" fill="url(#paint13_linear_50_1327)"/>
<path d="M121.416 16.222C124.582 16.222 127.15 13.6839 127.15 10.5531C127.15 7.42222 124.582 4.88416 121.416 4.88416C118.249 4.88416 115.682 7.42222 115.682 10.5531C115.682 13.6839 118.249 16.222 121.416 16.222Z" fill="url(#paint14_linear_50_1327)"/>
<path opacity="0.61" d="M116.687 8.38024C116.659 8.38024 116.631 8.37559 116.603 8.36167C116.513 8.31524 116.476 8.20845 116.523 8.12024C117.462 6.28631 119.336 5.14417 121.411 5.14417C121.745 5.14417 122.073 5.17202 122.397 5.23238C122.496 5.25095 122.562 5.34381 122.543 5.44131C122.524 5.53881 122.43 5.60381 122.332 5.58524C122.031 5.52952 121.721 5.50166 121.411 5.50166C119.472 5.50166 117.725 6.56488 116.847 8.27809C116.819 8.34309 116.753 8.38024 116.687 8.38024Z" fill="white"/>
<path opacity="0.78" d="M121.538 15.4699C124.217 15.4699 126.389 13.3227 126.389 10.6739C126.389 8.02508 124.217 5.87781 121.538 5.87781C118.859 5.87781 116.687 8.02508 116.687 10.6739C116.687 13.3227 118.859 15.4699 121.538 15.4699Z" fill="white"/>
<path d="M121.064 14.2396V13.7195C120.514 13.6963 119.97 13.571 119.584 13.4038C119.448 13.3435 119.378 13.1903 119.415 13.0463L119.552 12.5588C119.599 12.3824 119.796 12.2896 119.97 12.3592C120.355 12.5171 120.824 12.6424 121.336 12.6424C121.867 12.6424 122.261 12.466 122.261 12.0992C122.261 11.7695 121.956 11.5746 121.219 11.3795C120.167 11.0963 119.415 10.6413 119.415 9.72669C119.415 8.90026 120.026 8.26884 121.087 8.10169V7.58169C121.087 7.41455 121.223 7.27991 121.392 7.27991H121.702C121.871 7.27991 122.008 7.41455 122.008 7.58169V8.05062C122.515 8.06919 122.886 8.15741 123.182 8.25955C123.332 8.31062 123.416 8.47312 123.374 8.62634L123.252 9.07669C123.205 9.24848 123.017 9.34598 122.848 9.28098C122.576 9.17884 122.195 9.07205 121.698 9.07205C121.068 9.07205 120.89 9.32741 120.89 9.55955C120.89 9.84276 121.266 10.0378 122.083 10.2885C123.252 10.6367 123.736 11.1149 123.736 11.9738C123.736 12.7631 123.144 13.4735 121.993 13.6499V14.2349C121.993 14.4021 121.857 14.5367 121.688 14.5367H121.378C121.2 14.546 121.064 14.4113 121.064 14.2396Z" fill="url(#paint15_linear_50_1327)"/>
<path d="M3.41448 127.26H13.9661L13.9661 108.531H3.41448L3.41448 127.26Z" fill="#424242"/>
<path d="M16.1452 127.258H26.6968L26.6968 100.334H16.1452L16.1452 127.258Z" fill="#424242"/>
<path d="M28.9007 127.262H39.4523L39.4523 95.3008H28.9007L28.9007 127.262Z" fill="#424242"/>
<path d="M41.7071 127.26H52.2587V100.777H41.7071V127.26Z" fill="#424242"/>
<path d="M54.7079 127.147H65.2595V91.4942H54.7079V127.147Z" fill="#424242"/>
<path d="M67.1823 127.427H77.7339V105.662H67.1823V127.427Z" fill="#424242"/>
<path d="M79.9996 127.447H90.5511V113.398H79.9996V127.447Z" fill="#424242"/>
<path d="M92.8683 127.352H103.42V96.7372H92.8683V127.352Z" fill="#424242"/>
<path d="M105.338 127.318H115.89V82.2543H105.338V127.318Z" fill="#424242"/>
<path d="M118.16 127.492H128.712V59.6223H118.16L118.16 127.492Z" fill="#424242"/>
<path d="M63.4317 31.3857C63.4176 31.186 63.2109 31.0189 62.8635 30.8796C63.2391 30.6753 63.4457 30.4571 63.4317 30.2389C63.38 29.5889 61.2903 29.2221 58.7687 29.4217C56.247 29.6214 54.2466 30.3132 54.2982 30.9678C54.3123 31.1675 54.5189 31.3346 54.8664 31.4739C54.4907 31.6782 54.2841 31.8964 54.2982 32.1146C54.3123 32.3142 54.5189 32.4814 54.8664 32.6207C54.4907 32.825 54.2841 33.0432 54.2982 33.2614C54.3123 33.461 54.5189 33.6282 54.8664 33.7675C54.4907 33.9717 54.2841 34.19 54.2982 34.4082C54.3217 34.696 54.7443 34.9282 55.4252 35.0814C55.4158 35.295 55.4205 35.5271 55.444 35.7871C55.5426 36.9896 56.9091 37.9275 58.717 37.9275C60.5249 37.9275 62.0886 36.6414 62.1074 35.4389C62.1121 35.1417 62.098 34.8817 62.0699 34.6542C62.9339 34.371 63.4598 34.0182 63.4317 33.6839C63.4176 33.4842 63.2109 33.3171 62.8635 33.1778C63.2391 32.9735 63.4457 32.7553 63.4317 32.5371C63.4176 32.3375 63.2109 32.1703 62.8635 32.031C63.2438 31.8221 63.4504 31.6039 63.4317 31.3857Z" fill="url(#paint16_linear_50_1327)"/>
<path d="M63.4317 31.3857C63.4176 31.186 63.2109 31.0189 62.8635 30.8796C63.2391 30.6753 63.4457 30.4571 63.4317 30.2389C63.38 29.5889 61.2903 29.2221 58.7687 29.4217C56.247 29.6214 54.2466 30.3132 54.2982 30.9678C54.3123 31.1675 54.5189 31.3346 54.8664 31.4739C54.4907 31.6782 54.2841 31.8964 54.2982 32.1146C54.3123 32.3142 54.5189 32.4814 54.8664 32.6207C54.4907 32.825 54.2841 33.0432 54.2982 33.2614C54.3123 33.461 54.5189 33.6282 54.8664 33.7675C54.4907 33.9717 54.2841 34.19 54.2982 34.4082C54.3217 34.696 54.7443 34.9282 55.4252 35.0814C55.4158 35.295 55.4205 35.5271 55.444 35.7871C55.5426 36.9896 56.9091 37.9275 58.717 37.9275C60.5249 37.9275 62.0886 36.6414 62.1074 35.4389C62.1121 35.1417 62.098 34.8817 62.0699 34.6542C62.9339 34.371 63.4598 34.0182 63.4317 33.6839C63.4176 33.4842 63.2109 33.3171 62.8635 33.1778C63.2391 32.9735 63.4457 32.7553 63.4317 32.5371C63.4176 32.3375 63.2109 32.1703 62.8635 32.031C63.2438 31.8221 63.4504 31.6039 63.4317 31.3857Z" fill="black"/>
<path d="M57.604 35.3414C56.8527 35.3414 56.1718 35.2856 55.6036 35.1789C55.5707 35.1742 55.5473 35.1417 55.5567 35.1092C55.5613 35.0767 55.5942 35.0535 55.6271 35.0628C56.5146 35.2299 57.698 35.2671 58.9611 35.1649C59.9942 35.0814 60.9616 34.9189 61.7552 34.6867C61.788 34.6774 61.8209 34.696 61.8303 34.7285C61.8397 34.761 61.8209 34.7935 61.7881 34.8028C60.9851 35.0349 60.0083 35.2021 58.9705 35.2856C58.4963 35.3228 58.0408 35.3414 57.604 35.3414Z" fill="white"/>
<path d="M57.6134 34.1946C56.6414 34.1946 55.7726 34.1064 55.1575 33.9299C55.1246 33.9206 55.1058 33.8881 55.1152 33.8556C55.1246 33.8231 55.1575 33.8046 55.1903 33.8139C56.0638 34.0599 57.4725 34.1342 58.9564 34.0181C60.4215 33.9021 61.7927 33.6049 62.6192 33.2289C62.6474 33.2149 62.6849 33.2289 62.699 33.2567C62.7131 33.2846 62.699 33.3217 62.6708 33.3356C61.835 33.7164 60.4497 34.0135 58.9705 34.1342C58.5056 34.176 58.0501 34.1946 57.6134 34.1946Z" fill="url(#paint17_linear_50_1327)"/>
<path d="M57.6134 34.1946C56.6414 34.1946 55.7726 34.1064 55.1575 33.9299C55.1246 33.9206 55.1058 33.8881 55.1152 33.8556C55.1246 33.8231 55.1575 33.8046 55.1903 33.8139C56.0638 34.0599 57.4725 34.1342 58.9564 34.0181C60.4215 33.9021 61.7927 33.6049 62.6192 33.2289C62.6474 33.2149 62.6849 33.2289 62.699 33.2567C62.7131 33.2846 62.699 33.3217 62.6708 33.3356C61.835 33.7164 60.4497 34.0135 58.9705 34.1342C58.5056 34.176 58.0501 34.1946 57.6134 34.1946Z" fill="white"/>
<path d="M57.604 33.0477C56.5522 33.0477 55.6318 32.9409 55.0166 32.7413C54.9837 32.732 54.9697 32.6949 54.9791 32.667C54.9884 32.6345 55.0213 32.6206 55.0542 32.6299C55.9135 32.9084 57.3739 33.0013 58.9611 32.8759C60.4262 32.7599 61.7974 32.4627 62.6239 32.0866C62.6521 32.0727 62.6896 32.0866 62.7037 32.1145C62.7178 32.1424 62.7037 32.1795 62.6756 32.1934C61.8397 32.5741 60.4544 32.8759 58.9752 32.992C58.4962 33.0291 58.0407 33.0477 57.604 33.0477Z" fill="url(#paint18_linear_50_1327)"/>
<path d="M57.604 33.0477C56.5522 33.0477 55.6318 32.9409 55.0166 32.7413C54.9837 32.732 54.9697 32.6949 54.9791 32.667C54.9884 32.6345 55.0213 32.6206 55.0542 32.6299C55.9135 32.9084 57.3739 33.0013 58.9611 32.8759C60.4262 32.7599 61.7974 32.4627 62.6239 32.0866C62.6521 32.0727 62.6896 32.0866 62.7037 32.1145C62.7178 32.1424 62.7037 32.1795 62.6756 32.1934C61.8397 32.5741 60.4544 32.8759 58.9752 32.992C58.4962 33.0291 58.0407 33.0477 57.604 33.0477Z" fill="white"/>
<path d="M57.6134 31.901C56.7822 31.901 56.0215 31.836 55.4345 31.706C55.4016 31.6967 55.3829 31.6688 55.3876 31.6363C55.3969 31.6038 55.4251 31.5853 55.458 31.5899C56.3455 31.7849 57.6181 31.836 58.9611 31.7292C60.4168 31.6131 61.7786 31.3206 62.6051 30.9492C62.6333 30.9353 62.6708 30.9492 62.6849 30.977C62.699 31.0049 62.6849 31.042 62.6567 31.056C61.8162 31.432 60.4403 31.7292 58.9752 31.8453C58.5056 31.8824 58.0454 31.901 57.6134 31.901Z" fill="url(#paint19_linear_50_1327)"/>
<path d="M57.6134 31.901C56.7822 31.901 56.0215 31.836 55.4345 31.706C55.4016 31.6967 55.3829 31.6688 55.3876 31.6363C55.3969 31.6038 55.4251 31.5853 55.458 31.5899C56.3455 31.7849 57.6181 31.836 58.9611 31.7292C60.4168 31.6131 61.7786 31.3206 62.6051 30.9492C62.6333 30.9353 62.6708 30.9492 62.6849 30.977C62.699 31.0049 62.6849 31.042 62.6567 31.056C61.8162 31.432 60.4403 31.7292 58.9752 31.8453C58.5056 31.8824 58.0454 31.901 57.6134 31.901Z" fill="white"/>
<path d="M52.6077 25.6053C52.3024 24.5328 51.7812 23.5299 51.0815 22.6571C49.5788 20.786 47.1323 16.9835 46.8271 11.7881C46.3903 4.2342 53.1665 0.454916 59.3462 0.965631C65.5306 1.48099 71.6306 6.03099 70.959 13.0556C70.5458 17.3781 68.0993 20.6606 66.2773 22.541C65.1221 23.7388 64.2956 25.2013 63.8495 26.7985C63.3048 28.7485 61.9994 31.1813 58.9095 31.3299C54.9086 31.5249 53.2463 27.8338 52.6077 25.6053Z" fill="url(#paint20_linear_50_1327)"/>
<path d="M59.9332 29.8257L62.098 15.9157C62.1449 15.6278 62.2858 15.4375 62.4173 15.4839C62.5488 15.535 62.6192 15.8043 62.5769 16.0921C62.5769 16.1014 62.5722 16.1107 62.5722 16.1153L60.1022 29.9C60.0834 30.0021 60.0318 30.0671 59.9848 30.0439C59.9379 30.0253 59.9191 29.9278 59.9332 29.8257Z" fill="url(#paint21_linear_50_1327)"/>
<path d="M57.6886 29.937L55.5238 16.027C55.4769 15.7392 55.336 15.5488 55.2045 15.5952C55.073 15.6463 55.0026 15.9156 55.0448 16.2034C55.0448 16.2127 55.0495 16.222 55.0495 16.2267L57.5149 30.0067C57.5337 30.1088 57.5853 30.1738 57.6323 30.1506C57.6792 30.1367 57.7027 30.0392 57.6886 29.937Z" fill="url(#paint22_linear_50_1327)"/>
<path opacity="0.61" d="M62.0792 14.7224C62.0229 14.6342 61.8961 14.6017 61.7975 14.6481L60.5906 15.2052L60.1727 14.0259C60.1492 13.9656 60.0976 13.9099 60.0271 13.882C59.8863 13.8263 59.7219 13.8774 59.6562 13.9934V13.9981L58.6653 15.7856L57.7449 13.2413V13.2367C57.7215 13.1763 57.6745 13.1206 57.6041 13.0834C57.4491 12.9999 57.2472 13.0417 57.1486 13.1717L55.7633 15.0566C55.7069 15.1356 55.7257 15.2377 55.8102 15.2934C55.8995 15.3538 56.0357 15.3399 56.1061 15.2609L57.327 13.9145L58.4258 16.3334C58.4446 16.3706 58.4775 16.4077 58.5245 16.4263C58.6278 16.4727 58.7545 16.4402 58.8109 16.352L59.8722 14.6713L60.2713 15.5209L60.276 15.5302C60.2807 15.5349 60.2807 15.5441 60.2854 15.5488C60.3417 15.637 60.4685 15.6695 60.5671 15.6231L61.9947 14.9638C62.098 14.9174 62.1356 14.8106 62.0792 14.7224Z" fill="white"/>
<path opacity="0.61" d="M66.3289 20.7488C66.2726 20.7488 66.2162 20.7302 66.1646 20.6931C66.0425 20.6049 66.019 20.4331 66.1082 20.3124C66.4745 19.8202 66.8126 19.3141 67.1131 18.8034C67.1882 18.6734 67.3573 18.627 67.4888 18.7059C67.6203 18.7802 67.6672 18.9474 67.5874 19.0774C67.2775 19.6066 66.93 20.1313 66.5496 20.6374C66.4933 20.7116 66.4134 20.7488 66.3289 20.7488Z" fill="white"/>
<path opacity="0.61" d="M68.1087 17.731C68.0711 17.731 68.0335 17.7217 68.0007 17.7078C67.8598 17.6474 67.7987 17.4896 67.8598 17.3503C70.1467 12.1456 68.1744 7.77671 68.1556 7.73492C68.0946 7.60028 68.1509 7.43778 68.2918 7.37278C68.428 7.31242 68.5923 7.36813 68.6581 7.50742C68.7426 7.69313 70.7524 12.141 68.3669 17.5685C68.3153 17.6706 68.212 17.731 68.1087 17.731Z" fill="white"/>
<path d="M51.0626 71.5278C51.0626 71.5278 54.7723 79.9964 57.0592 78.8682C59.3414 77.74 61.0554 68.4264 61.0554 68.4264C61.0554 68.4264 53.9177 66.7318 51.0626 71.5278Z" fill="url(#paint23_linear_50_1327)"/>
<path d="M63.9857 124.071C63.9857 124.071 64.2956 125.807 64.4459 127.525C64.5069 128.199 63.981 128.779 63.3001 128.807C60.985 128.904 56.0309 129.085 54.2559 129.011C53.9882 128.997 53.8145 128.728 53.9131 128.482C53.9976 128.277 54.1573 128.11 54.3592 128.017L62.5394 124.299L63.9857 124.071Z" fill="url(#paint24_linear_50_1327)"/>
<path d="M63.9857 124.071C63.9857 124.071 64.2956 125.807 64.4459 127.525C64.5069 128.199 63.981 128.779 63.3001 128.807C60.985 128.904 56.0309 129.085 54.2559 129.011C53.9882 128.997 53.8145 128.728 53.9131 128.482C53.9976 128.277 54.1573 128.11 54.3592 128.017L62.5394 124.299L63.9857 124.071Z" fill="black"/>
<path d="M64.2392 123.054L63.9903 125.13C63.9903 125.13 62.5581 125.789 61.5767 125.046L62.1683 122.729L64.2392 123.054Z" fill="url(#paint25_linear_50_1327)"/>
<path d="M64.0514 84.0032C64.1594 84.5464 64.6289 111.071 61.7598 122.957C61.7128 123.152 61.8114 123.351 61.9993 123.426C62.4407 123.602 63.3 123.862 64.3331 123.895C64.6524 123.904 64.9389 123.7 65.0281 123.398C65.8499 120.64 69.7756 106.823 70.2875 93.6232C70.8603 78.8728 70.2875 93.1217 70.2875 93.1217L69.9493 84.0032H64.0514Z" fill="url(#paint26_linear_50_1327)"/>
<path d="M64.0514 84.0032C64.1594 84.5464 64.6289 111.071 61.7598 122.957C61.7128 123.152 61.8114 123.351 61.9993 123.426C62.4407 123.602 63.3 123.862 64.3331 123.895C64.6524 123.904 64.9389 123.7 65.0281 123.398C65.8499 120.64 69.7756 106.823 70.2875 93.6232C70.8603 78.8728 70.2875 93.1217 70.2875 93.1217L69.9493 84.0032H64.0514Z" fill="black"/>
<path d="M73.3961 124.976C73.3961 124.976 73.8892 125.854 74.3681 128.185C74.4527 128.607 74.1568 129.006 73.7248 129.048C72.9594 129.123 71.7854 129.22 70.8415 129.211C70.4048 129.206 70.0667 128.835 70.1184 128.408C70.2217 127.558 70.5504 126.16 71.5553 125.074L73.3961 124.976Z" fill="url(#paint27_linear_50_1327)"/>
<path d="M73.3961 124.976C73.3961 124.976 73.8892 125.854 74.3681 128.185C74.4527 128.607 74.1568 129.006 73.7248 129.048C72.9594 129.123 71.7854 129.22 70.8415 129.211C70.4048 129.206 70.0667 128.835 70.1184 128.408C70.2217 127.558 70.5504 126.16 71.5553 125.074L73.3961 124.976Z" fill="black"/>
<path d="M73.8281 122.307L73.2458 125.45C73.2458 125.45 72.6683 125.872 71.5319 125.566L71.8089 122.186L73.8281 122.307Z" fill="url(#paint28_linear_50_1327)"/>
<path d="M75.4013 84.8157C77.7445 98.8092 74.8941 119.405 73.9315 123.435C73.8704 123.681 73.6732 123.871 73.4196 123.913C72.9923 123.983 72.2832 124.043 71.5835 123.839C71.344 123.769 71.175 123.556 71.1656 123.31C71.0341 120.05 71.2689 100.044 69.0853 92.1374C68.9726 91.7382 68.7285 91.3853 68.3857 91.1485L64.1453 88.1678L63.8213 83.3485L75.4013 84.8157Z" fill="url(#paint29_linear_50_1327)"/>
<path d="M75.4013 84.8157C77.7445 98.8092 74.8941 119.405 73.9315 123.435C73.8704 123.681 73.6732 123.871 73.4196 123.913C72.9923 123.983 72.2832 124.043 71.5835 123.839C71.344 123.769 71.175 123.556 71.1656 123.31C71.0341 120.05 71.2689 100.044 69.0853 92.1374C68.9726 91.7382 68.7285 91.3853 68.3857 91.1485L64.1453 88.1678L63.8213 83.3485L75.4013 84.8157Z" fill="black"/>
<path d="M60.2007 58.8296C68.766 57.9846 75.2415 60.1249 75.2415 60.1249C77.3359 72.2103 75.6078 86.1528 75.6078 86.1528C70.1653 87.5642 64.0278 85.2892 64.0278 85.2892C63.1215 80.2378 58.9047 66.0167 58.9047 66.0167C55.472 65.5988 58.0406 59.0431 60.2007 58.8296Z" fill="url(#paint30_linear_50_1327)"/>
<path d="M60.2007 58.8296C68.766 57.9846 75.2415 60.1249 75.2415 60.1249C77.3359 72.2103 75.6078 86.1528 75.6078 86.1528C70.1653 87.5642 64.0278 85.2892 64.0278 85.2892C63.1215 80.2378 58.9047 66.0167 58.9047 66.0167C55.472 65.5988 58.0406 59.0431 60.2007 58.8296Z" fill="black"/>
<path d="M60.2007 58.8296C68.766 57.9846 75.2415 60.1249 75.2415 60.1249C77.3359 72.2103 75.6078 86.1528 75.6078 86.1528C70.1653 87.5642 64.0278 85.2892 64.0278 85.2892C63.1215 80.2378 58.9047 66.0167 58.9047 66.0167C55.472 65.5988 58.0406 59.0431 60.2007 58.8296Z" fill="#2B2B2B"/>
<path d="M72.5461 66.8525L75.2416 60.125C75.2416 60.125 81.8064 64.5357 82.8864 70.1257C81.6467 70.2139 79.388 70.5343 77.1809 71.6393C76.6926 68.9975 72.5461 66.8525 72.5461 66.8525Z" fill="url(#paint31_linear_50_1327)"/>
<path d="M72.5461 66.8525L75.2416 60.125C75.2416 60.125 81.8064 64.5357 82.8864 70.1257C81.6467 70.2139 79.388 70.5343 77.1809 71.6393C76.6926 68.9975 72.5461 66.8525 72.5461 66.8525Z" fill="black"/>
<path d="M72.5461 66.8525L75.2416 60.125C75.2416 60.125 81.8064 64.5357 82.8864 70.1257C81.6467 70.2139 79.388 70.5343 77.1809 71.6393C76.6926 68.9975 72.5461 66.8525 72.5461 66.8525Z" fill="#2B2B2B"/>
<path d="M66.2396 73.1853C66.2396 73.1853 73.6121 77.3035 76.0962 73.7888C76.6128 73.0599 76.7348 72.331 76.6081 71.6392C78.8198 70.5342 81.0738 70.2185 82.3135 70.1256C82.6375 71.811 82.4685 73.6031 81.4636 75.4185C77.1058 83.2974 65.2582 74.982 65.2582 74.982L66.2396 73.1853Z" fill="url(#paint32_linear_50_1327)"/>
<path d="M67.1225 78.3947L63.0981 64.5032C63.0512 64.3454 62.915 64.2293 62.7506 64.2107C62.0228 64.1272 59.9096 63.8904 57.4725 63.6861C54.5329 63.44 51.1237 63.2404 49.0857 63.4122C48.7946 63.4354 48.6208 63.7372 48.7476 63.9972C49.9075 66.3139 54.6738 75.7482 57.0639 78.8357C57.1438 78.9379 57.2659 78.9982 57.3974 78.9982L66.7327 78.9147C67.0051 78.91 67.1976 78.6547 67.1225 78.3947Z" fill="#7B7B7B"/>
<path d="M57.0593 62.4836L54.1431 62.0053C53.9882 61.9775 53.8614 62.1261 53.9083 62.2746L54.1948 63.1382C54.2183 63.2125 54.284 63.2682 54.3638 63.2775L57.172 63.6489C57.3175 63.6675 57.4349 63.5375 57.4021 63.3982L57.2236 62.6414C57.2095 62.5625 57.1391 62.4975 57.0593 62.4836Z" fill="#4D4D4D"/>
<path d="M59.2428 64.9257L59.0033 63.686C58.9799 63.5607 58.8766 63.4678 58.7498 63.4539L52.8612 62.8643C52.6639 62.8457 52.5043 63.0221 52.5512 63.2171L52.9269 64.7585C52.9551 64.8839 53.0678 64.9721 53.1946 64.9768L58.9517 65.2646C59.1301 65.2739 59.2757 65.1068 59.2428 64.9257Z" fill="#4D4D4D"/>
<path d="M66.1504 75.0379C66.1504 75.0379 66.7092 72.7582 66.4838 71.9504C66.2584 71.1425 65.8217 70.1025 64.3613 70.3347C62.9009 70.5668 61.1775 71.175 61.1775 71.175C61.1775 71.175 61.2667 72.2289 62.3749 71.89L61.6846 72.4147C61.6846 72.4147 61.7833 73.2597 62.7224 72.8093L62.0838 73.5057C62.0838 73.5057 62.4876 74.1975 63.1779 73.7518C63.8635 73.3107 64.1969 75.3164 66.1504 75.0379Z" fill="url(#paint33_linear_50_1327)"/>
<path d="M51.1942 71.6486C51.1942 71.6486 49.4943 70.0143 49.2548 69.2111C49.0106 68.4079 48.8228 67.2983 50.1846 66.7272C51.5464 66.1561 53.3308 65.7661 53.3308 65.7661C53.3308 65.7661 53.8239 66.704 52.7015 66.9965L53.5656 67.08C53.5656 67.08 53.9366 67.8461 52.8988 67.9575L53.8145 68.2129C53.8145 68.2129 53.8473 69.0115 53.0209 68.9975C52.2038 68.9836 52.9974 70.8547 51.1942 71.6486Z" fill="url(#paint34_linear_50_1327)"/>
<path d="M66.7187 53.1838L68.9539 59.577C68.9915 59.6838 68.9492 59.7999 68.8459 59.8556C68.2354 60.1899 66.0378 61.151 63.394 59.4935C63.117 59.3217 62.9291 59.0385 62.8869 58.7181L62.1637 53.1838H66.7187Z" fill="url(#paint35_linear_50_1327)"/>
<path d="M61.8537 47.2596C61.8537 47.2596 59.3978 51.8282 59.7124 53.6761C60.027 55.5239 63.0699 55.3893 65.7278 53.8896L67.5874 48.9543L61.8537 47.2596Z" fill="url(#paint36_linear_50_1327)"/>
<path d="M65.6104 51.4707C65.5024 51.4242 65.4648 51.2942 65.5259 51.1967C65.7231 50.8996 66.0894 50.2914 66.2068 49.7621C66.2068 49.7621 66.6482 49.4835 65.0845 49.1121C63.5207 48.7407 61.1869 48.1649 60.6938 46.851C60.2149 45.5649 61.4733 42.3382 63.4785 44.9103C63.5536 45.0078 63.7039 45.0124 63.779 44.9103C64.1077 44.4878 64.9718 43.6103 66.1739 44.1396C67.2962 44.6364 67.423 45.4489 67.4089 45.8621C67.4042 45.9828 67.5122 46.0757 67.6343 46.0524C68.2025 45.9457 69.5643 45.8528 70.1982 47.2364C70.7242 48.3739 70.3814 49.0192 70.0715 49.3349C69.9728 49.4371 70.0151 49.6042 70.1513 49.646C70.5223 49.7574 71.0059 50.0732 70.959 50.9367C70.8932 52.1299 69.5408 52.0278 69.1558 51.9721C69.0947 51.9628 69.029 51.986 68.9867 52.0324C68.658 52.3946 67.1694 53.9267 65.5634 54.1124C65.4226 54.1264 65.3146 53.9917 65.3615 53.8617L66.0565 51.8607C66.0894 51.7678 66.0424 51.6657 65.9532 51.6239L65.6104 51.4707Z" fill="url(#paint37_linear_50_1327)"/>
<path d="M65.6104 51.4707C65.5024 51.4242 65.4648 51.2942 65.5259 51.1967C65.7231 50.8996 66.0894 50.2914 66.2068 49.7621C66.2068 49.7621 66.6482 49.4835 65.0845 49.1121C63.5207 48.7407 61.1869 48.1649 60.6938 46.851C60.2149 45.5649 61.4733 42.3382 63.4785 44.9103C63.5536 45.0078 63.7039 45.0124 63.779 44.9103C64.1077 44.4878 64.9718 43.6103 66.1739 44.1396C67.2962 44.6364 67.423 45.4489 67.4089 45.8621C67.4042 45.9828 67.5122 46.0757 67.6343 46.0524C68.2025 45.9457 69.5643 45.8528 70.1982 47.2364C70.7242 48.3739 70.3814 49.0192 70.0715 49.3349C69.9728 49.4371 70.0151 49.6042 70.1513 49.646C70.5223 49.7574 71.0059 50.0732 70.959 50.9367C70.8932 52.1299 69.5408 52.0278 69.1558 51.9721C69.0947 51.9628 69.029 51.986 68.9867 52.0324C68.658 52.3946 67.1694 53.9267 65.5634 54.1124C65.4226 54.1264 65.3146 53.9917 65.3615 53.8617L66.0565 51.8607C66.0894 51.7678 66.0424 51.6657 65.9532 51.6239L65.6104 51.4707Z" fill="url(#paint38_linear_50_1327)"/>
<path d="M65.6104 51.4707C65.5024 51.4242 65.4648 51.2942 65.5259 51.1967C65.7231 50.8996 66.0894 50.2914 66.2068 49.7621C66.2068 49.7621 66.6482 49.4835 65.0845 49.1121C63.5207 48.7407 61.1869 48.1649 60.6938 46.851C60.2149 45.5649 61.4733 42.3382 63.4785 44.9103C63.5536 45.0078 63.7039 45.0124 63.779 44.9103C64.1077 44.4878 64.9718 43.6103 66.1739 44.1396C67.2962 44.6364 67.423 45.4489 67.4089 45.8621C67.4042 45.9828 67.5122 46.0757 67.6343 46.0524C68.2025 45.9457 69.5643 45.8528 70.1982 47.2364C70.7242 48.3739 70.3814 49.0192 70.0715 49.3349C69.9728 49.4371 70.0151 49.6042 70.1513 49.646C70.5223 49.7574 71.0059 50.0732 70.959 50.9367C70.8932 52.1299 69.5408 52.0278 69.1558 51.9721C69.0947 51.9628 69.029 51.986 68.9867 52.0324C68.658 52.3946 67.1694 53.9267 65.5634 54.1124C65.4226 54.1264 65.3146 53.9917 65.3615 53.8617L66.0565 51.8607C66.0894 51.7678 66.0424 51.6657 65.9532 51.6239L65.6104 51.4707Z" fill="url(#paint39_linear_50_1327)"/>
<path d="M65.3334 51.7538C65.3334 51.7538 67.0802 50.5699 67.2117 51.5681C67.3385 52.5663 65.6386 53.0167 64.7933 52.6406L65.3334 51.7538Z" fill="url(#paint40_linear_50_1327)"/>
<path d="M16.966 79.2211C16.0926 80.145 14.806 80.9389 13.8997 81.4357C15.2521 83.0886 17.0834 84.7414 19.5018 86.3618L20.1968 87.8986L22.4179 85.2661C22.4179 85.2661 18.4312 83.3068 16.966 79.2211Z" fill="url(#paint41_linear_50_1327)"/>
<path d="M28.8514 129.132C28.8514 129.085 28.8467 129.039 28.8373 128.988C28.1188 126.17 24.55 124.41 24.55 124.41L23.1365 124.521C22.3241 127.005 22.4274 128.533 22.5589 129.211C22.5636 129.229 22.5683 129.248 22.573 129.266C23.7329 129.373 26.1372 129.438 28.8514 129.132Z" fill="url(#paint42_linear_50_1327)"/>
<path d="M28.8514 129.132C28.8514 129.085 28.8467 129.039 28.8373 128.988C28.1188 126.17 24.55 124.41 24.55 124.41L23.1365 124.521C22.3241 127.005 22.4274 128.533 22.5589 129.211C22.5636 129.229 22.5683 129.248 22.573 129.266C23.7329 129.373 26.1372 129.438 28.8514 129.132Z" fill="black"/>
<path d="M22.5682 129.266C22.6293 129.494 22.7983 129.67 23.019 129.717C24.6814 130.06 27.3157 129.786 28.424 129.643C28.6682 129.61 28.8466 129.387 28.8513 129.136C26.1371 129.438 23.7328 129.373 22.5682 129.266Z" fill="url(#paint43_linear_50_1327)"/>
<path d="M22.5682 129.266C22.6293 129.494 22.7983 129.67 23.019 129.717C24.6814 130.06 27.3157 129.786 28.424 129.643C28.6682 129.61 28.8466 129.387 28.8513 129.136C26.1371 129.438 23.7328 129.373 22.5682 129.266Z" fill="black"/>
<path d="M22.5636 122.441L23.1647 125.292C23.2069 125.501 23.3713 125.659 23.5685 125.677C23.808 125.701 24.1508 125.715 24.4983 125.664C24.8082 125.617 25.0242 125.306 24.9679 124.976L24.5499 122.446H22.5636V122.441Z" fill="url(#paint44_linear_50_1327)"/>
<path d="M34.9794 129.239C33.4157 129.197 32.608 129.011 32.1901 128.844C32.1901 128.997 32.1901 129.155 32.1948 129.318C32.1995 129.489 32.3309 129.629 32.4906 129.629L41.0699 129.573C41.3423 129.573 41.5019 129.257 41.3845 129.011C40.2575 129.099 37.3931 129.308 34.9794 129.239Z" fill="url(#paint45_linear_50_1327)"/>
<path d="M34.9794 129.239C33.4157 129.197 32.608 129.011 32.1901 128.844C32.1901 128.997 32.1901 129.155 32.1948 129.318C32.1995 129.489 32.3309 129.629 32.4906 129.629L41.0699 129.573C41.3423 129.573 41.5019 129.257 41.3845 129.011C40.2575 129.099 37.3931 129.308 34.9794 129.239Z" fill="black"/>
<path d="M41.3845 129.011C41.3752 128.988 41.3658 128.969 41.3517 128.946C40.5956 127.901 38.6656 125.817 34.8526 124.911L33.0212 124.856C33.0212 124.856 32.2088 126.253 32.1901 128.849C32.608 129.016 33.4157 129.201 34.9794 129.243C37.3931 129.308 40.2575 129.099 41.3845 129.011Z" fill="url(#paint46_linear_50_1327)"/>
<path d="M41.3845 129.011C41.3752 128.988 41.3658 128.969 41.3517 128.946C40.5956 127.901 38.6656 125.817 34.8526 124.911L33.0212 124.856C33.0212 124.856 32.2088 126.253 32.1901 128.849C32.608 129.016 33.4157 129.201 34.9794 129.243C37.3931 129.308 40.2575 129.099 41.3845 129.011Z" fill="black"/>
<path d="M32.6785 122.112C32.6973 122.246 32.9508 124.294 33.0447 125.088C33.0682 125.278 33.2044 125.422 33.3781 125.445C33.6881 125.483 34.1952 125.515 34.6366 125.427C34.8761 125.38 35.0452 125.153 35.0452 124.888V121.671L32.6785 122.112Z" fill="url(#paint47_linear_50_1327)"/>
<path d="M31.2133 84.7183C31.2133 84.7183 35.6274 101.298 35.5476 122.158C35.5476 122.539 35.2752 122.869 34.8995 122.948C34.3454 123.064 33.5283 123.198 32.8521 123.18C32.4906 123.17 32.19 122.906 32.129 122.553C31.5091 118.964 27.9591 98.7583 25.9352 95.4804C25.9352 95.4804 24.6062 113.476 25.0289 122.813C25.0382 123.045 24.8692 123.245 24.6344 123.273C24.2822 123.314 23.714 123.342 22.9909 123.268C22.7185 123.24 22.4978 123.036 22.4555 122.766C22.0141 119.73 19.4784 101.66 19.5864 88.6461C19.5911 87.9126 21.5492 84.7183 21.5492 84.7183H31.2133Z" fill="url(#paint48_linear_50_1327)"/>
<path d="M31.2133 84.7183C31.2133 84.7183 35.6274 101.298 35.5476 122.158C35.5476 122.539 35.2752 122.869 34.8995 122.948C34.3454 123.064 33.5283 123.198 32.8521 123.18C32.4906 123.17 32.19 122.906 32.129 122.553C31.5091 118.964 27.9591 98.7583 25.9352 95.4804C25.9352 95.4804 24.6062 113.476 25.0289 122.813C25.0382 123.045 24.8692 123.245 24.6344 123.273C24.2822 123.314 23.714 123.342 22.9909 123.268C22.7185 123.24 22.4978 123.036 22.4555 122.766C22.0141 119.73 19.4784 101.66 19.5864 88.6461C19.5911 87.9126 21.5492 84.7183 21.5492 84.7183H31.2133Z" fill="black"/>
<path d="M37.3461 64.6565C36.6323 63.7697 36.0031 62.8179 35.4771 61.8382C34.7446 60.4686 35.4161 62.725 35.2189 61.179C29.7294 57.265 21.4647 59.2475 18.2715 59.6422C17.2244 59.7722 16.2664 60.2829 15.5761 61.0722C12.8337 64.2107 6.82305 72.7907 13.8997 81.4357C14.806 80.939 16.0927 80.1404 16.9661 79.2211C16.1819 77.039 16.1208 74.2532 17.7597 70.8315C17.816 71.1007 17.8865 71.37 17.971 71.6347C20.2297 78.715 20.3518 84.6115 20.3471 85.9672C20.3471 86.1529 20.4598 86.3154 20.6336 86.385C23.6107 87.5643 29.335 86.8632 31.2603 86.58C31.6125 86.529 31.852 86.204 31.8003 85.8557C30.8564 79.0957 35.6979 67.9761 36.9798 65.1904C37.069 64.9907 37.1958 64.8097 37.3461 64.6565Z" fill="#2B2B2B"/>
<path d="M23.4135 53.95L22.8406 59.7443C22.8406 59.7443 26.1371 60.7239 28.5319 59.0525L26.8461 53.7875L23.4135 53.95Z" fill="url(#paint49_linear_50_1327)"/>
<path d="M27.2406 47.3478C27.3204 47.4221 30.5887 53.7689 30.5887 53.7689L26.8837 55.5378L22.8828 49.9757C22.8828 49.9757 25.9116 46.1128 27.2406 47.3478Z" fill="url(#paint50_linear_50_1327)"/>
<path d="M24.5217 50.1289C24.456 50.2961 24.4701 50.4864 24.564 50.6443L26.4094 53.69C26.4376 53.7364 26.4705 53.7782 26.5128 53.8154C26.7335 54.0197 27.4848 54.6047 28.0671 53.8061C28.5648 53.1236 29.0297 52.5014 29.5275 52.2461C29.8186 52.0975 30.1755 52.2182 30.3258 52.5061C30.631 53.1004 31.218 54.3168 31.589 55.4729C31.6829 55.7607 31.5326 56.0718 31.2462 56.1879C30.4948 56.4897 29.0156 57.0329 27.6961 57.2093C27.4801 57.2372 27.2641 57.1489 27.1373 56.9725C26.5691 56.2064 24.9772 54.0614 24.4325 53.5275C23.9253 53.0307 22.9909 53.2164 22.5729 53.3372C22.4133 53.3836 22.2442 53.3604 22.0986 53.2768C21.6713 53.0214 20.9247 52.39 21.6103 51.3175C21.7793 51.0529 21.6948 50.6954 21.4271 50.5236C20.9529 50.2125 20.4316 49.6322 20.9247 48.6897C21.4224 47.7379 22.3147 47.6497 22.9204 47.7239C23.1881 47.7564 23.4604 47.6172 23.5638 47.3711C23.6107 47.2597 23.6999 47.1668 23.869 47.1343C24.1883 47.0693 24.3949 46.7814 24.3339 46.4704C24.2259 45.9318 24.3057 45.2307 25.1791 44.7572C26.7757 43.8889 28.1798 45.305 28.532 46.4982C28.8889 47.6914 27.0997 48.5364 25.9774 48.6804C25.1557 48.7732 24.7002 49.6647 24.5217 50.1289Z" fill="url(#paint51_linear_50_1327)"/>
<path d="M24.5217 50.1289C24.456 50.2961 24.4701 50.4864 24.564 50.6443L26.4094 53.69C26.4376 53.7364 26.4705 53.7782 26.5128 53.8154C26.7335 54.0197 27.4848 54.6047 28.0671 53.8061C28.5648 53.1236 29.0297 52.5014 29.5275 52.2461C29.8186 52.0975 30.1755 52.2182 30.3258 52.5061C30.631 53.1004 31.218 54.3168 31.589 55.4729C31.6829 55.7607 31.5326 56.0718 31.2462 56.1879C30.4948 56.4897 29.0156 57.0329 27.6961 57.2093C27.4801 57.2372 27.2641 57.1489 27.1373 56.9725C26.5691 56.2064 24.9772 54.0614 24.4325 53.5275C23.9253 53.0307 22.9909 53.2164 22.5729 53.3372C22.4133 53.3836 22.2442 53.3604 22.0986 53.2768C21.6713 53.0214 20.9247 52.39 21.6103 51.3175C21.7793 51.0529 21.6948 50.6954 21.4271 50.5236C20.9529 50.2125 20.4316 49.6322 20.9247 48.6897C21.4224 47.7379 22.3147 47.6497 22.9204 47.7239C23.1881 47.7564 23.4604 47.6172 23.5638 47.3711C23.6107 47.2597 23.6999 47.1668 23.869 47.1343C24.1883 47.0693 24.3949 46.7814 24.3339 46.4704C24.2259 45.9318 24.3057 45.2307 25.1791 44.7572C26.7757 43.8889 28.1798 45.305 28.532 46.4982C28.8889 47.6914 27.0997 48.5364 25.9774 48.6804C25.1557 48.7732 24.7002 49.6647 24.5217 50.1289Z" fill="url(#paint52_linear_50_1327)"/>
<path d="M24.5217 50.1289C24.456 50.2961 24.4701 50.4864 24.564 50.6443L26.4094 53.69C26.4376 53.7364 26.4705 53.7782 26.5128 53.8154C26.7335 54.0197 27.4848 54.6047 28.0671 53.8061C28.5648 53.1236 29.0297 52.5014 29.5275 52.2461C29.8186 52.0975 30.1755 52.2182 30.3258 52.5061C30.631 53.1004 31.218 54.3168 31.589 55.4729C31.6829 55.7607 31.5326 56.0718 31.2462 56.1879C30.4948 56.4897 29.0156 57.0329 27.6961 57.2093C27.4801 57.2372 27.2641 57.1489 27.1373 56.9725C26.5691 56.2064 24.9772 54.0614 24.4325 53.5275C23.9253 53.0307 22.9909 53.2164 22.5729 53.3372C22.4133 53.3836 22.2442 53.3604 22.0986 53.2768C21.6713 53.0214 20.9247 52.39 21.6103 51.3175C21.7793 51.0529 21.6948 50.6954 21.4271 50.5236C20.9529 50.2125 20.4316 49.6322 20.9247 48.6897C21.4224 47.7379 22.3147 47.6497 22.9204 47.7239C23.1881 47.7564 23.4604 47.6172 23.5638 47.3711C23.6107 47.2597 23.6999 47.1668 23.869 47.1343C24.1883 47.0693 24.3949 46.7814 24.3339 46.4704C24.2259 45.9318 24.3057 45.2307 25.1791 44.7572C26.7757 43.8889 28.1798 45.305 28.532 46.4982C28.8889 47.6914 27.0997 48.5364 25.9774 48.6804C25.1557 48.7732 24.7002 49.6647 24.5217 50.1289Z" fill="url(#paint53_linear_50_1327)"/>
<path d="M25.1275 54.6418C25.1275 54.6418 24.4184 52.585 23.5074 52.6593C22.5964 52.7336 21.8827 53.6297 23.0097 54.6372C24.4137 55.8954 25.1275 54.6418 25.1275 54.6418Z" fill="url(#paint54_linear_50_1327)"/>
<path d="M17.4592 70.3021C16.2617 67.0568 16.6938 63.1382 16.6984 63.1011L17.0272 63.1382C17.0225 63.1754 16.5951 67.0196 17.7691 70.1907L17.4592 70.3021Z" fill="#202020"/>
<path d="M25.7755 95.0579C25.7004 95.0579 25.6347 95.0068 25.6159 94.9325C25.2496 93.535 22.5119 92.0029 22.4837 91.989C22.4039 91.9425 22.3757 91.845 22.418 91.7661C22.465 91.6872 22.5636 91.6593 22.6434 91.7011C22.7608 91.7661 25.536 93.3168 25.9352 94.849C25.9587 94.9372 25.907 95.0254 25.8178 95.0486C25.8037 95.0579 25.7896 95.0579 25.7755 95.0579Z" fill="#171717"/>
<path d="M48.4894 66.4765C42.2815 67.3958 38.2384 63.5236 35.2236 61.1743C31.2415 58.0729 28.147 59.5818 28.147 59.5818L32.392 67.5908C38.7314 73.5011 45.2305 72.1872 49.3253 70.2743C49.3863 68.7283 48.9684 67.4376 48.4894 66.4765Z" fill="url(#paint55_linear_50_1327)"/>
<path d="M48.4894 66.4765C42.2815 67.3958 38.2384 63.5236 35.2236 61.1743C31.2415 58.0729 28.147 59.5818 28.147 59.5818L32.392 67.5908C38.7314 73.5011 45.2305 72.1872 49.3253 70.2743C49.3863 68.7283 48.9684 67.4376 48.4894 66.4765Z" fill="black"/>
<path d="M48.4894 66.4765C42.2815 67.3958 38.2384 63.5236 35.2236 61.1743C31.2415 58.0729 28.147 59.5818 28.147 59.5818L32.392 67.5908C38.7314 73.5011 45.2305 72.1872 49.3253 70.2743C49.3863 68.7283 48.9684 67.4376 48.4894 66.4765Z" fill="#2B2B2B"/>
<path d="M57.2143 62.8179L55.1576 63.9136C52.6875 65.3993 50.4805 66.1839 48.4941 66.4811C48.9731 67.4375 49.3911 68.7329 49.33 70.2789C51.9362 69.0579 53.5751 67.5954 53.5751 67.5954C58.2286 64.8468 57.2143 62.8179 57.2143 62.8179Z" fill="url(#paint56_linear_50_1327)"/>
<path d="M63.2767 65.6872C63.1452 65.2507 62.8165 64.8979 62.3891 64.7261L58.2098 63.064C58.2098 63.064 58.1488 62.5347 59.0926 62.1725C60.0365 61.8104 59.8158 60.7657 59.8158 60.7657C59.8158 60.7657 58.5244 61.3507 56.632 62.2747C55.552 62.804 54.9415 63.7372 54.6222 64.4382L55.6975 65.8357C58.2709 66.6018 60.8771 66.7457 63.5068 66.444L63.2767 65.6872Z" fill="url(#paint57_linear_50_1327)"/>
<path d="M86.0609 54.0381C86.1736 53.8245 86.4929 53.857 86.554 54.0892C86.7935 54.9434 87.3758 56.4338 88.592 56.9631C88.653 56.9909 88.7094 57.0188 88.7657 57.042C88.8221 56.8795 88.8221 56.6892 88.6906 56.4895C88.3102 55.9184 88.9958 55.1338 88.9958 55.1338C88.9958 55.1338 89.0428 55.8209 89.5687 56.2574C90.0242 56.6288 90.2449 57.4645 89.9303 58.1424C89.2682 60.6774 88.2821 64.0295 92.1327 66.4763C95.9833 68.9231 101.402 61.8567 101.402 61.8567L98.7116 70.2881C98.7116 70.2881 94.5604 73.3152 89.7284 69.0577C84.9011 64.8002 88.0989 58.602 88.0989 58.602C88.0989 58.602 84.4268 57.1349 86.0609 54.0381Z" fill="url(#paint58_linear_50_1327)"/>
<path d="M102.083 49.4742C102.083 49.4742 100.97 44.5295 106.699 45.8388C106.699 45.8388 109.479 45.3885 109.62 47.9838C109.62 47.9838 111.414 49.1538 110.099 51.3963C110.099 51.3963 115.424 49.3628 117.748 53.9778C120.068 58.5928 117.936 61.1324 115.701 61.7963C115.701 61.7963 117.514 62.697 116.654 64.726C115.795 66.7549 111.451 68.1895 108.887 65.7195C108.887 65.7195 101.585 66.6713 101.731 61.5735C101.731 61.5735 98.3358 59.4053 101.9 55.1895C105.469 50.9785 102.083 49.4742 102.083 49.4742Z" fill="url(#paint59_linear_50_1327)"/>
<path d="M102.083 49.4742C102.083 49.4742 100.97 44.5295 106.699 45.8388C106.699 45.8388 109.479 45.3885 109.62 47.9838C109.62 47.9838 111.414 49.1538 110.099 51.3963C110.099 51.3963 115.424 49.3628 117.748 53.9778C120.068 58.5928 117.936 61.1324 115.701 61.7963C115.701 61.7963 117.514 62.697 116.654 64.726C115.795 66.7549 111.451 68.1895 108.887 65.7195C108.887 65.7195 101.585 66.6713 101.731 61.5735C101.731 61.5735 98.3358 59.4053 101.9 55.1895C105.469 50.9785 102.083 49.4742 102.083 49.4742Z" fill="url(#paint60_linear_50_1327)"/>
<path d="M102.083 49.4742C102.083 49.4742 100.97 44.5295 106.699 45.8388C106.699 45.8388 109.479 45.3885 109.62 47.9838C109.62 47.9838 111.414 49.1538 110.099 51.3963C110.099 51.3963 115.424 49.3628 117.748 53.9778C120.068 58.5928 117.936 61.1324 115.701 61.7963C115.701 61.7963 117.514 62.697 116.654 64.726C115.795 66.7549 111.451 68.1895 108.887 65.7195C108.887 65.7195 101.585 66.6713 101.731 61.5735C101.731 61.5735 98.3358 59.4053 101.9 55.1895C105.469 50.9785 102.083 49.4742 102.083 49.4742Z" fill="url(#paint61_linear_50_1327)"/>
<path d="M101.769 60.9327C102.919 60.5938 106.272 59.9624 109.46 62.8688C110 63.3609 110.221 64.1131 110.029 64.8141C109.174 67.9295 106.91 77.1409 108.892 81.1245C108.892 81.1245 105.403 84.9316 101.59 81.8627C101.59 81.8627 99.8808 74.4991 97.6409 71.2677C96.0959 69.0345 100.106 62.8874 101.121 61.4016C101.28 61.1788 101.506 61.0116 101.769 60.9327Z" fill="url(#paint62_linear_50_1327)"/>
<path d="M101.769 60.9327C102.919 60.5938 106.272 59.9624 109.46 62.8688C110 63.3609 110.221 64.1131 110.029 64.8141C109.174 67.9295 106.91 77.1409 108.892 81.1245C108.892 81.1245 105.403 84.9316 101.59 81.8627C101.59 81.8627 99.8808 74.4991 97.6409 71.2677C96.0959 69.0345 100.106 62.8874 101.121 61.4016C101.28 61.1788 101.506 61.0116 101.769 60.9327Z" fill="black"/>
<path d="M104.948 54.7391C104.948 54.7391 106.652 59.5027 106.779 61.6013C106.779 61.6013 104.896 62.4463 103.126 61.0209C103.126 61.0209 102.938 56.2666 102.67 55.4124L104.948 54.7391Z" fill="url(#paint63_linear_50_1327)"/>
<path d="M102.581 48.2484C102.581 48.2484 98.1293 54.4095 100.792 56.2016C103.454 57.9891 106.624 53.6109 106.624 53.6109C106.624 53.6109 107.657 50.2402 106.577 49.0934C105.497 47.9513 102.581 48.2484 102.581 48.2484Z" fill="url(#paint64_linear_50_1327)"/>
<path d="M104.642 46.7767C104.642 46.7767 102.595 47.255 102.309 48.1696C102.022 49.0842 105.211 49.9339 106.103 49.9757L106.821 53.6667C106.821 53.6667 108.948 50.1939 108.108 48.1882C107.267 46.1825 104.642 46.7767 104.642 46.7767Z" fill="url(#paint65_linear_50_1327)"/>
<path d="M104.642 46.7767C104.642 46.7767 102.595 47.255 102.309 48.1696C102.022 49.0842 105.211 49.9339 106.103 49.9757L106.821 53.6667C106.821 53.6667 108.948 50.1939 108.108 48.1882C107.267 46.1825 104.642 46.7767 104.642 46.7767Z" fill="url(#paint66_linear_50_1327)"/>
<path d="M104.642 46.7767C104.642 46.7767 102.595 47.255 102.309 48.1696C102.022 49.0842 105.211 49.9339 106.103 49.9757L106.821 53.6667C106.821 53.6667 108.948 50.1939 108.108 48.1882C107.267 46.1825 104.642 46.7767 104.642 46.7767Z" fill="url(#paint67_linear_50_1327)"/>
<path d="M105.76 53.1559C105.76 53.1559 107.493 51.1734 108.183 52.4641C108.873 53.7595 106.624 54.7298 105.845 54.0938L105.76 53.1559Z" fill="url(#paint68_linear_50_1327)"/>
<path d="M97.1478 97.3281C97.1619 97.6624 96.5656 100.313 96.2462 101.73C96.1147 102.301 96.2087 102.895 96.4998 103.401L107.69 122.019C107.826 122.246 107.925 122.488 107.986 122.743C108.192 123.616 108.615 125.756 108.394 127.706L107.817 128.895L110.32 128.333L110.864 121.685L110.155 121.257C109.545 120.891 109.066 120.338 108.794 119.679C107.784 117.251 105.272 111.066 104.624 108.048C103.886 104.622 100.04 101.841 100.04 101.841L100.717 100.262L97.1478 97.3281Z" fill="url(#paint69_linear_50_1327)"/>
<path d="M113.095 126.044C113.095 126.044 111.743 123.927 111.583 123.101C111.423 122.274 110.982 120.821 110.146 121.257C110.146 121.257 109.751 125.264 109.888 126.829C110.024 128.393 108.099 128.342 108.099 128.342C108.099 128.342 107.568 128.417 107.178 128.802C106.91 129.067 107.103 129.526 107.479 129.55C108.108 129.591 109.108 129.601 110.16 129.401C110.526 129.331 110.799 129.02 110.822 128.653L111.099 124.043L112.804 126.174L113.095 126.044Z" fill="url(#paint70_linear_50_1327)"/>
<path d="M113.095 126.044C113.095 126.044 111.743 123.927 111.583 123.101C111.423 122.274 110.982 120.821 110.146 121.257C110.146 121.257 109.751 125.264 109.888 126.829C110.024 128.393 108.099 128.342 108.099 128.342C108.099 128.342 107.568 128.417 107.178 128.802C106.91 129.067 107.103 129.526 107.479 129.55C108.108 129.591 109.108 129.601 110.16 129.401C110.526 129.331 110.799 129.02 110.822 128.653L111.099 124.043L112.804 126.174L113.095 126.044Z" fill="black"/>
<path d="M103.83 100.29C103.83 100.29 104.224 116.944 104.276 119.307C104.328 121.671 103.9 126.912 101.501 128.482L102.543 129.248C102.543 129.248 103.849 128.152 105.121 126.044C106.554 123.676 106.986 123.24 106.986 123.24L106.511 122.279C106.305 121.856 106.244 121.383 106.338 120.923C106.854 118.444 108.582 110.194 109.056 108.42C109.615 106.321 109.653 103.522 107.718 101.177C105.783 98.8324 103.83 100.29 103.83 100.29Z" fill="url(#paint71_linear_50_1327)"/>
<path d="M106.046 130C106.122 130 106.183 129.949 106.197 129.875C106.277 129.317 106.61 127.093 106.882 126.518C107.192 125.858 108.211 123.077 106.882 122.845C106.882 122.845 103.576 127.618 102.942 128.263C102.309 128.909 101.506 128.486 101.506 128.486C101.506 128.486 100.886 128.667 100.421 129.257C100.2 129.536 100.407 129.949 100.764 129.953L102.989 129.977C103.637 129.981 104.215 129.596 104.459 129.002C104.849 128.036 105.525 126.615 106.309 125.984L105.901 129.842C105.891 129.926 105.957 130 106.046 130Z" fill="url(#paint72_linear_50_1327)"/>
<path d="M106.046 130C106.122 130 106.183 129.949 106.197 129.875C106.277 129.317 106.61 127.093 106.882 126.518C107.192 125.858 108.211 123.077 106.882 122.845C106.882 122.845 103.576 127.618 102.942 128.263C102.309 128.909 101.506 128.486 101.506 128.486C101.506 128.486 100.886 128.667 100.421 129.257C100.2 129.536 100.407 129.949 100.764 129.953L102.989 129.977C103.637 129.981 104.215 129.596 104.459 129.002C104.849 128.036 105.525 126.615 106.309 125.984L105.901 129.842C105.891 129.926 105.957 130 106.046 130Z" fill="black"/>
<path d="M101.069 80.0706C101.069 80.0706 101.571 81.6491 100.801 84.2538L96.0209 100.759C95.9458 101.019 96.0866 101.288 96.3449 101.381C97.7724 101.887 102.473 103.322 108.892 102.886C109.216 102.862 109.484 102.639 109.554 102.324C109.977 100.443 111.419 94.0223 111.714 92.7038C112.846 87.6756 114.109 82.2573 108.549 78.9795C105.99 80.0659 103.6 80.702 101.069 80.0706Z" fill="url(#paint73_linear_50_1327)"/>
<path d="M101.069 80.0706C101.069 80.0706 101.571 81.6491 100.801 84.2538L96.0209 100.759C95.9458 101.019 96.0866 101.288 96.3449 101.381C97.7724 101.887 102.473 103.322 108.892 102.886C109.216 102.862 109.484 102.639 109.554 102.324C109.977 100.443 111.419 94.0223 111.714 92.7038C112.846 87.6756 114.109 82.2573 108.549 78.9795C105.99 80.0659 103.6 80.702 101.069 80.0706Z" fill="black"/>
<path d="M109.916 63.4956C109.916 63.4956 115.354 67.9667 116.706 74.072C118.054 80.1774 108.761 80.8274 108.761 80.8274C108.761 80.8274 107.497 79.4345 106 79.9313C104.502 80.4281 105.882 77.4984 107.638 77.5077C109.39 77.517 108.578 78.8866 111.062 77.777C113.475 76.6952 114.973 73.3477 108.808 68.2777C108.451 67.9852 108.164 67.6091 107.995 67.182C106.788 64.192 107.737 62.242 109.916 63.4956Z" fill="url(#paint74_linear_50_1327)"/>
</g>
<defs>
<linearGradient id="paint0_linear_50_1327" x1="144.482" y1="164.491" x2="31.7511" y2="22.8881" gradientUnits="userSpaceOnUse">
<stop stop-color="#DAE3FE"/>
<stop offset="1" stop-color="#E9EFFD"/>
</linearGradient>
<linearGradient id="paint1_linear_50_1327" x1="96.5961" y1="14.2839" x2="43.0638" y2="86.1678" gradientUnits="userSpaceOnUse">
<stop stop-color="#8A8CFF"/>
<stop offset="1" stop-color="#7576F8"/>
</linearGradient>
<linearGradient id="paint2_linear_50_1327" x1="96.596" y1="14.2838" x2="43.064" y2="86.1676" gradientUnits="userSpaceOnUse">
<stop stop-color="#898BEE"/>
<stop offset="1" stop-color="#4042E2"/>
</linearGradient>
<linearGradient id="paint3_linear_50_1327" x1="-1242.33" y1="898.478" x2="-1231.06" y2="890.915" gradientUnits="userSpaceOnUse">
<stop stop-color="#FF928E"/>
<stop offset="1" stop-color="#FE7062"/>
</linearGradient>
<linearGradient id="paint4_linear_50_1327" x1="-835.854" y1="1413.72" x2="-828.443" y2="1402.42" gradientUnits="userSpaceOnUse">
<stop stop-color="#FF928E"/>
<stop offset="1" stop-color="#FE7062"/>
</linearGradient>
<linearGradient id="paint5_linear_50_1327" x1="-23.7012" y1="-31.7736" x2="76.8234" y2="105.008" gradientUnits="userSpaceOnUse">
<stop stop-color="#E13030"/>
<stop offset="1" stop-color="#DA2929"/>
</linearGradient>
<linearGradient id="paint6_linear_50_1327" x1="13.3832" y1="-23.3294" x2="80.6662" y2="68.1983" gradientUnits="userSpaceOnUse">
<stop stop-color="#E13030"/>
<stop offset="1" stop-color="#DA2929"/>
</linearGradient>
<linearGradient id="paint7_linear_50_1327" x1="113.305" y1="40.2357" x2="122.637" y2="29.2796" gradientUnits="userSpaceOnUse">
<stop stop-color="#E1473D"/>
<stop offset="1" stop-color="#E9605A"/>
</linearGradient>
<linearGradient id="paint8_linear_50_1327" x1="125.878" y1="19.9146" x2="120.741" y2="36.5252" gradientUnits="userSpaceOnUse">
<stop stop-color="#FF928E"/>
<stop offset="1" stop-color="#FE7062"/>
</linearGradient>
<linearGradient id="paint9_linear_50_1327" x1="125.094" y1="15.7064" x2="124.006" y2="23.5664" gradientUnits="userSpaceOnUse">
<stop stop-color="#FF928E"/>
<stop offset="1" stop-color="#FE7062"/>
</linearGradient>
<linearGradient id="paint10_linear_50_1327" x1="103.493" y1="29.4179" x2="110.781" y2="20.8625" gradientUnits="userSpaceOnUse">
<stop stop-color="#E1473D"/>
<stop offset="1" stop-color="#E9605A"/>
</linearGradient>
<linearGradient id="paint11_linear_50_1327" x1="113.63" y1="10.534" x2="110.129" y2="24.616" gradientUnits="userSpaceOnUse">
<stop stop-color="#FF928E"/>
<stop offset="1" stop-color="#FE7062"/>
</linearGradient>
<linearGradient id="paint12_linear_50_1327" x1="112.465" y1="11.3571" x2="111.532" y2="18.5093" gradientUnits="userSpaceOnUse">
<stop stop-color="#FF928E"/>
<stop offset="1" stop-color="#FE7062"/>
</linearGradient>
<linearGradient id="paint13_linear_50_1327" x1="113.301" y1="19.8623" x2="121.15" y2="10.6486" gradientUnits="userSpaceOnUse">
<stop stop-color="#E1473D"/>
<stop offset="1" stop-color="#E9605A"/>
</linearGradient>
<linearGradient id="paint14_linear_50_1327" x1="124.59" y1="-0.337745" x2="119.765" y2="16.5831" gradientUnits="userSpaceOnUse">
<stop stop-color="#FF928E"/>
<stop offset="1" stop-color="#FE7062"/>
</linearGradient>
<linearGradient id="paint15_linear_50_1327" x1="123.038" y1="-0.762324" x2="122.261" y2="5.52512" gradientUnits="userSpaceOnUse">
<stop stop-color="#FF928E"/>
<stop offset="1" stop-color="#FE7062"/>
</linearGradient>
<linearGradient id="paint16_linear_50_1327" x1="59.1519" y1="30.4606" x2="57.3374" y2="42.5732" gradientUnits="userSpaceOnUse">
<stop stop-color="#09005D"/>
<stop offset="1" stop-color="#1A0F91"/>
</linearGradient>
<linearGradient id="paint17_linear_50_1327" x1="58.2729" y1="35.8723" x2="54.3984" y2="50.1476" gradientUnits="userSpaceOnUse">
<stop stop-color="#4F52FF"/>
<stop offset="1" stop-color="#4042E2"/>
</linearGradient>
<linearGradient id="paint18_linear_50_1327" x1="57.905" y1="35.7724" x2="54.0305" y2="50.0477" gradientUnits="userSpaceOnUse">
<stop stop-color="#4F52FF"/>
<stop offset="1" stop-color="#4042E2"/>
</linearGradient>
<linearGradient id="paint19_linear_50_1327" x1="57.8064" y1="35.7457" x2="53.9319" y2="50.0211" gradientUnits="userSpaceOnUse">
<stop stop-color="#4F52FF"/>
<stop offset="1" stop-color="#4042E2"/>
</linearGradient>
<linearGradient id="paint20_linear_50_1327" x1="58.4701" y1="-2.02465" x2="59.713" y2="37.2593" gradientUnits="userSpaceOnUse">
<stop stop-color="#DE3030"/>
<stop offset="1" stop-color="#B92323"/>
</linearGradient>
<linearGradient id="paint21_linear_50_1327" x1="61.1615" y1="19.9041" x2="62.0299" y2="47.8118" gradientUnits="userSpaceOnUse">
<stop stop-color="#E1473D"/>
<stop offset="1" stop-color="#E9605A"/>
</linearGradient>
<linearGradient id="paint22_linear_50_1327" x1="56.268" y1="20.0563" x2="57.1364" y2="47.964" gradientUnits="userSpaceOnUse">
<stop stop-color="#E1473D"/>
<stop offset="1" stop-color="#E9605A"/>
</linearGradient>
<linearGradient id="paint23_linear_50_1327" x1="61.0558" y1="73.5525" x2="51.0646" y2="73.5525" gradientUnits="userSpaceOnUse">
<stop stop-color="#FEBBBA"/>
<stop offset="1" stop-color="#FF928E"/>
</linearGradient>
<linearGradient id="paint24_linear_50_1327" x1="59.3456" y1="108.97" x2="59.1368" y2="132.203" gradientUnits="userSpaceOnUse">
<stop stop-color="#09005D"/>
<stop offset="1" stop-color="#1A0F91"/>
</linearGradient>
<linearGradient id="paint25_linear_50_1327" x1="64.2397" y1="124.066" x2="61.5788" y2="124.066" gradientUnits="userSpaceOnUse">
<stop stop-color="#FEBBBA"/>
<stop offset="1" stop-color="#FF928E"/>
</linearGradient>
<linearGradient id="paint26_linear_50_1327" x1="67.2461" y1="134.076" x2="65.4708" y2="85.8939" gradientUnits="userSpaceOnUse">
<stop stop-color="#09005D"/>
<stop offset="1" stop-color="#1A0F91"/>
</linearGradient>
<linearGradient id="paint27_linear_50_1327" x1="72.4258" y1="109.088" x2="72.217" y2="132.32" gradientUnits="userSpaceOnUse">
<stop stop-color="#09005D"/>
<stop offset="1" stop-color="#1A0F91"/>
</linearGradient>
<linearGradient id="paint28_linear_50_1327" x1="73.8294" y1="123.931" x2="71.532" y2="123.931" gradientUnits="userSpaceOnUse">
<stop stop-color="#FEBBBA"/>
<stop offset="1" stop-color="#FF928E"/>
</linearGradient>
<linearGradient id="paint29_linear_50_1327" x1="71.7376" y1="133.91" x2="69.9623" y2="85.7285" gradientUnits="userSpaceOnUse">
<stop stop-color="#09005D"/>
<stop offset="1" stop-color="#1A0F91"/>
</linearGradient>
<linearGradient id="paint30_linear_50_1327" x1="85.199" y1="43.8781" x2="78.0083" y2="55.7358" gradientUnits="userSpaceOnUse">
<stop stop-color="#FF928E"/>
<stop offset="1" stop-color="#FE7062"/>
</linearGradient>
<linearGradient id="paint31_linear_50_1327" x1="90.3187" y1="46.9829" x2="83.1281" y2="58.8405" gradientUnits="userSpaceOnUse">
<stop stop-color="#FF928E"/>
<stop offset="1" stop-color="#FE7062"/>
</linearGradient>
<linearGradient id="paint32_linear_50_1327" x1="82.4656" y1="74.4681" x2="65.2623" y2="74.4681" gradientUnits="userSpaceOnUse">
<stop stop-color="#FEBBBA"/>
<stop offset="1" stop-color="#FF928E"/>
</linearGradient>
<linearGradient id="paint33_linear_50_1327" x1="66.5396" y1="72.6848" x2="61.18" y2="72.6848" gradientUnits="userSpaceOnUse">
<stop stop-color="#FEBBBA"/>
<stop offset="1" stop-color="#FF928E"/>
</linearGradient>
<linearGradient id="paint34_linear_50_1327" x1="49.6" y1="69.8587" x2="54.1116" y2="66.9977" gradientUnits="userSpaceOnUse">
<stop stop-color="#FEBBBA"/>
<stop offset="1" stop-color="#FF928E"/>
</linearGradient>
<linearGradient id="paint35_linear_50_1327" x1="68.9705" y1="56.8099" x2="62.1689" y2="56.8099" gradientUnits="userSpaceOnUse">
<stop stop-color="#FEBBBA"/>
<stop offset="1" stop-color="#FF928E"/>
</linearGradient>
<linearGradient id="paint36_linear_50_1327" x1="60.5511" y1="52.5318" x2="67.9833" y2="47.947" gradientUnits="userSpaceOnUse">
<stop stop-color="#FEBBBA"/>
<stop offset="1" stop-color="#FF928E"/>
</linearGradient>
<linearGradient id="paint37_linear_50_1327" x1="71.9881" y1="43.2682" x2="62.4113" y2="50.9185" gradientUnits="userSpaceOnUse">
<stop stop-color="#09005D"/>
<stop offset="1" stop-color="#1A0F91"/>
</linearGradient>
<linearGradient id="paint38_linear_50_1327" x1="40.9058" y1="43.3968" x2="64.5974" y2="46.5088" gradientUnits="userSpaceOnUse">
<stop stop-color="#03013A"/>
<stop offset="1" stop-color="#03013A"/>
</linearGradient>
<linearGradient id="paint39_linear_50_1327" x1="60.5655" y1="49.0338" x2="70.9283" y2="49.0338" gradientUnits="userSpaceOnUse">
<stop/>
<stop offset="1"/>
</linearGradient>
<linearGradient id="paint40_linear_50_1327" x1="62.5154" y1="54.2135" x2="69.2022" y2="50.0885" gradientUnits="userSpaceOnUse">
<stop stop-color="#FEBBBA"/>
<stop offset="1" stop-color="#FF928E"/>
</linearGradient>
<linearGradient id="paint41_linear_50_1327" x1="13.8995" y1="83.5599" x2="22.4169" y2="83.5599" gradientUnits="userSpaceOnUse">
<stop stop-color="#FEBBBA"/>
<stop offset="1" stop-color="#FF928E"/>
</linearGradient>
<linearGradient id="paint42_linear_50_1327" x1="25.4851" y1="109.957" x2="25.6939" y2="133.189" gradientUnits="userSpaceOnUse">
<stop stop-color="#09005D"/>
<stop offset="1" stop-color="#1A0F91"/>
</linearGradient>
<linearGradient id="paint43_linear_50_1327" x1="27.6576" y1="84.4072" x2="25.7932" y2="128.249" gradientUnits="userSpaceOnUse">
<stop stop-color="#4F52FF"/>
<stop offset="1" stop-color="#4042E2"/>
</linearGradient>
<linearGradient id="paint44_linear_50_1327" x1="24.2398" y1="119.696" x2="23.0468" y2="130.226" gradientUnits="userSpaceOnUse">
<stop stop-color="#FEBBBA"/>
<stop offset="1" stop-color="#FF928E"/>
</linearGradient>
<linearGradient id="paint45_linear_50_1327" x1="38.7257" y1="84.8785" x2="36.8614" y2="128.72" gradientUnits="userSpaceOnUse">
<stop stop-color="#4F52FF"/>
<stop offset="1" stop-color="#4042E2"/>
</linearGradient>
<linearGradient id="paint46_linear_50_1327" x1="36.6103" y1="109.857" x2="36.8191" y2="133.089" gradientUnits="userSpaceOnUse">
<stop stop-color="#09005D"/>
<stop offset="1" stop-color="#1A0F91"/>
</linearGradient>
<linearGradient id="paint47_linear_50_1327" x1="34.1773" y1="120.822" x2="32.9844" y2="131.352" gradientUnits="userSpaceOnUse">
<stop stop-color="#FEBBBA"/>
<stop offset="1" stop-color="#FF928E"/>
</linearGradient>
<linearGradient id="paint48_linear_50_1327" x1="18.3312" y1="138.222" x2="30.9349" y2="92.4248" gradientUnits="userSpaceOnUse">
<stop stop-color="#09005D"/>
<stop offset="1" stop-color="#1A0F91"/>
</linearGradient>
<linearGradient id="paint49_linear_50_1327" x1="26.9348" y1="52.401" x2="22.3761" y2="72.326" gradientUnits="userSpaceOnUse">
<stop stop-color="#FEBBBA"/>
<stop offset="1" stop-color="#FF928E"/>
</linearGradient>
<linearGradient id="paint50_linear_50_1327" x1="26.1629" y1="48.548" x2="28.4087" y2="61.9142" gradientUnits="userSpaceOnUse">
<stop stop-color="#FEBBBA"/>
<stop offset="1" stop-color="#FF928E"/>
</linearGradient>
<linearGradient id="paint51_linear_50_1327" x1="23.7487" y1="54.8707" x2="30.4333" y2="47.6887" gradientUnits="userSpaceOnUse">
<stop stop-color="#09005D"/>
<stop offset="1" stop-color="#1A0F91"/>
</linearGradient>
<linearGradient id="paint52_linear_50_1327" x1="0.0502271" y1="43.806" x2="25.0576" y2="46.5633" gradientUnits="userSpaceOnUse">
<stop stop-color="#03013A"/>
<stop offset="1" stop-color="#03013A"/>
</linearGradient>
<linearGradient id="paint53_linear_50_1327" x1="20.6978" y1="50.8588" x2="31.5814" y2="50.8588" gradientUnits="userSpaceOnUse">
<stop/>
<stop offset="1"/>
</linearGradient>
<linearGradient id="paint54_linear_50_1327" x1="24.1709" y1="63.1282" x2="23.7717" y2="53.7477" gradientUnits="userSpaceOnUse">
<stop stop-color="#FEBBBA"/>
<stop offset="1" stop-color="#FF928E"/>
</linearGradient>
<linearGradient id="paint55_linear_50_1327" x1="83.4915" y1="-31.2711" x2="76.3169" y2="-15.4961" gradientUnits="userSpaceOnUse">
<stop stop-color="#FF928E"/>
<stop offset="1" stop-color="#FE7062"/>
</linearGradient>
<linearGradient id="paint56_linear_50_1327" x1="63.5185" y1="51.9148" x2="35.4143" y2="88.282" gradientUnits="userSpaceOnUse">
<stop stop-color="#FEBBBA"/>
<stop offset="1" stop-color="#FF928E"/>
</linearGradient>
<linearGradient id="paint57_linear_50_1327" x1="67.3333" y1="54.8628" x2="39.2291" y2="91.2301" gradientUnits="userSpaceOnUse">
<stop stop-color="#FEBBBA"/>
<stop offset="1" stop-color="#FF928E"/>
</linearGradient>
<linearGradient id="paint58_linear_50_1327" x1="84.4192" y1="48.1042" x2="98.6521" y2="71.1751" gradientUnits="userSpaceOnUse">
<stop stop-color="#FEBBBA"/>
<stop offset="1" stop-color="#FF928E"/>
</linearGradient>
<linearGradient id="paint59_linear_50_1327" x1="124.583" y1="45.9941" x2="110.072" y2="55.7798" gradientUnits="userSpaceOnUse">
<stop stop-color="#09005D"/>
<stop offset="1" stop-color="#1A0F91"/>
</linearGradient>
<linearGradient id="paint60_linear_50_1327" x1="65.1866" y1="44.4691" x2="107.613" y2="49.1876" gradientUnits="userSpaceOnUse">
<stop stop-color="#03013A"/>
<stop offset="1" stop-color="#03013A"/>
</linearGradient>
<linearGradient id="paint61_linear_50_1327" x1="100.224" y1="56.3338" x2="118.692" y2="56.3338" gradientUnits="userSpaceOnUse">
<stop/>
<stop offset="1"/>
</linearGradient>
<linearGradient id="paint62_linear_50_1327" x1="131.099" y1="49.9028" x2="116.456" y2="62.1653" gradientUnits="userSpaceOnUse">
<stop stop-color="#FF928E"/>
<stop offset="1" stop-color="#FE7062"/>
</linearGradient>
<linearGradient id="paint63_linear_50_1327" x1="102.238" y1="63.963" x2="104.9" y2="57.9842" gradientUnits="userSpaceOnUse">
<stop stop-color="#FEBBBA"/>
<stop offset="1" stop-color="#FF928E"/>
</linearGradient>
<linearGradient id="paint64_linear_50_1327" x1="102.099" y1="49.4883" x2="107.501" y2="61.3187" gradientUnits="userSpaceOnUse">
<stop stop-color="#FEBBBA"/>
<stop offset="1" stop-color="#FF928E"/>
</linearGradient>
<linearGradient id="paint65_linear_50_1327" x1="120.656" y1="40.1703" x2="106.144" y2="49.9561" gradientUnits="userSpaceOnUse">
<stop stop-color="#09005D"/>
<stop offset="1" stop-color="#1A0F91"/>
</linearGradient>
<linearGradient id="paint66_linear_50_1327" x1="90.8734" y1="46.3202" x2="104.68" y2="47.8544" gradientUnits="userSpaceOnUse">
<stop stop-color="#03013A"/>
<stop offset="1" stop-color="#03013A"/>
</linearGradient>
<linearGradient id="paint67_linear_50_1327" x1="102.275" y1="50.1845" x2="108.285" y2="50.1845" gradientUnits="userSpaceOnUse">
<stop/>
<stop offset="1"/>
</linearGradient>
<linearGradient id="paint68_linear_50_1327" x1="104.689" y1="48.3054" x2="110.091" y2="60.1356" gradientUnits="userSpaceOnUse">
<stop stop-color="#FEBBBA"/>
<stop offset="1" stop-color="#FF928E"/>
</linearGradient>
<linearGradient id="paint69_linear_50_1327" x1="121.581" y1="145.491" x2="101.72" y2="109.234" gradientUnits="userSpaceOnUse">
<stop stop-color="#FEBBBA"/>
<stop offset="1" stop-color="#FF928E"/>
</linearGradient>
<linearGradient id="paint70_linear_50_1327" x1="113.101" y1="125.411" x2="107.093" y2="125.353" gradientUnits="userSpaceOnUse">
<stop stop-color="#09005D"/>
<stop offset="1" stop-color="#1A0F91"/>
</linearGradient>
<linearGradient id="paint71_linear_50_1327" x1="103.734" y1="114.207" x2="117.379" y2="98.0261" gradientUnits="userSpaceOnUse">
<stop stop-color="#FEBBBA"/>
<stop offset="1" stop-color="#FF928E"/>
</linearGradient>
<linearGradient id="paint72_linear_50_1327" x1="107.52" y1="126.431" x2="100.358" y2="126.363" gradientUnits="userSpaceOnUse">
<stop stop-color="#09005D"/>
<stop offset="1" stop-color="#1A0F91"/>
</linearGradient>
<linearGradient id="paint73_linear_50_1327" x1="143.452" y1="63.0206" x2="123.593" y2="78.0852" gradientUnits="userSpaceOnUse">
<stop stop-color="#09005D"/>
<stop offset="1" stop-color="#1A0F91"/>
</linearGradient>
<linearGradient id="paint74_linear_50_1327" x1="115.519" y1="82.4936" x2="87.0014" y2="39.7285" gradientUnits="userSpaceOnUse">
<stop stop-color="#FEBBBA"/>
<stop offset="1" stop-color="#FF928E"/>
</linearGradient>
<clipPath id="clip0_50_1327">
<rect width="130" height="130" fill="white"/>
</clipPath>
</defs>
</svg>
