<svg width="488" height="491" viewBox="0 0 488 491" fill="none" xmlns="http://www.w3.org/2000/svg">
<path d="M464.361 330.058C417.442 440.625 292.443 502.559 184.057 485.864C166.412 483.151 118.06 475.049 75.251 436.845C-7.16663 363.291 -24.7938 217.653 41.6929 115.013C90.0802 40.3035 176.817 -2.03001 259.235 0.0875393C276.984 0.52505 345.027 3.34262 404.817 52.6763C413.595 59.9215 432.971 77.1419 450.423 104.46C491.414 168.617 494.929 258.009 464.361 330.058Z" fill="white"/>
<g opacity="0.3">
<path d="M180.857 77.6315C179.982 77.579 179.266 76.8615 179.231 75.9515C179.161 73.9914 179.178 71.9789 179.266 70.0013C179.318 69.0388 180.122 68.3038 181.084 68.3388C181.102 68.3388 181.102 68.3388 181.119 68.3388C182.063 68.4088 182.78 69.2138 182.745 70.1588C182.658 72.0314 182.641 73.9389 182.711 75.8115C182.745 76.774 181.994 77.579 181.032 77.614C180.979 77.6315 180.909 77.6315 180.857 77.6315ZM181.994 62.4761C181.924 62.4761 181.854 62.4586 181.784 62.4586C180.839 62.2836 180.21 61.3736 180.385 60.4286C180.752 58.486 181.207 56.5435 181.731 54.636C181.994 53.7084 182.938 53.1659 183.882 53.4284C184.809 53.6909 185.351 54.6535 185.089 55.581C184.582 57.3835 184.162 59.2386 183.812 61.0761C183.655 61.9336 182.868 62.5461 181.994 62.4761ZM186.435 47.9683C186.243 47.9508 186.051 47.9158 185.858 47.8283C184.984 47.4433 184.564 46.4108 184.949 45.5357C185.736 43.7332 186.61 41.9307 187.554 40.1981C188.009 39.3581 189.076 39.0431 189.915 39.4981C190.755 39.9531 191.069 41.0206 190.615 41.8607C189.723 43.5057 188.901 45.2207 188.149 46.9358C187.852 47.6183 187.152 48.0208 186.435 47.9683ZM194.007 34.808C193.693 34.7905 193.378 34.668 193.098 34.4755C192.329 33.898 192.154 32.8129 192.731 32.0429C193.902 30.4504 195.161 28.8929 196.456 27.4053C197.085 26.6878 198.187 26.6178 198.921 27.2478C199.638 27.8778 199.708 28.9804 199.079 29.7154C197.837 31.1154 196.648 32.6029 195.546 34.108C195.161 34.598 194.584 34.843 194.007 34.808ZM204.325 23.6602C203.87 23.6252 203.433 23.4327 203.118 23.0652C202.489 22.3302 202.576 21.2277 203.293 20.6152C204.779 19.3201 206.353 18.0951 207.945 16.9226C208.732 16.3626 209.816 16.5376 210.375 17.3076C210.935 18.0951 210.76 19.1801 209.991 19.7401C208.469 20.8427 206.983 22.0152 205.566 23.2402C205.217 23.5552 204.762 23.6952 204.325 23.6602ZM216.846 15.085C216.269 15.05 215.709 14.7175 215.429 14.1575C214.975 13.3 215.307 12.25 216.146 11.7949C217.895 10.8674 219.696 10.0099 221.497 9.22238C222.389 8.83738 223.403 9.25739 223.788 10.1324C224.173 11.0249 223.753 12.04 222.879 12.425C221.148 13.16 219.451 13.9825 217.79 14.8575C217.475 15.05 217.16 15.12 216.846 15.085ZM280.814 15.2775C280.569 15.26 280.325 15.19 280.115 15.0675C278.471 14.175 276.757 13.3525 275.043 12.6C274.169 12.215 273.749 11.1999 274.134 10.3074C274.519 9.41489 275.533 9.01238 276.425 9.39739C278.244 10.1849 280.045 11.0599 281.776 11.9874C282.615 12.4425 282.948 13.51 282.476 14.35C282.126 14.98 281.461 15.3125 280.814 15.2775ZM230.94 9.50239C230.224 9.44989 229.576 8.95988 229.384 8.22486C229.139 7.29734 229.681 6.33482 230.608 6.08981C232.514 5.5823 234.455 5.12729 236.397 4.77728C237.341 4.60227 238.25 5.23229 238.425 6.17731C238.6 7.12233 237.97 8.03236 237.026 8.20736C235.19 8.53987 233.336 8.95988 231.518 9.44989C231.325 9.50239 231.133 9.51989 230.94 9.50239ZM266.719 9.62489C266.597 9.62489 266.492 9.58989 266.37 9.57239C264.569 9.08238 262.715 8.64487 260.861 8.31236C259.917 8.13736 259.287 7.22734 259.462 6.28232C259.637 5.33729 260.546 4.70728 261.491 4.88228C263.432 5.24979 265.373 5.6873 267.279 6.21231C268.206 6.47482 268.748 7.41984 268.503 8.34736C268.293 9.15238 267.524 9.67739 266.719 9.62489ZM245.945 7.20984C245.07 7.15734 244.353 6.43982 244.318 5.5298C244.283 4.56727 245.035 3.76225 245.997 3.72725C247.973 3.65725 249.967 3.65725 251.943 3.74475C251.96 3.74475 251.96 3.74475 251.978 3.74475C252.922 3.81476 253.639 4.61978 253.604 5.5648C253.552 6.52732 252.747 7.26234 251.785 7.22734C249.914 7.13983 248.008 7.13984 246.137 7.20984C246.067 7.22734 245.997 7.22734 245.945 7.20984Z" fill="black"/>
<path d="M291.009 22.0326C290.66 22.0151 290.327 21.8926 290.048 21.6476C289.348 21.0876 288.631 20.5276 287.897 19.9851C287.127 19.4076 286.952 18.3226 287.529 17.5526C288.106 16.7826 289.191 16.6076 289.96 17.1851C290.73 17.7451 291.482 18.3401 292.234 18.9176C292.986 19.5126 293.108 20.6151 292.496 21.3676C292.111 21.8401 291.552 22.0676 291.009 22.0326Z" fill="black"/>
</g>
<g opacity="0.3">
<path d="M316.191 68.8114C315.352 68.7589 314.652 68.0939 314.582 67.2364C314.495 66.3439 314.407 65.4339 314.285 64.5414C314.163 63.5789 314.827 62.7039 315.789 62.5814C316.751 62.4589 317.625 63.1239 317.748 64.0864C317.87 65.0314 317.975 65.9939 318.062 66.9214C318.15 67.8839 317.45 68.7239 316.488 68.8114C316.383 68.8114 316.296 68.8114 316.191 68.8114Z" fill="#BDD0FB"/>
<path d="M244.126 142.786C243.321 142.734 242.517 142.664 241.713 142.576C240.751 142.471 240.051 141.631 240.156 140.669C240.261 139.706 241.118 139.006 242.062 139.111C243.916 139.304 245.77 139.409 247.606 139.444C248.568 139.461 249.337 140.249 249.32 141.211C249.302 142.174 248.515 142.944 247.553 142.926C246.417 142.909 245.263 142.856 244.126 142.786ZM232.654 141.019C232.549 141.019 232.462 141.001 232.357 140.966C230.468 140.511 228.58 139.969 226.744 139.356C225.834 139.059 225.345 138.061 225.642 137.151C225.939 136.241 226.936 135.734 227.845 136.049C229.594 136.626 231.395 137.151 233.179 137.571C234.106 137.799 234.683 138.744 234.455 139.671C234.263 140.529 233.494 141.071 232.654 141.019ZM256.699 142.471C255.877 142.419 255.195 141.789 255.09 140.931C254.986 139.969 255.668 139.111 256.612 138.989C258.43 138.779 260.284 138.481 262.085 138.096C263.03 137.904 263.957 138.516 264.149 139.444C264.341 140.389 263.729 141.316 262.802 141.509C260.896 141.894 258.955 142.209 257.032 142.436C256.927 142.471 256.822 142.471 256.699 142.471ZM218.612 135.944C218.385 135.926 218.175 135.874 217.965 135.769C216.216 134.911 214.502 133.966 212.841 132.968C212.019 132.478 211.757 131.393 212.247 130.571C212.736 129.748 213.82 129.486 214.642 129.976C216.216 130.921 217.86 131.831 219.504 132.636C220.361 133.056 220.728 134.106 220.291 134.963C219.976 135.611 219.294 135.979 218.612 135.944ZM271.231 139.076C270.567 139.024 269.937 138.586 269.71 137.921C269.395 137.011 269.867 136.014 270.777 135.699C272.508 135.086 274.239 134.386 275.918 133.633C276.792 133.231 277.824 133.633 278.226 134.508C278.628 135.383 278.226 136.416 277.352 136.819C275.586 137.624 273.749 138.359 271.931 139.006C271.703 139.059 271.476 139.076 271.231 139.076ZM284.679 132.566C284.137 132.531 283.63 132.251 283.315 131.761C282.808 130.938 283.053 129.871 283.857 129.363C285.413 128.383 286.952 127.316 288.439 126.213C289.208 125.636 290.292 125.793 290.869 126.563C291.447 127.333 291.289 128.418 290.52 128.996C288.963 130.168 287.354 131.271 285.711 132.303C285.396 132.496 285.029 132.583 284.679 132.566ZM296.378 123.291C295.976 123.256 295.574 123.098 295.259 122.783C294.577 122.101 294.594 120.998 295.276 120.316C296.588 119.021 297.864 117.656 299.053 116.238C299.683 115.503 300.785 115.416 301.502 116.046C302.236 116.676 302.324 117.778 301.694 118.496C300.435 119.966 299.088 121.418 297.707 122.783C297.357 123.151 296.85 123.308 296.378 123.291ZM305.769 111.67C305.489 111.653 305.209 111.565 304.947 111.39C304.142 110.865 303.897 109.798 304.422 108.975C305.419 107.418 306.363 105.808 307.22 104.18C307.675 103.323 308.724 103.008 309.581 103.445C310.438 103.9 310.753 104.95 310.315 105.808C309.406 107.523 308.427 109.22 307.377 110.865C307.01 111.425 306.381 111.705 305.769 111.67ZM312.396 98.2651C312.239 98.2476 312.082 98.2126 311.924 98.1601C311.015 97.8276 310.56 96.8301 310.875 95.9201C311.504 94.1875 312.064 92.4025 312.554 90.6174C312.799 89.6899 313.76 89.1474 314.687 89.3924C315.614 89.6374 316.174 90.5999 315.911 91.5275C315.404 93.4 314.81 95.2726 314.145 97.1101C313.883 97.8626 313.148 98.3176 312.396 98.2651ZM315.911 83.7573C315.876 83.7573 315.841 83.7573 315.806 83.7398C314.845 83.6173 314.18 82.7422 314.302 81.7797C314.477 80.4322 314.617 79.0672 314.705 77.7021C314.74 77.2121 314.757 76.7221 314.792 76.2321C314.845 75.2696 315.649 74.5346 316.611 74.5696C317.59 74.5871 318.307 75.4271 318.272 76.3896C318.255 76.8971 318.22 77.4221 318.185 77.9296C318.08 79.3472 317.94 80.7997 317.765 82.2172C317.643 83.1623 316.821 83.8098 315.911 83.7573Z" fill="#BDD0FB"/>
<path d="M206.004 127.858C205.654 127.84 205.322 127.7 205.024 127.473C204.29 126.878 203.555 126.265 202.838 125.635C202.121 125.005 202.051 123.903 202.681 123.168C203.311 122.45 204.412 122.38 205.147 123.01C205.829 123.605 206.528 124.2 207.228 124.76C207.98 125.373 208.085 126.458 207.49 127.21C207.105 127.665 206.546 127.893 206.004 127.858Z" fill="#BDD0FB"/>
</g>
<path d="M209.711 107.837C209.903 108.117 210.27 108.24 210.603 108.152L220.116 105.37C223.578 108.432 227.565 110.97 231.955 112.825L233.564 122.608C233.616 122.958 233.896 123.22 234.228 123.273L245.945 125.268C246.294 125.32 246.627 125.163 246.801 124.848L251.558 116.15C256.315 115.853 260.914 114.785 265.198 113.035L273.242 118.81C273.522 119.02 273.907 119.02 274.187 118.81L283.875 111.933C284.154 111.74 284.277 111.373 284.189 111.04L281.409 101.52C284.469 98.0547 287.005 94.0647 288.858 89.6721L298.634 88.062C298.984 88.0095 299.246 87.7295 299.298 87.397L301.292 75.6717C301.344 75.3217 301.187 74.9892 300.872 74.8142L292.181 70.0541C291.884 65.294 290.817 60.6914 289.068 56.4038L294.839 48.3536C295.049 48.0736 295.049 47.6885 294.839 47.4085L287.967 37.7133C287.774 37.4333 287.407 37.3108 287.075 37.3983L277.562 40.1809C274.099 37.1183 270.112 34.5807 265.723 32.7257L264.114 22.943C264.061 22.593 263.782 22.3304 263.449 22.2779L251.733 20.2829C251.383 20.2304 251.051 20.3879 250.876 20.7029L246.119 29.4006C241.363 29.6981 236.764 30.7656 232.479 32.5157L224.435 26.7406C224.155 26.5305 223.771 26.5305 223.491 26.7406L213.803 33.6182C213.523 33.8107 213.401 34.1782 213.488 34.5107L216.269 44.031C213.208 47.496 210.673 51.4861 208.819 55.8787L199.044 57.4888C198.694 57.5413 198.432 57.8213 198.379 58.1538L196.386 69.8791C196.333 70.2291 196.49 70.5616 196.805 70.7366L205.496 75.4967C205.794 80.2568 206.86 84.8594 208.609 89.147L202.838 97.1972C202.629 97.4772 202.629 97.8622 202.838 98.1422L209.711 107.837Z" fill="black"/>
<path d="M248.026 84.7014C242.22 84.2989 237.411 79.6964 236.939 73.7114C236.414 67.1314 241.346 61.3739 247.903 60.8489C251.086 60.6039 254.182 61.6014 256.595 63.6664C259.026 65.7314 260.495 68.6364 260.74 71.8214C261.264 78.4014 256.333 84.1589 249.775 84.6839C249.198 84.7539 248.603 84.7539 248.026 84.7014ZM249.477 63.6314C249.023 63.5964 248.568 63.5964 248.113 63.6314C243.077 64.0339 239.299 68.4439 239.702 73.4839C240.104 78.5239 244.511 82.3039 249.547 81.9014C254.584 81.4989 258.361 77.0889 257.959 72.0489C257.767 69.6164 256.63 67.3939 254.776 65.8014C253.272 64.5239 251.436 63.7714 249.477 63.6314Z" fill="white"/>
<path d="M247.099 101.957C246.102 101.887 245.105 101.765 244.108 101.607C243.794 101.555 243.479 101.502 243.164 101.432C241.625 101.117 240.104 100.68 238.635 100.137C238.617 100.137 238.6 100.12 238.582 100.12C238.53 100.102 238.478 100.085 238.408 100.05C238.303 100.015 238.18 99.9622 238.075 99.9272C237.796 99.8047 237.621 99.5247 237.638 99.2272C237.638 99.1572 237.656 99.0872 237.691 99.0172C237.83 98.6672 238.233 98.4922 238.6 98.6322C240.436 99.3672 242.36 99.9097 244.336 100.242C254.111 101.905 263.589 98.2647 269.797 91.4045C273.26 87.5894 275.69 82.7768 276.617 77.3342C276.775 76.3716 276.897 75.4266 276.95 74.4641C277.387 68.0589 275.621 61.7413 271.843 56.4387C267.524 50.331 261.089 46.2884 253.709 45.0284C238.495 42.4383 224.016 52.7111 221.427 67.9364C221.27 68.8815 221.148 69.8265 221.095 70.754C220.815 74.8491 221.445 78.9442 222.931 82.7768C222.966 82.8818 222.984 82.9693 222.984 83.0743C222.966 83.3368 222.809 83.5818 222.547 83.6693C222.179 83.8093 221.777 83.6343 221.637 83.2668C220.081 79.2592 219.416 74.9366 219.714 70.649C219.784 69.6515 219.906 68.6715 220.063 67.6914C222.774 51.7136 237.988 40.9333 253.954 43.6459C261.683 44.9584 268.451 49.211 272.98 55.6161C276.932 61.1988 278.786 67.8139 278.331 74.5516C278.261 75.5491 278.139 76.5466 277.981 77.5617C276.67 85.2969 272.42 92.0695 266.02 96.6021C260.459 100.557 253.831 102.412 247.099 101.957Z" fill="url(#paint0_linear_8_111)"/>
<path d="M247.099 101.957C246.102 101.887 245.105 101.765 244.108 101.607C243.794 101.555 243.479 101.502 243.164 101.432C241.625 101.117 240.104 100.68 238.635 100.137C238.617 100.137 238.6 100.12 238.582 100.12C238.53 100.102 238.478 100.085 238.408 100.05C238.303 100.015 238.18 99.9622 238.075 99.9272C237.796 99.8047 237.621 99.5247 237.638 99.2272C237.638 99.1572 237.656 99.0872 237.691 99.0172C237.83 98.6672 238.233 98.4922 238.6 98.6322C240.436 99.3672 242.36 99.9097 244.336 100.242C254.111 101.905 263.589 98.2647 269.797 91.4045C273.26 87.5894 275.69 82.7768 276.617 77.3342C276.775 76.3716 276.897 75.4266 276.95 74.4641C277.387 68.0589 275.621 61.7413 271.843 56.4387C267.524 50.331 261.089 46.2884 253.709 45.0284C238.495 42.4383 224.016 52.7111 221.427 67.9364C221.27 68.8815 221.148 69.8265 221.095 70.754C220.815 74.8491 221.445 78.9442 222.931 82.7768C222.966 82.8818 222.984 82.9693 222.984 83.0743C222.966 83.3368 222.809 83.5818 222.547 83.6693C222.179 83.8093 221.777 83.6343 221.637 83.2668C220.081 79.2592 219.416 74.9366 219.714 70.649C219.784 69.6515 219.906 68.6715 220.063 67.6914C222.774 51.7136 237.988 40.9333 253.954 43.6459C261.683 44.9584 268.451 49.211 272.98 55.6161C276.932 61.1988 278.786 67.8139 278.331 74.5516C278.261 75.5491 278.139 76.5466 277.981 77.5617C276.67 85.2969 272.42 92.0695 266.02 96.6021C260.459 100.557 253.831 102.412 247.099 101.957Z" fill="white"/>
<g opacity="0.3">
<path d="M118.445 119.44C117.973 119.405 117.57 119.072 117.465 118.6C117.273 117.707 117.098 116.797 116.958 115.887C116.871 115.292 117.273 114.75 117.85 114.662C118.445 114.575 118.987 114.977 119.074 115.555C119.214 116.412 119.372 117.287 119.564 118.127C119.686 118.705 119.319 119.282 118.742 119.405C118.655 119.44 118.55 119.44 118.445 119.44Z" fill="black"/>
<path d="M117.413 111.215C116.871 111.18 116.434 110.742 116.416 110.182C116.364 108.607 116.381 107.015 116.504 105.44C116.521 105.107 116.556 104.775 116.574 104.442C116.626 103.847 117.186 103.444 117.745 103.462C118.34 103.514 118.777 104.039 118.724 104.635C118.69 104.95 118.672 105.265 118.655 105.58C118.55 107.085 118.532 108.59 118.585 110.095C118.602 110.69 118.147 111.18 117.553 111.215C117.483 111.215 117.448 111.215 117.413 111.215ZM118.392 100.084C118.34 100.084 118.287 100.067 118.235 100.067C117.658 99.9444 117.291 99.3669 117.413 98.7894C117.815 96.9168 118.322 95.0618 118.952 93.2767C119.144 92.7167 119.756 92.4192 120.316 92.6117C120.875 92.8042 121.173 93.4167 120.98 93.9768C120.386 95.6918 119.896 97.4593 119.511 99.2444C119.406 99.7694 118.917 100.119 118.392 100.084ZM122.065 89.5141C121.925 89.4966 121.785 89.4616 121.662 89.4091C121.138 89.1466 120.91 88.4991 121.173 87.9741C122.012 86.2591 122.974 84.5965 124.023 83.004C124.355 82.514 125.02 82.374 125.51 82.689C125.999 83.0215 126.139 83.6865 125.824 84.1765C124.828 85.6991 123.918 87.2916 123.114 88.9191C122.904 89.3216 122.484 89.5491 122.065 89.5141ZM128.203 80.1864C127.975 80.1689 127.765 80.0814 127.573 79.9239C127.118 79.5389 127.066 78.8564 127.451 78.4014C128.692 76.9489 130.021 75.5663 131.42 74.2713C131.857 73.8688 132.539 73.9038 132.942 74.3413C133.344 74.7788 133.309 75.4613 132.872 75.8638C131.543 77.0889 130.266 78.4189 129.077 79.8014C128.867 80.0814 128.535 80.2039 128.203 80.1864ZM136.439 72.6262C136.124 72.6087 135.827 72.4512 135.635 72.1712C135.285 71.6812 135.407 71.0162 135.88 70.6662C137.436 69.5637 139.062 68.5312 140.741 67.6386C141.266 67.3586 141.913 67.5511 142.192 68.0761C142.472 68.6012 142.28 69.2487 141.755 69.5287C140.164 70.3862 138.608 71.3662 137.121 72.4162C136.911 72.5737 136.666 72.6437 136.439 72.6262ZM146.249 67.3061C145.847 67.2711 145.48 67.0261 145.323 66.6236C145.113 66.0636 145.375 65.4511 145.935 65.2236C147.701 64.5236 149.537 63.9285 151.391 63.4735C151.968 63.3335 152.545 63.6835 152.702 64.2436C152.842 64.8211 152.492 65.3986 151.933 65.5561C150.184 66.0111 148.435 66.5711 146.739 67.2361C146.564 67.2886 146.407 67.3236 146.249 67.3061ZM157.074 64.5411C156.567 64.5061 156.147 64.121 156.077 63.596C156.007 63.001 156.427 62.476 157.004 62.3885C158.893 62.1435 160.816 62.021 162.723 62.021C163.317 62.021 163.807 62.4935 163.807 63.0885C163.807 63.6835 163.335 64.1736 162.74 64.1736C160.921 64.1736 159.085 64.2961 157.284 64.5236C157.197 64.5411 157.127 64.5411 157.074 64.5411ZM173.74 65.5386C173.67 65.5386 173.617 65.5211 173.547 65.5036C172.026 65.1186 170.452 64.8211 168.878 64.6111C168.633 64.5761 168.406 64.5411 168.179 64.5236C167.584 64.4536 167.164 63.911 167.234 63.3335C167.304 62.7385 167.846 62.301 168.423 62.3885C168.668 62.4235 168.931 62.4585 169.175 62.4935C170.819 62.721 172.463 63.036 174.054 63.4385C174.631 63.5785 174.981 64.1735 174.841 64.7511C174.719 65.2411 174.247 65.5736 173.74 65.5386Z" fill="black"/>
</g>
<g opacity="0.3">
<path d="M160.344 154.982C159.75 154.947 159.313 154.44 159.348 153.845C159.383 153.25 159.89 152.795 160.484 152.83C162.268 152.935 164.069 152.917 165.853 152.795C166.448 152.76 166.955 153.197 166.99 153.792C167.025 154.387 166.587 154.895 165.993 154.93C164.122 155.07 162.216 155.07 160.344 154.982ZM154.871 154.352C154.836 154.352 154.801 154.352 154.749 154.335C152.912 154.002 151.059 153.565 149.275 153.022C148.698 152.847 148.383 152.252 148.558 151.675C148.733 151.097 149.327 150.782 149.905 150.957C151.618 151.482 153.367 151.902 155.133 152.217C155.71 152.322 156.113 152.882 156.008 153.46C155.903 154.002 155.413 154.387 154.871 154.352ZM171.291 154.247C170.819 154.212 170.4 153.862 170.312 153.372C170.207 152.795 170.575 152.217 171.169 152.112C172.935 151.78 174.684 151.325 176.38 150.782C176.94 150.607 177.552 150.905 177.727 151.482C177.902 152.042 177.604 152.655 177.027 152.83C175.244 153.407 173.407 153.862 171.571 154.23C171.484 154.247 171.379 154.247 171.291 154.247ZM144.361 151.15C144.239 151.15 144.116 151.115 143.994 151.062C142.28 150.31 140.601 149.435 138.992 148.472C138.485 148.175 138.31 147.51 138.625 147.002C138.923 146.495 139.587 146.32 140.094 146.635C141.633 147.545 143.224 148.385 144.868 149.12C145.41 149.365 145.655 149.995 145.41 150.537C145.218 150.922 144.798 151.167 144.361 151.15ZM181.749 150.887C181.364 150.87 181.014 150.642 180.84 150.257C180.595 149.715 180.822 149.085 181.364 148.822C182.99 148.07 184.582 147.212 186.103 146.285C186.61 145.97 187.275 146.127 187.59 146.635C187.904 147.142 187.747 147.807 187.24 148.122C185.649 149.102 183.97 150.012 182.274 150.782C182.099 150.87 181.924 150.887 181.749 150.887ZM191.105 145.112C190.807 145.095 190.528 144.955 190.335 144.71C189.968 144.237 190.038 143.572 190.51 143.205C191.909 142.085 193.256 140.877 194.497 139.6C194.917 139.18 195.599 139.162 196.019 139.582C196.438 140.002 196.456 140.685 196.036 141.105C194.724 142.435 193.325 143.712 191.857 144.885C191.629 145.042 191.367 145.13 191.105 145.112ZM198.799 137.255C198.589 137.237 198.397 137.167 198.222 137.027C197.75 136.66 197.662 135.995 198.03 135.522C199.114 134.105 200.128 132.6 201.037 131.06C201.335 130.552 201.999 130.377 202.506 130.675C203.013 130.972 203.188 131.637 202.891 132.145C201.947 133.755 200.88 135.33 199.743 136.817C199.499 137.132 199.149 137.29 198.799 137.255Z" fill="#BDD0FB"/>
<path d="M134.883 145.463C134.673 145.445 134.463 145.375 134.288 145.235C133.554 144.675 132.854 144.08 132.172 143.485C131.735 143.1 131.683 142.418 132.067 141.963C132.452 141.525 133.134 141.473 133.589 141.858C134.236 142.435 134.918 142.995 135.617 143.538C136.089 143.905 136.177 144.588 135.81 145.043C135.582 145.34 135.233 145.48 134.883 145.463Z" fill="#BDD0FB"/>
</g>
<path d="M136.719 131.638C136.859 131.831 137.086 131.918 137.314 131.848L143.679 129.993C146.005 132.041 148.663 133.738 151.601 134.981L152.685 141.526C152.72 141.753 152.895 141.928 153.14 141.981L160.974 143.311C161.201 143.346 161.428 143.241 161.551 143.031L164.734 137.221C167.916 137.028 170.994 136.311 173.862 135.138L179.248 139.006C179.44 139.146 179.685 139.146 179.878 139.006L186.365 134.403C186.558 134.263 186.645 134.036 186.575 133.808L184.722 127.438C186.768 125.11 188.464 122.45 189.705 119.51L196.246 118.425C196.473 118.39 196.648 118.215 196.7 117.97L198.029 110.13C198.064 109.903 197.959 109.675 197.75 109.553L191.944 106.367C191.751 103.182 191.034 100.102 189.863 97.2322L193.728 91.8421C193.867 91.6496 193.867 91.4046 193.728 91.2121L189.128 84.7194C188.988 84.5269 188.761 84.4394 188.534 84.5094L182.168 86.3645C179.843 84.3169 177.185 82.6194 174.247 81.3769L173.162 74.8317C173.127 74.6042 172.953 74.4292 172.708 74.3767L164.873 73.0467C164.646 73.0117 164.419 73.1167 164.296 73.3267L161.114 79.1368C157.931 79.3293 154.853 80.0468 151.985 81.2194L146.599 77.3518C146.407 77.2118 146.162 77.2118 145.97 77.3518L139.482 81.9544C139.29 82.0944 139.202 82.3219 139.272 82.5494L141.126 88.9195C139.08 91.2471 137.383 93.9072 136.142 96.8472L129.602 97.9323C129.374 97.9673 129.199 98.1423 129.147 98.3873L127.818 106.227C127.783 106.455 127.888 106.682 128.098 106.805L133.903 109.99C134.096 113.175 134.813 116.255 135.984 119.125L132.12 124.515C131.98 124.708 131.98 124.953 132.12 125.145L136.719 131.638Z" fill="black"/>
<path d="M162.338 116.307C160.607 116.185 158.963 115.52 157.616 114.382C155.955 112.965 154.958 111.005 154.783 108.835C154.434 104.355 157.774 100.435 162.251 100.085C166.727 99.7346 170.645 103.095 170.994 107.557C171.169 109.727 170.487 111.827 169.071 113.49C167.654 115.152 165.696 116.15 163.527 116.325C163.142 116.342 162.74 116.342 162.338 116.307ZM163.317 102.22C163.02 102.202 162.74 102.202 162.443 102.22C159.155 102.482 156.689 105.37 156.952 108.66C157.074 110.252 157.809 111.705 159.033 112.737C160.257 113.77 161.796 114.277 163.387 114.155C164.979 114.032 166.43 113.297 167.462 112.072C168.494 110.847 169.001 109.307 168.878 107.715C168.634 104.722 166.22 102.412 163.317 102.22Z" fill="url(#paint1_linear_8_111)"/>
<path d="M162.338 116.307C160.607 116.185 158.963 115.52 157.616 114.382C155.955 112.965 154.958 111.005 154.783 108.835C154.434 104.355 157.774 100.435 162.251 100.085C166.727 99.7346 170.645 103.095 170.994 107.557C171.169 109.727 170.487 111.827 169.071 113.49C167.654 115.152 165.696 116.15 163.527 116.325C163.142 116.342 162.74 116.342 162.338 116.307ZM163.317 102.22C163.02 102.202 162.74 102.202 162.443 102.22C159.155 102.482 156.689 105.37 156.952 108.66C157.074 110.252 157.809 111.705 159.033 112.737C160.257 113.77 161.796 114.277 163.387 114.155C164.979 114.032 166.43 113.297 167.462 112.072C168.494 110.847 169.001 109.307 168.878 107.715C168.634 104.722 166.22 102.412 163.317 102.22Z" fill="white"/>
<path d="M161.673 128.312C160.991 128.259 160.309 128.189 159.627 128.067C158.263 127.839 156.934 127.472 155.64 126.964C155.588 126.947 155.518 126.912 155.465 126.894C155.028 126.719 154.766 126.282 154.783 125.827C154.783 125.722 154.818 125.599 154.853 125.494C155.081 124.934 155.693 124.672 156.252 124.899C157.441 125.372 158.7 125.722 159.96 125.949C160.03 125.967 160.099 125.967 160.169 125.984C163.177 126.474 166.203 126.177 169 125.197C170.522 124.654 171.973 123.919 173.337 122.974C173.355 122.974 173.355 122.957 173.372 122.957C173.407 122.939 173.442 122.904 173.477 122.887C177.429 120.087 180.052 115.922 180.857 111.144C180.962 110.532 181.032 109.902 181.084 109.289C181.364 105.142 180.227 101.047 177.779 97.6168C174.981 93.6618 170.819 91.0368 166.045 90.2318C161.271 89.4268 156.48 90.5118 152.527 93.3118C148.575 96.1118 145.952 100.277 145.148 105.054C145.043 105.667 144.973 106.279 144.938 106.874C144.763 109.517 145.165 112.177 146.127 114.644C146.18 114.802 146.215 114.959 146.197 115.099C146.162 115.502 145.917 115.869 145.515 116.027C144.955 116.237 144.343 115.974 144.116 115.414C143.032 112.649 142.595 109.674 142.787 106.717C142.839 106.034 142.909 105.352 143.032 104.669C143.941 99.3318 146.879 94.6593 151.286 91.5268C155.71 88.3943 161.061 87.1693 166.412 88.0793C171.746 88.9893 176.415 91.9293 179.545 96.3393C182.273 100.189 183.55 104.757 183.235 109.394C183.183 110.077 183.113 110.777 182.99 111.459C181.242 121.819 171.921 129.012 161.673 128.312Z" fill="url(#paint2_linear_8_111)"/>
<path d="M161.673 128.312C160.991 128.259 160.309 128.189 159.627 128.067C158.263 127.839 156.934 127.472 155.64 126.964C155.588 126.947 155.518 126.912 155.465 126.894C155.028 126.719 154.766 126.282 154.783 125.827C154.783 125.722 154.818 125.599 154.853 125.494C155.081 124.934 155.693 124.672 156.252 124.899C157.441 125.372 158.7 125.722 159.96 125.949C160.03 125.967 160.099 125.967 160.169 125.984C163.177 126.474 166.203 126.177 169 125.197C170.522 124.654 171.973 123.919 173.337 122.974C173.355 122.974 173.355 122.957 173.372 122.957C173.407 122.939 173.442 122.904 173.477 122.887C177.429 120.087 180.052 115.922 180.857 111.144C180.962 110.532 181.032 109.902 181.084 109.289C181.364 105.142 180.227 101.047 177.779 97.6168C174.981 93.6618 170.819 91.0368 166.045 90.2318C161.271 89.4268 156.48 90.5118 152.527 93.3118C148.575 96.1118 145.952 100.277 145.148 105.054C145.043 105.667 144.973 106.279 144.938 106.874C144.763 109.517 145.165 112.177 146.127 114.644C146.18 114.802 146.215 114.959 146.197 115.099C146.162 115.502 145.917 115.869 145.515 116.027C144.955 116.237 144.343 115.974 144.116 115.414C143.032 112.649 142.595 109.674 142.787 106.717C142.839 106.034 142.909 105.352 143.032 104.669C143.941 99.3318 146.879 94.6593 151.286 91.5268C155.71 88.3943 161.061 87.1693 166.412 88.0793C171.746 88.9893 176.415 91.9293 179.545 96.3393C182.273 100.189 183.55 104.757 183.235 109.394C183.183 110.077 183.113 110.777 182.99 111.459C181.242 121.819 171.921 129.012 161.673 128.312Z" fill="white"/>
<path d="M222.319 372.286L212.404 440.695H327.33L312.361 372.286H222.319Z" fill="#242424"/>
<path d="M29.277 153.268V356.868C29.277 373.616 42.6198 387.319 59.3376 387.739C133.641 389.664 393.537 394.301 464.291 393.269C476.445 393.094 486.29 383.346 486.657 371.183C488.021 323.88 490.242 210.145 482.041 157.346C480.309 146.233 470.936 137.903 459.692 137.553C397.437 135.558 121.925 129.223 51.2235 130.815C39.0174 131.078 29.277 141.053 29.277 153.268Z" fill="#343434"/>
<path d="M42.0427 152.271V345.703C42.0427 355.486 49.8945 363.448 59.6524 363.588L454.113 368.471C463.801 368.611 471.741 360.823 471.776 351.128L472.44 159.428C472.458 152.498 466.949 146.811 460.024 146.653L56.1725 138.48C48.4256 138.288 42.0427 144.518 42.0427 152.271Z" fill="#747474"/>
<path d="M474.748 376.399L42.0427 369.014C41.7454 369.014 41.5005 368.751 41.5005 368.454C41.5005 368.156 41.7629 367.929 42.0601 367.911L474.766 375.296C475.063 375.296 475.308 375.559 475.308 375.856C475.29 376.171 475.046 376.399 474.748 376.399Z" fill="white"/>
<path d="M352.075 458.877H183.882C179.318 458.877 175.89 455.622 176.765 452.122L178.916 443.582C179.563 441.01 182.396 439.12 185.736 439.015L347.878 433.957C351.376 433.852 354.488 435.707 355.24 438.385L359.122 451.982C360.172 455.517 356.727 458.877 352.075 458.877Z" fill="#343434"/>
<path d="M274.431 441.342C274.134 441.342 273.889 441.097 273.889 440.8C273.889 440.502 274.134 440.257 274.431 440.24L281.374 440.135C281.671 440.135 281.916 440.38 281.934 440.677C281.934 440.975 281.689 441.22 281.392 441.237L274.431 441.342Z" fill="white"/>
<path d="M183.008 454.17C182.973 454.17 182.955 454.17 182.92 454.17C182.623 454.117 182.413 453.837 182.466 453.54L183.462 447.327C183.987 443.985 186.838 441.535 190.213 441.482L263.904 440.397C264.201 440.397 264.446 440.642 264.446 440.94C264.446 441.237 264.201 441.482 263.904 441.5L190.213 442.585C187.362 442.62 184.984 444.702 184.529 447.502L183.532 453.715C183.497 453.977 183.27 454.17 183.008 454.17Z" fill="white"/>
<g opacity="0.53">
<path d="M271.406 165.781H261.036V348.906H271.406V165.781Z" fill="white"/>
<path d="M288.736 165.781H278.366V348.906H288.736V165.781Z" fill="white"/>
<path d="M306.066 165.781H295.696V348.906H306.066V165.781Z" fill="white"/>
<path d="M323.414 165.781H313.043V348.906H323.414V165.781Z" fill="white"/>
<path d="M340.743 165.781H330.373V348.906H340.743V165.781Z" fill="white"/>
<path d="M358.073 165.781H347.703V348.906H358.073V165.781Z" fill="white"/>
<path d="M375.421 165.781H365.051V348.906H375.421V165.781Z" fill="white"/>
</g>
<path d="M271.406 253.073H261.036V348.906H271.406V253.073Z" fill="url(#paint3_linear_8_111)"/>
<path d="M271.406 253.073H261.036V348.906H271.406V253.073Z" fill="#D80707"/>
<path d="M288.736 286.027H278.366V348.923H288.736V286.027Z" fill="url(#paint4_linear_8_111)"/>
<path d="M288.736 286.027H278.366V348.923H288.736V286.027Z" fill="#D80707"/>
<path d="M306.066 204.615H295.696V348.923H306.066V204.615Z" fill="url(#paint5_linear_8_111)"/>
<path d="M306.066 204.615H295.696V348.923H306.066V204.615Z" fill="#D80707"/>
<path d="M323.414 314.255H313.043V348.922H323.414V314.255Z" fill="url(#paint6_linear_8_111)"/>
<path d="M323.414 314.255H313.043V348.922H323.414V314.255Z" fill="#D80707"/>
<path d="M340.743 223.9H330.373V348.906H340.743V223.9Z" fill="url(#paint7_linear_8_111)"/>
<path d="M340.743 223.9H330.373V348.906H340.743V223.9Z" fill="#D80707"/>
<path d="M358.073 245.548H347.703V348.923H358.073V245.548Z" fill="url(#paint8_linear_8_111)"/>
<path d="M358.073 245.548H347.703V348.923H358.073V245.548Z" fill="#D80707"/>
<path d="M375.421 269.086H365.051V348.923H375.421V269.086Z" fill="#D80707"/>
<path d="M232.165 349.938L70.4945 348.73C67.3118 348.713 64.7237 346.105 64.7237 342.92V259.793C64.7237 256.59 67.3293 253.983 70.5295 253.983H232.2C235.4 253.983 238.005 256.59 238.005 259.793V344.145C238.005 347.348 235.382 349.955 232.165 349.938Z" fill="#9F9F9F"/>
<path opacity="0.44" d="M207.07 291.504L186.296 269.506L156.48 301.952L135.443 279.236L115.717 301.549L100.59 283.156L70.7745 314.219V336.69C70.7745 339.665 73.1703 342.08 76.1256 342.098L226.499 343.235C229.489 343.253 231.937 340.838 231.937 337.827V276.716L207.07 291.504Z" fill="white"/>
<path d="M207.752 290.892H207.21V343.218H207.752V290.892Z" fill="white"/>
<path d="M186.558 269.506H186.016V342.92H186.558V269.506Z" fill="white"/>
<path d="M156.742 301.549H156.2V342.692H156.742V301.549Z" fill="white"/>
<path d="M136.264 280.042H135.722V342.693H136.264V280.042Z" fill="white"/>
<path d="M115.979 300.884H115.437V342.692H115.979V300.884Z" fill="white"/>
<path d="M101.185 281.599H100.643V342.291H101.185V281.599Z" fill="white"/>
<path d="M100.905 286.166C103.426 286.166 105.469 284.121 105.469 281.598C105.469 279.076 103.426 277.031 100.905 277.031C98.3843 277.031 96.3408 279.076 96.3408 281.598C96.3408 284.121 98.3843 286.166 100.905 286.166Z" fill="url(#paint9_linear_8_111)"/>
<path d="M118.725 300.884C118.725 302.547 117.378 303.894 115.717 303.894C114.055 303.894 112.709 302.547 112.709 300.884C112.709 299.222 114.055 297.874 115.717 297.874C117.378 297.874 118.725 299.222 118.725 300.884Z" fill="url(#paint10_linear_8_111)"/>
<path d="M118.725 300.884C118.725 302.547 117.378 303.894 115.717 303.894C114.055 303.894 112.709 302.547 112.709 300.884C112.709 299.222 114.055 297.874 115.717 297.874C117.378 297.874 118.725 299.222 118.725 300.884Z" fill="white"/>
<path d="M139.01 280.041C139.01 281.703 137.663 283.051 136.002 283.051C134.341 283.051 132.994 281.703 132.994 280.041C132.994 278.378 134.341 277.031 136.002 277.031C137.663 277.031 139.01 278.378 139.01 280.041Z" fill="url(#paint11_linear_8_111)"/>
<path d="M139.01 280.041C139.01 281.703 137.663 283.051 136.002 283.051C134.341 283.051 132.994 281.703 132.994 280.041C132.994 278.378 134.341 277.031 136.002 277.031C137.663 277.031 139.01 278.378 139.01 280.041Z" fill="white"/>
<path d="M159.488 301.549C159.488 303.212 158.141 304.559 156.48 304.559C154.818 304.559 153.472 303.212 153.472 301.549C153.472 299.887 154.818 298.539 156.48 298.539C158.141 298.539 159.488 299.887 159.488 301.549Z" fill="url(#paint12_linear_8_111)"/>
<path d="M159.488 301.549C159.488 303.212 158.141 304.559 156.48 304.559C154.818 304.559 153.472 303.212 153.472 301.549C153.472 299.887 154.818 298.539 156.48 298.539C158.141 298.539 159.488 299.887 159.488 301.549Z" fill="white"/>
<path d="M189.303 269.506C189.303 271.169 187.957 272.516 186.295 272.516C184.634 272.516 183.288 271.169 183.288 269.506C183.288 267.844 184.634 266.496 186.295 266.496C187.957 266.496 189.303 267.844 189.303 269.506Z" fill="url(#paint13_linear_8_111)"/>
<path d="M189.303 269.506C189.303 271.169 187.957 272.516 186.295 272.516C184.634 272.516 183.288 271.169 183.288 269.506C183.288 267.844 184.634 266.496 186.295 266.496C187.957 266.496 189.303 267.844 189.303 269.506Z" fill="white"/>
<path d="M210.481 290.891C210.481 292.554 209.134 293.901 207.473 293.901C205.811 293.901 204.465 292.554 204.465 290.891C204.465 289.229 205.811 287.881 207.473 287.881C209.134 287.881 210.481 289.229 210.481 290.891Z" fill="white"/>
<g opacity="0.48">
<path d="M111.432 240.123H67.1195C65.2658 240.123 63.7619 241.173 63.7619 242.468C63.7619 243.763 65.2658 244.813 67.1195 244.813H111.432C113.286 244.813 114.79 243.763 114.79 242.468C114.79 241.173 113.286 240.123 111.432 240.123Z" fill="#EEEEEE"/>
<path d="M111.432 229.762H67.1195C65.2658 229.762 63.7619 230.812 63.7619 232.107C63.7619 233.402 65.2658 234.452 67.1195 234.452H111.432C113.286 234.452 114.79 233.402 114.79 232.107C114.79 230.812 113.286 229.762 111.432 229.762Z" fill="#EEEEEE"/>
<path d="M111.432 219.402H67.1195C65.2658 219.402 63.7619 220.452 63.7619 221.747C63.7619 223.042 65.2658 224.092 67.1195 224.092H111.432C113.286 224.092 114.79 223.042 114.79 221.747C114.79 220.452 113.286 219.402 111.432 219.402Z" fill="#EEEEEE"/>
</g>
<g opacity="0.48">
<path d="M173.04 240.123H128.727C126.874 240.123 125.37 241.173 125.37 242.468C125.37 243.763 126.874 244.813 128.727 244.813H173.04C174.894 244.813 176.398 243.763 176.398 242.468C176.398 241.173 174.894 240.123 173.04 240.123Z" fill="#EEEEEE"/>
<path d="M173.04 229.762H128.727C126.874 229.762 125.37 230.812 125.37 232.107C125.37 233.402 126.874 234.452 128.727 234.452H173.04C174.894 234.452 176.398 233.402 176.398 232.107C176.398 230.812 174.894 229.762 173.04 229.762Z" fill="#EEEEEE"/>
<path d="M173.04 219.402H128.727C126.874 219.402 125.37 220.452 125.37 221.747C125.37 223.042 126.874 224.092 128.727 224.092H173.04C174.894 224.092 176.398 223.042 176.398 221.747C176.398 220.452 174.894 219.402 173.04 219.402Z" fill="#EEEEEE"/>
</g>
<g opacity="0.48">
<path d="M234.648 240.123H190.335C188.481 240.123 186.977 241.173 186.977 242.468C186.977 243.763 188.481 244.813 190.335 244.813H234.648C236.501 244.813 238.005 243.763 238.005 242.468C238.005 241.173 236.501 240.123 234.648 240.123Z" fill="#EEEEEE"/>
<path d="M234.648 229.762H190.335C188.481 229.762 186.977 230.812 186.977 232.107C186.977 233.402 188.481 234.452 190.335 234.452H234.648C236.501 234.452 238.005 233.402 238.005 232.107C238.005 230.812 236.501 229.762 234.648 229.762Z" fill="#EEEEEE"/>
<path d="M234.648 219.402H190.335C188.481 219.402 186.977 220.452 186.977 221.747C186.977 223.042 188.481 224.092 190.335 224.092H234.648C236.501 224.092 238.005 223.042 238.005 221.747C238.005 220.452 236.501 219.402 234.648 219.402Z" fill="#EEEEEE"/>
</g>
<path opacity="0.91" d="M422.164 270.398C433.493 270.398 442.677 261.207 442.677 249.87C442.677 238.533 433.493 229.343 422.164 229.343C410.835 229.343 401.652 238.533 401.652 249.87C401.652 261.207 410.835 270.398 422.164 270.398Z" fill="white"/>
<path d="M434.354 245.53C434.983 247.07 435.333 248.768 435.333 250.535C435.333 257.815 429.44 263.713 422.165 263.713C414.89 263.713 408.996 257.815 408.996 250.535C408.996 243.255 414.89 237.358 422.165 237.358C422.392 237.358 422.602 237.358 422.829 237.375V234.033C422.602 234.033 422.392 234.015 422.165 234.015C413.054 234.015 405.656 241.418 405.656 250.535C405.656 259.653 413.054 267.055 422.165 267.055C431.276 267.055 438.673 259.653 438.673 250.535C438.673 248.295 438.218 246.143 437.414 244.2L434.354 245.53Z" fill="url(#paint14_linear_8_111)"/>
<path d="M434.354 245.53C434.983 247.07 435.333 248.768 435.333 250.535C435.333 257.815 429.44 263.713 422.165 263.713C414.89 263.713 408.996 257.815 408.996 250.535C408.996 243.255 414.89 237.358 422.165 237.358C422.392 237.358 422.602 237.358 422.829 237.375V234.033C422.602 234.033 422.392 234.015 422.165 234.015C413.054 234.015 405.656 241.418 405.656 250.535C405.656 259.653 413.054 267.055 422.165 267.055C431.276 267.055 438.673 259.653 438.673 250.535C438.673 248.295 438.218 246.143 437.414 244.2L434.354 245.53Z" fill="#D80707"/>
<path d="M439.022 279.079H405.604C403.505 279.079 401.809 280.777 401.809 282.877C401.809 284.977 403.505 286.674 405.604 286.674H439.022C441.12 286.674 442.817 284.977 442.817 282.877C442.817 280.777 441.12 279.079 439.022 279.079Z" fill="black"/>
<path opacity="0.91" d="M422.077 204.421C433.405 204.421 442.589 195.231 442.589 183.894C442.589 172.557 433.405 163.366 422.077 163.366C410.748 163.366 401.564 172.557 401.564 183.894C401.564 195.231 410.748 204.421 422.077 204.421Z" fill="white"/>
<path d="M429.055 195.724C427.026 197.001 424.613 197.754 422.042 197.754C414.767 197.754 408.874 191.856 408.874 184.576C408.874 177.296 414.767 171.399 422.042 171.399C422.27 171.399 422.479 171.399 422.707 171.416V168.074C422.479 168.074 422.27 168.056 422.042 168.056C412.931 168.056 405.534 175.459 405.534 184.576C405.534 193.694 412.931 201.096 422.042 201.096C425.225 201.096 428.198 200.186 430.716 198.629L429.055 195.724Z" fill="url(#paint15_linear_8_111)"/>
<path d="M429.055 195.724C427.026 197.001 424.613 197.754 422.042 197.754C414.767 197.754 408.874 191.856 408.874 184.576C408.874 177.296 414.767 171.399 422.042 171.399C422.27 171.399 422.479 171.399 422.707 171.416V168.074C422.479 168.074 422.27 168.056 422.042 168.056C412.931 168.056 405.534 175.459 405.534 184.576C405.534 193.694 412.931 201.096 422.042 201.096C425.225 201.096 428.198 200.186 430.716 198.629L429.055 195.724Z" fill="#D80707"/>
<path d="M439.109 213.12H405.691C403.593 213.12 401.896 214.817 401.896 216.917C401.896 219.017 403.593 220.715 405.691 220.715H439.109C441.208 220.715 442.904 219.017 442.904 216.917C442.904 214.817 441.208 213.12 439.109 213.12Z" fill="black"/>
<path opacity="0.91" d="M442.73 317.291C443.356 305.971 434.694 296.286 423.382 295.659C412.07 295.032 402.392 303.7 401.766 315.02C401.139 326.34 409.802 336.025 421.113 336.652C432.425 337.279 442.103 328.611 442.73 317.291Z" fill="white"/>
<path d="M433.409 323.582C431.031 327.065 427.044 329.357 422.514 329.357C415.239 329.357 409.346 323.46 409.346 316.18C409.346 308.9 415.239 303.002 422.514 303.002C422.742 303.002 422.952 303.002 423.179 303.02V299.677C422.952 299.677 422.742 299.66 422.514 299.66C413.403 299.66 406.006 307.062 406.006 316.18C406.006 325.297 413.403 332.7 422.514 332.7C428.163 332.7 433.13 329.865 436.12 325.542L433.409 323.582Z" fill="url(#paint16_linear_8_111)"/>
<path d="M433.409 323.582C431.031 327.065 427.044 329.357 422.514 329.357C415.239 329.357 409.346 323.46 409.346 316.18C409.346 308.9 415.239 303.002 422.514 303.002C422.742 303.002 422.952 303.002 423.179 303.02V299.677C422.952 299.677 422.742 299.66 422.514 299.66C413.403 299.66 406.006 307.062 406.006 316.18C406.006 325.297 413.403 332.7 422.514 332.7C428.163 332.7 433.13 329.865 436.12 325.542L433.409 323.582Z" fill="#D80707"/>
<path d="M405.534 352.301H438.952C441.05 352.301 442.747 350.603 442.747 348.503C442.747 346.403 441.05 344.706 438.952 344.706H405.534C403.435 344.706 401.739 346.403 401.739 348.503C401.739 350.603 403.435 352.301 405.534 352.301Z" fill="black"/>
<path d="M469.362 30.5902L275.323 29.6627C272.98 29.6452 271.091 32.2352 271.109 35.4203L271.546 112.247C271.563 115.45 273.505 118.005 275.865 117.917L468.785 113.77C471.024 113.682 472.825 111.197 472.86 108.135L473.542 36.3653C473.559 33.2153 471.688 30.6077 469.362 30.5902Z" fill="#9F9F9F"/>
<path d="M275.726 112.982C275.358 112.982 275.096 112.65 275.079 112.212L274.641 35.3857C274.641 35.1757 274.694 35.0007 274.799 34.8607C274.956 34.6506 275.148 34.5981 275.271 34.5981L469.31 35.5257C469.45 35.5257 469.625 35.5782 469.782 35.7882C469.887 35.9457 469.939 36.1207 469.939 36.3132L469.257 108.082C469.257 108.502 468.995 108.835 468.645 108.852L275.726 112.982ZM275.306 35.0882C275.288 35.0882 275.271 35.0882 275.236 35.1407C275.183 35.1932 275.166 35.2807 275.166 35.3682L275.603 112.195C275.603 112.37 275.691 112.475 275.743 112.475L468.68 108.345C468.733 108.345 468.82 108.222 468.82 108.065L469.502 36.2957C469.502 36.2082 469.485 36.1207 469.432 36.0682C469.397 36.0157 469.362 36.0157 469.362 36.0157L275.306 35.0882Z" fill="white"/>
<g opacity="0.6">
<path d="M292.636 70.2983H283.193V106.418H292.636V70.2983Z" fill="white"/>
<path d="M308.409 82.7065H298.966V106.402H308.409V82.7065Z" fill="white"/>
<path d="M324.2 52.0288H314.757V106.403H324.2V52.0288Z" fill="white"/>
<path d="M339.974 93.3472H330.531V106.402H339.974V93.3472Z" fill="white"/>
<path d="M355.748 59.3086H346.304V106.42H355.748V59.3086Z" fill="white"/>
<path d="M371.539 67.4634H362.095V106.418H371.539V67.4634Z" fill="white"/>
<path d="M387.312 76.3188H377.869V106.401H387.312V76.3188Z" fill="white"/>
<path d="M403.086 41.0381H393.642V106.402H403.086V41.0381Z" fill="white"/>
<path d="M418.859 47.9507H409.416V106.402H418.859V47.9507Z" fill="white"/>
<path d="M434.65 58.416H425.207V106.402H434.65V58.416Z" fill="white"/>
<path d="M450.424 94.5547H440.98V106.402H450.424V94.5547Z" fill="white"/>
<path d="M466.197 71.541H456.754V106.419H466.197V71.541Z" fill="white"/>
</g>
<path d="M239.055 116.57L52.0105 115.678C49.7546 115.66 47.9184 118.145 47.9359 121.225L48.3556 195.287C48.3731 198.367 50.2442 200.835 52.5176 200.747L238.512 196.757C240.681 196.67 242.412 194.272 242.43 191.332L243.077 122.153C243.094 119.09 241.293 116.605 239.055 116.57Z" fill="#9F9F9F"/>
<path d="M52.3953 195.987C52.0455 195.987 51.7832 195.655 51.7832 195.235L51.3635 121.191C51.3635 120.998 51.416 120.823 51.5209 120.683C51.6783 120.473 51.8532 120.438 51.9756 120.438L239.037 121.331C239.16 121.331 239.352 121.383 239.492 121.576C239.597 121.716 239.649 121.891 239.649 122.083L239.002 191.262C239.002 191.665 238.74 191.997 238.408 191.997L52.3953 195.987ZM51.9756 120.911C51.9581 120.911 51.9406 120.91 51.9056 120.963C51.8707 121.016 51.8357 121.086 51.8357 121.191L52.2554 195.252C52.2554 195.41 52.3428 195.515 52.3953 195.515L238.39 191.525C238.443 191.525 238.513 191.42 238.513 191.262L239.16 122.083C239.16 121.996 239.142 121.926 239.09 121.856C239.055 121.803 239.02 121.803 239.02 121.803L51.9756 120.911Z" fill="white"/>
<path d="M98.8502 162.226C106.41 154.66 106.41 142.394 98.8502 134.829C91.2902 127.263 79.0331 127.263 71.4731 134.829C63.9131 142.394 63.9131 154.66 71.4731 162.226C79.0331 169.791 91.2902 169.791 98.8502 162.226Z" fill="white"/>
<path d="M146.816 162.224C154.376 154.658 154.376 142.392 146.816 134.827C139.256 127.261 126.999 127.261 119.439 134.827C111.879 142.392 111.879 154.658 119.439 162.224C126.999 169.79 139.256 169.79 146.816 162.224Z" fill="white"/>
<path d="M194.952 162.872C202.512 155.306 202.512 143.04 194.952 135.475C187.392 127.909 175.135 127.909 167.575 135.475C160.015 143.04 160.015 155.306 167.575 162.872C175.135 170.438 187.392 170.438 194.952 162.872Z" fill="white"/>
<path d="M96.6738 144.43C97.2683 145.883 97.6006 147.493 97.6006 149.155C97.6006 156.033 92.0395 161.598 85.1668 161.598C78.2941 161.598 72.733 156.033 72.733 149.155C72.733 142.278 78.2941 136.713 85.1668 136.713C85.3766 136.713 85.5865 136.713 85.7964 136.73V133.58C85.5865 133.58 85.3766 133.563 85.1668 133.563C76.5628 133.563 69.5677 140.545 69.5677 149.173C69.5677 157.8 76.5453 164.783 85.1668 164.783C93.7708 164.783 100.766 157.8 100.766 149.173C100.766 147.055 100.346 145.025 99.5767 143.188L96.6738 144.43Z" fill="url(#paint17_linear_8_111)"/>
<path d="M96.6738 144.43C97.2683 145.883 97.6006 147.493 97.6006 149.155C97.6006 156.033 92.0395 161.598 85.1668 161.598C78.2941 161.598 72.733 156.033 72.733 149.155C72.733 142.278 78.2941 136.713 85.1668 136.713C85.3766 136.713 85.5865 136.713 85.7964 136.73V133.58C85.5865 133.58 85.3766 133.563 85.1668 133.563C76.5628 133.563 69.5677 140.545 69.5677 149.173C69.5677 157.8 76.5453 164.783 85.1668 164.783C93.7708 164.783 100.766 157.8 100.766 149.173C100.766 147.055 100.346 145.025 99.5767 143.188L96.6738 144.43Z" fill="#D80707"/>
<path d="M139.71 159.691C137.786 160.898 135.513 161.616 133.082 161.616C126.209 161.616 120.648 156.051 120.648 149.173C120.648 142.296 126.209 136.731 133.082 136.731C133.292 136.731 133.502 136.731 133.712 136.748V133.598C133.502 133.598 133.292 133.581 133.082 133.581C124.478 133.581 117.483 140.563 117.483 149.191C117.483 157.818 124.461 164.801 133.082 164.801C136.09 164.801 138.888 163.943 141.266 162.473L139.71 159.691Z" fill="url(#paint18_linear_8_111)"/>
<path d="M139.71 159.691C137.786 160.898 135.513 161.616 133.082 161.616C126.209 161.616 120.648 156.051 120.648 149.173C120.648 142.296 126.209 136.731 133.082 136.731C133.292 136.731 133.502 136.731 133.712 136.748V133.598C133.502 133.598 133.292 133.581 133.082 133.581C124.478 133.581 117.483 140.563 117.483 149.191C117.483 157.818 124.461 164.801 133.082 164.801C136.09 164.801 138.888 163.943 141.266 162.473L139.71 159.691Z" fill="#D80707"/>
<path d="M191.805 156.155C189.566 159.445 185.789 161.598 181.522 161.598C174.649 161.598 169.088 156.033 169.088 149.155C169.088 142.278 174.649 136.713 181.522 136.713C181.732 136.713 181.942 136.713 182.151 136.73V133.58C181.942 133.58 181.732 133.563 181.522 133.563C172.918 133.563 165.923 140.545 165.923 149.173C165.923 157.8 172.9 164.783 181.522 164.783C186.856 164.783 191.542 162.105 194.358 158.028L191.805 156.155Z" fill="url(#paint19_linear_8_111)"/>
<path d="M191.805 156.155C189.566 159.445 185.789 161.598 181.522 161.598C174.649 161.598 169.088 156.033 169.088 149.155C169.088 142.278 174.649 136.713 181.522 136.713C181.732 136.713 181.942 136.713 182.151 136.73V133.58C181.942 133.58 181.732 133.563 181.522 133.563C172.918 133.563 165.923 140.545 165.923 149.173C165.923 157.8 172.9 164.783 181.522 164.783C186.856 164.783 191.542 162.105 194.358 158.028L191.805 156.155Z" fill="#D80707"/>
<path opacity="0.5" d="M101.08 176.124H69.5327C67.5566 176.124 65.9478 177.734 65.9478 179.712C65.9478 181.689 67.5566 183.299 69.5327 183.299H101.097C103.073 183.299 104.682 181.689 104.682 179.712C104.665 177.734 103.073 176.124 101.08 176.124Z" fill="white"/>
<path opacity="0.5" d="M149.222 176.124H117.658C115.682 176.124 114.073 177.734 114.073 179.712C114.073 181.689 115.682 183.299 117.658 183.299H149.222C151.198 183.299 152.807 181.689 152.807 179.712C152.807 177.734 151.198 176.124 149.222 176.124Z" fill="white"/>
<path opacity="0.5" d="M165.485 183.299H197.033C199.009 183.299 200.617 181.689 200.617 179.712C200.617 177.734 199.009 176.124 197.033 176.124H165.485C163.509 176.124 161.901 177.734 161.901 179.712C161.901 181.689 163.509 183.299 165.485 183.299Z" fill="white"/>
<path d="M78.6087 471.933C78.6087 471.933 77.5244 478.041 76.9998 484.078C76.79 486.441 78.6087 488.488 80.9869 488.593C89.0311 488.926 106.239 489.573 112.412 489.311C113.338 489.276 113.95 488.313 113.601 487.456C113.321 486.738 112.761 486.143 112.044 485.828L83.6275 472.756L78.6087 471.933Z" fill="url(#paint20_linear_8_111)"/>
<path d="M78.6087 471.933C78.6087 471.933 77.5244 478.041 76.9998 484.078C76.79 486.441 78.6087 488.488 80.9869 488.593C89.0311 488.926 106.239 489.573 112.412 489.311C113.338 489.276 113.95 488.313 113.601 487.456C113.321 486.738 112.761 486.143 112.044 485.828L83.6275 472.756L78.6087 471.933Z" fill="url(#paint21_linear_8_111)"/>
<path d="M78.6087 471.933C78.6087 471.933 77.5244 478.041 76.9998 484.078C76.79 486.441 78.6087 488.488 80.9869 488.593C89.0311 488.926 106.239 489.573 112.412 489.311C113.338 489.276 113.95 488.313 113.601 487.456C113.321 486.738 112.761 486.143 112.044 485.828L83.6275 472.756L78.6087 471.933Z" fill="url(#paint22_linear_8_111)"/>
<path d="M77.7168 468.346L78.5912 475.643C78.5912 475.643 83.5752 477.971 86.9678 475.346L84.9042 467.208L77.7168 468.346Z" fill="url(#paint23_linear_8_111)"/>
<path d="M78.3645 331.038C77.9972 332.945 76.3534 426.222 86.3214 468.013C86.4788 468.696 86.1465 469.396 85.482 469.658C83.9606 470.288 80.9527 471.181 77.3677 471.303C76.2484 471.338 75.2516 470.621 74.9368 469.553C72.0863 459.858 58.4459 411.259 56.6621 364.848C54.6685 312.977 56.6621 363.081 56.6621 363.081L57.8338 331.02L78.3645 331.038Z" fill="url(#paint24_linear_8_111)"/>
<path d="M78.3645 331.038C77.9972 332.945 76.3534 426.222 86.3214 468.013C86.4788 468.696 86.1465 469.396 85.482 469.658C83.9606 470.288 80.9527 471.181 77.3677 471.303C76.2484 471.338 75.2516 470.621 74.9368 469.553C72.0863 459.858 58.4459 411.259 56.6621 364.848C54.6685 312.977 56.6621 363.081 56.6621 363.081L57.8338 331.02L78.3645 331.038Z" fill="url(#paint25_linear_8_111)"/>
<path d="M78.3645 331.038C77.9972 332.945 76.3534 426.222 86.3214 468.013C86.4788 468.696 86.1465 469.396 85.482 469.658C83.9606 470.288 80.9527 471.181 77.3677 471.303C76.2484 471.338 75.2516 470.621 74.9368 469.553C72.0863 459.858 58.4459 411.259 56.6621 364.848C54.6685 312.977 56.6621 363.081 56.6621 363.081L57.8338 331.02L78.3645 331.038Z" fill="url(#paint26_linear_8_111)"/>
<path d="M45.9075 475.118C45.9075 475.118 44.1937 478.198 42.5323 486.388C42.2351 487.876 43.2668 489.276 44.7708 489.433C47.4289 489.696 51.5211 490.028 54.7913 490.011C56.2952 489.993 57.4844 488.681 57.292 487.193C56.9248 484.201 55.8056 479.301 52.308 475.468L45.9075 475.118Z" fill="url(#paint27_linear_8_111)"/>
<path d="M45.9075 475.118C45.9075 475.118 44.1937 478.198 42.5323 486.388C42.2351 487.876 43.2668 489.276 44.7708 489.433C47.4289 489.696 51.5211 490.028 54.7913 490.011C56.2952 489.993 57.4844 488.681 57.292 487.193C56.9248 484.201 55.8056 479.301 52.308 475.468L45.9075 475.118Z" fill="url(#paint28_linear_8_111)"/>
<path d="M45.9075 475.118C45.9075 475.118 44.1937 478.198 42.5323 486.388C42.2351 487.876 43.2668 489.276 44.7708 489.433C47.4289 489.696 51.5211 490.028 54.7913 490.011C56.2952 489.993 57.4844 488.681 57.292 487.193C56.9248 484.201 55.8056 479.301 52.308 475.468L45.9075 475.118Z" fill="url(#paint29_linear_8_111)"/>
<path d="M44.4035 465.721L46.4321 476.763C46.4321 476.763 48.4257 478.251 52.3954 477.166L51.4336 465.283L44.4035 465.721Z" fill="url(#paint30_linear_8_111)"/>
<path d="M38.9299 333.89C30.7809 383.101 40.6962 455.518 44.0362 469.693C44.2461 470.568 44.9456 471.233 45.8199 471.373C47.3064 471.618 49.7721 471.828 52.1853 471.111C53.0247 470.866 53.6018 470.113 53.6368 469.238C54.0914 457.776 53.2695 387.424 60.8765 359.633C61.2612 358.216 62.1181 356.991 63.3072 356.151L78.049 345.668L79.1857 328.728L38.9299 333.89Z" fill="url(#paint31_linear_8_111)"/>
<path d="M38.9299 333.89C30.7809 383.101 40.6962 455.518 44.0362 469.693C44.2461 470.568 44.9456 471.233 45.8199 471.373C47.3064 471.618 49.7721 471.828 52.1853 471.111C53.0247 470.866 53.6018 470.113 53.6368 469.238C54.0914 457.776 53.2695 387.424 60.8765 359.633C61.2612 358.216 62.1181 356.991 63.3072 356.151L78.049 345.668L79.1857 328.728L38.9299 333.89Z" fill="url(#paint32_linear_8_111)"/>
<path d="M38.9299 333.89C30.7809 383.101 40.6962 455.518 44.0362 469.693C44.2461 470.568 44.9456 471.233 45.8199 471.373C47.3064 471.618 49.7721 471.828 52.1853 471.111C53.0247 470.866 53.6018 470.113 53.6368 469.238C54.0914 457.776 53.2695 387.424 60.8765 359.633C61.2612 358.216 62.1181 356.991 63.3072 356.151L78.049 345.668L79.1857 328.728L38.9299 333.89Z" fill="url(#paint33_linear_8_111)"/>
<path d="M90.8497 240.648C66.4375 240.245 39.4895 247.07 39.4895 247.07C32.2148 289.579 38.213 338.598 38.213 338.598C57.1167 343.55 78.4337 335.57 78.4337 335.57C81.5815 317.807 96.2358 267.808 96.2358 267.808C108.162 266.321 117.99 262.873 126.087 258.323C119.914 251.166 117.011 242.048 115.734 236.658C107.13 239.335 98.3867 240.77 90.8497 240.648Z" fill="url(#paint34_linear_8_111)"/>
<path d="M90.8497 240.648C66.4375 240.245 39.4895 247.07 39.4895 247.07C32.2148 289.579 38.213 338.598 38.213 338.598C57.1167 343.55 78.4337 335.57 78.4337 335.57C81.5815 317.807 96.2358 267.808 96.2358 267.808C108.162 266.321 117.99 262.873 126.087 258.323C119.914 251.166 117.011 242.048 115.734 236.658C107.13 239.335 98.3867 240.77 90.8497 240.648Z" fill="url(#paint35_linear_8_111)"/>
<path d="M90.8497 240.648C66.4375 240.245 39.4895 247.07 39.4895 247.07C32.2148 289.579 38.213 338.598 38.213 338.598C57.1167 343.55 78.4337 335.57 78.4337 335.57C81.5815 317.807 96.2358 267.808 96.2358 267.808C108.162 266.321 117.99 262.873 126.087 258.323C119.914 251.166 117.011 242.048 115.734 236.658C107.13 239.335 98.3867 240.77 90.8497 240.648Z" fill="url(#paint36_linear_8_111)"/>
<path d="M162.985 204.65C160.589 201.745 157.546 203.127 157.546 203.127C153.961 218.317 135.11 230.638 115.752 236.658C117.011 242.048 119.931 251.166 126.104 258.323C158.228 240.245 162.985 204.65 162.985 204.65Z" fill="url(#paint37_linear_8_111)"/>
<path d="M162.408 205.401C162.653 206.206 159.75 207.414 158.036 204.142C157.983 202.584 157.022 195.864 157.966 194.604C162.95 187.814 172.586 179.292 172.586 179.292C174.212 180.902 172.866 182.476 172.866 182.476L168.179 187.359C169.158 189.126 170.347 190.632 170.907 192.767C171.327 194.394 171.064 196.126 170.26 197.596C169.438 199.084 168.319 201.009 167.252 202.514C165.258 205.366 162.408 205.401 162.408 205.401Z" fill="url(#paint38_linear_8_111)"/>
<path d="M166.15 190.526L161.883 194.149L160.537 197.754L164.349 201.971C164.349 201.971 165.626 194.814 166.57 193.274C167.514 191.734 167.025 190.981 166.15 190.526Z" fill="url(#paint39_linear_8_111)"/>
<path d="M48.8628 270.73L39.4896 247.07C39.4896 247.07 16.6862 262.575 12.9264 282.245C17.2283 282.56 25.0801 283.68 32.757 287.565C34.4533 278.273 48.8628 270.73 48.8628 270.73Z" fill="url(#paint40_linear_8_111)"/>
<path d="M48.8628 270.73L39.4896 247.07C39.4896 247.07 16.6862 262.575 12.9264 282.245C17.2283 282.56 25.0801 283.68 32.757 287.565C34.4533 278.273 48.8628 270.73 48.8628 270.73Z" fill="url(#paint41_linear_8_111)"/>
<path d="M48.8628 270.73L39.4896 247.07C39.4896 247.07 16.6862 262.575 12.9264 282.245C17.2283 282.56 25.0801 283.68 32.757 287.565C34.4533 278.273 48.8628 270.73 48.8628 270.73Z" fill="url(#paint42_linear_8_111)"/>
<path d="M68.7983 292.992C68.7983 292.992 43.1969 307.482 34.5581 295.109C32.757 292.537 32.3373 289.982 32.7744 287.549C25.0975 283.664 17.2632 282.544 12.9439 282.229C11.8072 288.162 12.4192 294.462 15.8992 300.832C31.0257 328.534 72.1908 299.309 72.1908 299.309L68.7983 292.992Z" fill="url(#paint43_linear_8_111)"/>
<path d="M65.7205 311.314L79.6929 262.471C79.8502 261.911 80.3224 261.508 80.8995 261.438C83.4351 261.141 90.7623 260.318 99.2437 259.601C109.456 258.743 121.295 258.043 128.377 258.638C129.392 258.725 129.986 259.793 129.549 260.703C125.527 268.858 108.967 302.022 100.66 312.889C100.38 313.257 99.9606 313.467 99.506 313.449L67.0845 313.152C66.1402 313.134 65.4582 312.224 65.7205 311.314Z" fill="white"/>
<path d="M100.678 255.366L110.803 253.668C111.345 253.581 111.782 254.088 111.608 254.613L110.611 257.658C110.523 257.921 110.296 258.113 110.016 258.148L100.258 259.443C99.7508 259.513 99.3311 259.058 99.4535 258.551L100.083 255.891C100.171 255.628 100.398 255.418 100.678 255.366Z" fill="#D9D9D9"/>
<path d="M93.1056 263.958L93.945 259.6C94.0325 259.163 94.3822 258.83 94.8369 258.795L115.298 256.713C115.98 256.643 116.539 257.273 116.382 257.955L115.088 263.38C114.983 263.818 114.598 264.133 114.161 264.15L94.1549 265.165C93.4904 265.183 92.9832 264.588 93.1056 263.958Z" fill="#D9D9D9"/>
<path d="M69.0957 299.519C69.0957 299.519 67.1545 291.504 67.9415 288.669C68.7284 285.834 70.2499 282.177 75.3213 282.982C80.3928 283.787 86.3736 285.939 86.3736 285.939C86.3736 285.939 86.0763 289.649 82.2115 288.442L84.6073 290.297C84.6073 290.297 84.2576 293.254 81.0048 291.679L83.2258 294.129C83.2258 294.129 81.8268 296.562 79.4309 295.004C77.0351 293.447 75.8809 300.482 69.0957 299.519Z" fill="url(#paint44_linear_8_111)"/>
<path d="M66.1229 220.82L58.3583 243.29C58.2359 243.657 58.3758 244.077 58.7255 244.27C60.8416 245.442 68.4662 248.837 77.6648 242.992C78.6266 242.38 79.2737 241.4 79.4136 240.262L81.9318 220.802H66.1229V220.82Z" fill="url(#paint45_linear_8_111)"/>
<path d="M83.0334 199.995C83.0334 199.995 91.5675 216.06 90.4657 222.552C89.364 229.045 78.8014 228.572 69.5678 223.305L63.1148 205.945L83.0334 199.995Z" fill="url(#paint46_linear_8_111)"/>
<path d="M69.9699 214.782C70.3371 214.607 70.477 214.152 70.2672 213.819C69.5852 212.769 68.3086 210.634 67.8889 208.779C67.8889 208.779 66.35 207.799 71.7886 206.487C77.2271 205.192 85.3412 203.162 87.0375 198.524C88.6988 194.009 84.327 182.652 77.367 191.699C77.1047 192.049 76.5801 192.049 76.3178 191.699C75.1811 190.212 72.1733 187.132 68.0113 189.004C64.1117 190.754 63.6745 193.624 63.7269 195.059C63.7444 195.479 63.3597 195.812 62.94 195.742C60.9639 195.357 56.2424 195.042 54.0215 199.907C52.2028 203.914 53.3919 206.172 54.4587 207.274C54.8084 207.642 54.651 208.219 54.1789 208.377C52.8848 208.779 51.206 209.882 51.3809 212.909C51.6082 217.109 56.3123 216.742 57.6414 216.549C57.8687 216.514 58.0785 216.602 58.2359 216.759C59.3901 218.037 64.5488 223.409 70.1273 224.057C70.6169 224.109 70.9842 223.637 70.8268 223.182L68.4135 216.147C68.3086 215.814 68.466 215.464 68.7808 215.324L69.9699 214.782Z" fill="url(#paint47_linear_8_111)"/>
<path d="M69.9699 214.782C70.3371 214.607 70.477 214.152 70.2672 213.819C69.5852 212.769 68.3086 210.634 67.8889 208.779C67.8889 208.779 66.35 207.799 71.7886 206.487C77.2271 205.192 85.3412 203.162 87.0375 198.524C88.6988 194.009 84.327 182.652 77.367 191.699C77.1047 192.049 76.5801 192.049 76.3178 191.699C75.1811 190.212 72.1733 187.132 68.0113 189.004C64.1117 190.754 63.6745 193.624 63.7269 195.059C63.7444 195.479 63.3597 195.812 62.94 195.742C60.9639 195.357 56.2424 195.042 54.0215 199.907C52.2028 203.914 53.3919 206.172 54.4587 207.274C54.8084 207.642 54.651 208.219 54.1789 208.377C52.8848 208.779 51.206 209.882 51.3809 212.909C51.6082 217.109 56.3123 216.742 57.6414 216.549C57.8687 216.514 58.0785 216.602 58.2359 216.759C59.3901 218.037 64.5488 223.409 70.1273 224.057C70.6169 224.109 70.9842 223.637 70.8268 223.182L68.4135 216.147C68.3086 215.814 68.466 215.464 68.7808 215.324L69.9699 214.782Z" fill="url(#paint48_linear_8_111)"/>
<path d="M69.9699 214.782C70.3371 214.607 70.477 214.152 70.2672 213.819C69.5852 212.769 68.3086 210.634 67.8889 208.779C67.8889 208.779 66.35 207.799 71.7886 206.487C77.2271 205.192 85.3412 203.162 87.0375 198.524C88.6988 194.009 84.327 182.652 77.367 191.699C77.1047 192.049 76.5801 192.049 76.3178 191.699C75.1811 190.212 72.1733 187.132 68.0113 189.004C64.1117 190.754 63.6745 193.624 63.7269 195.059C63.7444 195.479 63.3597 195.812 62.94 195.742C60.9639 195.357 56.2424 195.042 54.0215 199.907C52.2028 203.914 53.3919 206.172 54.4587 207.274C54.8084 207.642 54.651 208.219 54.1789 208.377C52.8848 208.779 51.206 209.882 51.3809 212.909C51.6082 217.109 56.3123 216.742 57.6414 216.549C57.8687 216.514 58.0785 216.602 58.2359 216.759C59.3901 218.037 64.5488 223.409 70.1273 224.057C70.6169 224.109 70.9842 223.637 70.8268 223.182L68.4135 216.147C68.3086 215.814 68.466 215.464 68.7808 215.324L69.9699 214.782Z" fill="url(#paint49_linear_8_111)"/>
<path d="M70.9493 215.779C70.9493 215.779 64.8811 211.614 64.4264 215.114C63.9892 218.632 69.9001 220.207 72.8205 218.894L70.9493 215.779Z" fill="url(#paint50_linear_8_111)"/>
<defs>
<linearGradient id="paint0_linear_8_111" x1="219.662" y1="72.6202" x2="278.419" y2="72.6202" gradientUnits="userSpaceOnUse">
<stop stop-color="#DAE3FE"/>
<stop offset="1" stop-color="#E9EFFD"/>
</linearGradient>
<linearGradient id="paint1_linear_8_111" x1="154.763" y1="108.188" x2="171.039" y2="108.188" gradientUnits="userSpaceOnUse">
<stop stop-color="#DAE3FE"/>
<stop offset="1" stop-color="#E9EFFD"/>
</linearGradient>
<linearGradient id="paint2_linear_8_111" x1="142.763" y1="108.076" x2="183.301" y2="108.076" gradientUnits="userSpaceOnUse">
<stop stop-color="#DAE3FE"/>
<stop offset="1" stop-color="#E9EFFD"/>
</linearGradient>
<linearGradient id="paint3_linear_8_111" x1="170.292" y1="446.409" x2="330.865" y2="203.363" gradientUnits="userSpaceOnUse">
<stop stop-color="#FF928E"/>
<stop offset="1" stop-color="#FE7062"/>
</linearGradient>
<linearGradient id="paint4_linear_8_111" x1="189.932" y1="459.385" x2="350.504" y2="216.341" gradientUnits="userSpaceOnUse">
<stop stop-color="#FF928E"/>
<stop offset="1" stop-color="#FE7062"/>
</linearGradient>
<linearGradient id="paint5_linear_8_111" x1="183.304" y1="455.006" x2="343.877" y2="211.96" gradientUnits="userSpaceOnUse">
<stop stop-color="#FF928E"/>
<stop offset="1" stop-color="#FE7062"/>
</linearGradient>
<linearGradient id="paint6_linear_8_111" x1="220.564" y1="479.62" x2="381.132" y2="236.577" gradientUnits="userSpaceOnUse">
<stop stop-color="#FF928E"/>
<stop offset="1" stop-color="#FE7062"/>
</linearGradient>
<linearGradient id="paint7_linear_8_111" x1="211.882" y1="473.888" x2="372.455" y2="230.843" gradientUnits="userSpaceOnUse">
<stop stop-color="#FF928E"/>
<stop offset="1" stop-color="#FE7062"/>
</linearGradient>
<linearGradient id="paint8_linear_8_111" x1="228.928" y1="485.15" x2="389.5" y2="242.105" gradientUnits="userSpaceOnUse">
<stop stop-color="#FF928E"/>
<stop offset="1" stop-color="#FE7062"/>
</linearGradient>
<linearGradient id="paint9_linear_8_111" x1="104.731" y1="270.043" x2="85.5379" y2="328.028" gradientUnits="userSpaceOnUse">
<stop stop-color="#FDF53F"/>
<stop offset="1" stop-color="#D93C65"/>
</linearGradient>
<linearGradient id="paint10_linear_8_111" x1="118.234" y1="293.274" x2="105.591" y2="331.472" gradientUnits="userSpaceOnUse">
<stop stop-color="#4F52FF"/>
<stop offset="1" stop-color="#4042E2"/>
</linearGradient>
<linearGradient id="paint11_linear_8_111" x1="138.52" y1="272.428" x2="125.877" y2="310.626" gradientUnits="userSpaceOnUse">
<stop stop-color="#4F52FF"/>
<stop offset="1" stop-color="#4042E2"/>
</linearGradient>
<linearGradient id="paint12_linear_8_111" x1="158.996" y1="293.941" x2="146.352" y2="332.139" gradientUnits="userSpaceOnUse">
<stop stop-color="#4F52FF"/>
<stop offset="1" stop-color="#4042E2"/>
</linearGradient>
<linearGradient id="paint13_linear_8_111" x1="188.806" y1="261.89" x2="176.162" y2="300.088" gradientUnits="userSpaceOnUse">
<stop stop-color="#4F52FF"/>
<stop offset="1" stop-color="#4042E2"/>
</linearGradient>
<linearGradient id="paint14_linear_8_111" x1="450.095" y1="224.012" x2="378.546" y2="291.866" gradientUnits="userSpaceOnUse">
<stop stop-color="#FF928E"/>
<stop offset="1" stop-color="#FE7062"/>
</linearGradient>
<linearGradient id="paint15_linear_8_111" x1="445.358" y1="162.179" x2="381.844" y2="222.413" gradientUnits="userSpaceOnUse">
<stop stop-color="#FF928E"/>
<stop offset="1" stop-color="#FE7062"/>
</linearGradient>
<linearGradient id="paint16_linear_8_111" x1="445.961" y1="293.894" x2="382.448" y2="354.128" gradientUnits="userSpaceOnUse">
<stop stop-color="#FF928E"/>
<stop offset="1" stop-color="#FE7062"/>
</linearGradient>
<linearGradient id="paint17_linear_8_111" x1="111.541" y1="124.117" x2="43.9749" y2="188.195" gradientUnits="userSpaceOnUse">
<stop stop-color="#FF928E"/>
<stop offset="1" stop-color="#FE7062"/>
</linearGradient>
<linearGradient id="paint18_linear_8_111" x1="155.116" y1="128.017" x2="95.1369" y2="184.899" gradientUnits="userSpaceOnUse">
<stop stop-color="#FF928E"/>
<stop offset="1" stop-color="#FE7062"/>
</linearGradient>
<linearGradient id="paint19_linear_8_111" x1="203.664" y1="128.136" x2="143.685" y2="185.018" gradientUnits="userSpaceOnUse">
<stop stop-color="#FF928E"/>
<stop offset="1" stop-color="#FE7062"/>
</linearGradient>
<linearGradient id="paint20_linear_8_111" x1="111.498" y1="463.494" x2="7.34486" y2="576.701" gradientUnits="userSpaceOnUse">
<stop stop-color="#4F52FF"/>
<stop offset="1" stop-color="#4042E2"/>
</linearGradient>
<linearGradient id="paint21_linear_8_111" x1="7.28072" y1="470.997" x2="86.7644" y2="492.557" gradientUnits="userSpaceOnUse">
<stop stop-color="#03013A"/>
<stop offset="1" stop-color="#03013A"/>
</linearGradient>
<linearGradient id="paint22_linear_8_111" x1="76.8894" y1="480.662" x2="113.581" y2="480.662" gradientUnits="userSpaceOnUse">
<stop/>
<stop offset="1"/>
</linearGradient>
<linearGradient id="paint23_linear_8_111" x1="77.718" y1="471.908" x2="86.9623" y2="471.908" gradientUnits="userSpaceOnUse">
<stop stop-color="#FEBBBA"/>
<stop offset="1" stop-color="#FF928E"/>
</linearGradient>
<linearGradient id="paint24_linear_8_111" x1="55.7981" y1="401.172" x2="86.3645" y2="401.172" gradientUnits="userSpaceOnUse">
<stop stop-color="#E1473D"/>
<stop offset="1" stop-color="#E9605A"/>
</linearGradient>
<linearGradient id="paint25_linear_8_111" x1="-2.28362" y1="323.49" x2="68.7384" y2="325.485" gradientUnits="userSpaceOnUse">
<stop stop-color="#03013A"/>
<stop offset="1" stop-color="#03013A"/>
</linearGradient>
<linearGradient id="paint26_linear_8_111" x1="55.6978" y1="401.241" x2="86.2603" y2="401.241" gradientUnits="userSpaceOnUse">
<stop/>
<stop offset="1"/>
</linearGradient>
<linearGradient id="paint27_linear_8_111" x1="88.1525" y1="442.015" x2="-16.0002" y2="555.225" gradientUnits="userSpaceOnUse">
<stop stop-color="#4F52FF"/>
<stop offset="1" stop-color="#4042E2"/>
</linearGradient>
<linearGradient id="paint28_linear_8_111" x1="14.3259" y1="474.319" x2="48.2362" y2="478.669" gradientUnits="userSpaceOnUse">
<stop stop-color="#03013A"/>
<stop offset="1" stop-color="#03013A"/>
</linearGradient>
<linearGradient id="paint29_linear_8_111" x1="42.4432" y1="482.573" x2="57.2642" y2="482.573" gradientUnits="userSpaceOnUse">
<stop/>
<stop offset="1"/>
</linearGradient>
<linearGradient id="paint30_linear_8_111" x1="44.4025" y1="471.434" x2="52.3841" y2="471.434" gradientUnits="userSpaceOnUse">
<stop stop-color="#FEBBBA"/>
<stop offset="1" stop-color="#FF928E"/>
</linearGradient>
<linearGradient id="paint31_linear_8_111" x1="35.7996" y1="400.171" x2="79.1929" y2="400.171" gradientUnits="userSpaceOnUse">
<stop stop-color="#E1473D"/>
<stop offset="1" stop-color="#E9605A"/>
</linearGradient>
<linearGradient id="paint32_linear_8_111" x1="-46.5839" y1="321.058" x2="54.1091" y2="324.998" gradientUnits="userSpaceOnUse">
<stop stop-color="#03013A"/>
<stop offset="1" stop-color="#03013A"/>
</linearGradient>
<linearGradient id="paint33_linear_8_111" x1="35.6814" y1="400.245" x2="79.0443" y2="400.245" gradientUnits="userSpaceOnUse">
<stop/>
<stop offset="1"/>
</linearGradient>
<linearGradient id="paint34_linear_8_111" x1="4.01884" y1="332.074" x2="104.326" y2="257.784" gradientUnits="userSpaceOnUse">
<stop stop-color="#FF928E"/>
<stop offset="1" stop-color="#FE7062"/>
</linearGradient>
<linearGradient id="paint35_linear_8_111" x1="-135.341" y1="231.099" x2="71.676" y2="254.327" gradientUnits="userSpaceOnUse">
<stop stop-color="#03013A"/>
<stop offset="1" stop-color="#03013A"/>
</linearGradient>
<linearGradient id="paint36_linear_8_111" x1="35.6578" y1="288.496" x2="125.793" y2="288.496" gradientUnits="userSpaceOnUse">
<stop/>
<stop offset="1"/>
</linearGradient>
<linearGradient id="paint37_linear_8_111" x1="115.757" y1="230.56" x2="162.984" y2="230.56" gradientUnits="userSpaceOnUse">
<stop stop-color="#FEBBBA"/>
<stop offset="1" stop-color="#FF928E"/>
</linearGradient>
<linearGradient id="paint38_linear_8_111" x1="152.463" y1="222.637" x2="120.735" y2="294.775" gradientUnits="userSpaceOnUse">
<stop stop-color="#FEBBBA"/>
<stop offset="1" stop-color="#FF928E"/>
</linearGradient>
<linearGradient id="paint39_linear_8_111" x1="162.757" y1="198.607" x2="175.993" y2="178.27" gradientUnits="userSpaceOnUse">
<stop stop-color="#FEBBBA"/>
<stop offset="1" stop-color="#FF928E"/>
</linearGradient>
<linearGradient id="paint40_linear_8_111" x1="-15.5606" y1="305.636" x2="84.7451" y2="231.345" gradientUnits="userSpaceOnUse">
<stop stop-color="#FF928E"/>
<stop offset="1" stop-color="#FE7062"/>
</linearGradient>
<linearGradient id="paint41_linear_8_111" x1="-55.2942" y1="244.897" x2="27.1456" y2="254.322" gradientUnits="userSpaceOnUse">
<stop stop-color="#03013A"/>
<stop offset="1" stop-color="#03013A"/>
</linearGradient>
<linearGradient id="paint42_linear_8_111" x1="12.8344" y1="267.34" x2="48.7456" y2="267.34" gradientUnits="userSpaceOnUse">
<stop/>
<stop offset="1"/>
</linearGradient>
<linearGradient id="paint43_linear_8_111" x1="12.4163" y1="297.505" x2="72.1817" y2="297.505" gradientUnits="userSpaceOnUse">
<stop stop-color="#FEBBBA"/>
<stop offset="1" stop-color="#FF928E"/>
</linearGradient>
<linearGradient id="paint44_linear_8_111" x1="67.7444" y1="291.235" x2="86.3643" y2="291.235" gradientUnits="userSpaceOnUse">
<stop stop-color="#FEBBBA"/>
<stop offset="1" stop-color="#FF928E"/>
</linearGradient>
<linearGradient id="paint45_linear_8_111" x1="58.3077" y1="233.564" x2="81.9377" y2="233.564" gradientUnits="userSpaceOnUse">
<stop stop-color="#FEBBBA"/>
<stop offset="1" stop-color="#FF928E"/>
</linearGradient>
<linearGradient id="paint46_linear_8_111" x1="87.5576" y1="218.521" x2="61.5666" y2="202.679" gradientUnits="userSpaceOnUse">
<stop stop-color="#FEBBBA"/>
<stop offset="1" stop-color="#FF928E"/>
</linearGradient>
<linearGradient id="paint47_linear_8_111" x1="47.8241" y1="185.947" x2="81.4066" y2="212.452" gradientUnits="userSpaceOnUse">
<stop stop-color="#09005D"/>
<stop offset="1" stop-color="#1A0F91"/>
</linearGradient>
<linearGradient id="paint48_linear_8_111" x1="-17.0146" y1="186.377" x2="65.3152" y2="197.06" gradientUnits="userSpaceOnUse">
<stop stop-color="#03013A"/>
<stop offset="1" stop-color="#03013A"/>
</linearGradient>
<linearGradient id="paint49_linear_8_111" x1="51.2761" y1="206.199" x2="87.2727" y2="206.199" gradientUnits="userSpaceOnUse">
<stop/>
<stop offset="1"/>
</linearGradient>
<linearGradient id="paint50_linear_8_111" x1="80.7335" y1="224.434" x2="57.3487" y2="210.181" gradientUnits="userSpaceOnUse">
<stop stop-color="#FEBBBA"/>
<stop offset="1" stop-color="#FF928E"/>
</linearGradient>
</defs>
</svg>
