<svg width="130" height="128" viewBox="0 0 130 128" fill="none" xmlns="http://www.w3.org/2000/svg">
<g clip-path="url(#clip0_50_1492)">
<path d="M113.694 110.231C110.384 113.659 107.42 115.675 105.147 117.193C83.0179 132.027 57.7237 127.753 49.9009 126.29C37.2834 123.931 26.6329 122.267 17.4806 113.97C-3.31488 95.1086 -2.30402 55.7623 13.5874 31.3875C15.4725 28.4983 31.3366 4.88689 56.69 1.55889C57.3093 1.4766 57.7737 1.43089 58.179 1.38975C62.0995 0.973746 86.4011 -1.22511 106.218 15.4423C109.054 17.8286 113.617 22.1303 117.851 28.6949C133.329 52.6949 133.379 89.8606 113.694 110.231Z" fill="url(#paint0_linear_50_1492)"/>
<path d="M113.694 110.231C110.384 113.659 107.42 115.675 105.147 117.193C83.0179 132.027 57.7237 127.753 49.9009 126.29C37.2834 123.931 26.6329 122.267 17.4806 113.97C-3.31488 95.1086 -2.30402 55.7623 13.5874 31.3875C15.4725 28.4983 31.3366 4.88689 56.69 1.55889C57.3093 1.4766 57.7737 1.43089 58.179 1.38975C62.0995 0.973746 86.4011 -1.22511 106.218 15.4423C109.054 17.8286 113.617 22.1303 117.851 28.6949C133.329 52.6949 133.379 89.8606 113.694 110.231Z" fill="#F7F7F7"/>
<path d="M23.3863 1.06969C23.1404 0.310829 24.0192 -0.310886 24.6567 0.164543C31.1089 4.99654 46.9867 19.8628 46.7544 49.0331C46.4585 85.632 55.4423 97.9474 65.6739 104.919C65.6739 104.919 52.4416 102.601 42.8749 90.1531C19.3793 59.5977 27.7348 14.5325 23.3863 1.06969Z" fill="#929292"/>
<path d="M29.1009 11.84C30.2847 15.776 31.3912 19.7303 32.352 23.7257C33.3355 27.712 34.1961 31.7257 34.9292 35.7623C35.6487 39.7989 36.2907 43.8492 36.7643 47.9223C37.256 51.9909 37.5702 56.0777 37.8707 60.1829C38.194 64.2835 38.4991 68.416 39.2277 72.5257C39.9471 76.6309 41.1674 80.7177 43.0981 84.4572C43.5807 85.3897 44.0816 86.3177 44.628 87.2046C45.1608 88.1052 45.7345 88.9783 46.3219 89.8423C47.5103 91.5657 48.8126 93.2115 50.2287 94.7566C53.0746 97.8332 56.3849 100.475 59.9411 102.624C60.3145 102.848 60.8017 102.729 61.0294 102.354C61.2525 101.984 61.1387 101.509 60.779 101.275H60.7744C59.9229 100.727 59.0805 100.174 58.2655 99.5795C57.8511 99.2915 57.455 98.9806 57.0497 98.6834C56.6581 98.368 56.2529 98.0709 55.8704 97.7417C54.3177 96.4617 52.856 95.072 51.5037 93.5863C48.7898 90.624 46.4995 87.2366 44.6508 83.6709C43.7446 81.8743 42.9751 80.0137 42.3513 78.1029C41.7275 76.1875 41.2494 74.2263 40.8805 72.2332C40.1429 68.2423 39.8105 64.1555 39.4553 60.0595C39.0956 55.9635 38.7086 51.8446 38.1485 47.7532C37.8753 45.7052 37.5657 43.6663 37.2196 41.6275C37.0511 40.608 36.8644 39.5932 36.6823 38.5783C36.4865 37.5635 36.2861 36.5532 36.0812 35.5429C35.2389 31.5017 34.2781 27.488 33.1898 23.5155C32.0833 19.5429 30.8721 15.6023 29.5107 11.7166C29.4697 11.6069 29.3513 11.5475 29.242 11.584C29.1282 11.6115 29.069 11.7303 29.1009 11.84Z" fill="white"/>
<path d="M63.7159 119.209C63.8616 120.448 62.696 121.435 61.4984 121.097C54.8869 119.232 36.6686 112.27 27.2431 90.432C19.2837 71.9908 13.2231 62.7474 10.186 58.7474C9.54396 57.9017 10.3499 56.7223 11.3699 57.0194C22.5986 60.3017 58.4932 74.24 63.7159 119.209Z" fill="#929292"/>
<path d="M62.2133 119.973C62.1997 120 62.1815 120.023 62.1587 120.05C61.9811 120.256 61.676 120.274 61.4711 120.101C61.2435 119.899 38.3489 99.8079 26.1275 74.6651C26.0091 74.4228 26.1093 74.1302 26.3506 74.0114C26.592 73.8925 26.8834 73.9931 27.0018 74.2354C39.1321 99.1908 61.8809 119.163 62.1086 119.36C62.2907 119.52 62.3272 119.776 62.2133 119.973Z" fill="white"/>
<path d="M67.9232 123.566C66.2749 123.822 65.469 121.618 66.8987 120.75C73.5148 116.736 83.3866 108.421 88.1222 92.8686C95.4031 68.9738 99.9702 34.7749 128.611 28.4069C129.581 28.1921 130.341 29.2298 129.841 30.0892C126.876 35.1406 119.7 48.4115 116.681 63.2275C113.125 80.6721 96.933 119.026 67.9232 123.566Z" fill="#929292"/>
<path d="M121.918 37.2984L121.863 37.3258L121.79 37.367C121.74 37.3944 121.69 37.4218 121.64 37.4538C121.535 37.5133 121.435 37.5773 121.33 37.6458C121.125 37.7784 120.92 37.911 120.72 38.0573C120.319 38.3407 119.923 38.6378 119.536 38.9487C118.767 39.5704 118.029 40.2378 117.328 40.9373C116.622 41.6367 115.957 42.3818 115.324 43.1453C114.682 43.9041 114.09 44.7087 113.517 45.5224C111.249 48.8047 109.523 52.4573 108.303 56.2698C107.693 58.1761 107.215 60.1281 106.837 62.0984L106.573 63.5795L106.359 65.0698L106.145 66.5784L106.04 67.3373C106.003 67.5887 105.958 67.8401 105.917 68.0915C105.603 70.1075 105.197 72.1098 104.742 74.0984C104.296 76.087 103.754 78.0573 103.176 80.0093L102.73 81.4721L102.251 82.9258C102.097 83.4104 101.924 83.8904 101.755 84.3704C101.582 84.8504 101.423 85.335 101.236 85.8058C100.53 87.7167 99.7516 89.6001 98.932 91.4607C98.0987 93.3167 97.1926 95.1453 96.2455 96.9418C95.2802 98.7338 94.2556 100.494 93.1719 102.213C92.0791 103.927 90.9134 105.596 89.6886 107.218C88.4591 108.837 87.1386 110.386 85.759 111.872C84.3793 113.362 82.904 114.761 81.3513 116.064C79.7985 117.367 78.1684 118.574 76.4518 119.648C78.1411 118.537 79.7439 117.294 81.2602 115.959C82.7765 114.624 84.2154 113.193 85.5541 111.685C86.8973 110.176 88.1723 108.604 89.3653 106.976C90.5537 105.344 91.683 103.662 92.7393 101.943C93.7866 100.215 94.7747 98.4504 95.6991 96.6538C96.6097 94.8527 97.4749 93.0241 98.2717 91.1681C99.0595 89.3075 99.8108 87.4333 100.485 85.527C100.662 85.0561 100.813 84.5715 100.976 84.0961C101.14 83.6161 101.304 83.1407 101.45 82.6561L101.905 81.2115L102.329 79.7578C102.875 77.815 103.385 75.8584 103.804 73.8835C104.228 71.9087 104.606 69.9247 104.888 67.9315C104.924 67.6801 104.965 67.4333 104.997 67.1818L105.093 66.4321C105.157 65.9293 105.216 65.4355 105.289 64.9281L105.493 63.4058L105.753 61.8881C106.122 59.8721 106.6 57.8744 107.21 55.9133C107.82 53.9521 108.558 52.0275 109.45 50.1715C110.343 48.3155 111.376 46.5327 112.551 44.8367C113.731 43.1498 115.047 41.5498 116.522 40.1098C117.259 39.3875 118.029 38.7018 118.84 38.0573C119.04 37.8927 119.249 37.7418 119.454 37.5864C119.664 37.4355 119.873 37.2801 120.092 37.1384C120.306 36.9921 120.524 36.8504 120.747 36.7133C120.861 36.6447 120.971 36.5761 121.089 36.5121C121.144 36.4801 121.203 36.4435 121.266 36.4115L121.358 36.3613L121.471 36.3064C121.74 36.1738 122.059 36.2881 122.191 36.5533C122.318 36.8184 122.214 37.1338 121.959 37.271L121.918 37.2984Z" fill="white"/>
<path d="M82.863 116.768C82.8038 120.809 77.6357 125.12 71.6616 125.12C65.6876 125.12 61.1751 121.961 60.8473 117.929C60.0686 108.315 65.6876 108.416 71.6616 108.416C77.6357 108.416 83.0042 106.775 82.863 116.768Z" fill="black"/>
<path d="M87.2526 110.866C87.4302 113.052 80.8141 115.374 72.4813 116.046C64.1486 116.718 57.2502 115.493 57.0726 113.308C56.895 111.122 63.5111 108.8 71.8439 108.128C80.1766 107.456 87.075 108.681 87.2526 110.866Z" fill="url(#paint1_linear_50_1492)"/>
<path d="M87.2526 110.866C87.4302 113.052 80.8141 115.374 72.4813 116.046C64.1486 116.718 57.2502 115.493 57.0726 113.308C56.895 111.122 63.5111 108.8 71.8439 108.128C80.1766 107.456 87.075 108.681 87.2526 110.866Z" fill="black"/>
<path d="M87.2526 107.022C87.4302 109.207 80.8141 111.529 72.4813 112.201C64.1486 112.878 57.2502 111.648 57.0726 109.463C56.895 107.278 63.5111 104.955 71.8439 104.283C80.1766 103.611 87.075 104.837 87.2526 107.022Z" fill="url(#paint2_linear_50_1492)"/>
<path d="M87.2526 107.022C87.4302 109.207 80.8141 111.529 72.4813 112.201C64.1486 112.878 57.2502 111.648 57.0726 109.463C56.895 107.278 63.5111 104.955 71.8439 104.283C80.1766 103.611 87.075 104.837 87.2526 107.022Z" fill="black"/>
<path d="M87.2526 103.177C87.4302 105.362 80.8141 107.685 72.4813 108.357C64.1486 109.029 57.2502 107.803 57.0726 105.618C56.895 103.433 63.5111 101.111 71.8439 100.439C80.1766 99.7669 87.075 100.992 87.2526 103.177Z" fill="url(#paint3_linear_50_1492)"/>
<path d="M87.2526 103.177C87.4302 105.362 80.8141 107.685 72.4813 108.357C64.1486 109.029 57.2502 107.803 57.0726 105.618C56.895 103.433 63.5111 101.111 71.8439 100.439C80.1766 99.7669 87.075 100.992 87.2526 103.177Z" fill="black"/>
<path d="M87.2526 99.3325C87.4302 101.518 80.8141 103.84 72.4813 104.512C64.1486 105.184 57.2502 103.959 57.0726 101.774C56.895 99.5886 63.5111 97.2663 71.8439 96.5943C80.1766 95.9223 87.075 97.1474 87.2526 99.3325Z" fill="url(#paint4_linear_50_1492)"/>
<path d="M87.2526 99.3325C87.4302 101.518 80.8141 103.84 72.4813 104.512C64.1486 105.184 57.2502 103.959 57.0726 101.774C56.895 99.5886 63.5111 97.2663 71.8439 96.5943C80.1766 95.9223 87.075 97.1474 87.2526 99.3325Z" fill="black"/>
<path d="M67.9871 116.439C65.5101 116.439 63.247 116.256 61.3756 115.895C61.2663 115.872 61.198 115.767 61.2162 115.662C61.239 115.552 61.3391 115.483 61.4484 115.502C64.3763 116.064 68.2876 116.187 72.4631 115.849C75.8782 115.575 79.0701 115.022 81.6974 114.249C81.8022 114.217 81.916 114.281 81.9479 114.386C81.9798 114.491 81.916 114.606 81.8113 114.638C79.1566 115.415 75.9374 115.973 72.495 116.251C70.9423 116.375 69.4305 116.439 67.9871 116.439Z" fill="white"/>
<path d="M68.0281 112.59C64.8134 112.59 61.9402 112.288 59.9094 111.707C59.8046 111.675 59.7409 111.566 59.7728 111.461C59.8046 111.355 59.9139 111.291 60.0187 111.323C62.9055 112.151 67.5591 112.407 72.4631 112.009C77.3125 111.616 81.8341 110.629 84.5616 109.367C84.6617 109.321 84.7801 109.362 84.8257 109.467C84.8712 109.568 84.8302 109.687 84.7255 109.733C81.957 111.013 77.3854 112.014 72.4905 112.411C70.9651 112.53 69.4624 112.59 68.0281 112.59Z" fill="white"/>
<path d="M67.9871 108.745C64.5129 108.745 61.4757 108.389 59.4312 107.712C59.3265 107.675 59.2673 107.566 59.3038 107.456C59.3402 107.351 59.4495 107.291 59.5587 107.328C62.4046 108.27 67.2312 108.581 72.4677 108.155C77.3171 107.762 81.8386 106.775 84.5661 105.513C84.6663 105.467 84.7847 105.509 84.8302 105.614C84.8757 105.714 84.8348 105.833 84.73 105.879C81.9615 107.159 77.3899 108.16 72.495 108.558C70.9423 108.686 69.426 108.745 67.9871 108.745Z" fill="white"/>
<path d="M68.0145 104.901C65.2597 104.901 62.7553 104.677 60.8064 104.242C60.6972 104.219 60.6289 104.11 60.6562 104.005C60.6789 103.895 60.7882 103.826 60.893 103.854C63.8208 104.507 68.0373 104.677 72.4632 104.32C77.267 103.931 81.7704 102.953 84.4979 101.705C84.598 101.659 84.7164 101.705 84.762 101.806C84.8075 101.906 84.762 102.025 84.6618 102.071C81.8887 103.337 77.3399 104.329 72.4905 104.718C70.9605 104.837 69.4534 104.901 68.0145 104.901Z" fill="white"/>
<path d="M51.4764 84.9737C50.4655 81.376 48.7443 78.0115 46.4312 75.0812C41.468 68.8 33.372 56.0366 32.3748 38.6103C30.9268 13.2663 53.316 0.576032 73.7471 2.29946C94.1783 4.02289 114.341 19.296 112.132 42.8755C110.776 57.3852 102.684 68.3886 96.6645 74.7109C92.8396 78.7246 90.1121 83.6389 88.6368 88.992C86.8291 95.5429 82.5307 103.707 72.3037 104.206C59.076 104.841 53.5801 92.4617 51.4764 84.9737Z" fill="url(#paint5_linear_50_1492)"/>
<path d="M75.6823 97.9384L82.8312 51.2549C82.9769 50.2904 83.4504 49.6412 83.8876 49.8104C84.3247 49.9749 84.5569 50.8938 84.4067 51.8584C84.4021 51.8858 84.3976 51.9178 84.393 51.9407L76.2515 98.1898C76.1923 98.5372 76.0147 98.7567 75.8599 98.679C75.7096 98.6058 75.6322 98.2767 75.6823 97.9384Z" fill="url(#paint6_linear_50_1492)"/>
<path d="M68.2603 98.3086L61.1114 51.6252C60.9657 50.6606 60.4922 50.0115 60.055 50.1806C59.6179 50.3452 59.3857 51.264 59.536 52.2286C59.5405 52.256 59.5451 52.288 59.5496 52.3109L67.6911 98.56C67.7503 98.9075 67.9279 99.1269 68.0827 99.0492C68.2375 98.976 68.3149 98.6469 68.2603 98.3086Z" fill="url(#paint7_linear_50_1492)"/>
<path opacity="0.6" d="M82.7812 47.2503C82.599 46.9578 82.1801 46.8481 81.8432 47.0035L77.8635 48.8686L76.4838 44.9143C76.4109 44.7086 76.2424 44.5258 76.0011 44.4252C75.5412 44.2378 74.9948 44.4069 74.7762 44.8046L74.7671 44.8183L71.4932 50.8115L68.4561 42.2858L68.4516 42.2721C68.3787 42.0618 68.2193 41.8789 67.9917 41.7509C67.4817 41.4721 66.8078 41.6046 66.489 42.0481L61.9129 48.3749C61.7262 48.6355 61.7899 48.9829 62.0722 49.1749C62.3727 49.3806 62.8099 49.3303 63.0467 49.0698L67.0764 44.5578L70.7055 52.6721L70.7101 52.6766C70.7692 52.8046 70.8785 52.9189 71.0288 52.9921C71.3703 53.1521 71.7938 53.0423 71.9805 52.7452L75.482 47.1041L76.798 49.9566L76.8116 49.9841C76.8207 50.0023 76.8298 50.0252 76.8435 50.0435C77.0256 50.3361 77.4446 50.4458 77.7815 50.2858L82.5079 48.0686C82.8358 47.9086 82.9633 47.5429 82.7812 47.2503Z" fill="white"/>
<path opacity="0.6" d="M96.8192 66.8069C96.7691 66.8069 96.7236 66.7932 96.6781 66.7612C96.5733 66.6835 96.5551 66.5372 96.628 66.432C97.8574 64.768 98.9912 63.0446 99.9884 61.312C100.052 61.1977 100.198 61.1612 100.307 61.2252C100.421 61.2892 100.457 61.4355 100.394 61.5452C99.3874 63.296 98.249 65.0332 97.0059 66.7109C96.9604 66.7703 96.8921 66.8069 96.8192 66.8069Z" fill="white"/>
<path opacity="0.6" d="M102.702 56.672C102.67 56.672 102.639 56.6675 102.611 56.6537C102.493 56.6035 102.438 56.4617 102.488 56.3429C106.495 47.0812 106.545 38.6515 105.881 33.2115C105.161 27.3143 103.472 23.5566 103.454 23.52C103.399 23.4012 103.449 23.264 103.567 23.2092C103.686 23.1543 103.822 23.2046 103.877 23.3235C103.895 23.36 105.612 27.168 106.34 33.1337C107.014 38.6377 106.964 47.1589 102.916 56.5303C102.88 56.6172 102.793 56.672 102.702 56.672Z" fill="white"/>
<path d="M118.598 50.4823L117.656 49.6823C117.218 49.312 116.576 49.3303 116.162 49.7234L71.9257 91.9314L48.2752 71.84C47.8199 71.456 47.146 71.4926 46.7407 71.9269L0.300441 121.609C-0.123026 122.062 -0.100259 122.77 0.350529 123.195C0.582753 123.415 0.883279 123.515 1.17925 123.497C1.45701 123.483 1.72566 123.365 1.93056 123.145L47.6423 74.2446L71.2472 94.2949C71.6843 94.6651 72.3264 94.6469 72.7407 94.2537L116.977 52.0457L118.776 53.5726L118.598 50.4823Z" fill="white"/>
<path d="M47.3401 80.2377C50.3857 80.0619 52.7197 77.5653 52.5534 74.6615C52.387 71.7576 49.7833 69.5462 46.7377 69.722C43.6922 69.8979 41.3581 72.3944 41.5245 75.2983C41.6908 78.2021 44.2946 80.4136 47.3401 80.2377Z" fill="white"/>
<path d="M72.1484 98.0398C75.1939 97.8639 77.528 95.3674 77.3617 92.4635C77.1954 89.5597 74.5916 87.3482 71.5461 87.524C68.5005 87.6999 66.1664 90.1964 66.3328 93.1003C66.4991 96.0041 69.1028 98.2156 72.1484 98.0398Z" fill="white"/>
<path d="M117.207 55.8022C120.252 55.6264 122.586 53.1298 122.42 50.226C122.254 47.3221 119.65 45.1106 116.604 45.2865C113.559 45.4623 111.225 47.9589 111.391 50.8627C111.557 53.7665 114.161 55.978 117.207 55.8022Z" fill="white"/>
<path d="M124.29 108.014L122.851 106.286C122.464 105.82 122.332 105.193 122.491 104.604C122.888 103.127 123.111 101.623 123.161 100.119C123.184 99.511 123.489 98.9487 123.999 98.615L125.879 97.3898C126.671 96.8733 127.054 95.9087 126.822 94.9853L126.139 92.2333C125.911 91.3099 125.123 90.6379 124.181 90.551L121.945 90.3499C121.339 90.295 120.807 89.943 120.502 89.4173C119.755 88.1144 118.858 86.8893 117.82 85.7693C117.405 85.3259 117.228 84.7087 117.355 84.1144L117.824 81.911C118.02 80.983 117.61 80.0321 116.8 79.5384L114.382 78.0756C113.571 77.5864 112.542 77.6641 111.814 78.2767L110.092 79.7213C109.628 80.1099 109.004 80.2424 108.417 80.0824C106.946 79.6847 105.448 79.4607 103.95 79.4104C103.344 79.3876 102.784 79.0813 102.452 78.5693L101.232 76.6813C100.717 75.8859 99.7562 75.5019 98.8364 75.735L96.0952 76.4207C95.1755 76.6493 94.5061 77.4401 94.4196 78.3864L94.2192 80.631C94.1646 81.239 93.814 81.7739 93.2903 82.0801C91.9926 82.8299 90.7723 83.7304 89.6567 84.7727C89.215 85.1887 88.6003 85.367 88.0084 85.239L85.8136 84.7681C84.8893 84.5716 83.9422 84.983 83.4504 85.7967L81.9933 88.2241C81.5061 89.0379 81.5835 90.071 82.1937 90.8024L83.6326 92.5304C84.0196 92.9967 84.1516 93.623 83.9923 94.2127C83.5961 95.6893 83.373 97.1933 83.3229 98.6973C83.3002 99.3053 82.9951 99.8676 82.4851 100.201L80.6045 101.426C79.8122 101.943 79.4298 102.908 79.662 103.831L80.345 106.583C80.5727 107.506 81.3604 108.178 82.303 108.265L84.5387 108.466C85.1443 108.521 85.677 108.873 85.9821 109.399C86.7289 110.702 87.6213 111.927 88.6641 113.047C89.0784 113.49 89.256 114.108 89.1285 114.702L88.6595 116.905C88.4637 117.833 88.8735 118.784 89.684 119.278L92.1019 120.741C92.9124 121.23 93.9415 121.152 94.67 120.54L96.3912 119.095C96.8557 118.706 97.4795 118.574 98.0669 118.734C99.5376 119.132 101.036 119.356 102.534 119.406C103.139 119.429 103.699 119.735 104.032 120.247L105.252 122.135C105.767 122.93 106.727 123.314 107.647 123.081L110.388 122.396C111.308 122.167 111.978 121.376 112.064 120.43L112.264 118.185C112.319 117.577 112.67 117.042 113.193 116.736C114.491 115.986 115.711 115.086 116.827 114.044C117.269 113.628 117.883 113.449 118.475 113.577L120.67 114.048C121.594 114.245 122.541 113.833 123.033 113.02L124.49 110.592C124.978 109.774 124.9 108.741 124.29 108.014ZM96.2364 114.327C88.0266 110.441 84.5159 100.608 88.3863 92.3659C92.2567 84.1236 102.051 80.599 110.261 84.4847C118.471 88.3704 121.981 98.2036 118.111 106.446C114.241 114.688 104.446 118.217 96.2364 114.327Z" fill="url(#paint8_linear_50_1492)"/>
<path d="M124.29 108.014L122.851 106.286C122.464 105.82 122.332 105.193 122.491 104.604C122.888 103.127 123.111 101.623 123.161 100.119C123.184 99.511 123.489 98.9487 123.999 98.615L125.879 97.3898C126.671 96.8733 127.054 95.9087 126.822 94.9853L126.139 92.2333C125.911 91.3099 125.123 90.6379 124.181 90.551L121.945 90.3499C121.339 90.295 120.807 89.943 120.502 89.4173C119.755 88.1144 118.858 86.8893 117.82 85.7693C117.405 85.3259 117.228 84.7087 117.355 84.1144L117.824 81.911C118.02 80.983 117.61 80.0321 116.8 79.5384L114.382 78.0756C113.571 77.5864 112.542 77.6641 111.814 78.2767L110.092 79.7213C109.628 80.1099 109.004 80.2424 108.417 80.0824C106.946 79.6847 105.448 79.4607 103.95 79.4104C103.344 79.3876 102.784 79.0813 102.452 78.5693L101.232 76.6813C100.717 75.8859 99.7562 75.5019 98.8364 75.735L96.0952 76.4207C95.1755 76.6493 94.5061 77.4401 94.4196 78.3864L94.2192 80.631C94.1646 81.239 93.814 81.7739 93.2903 82.0801C91.9926 82.8299 90.7723 83.7304 89.6567 84.7727C89.215 85.1887 88.6003 85.367 88.0084 85.239L85.8136 84.7681C84.8893 84.5716 83.9422 84.983 83.4504 85.7967L81.9933 88.2241C81.5061 89.0379 81.5835 90.071 82.1937 90.8024L83.6326 92.5304C84.0196 92.9967 84.1516 93.623 83.9923 94.2127C83.5961 95.6893 83.373 97.1933 83.3229 98.6973C83.3002 99.3053 82.9951 99.8676 82.4851 100.201L80.6045 101.426C79.8122 101.943 79.4298 102.908 79.662 103.831L80.345 106.583C80.5727 107.506 81.3604 108.178 82.303 108.265L84.5387 108.466C85.1443 108.521 85.677 108.873 85.9821 109.399C86.7289 110.702 87.6213 111.927 88.6641 113.047C89.0784 113.49 89.256 114.108 89.1285 114.702L88.6595 116.905C88.4637 117.833 88.8735 118.784 89.684 119.278L92.1019 120.741C92.9124 121.23 93.9415 121.152 94.67 120.54L96.3912 119.095C96.8557 118.706 97.4795 118.574 98.0669 118.734C99.5376 119.132 101.036 119.356 102.534 119.406C103.139 119.429 103.699 119.735 104.032 120.247L105.252 122.135C105.767 122.93 106.727 123.314 107.647 123.081L110.388 122.396C111.308 122.167 111.978 121.376 112.064 120.43L112.264 118.185C112.319 117.577 112.67 117.042 113.193 116.736C114.491 115.986 115.711 115.086 116.827 114.044C117.269 113.628 117.883 113.449 118.475 113.577L120.67 114.048C121.594 114.245 122.541 113.833 123.033 113.02L124.49 110.592C124.978 109.774 124.9 108.741 124.29 108.014ZM96.2364 114.327C88.0266 110.441 84.5159 100.608 88.3863 92.3659C92.2567 84.1236 102.051 80.599 110.261 84.4847C118.471 88.3704 121.981 98.2036 118.111 106.446C114.241 114.688 104.446 118.217 96.2364 114.327Z" fill="#676767"/>
<path d="M107.119 123.378C106.304 123.378 105.521 122.967 105.061 122.258L103.841 120.37C103.554 119.927 103.067 119.653 102.529 119.634C101.004 119.579 99.483 119.351 98.0123 118.953C97.4977 118.816 96.9513 118.93 96.5461 119.269L94.8249 120.713C94.0235 121.385 92.8851 121.477 91.9881 120.933L89.5702 119.47C88.6732 118.93 88.2179 117.874 88.4364 116.85L88.9054 114.647C89.0147 114.13 88.8599 113.591 88.5002 113.198C87.462 112.078 86.5468 110.839 85.7864 109.509C85.5177 109.042 85.0487 108.736 84.5251 108.69L82.2893 108.489C81.2466 108.398 80.3815 107.648 80.1265 106.633L79.4434 103.881C79.193 102.862 79.6119 101.797 80.4862 101.225L82.3667 99.9999C82.8084 99.7119 83.0816 99.2228 83.0998 98.6834C83.1545 97.1519 83.3822 95.6251 83.7783 94.1485C83.9195 93.6319 83.8011 93.0834 83.4641 92.6765L82.0252 90.9485C81.3559 90.1439 81.2648 89.0011 81.8067 88.1005L83.2638 85.6731C83.8011 84.7725 84.8529 84.3154 85.8729 84.5348L88.0676 85.0057C88.5776 85.1154 89.1195 84.9645 89.5111 84.5988C90.6266 83.5565 91.8606 82.6377 93.1857 81.8742C93.6501 81.6045 93.9552 81.1337 94.0007 80.608L94.2011 78.3634C94.2921 77.3165 95.0389 76.4479 96.0497 76.1919L98.7909 75.5062C99.8063 75.2548 100.867 75.6754 101.436 76.5531L102.657 78.4411C102.944 78.8845 103.431 79.1588 103.968 79.1771C105.494 79.2319 107.014 79.4605 108.485 79.8582C109 79.9954 109.546 79.8811 109.951 79.5428L111.673 78.0982C112.474 77.4262 113.612 77.3348 114.509 77.8788L116.927 79.3417C117.824 79.8811 118.28 80.9371 118.061 81.9611L117.592 84.1645C117.483 84.6765 117.633 85.2205 117.997 85.6137C119.035 86.7337 119.951 87.9725 120.711 89.3028C120.98 89.7691 121.449 90.0754 121.972 90.1211L124.208 90.3222C125.251 90.4137 126.116 91.1634 126.371 92.1782L127.054 94.9302C127.304 95.9497 126.885 97.0148 126.011 97.5862L124.131 98.8114C123.689 99.0994 123.416 99.5885 123.398 100.128C123.343 101.659 123.115 103.186 122.719 104.663C122.583 105.179 122.696 105.728 123.033 106.135L124.472 107.863C125.142 108.667 125.233 109.81 124.691 110.711L123.234 113.138C122.696 114.039 121.645 114.496 120.625 114.277L118.43 113.81C117.915 113.701 117.378 113.851 116.986 114.217C115.871 115.259 114.637 116.178 113.312 116.942C112.847 117.211 112.542 117.682 112.497 118.208L112.296 120.453C112.205 121.499 111.459 122.368 110.448 122.624L107.706 123.31C107.515 123.351 107.315 123.378 107.119 123.378ZM97.5843 118.423C97.7664 118.423 97.9531 118.446 98.1352 118.496C99.5695 118.885 101.059 119.109 102.547 119.159C103.235 119.182 103.863 119.538 104.232 120.105L105.453 121.993C105.912 122.706 106.773 123.045 107.593 122.843L110.334 122.158C111.153 121.952 111.754 121.248 111.832 120.402L112.032 118.158C112.091 117.481 112.483 116.873 113.08 116.526C114.373 115.781 115.579 114.885 116.668 113.865C117.168 113.394 117.865 113.198 118.525 113.339L120.72 113.806C121.549 113.984 122.396 113.614 122.833 112.887L124.29 110.459C124.727 109.733 124.654 108.805 124.112 108.155L122.674 106.427C122.241 105.906 122.086 105.198 122.264 104.535C122.651 103.09 122.874 101.6 122.924 100.105C122.947 99.4148 123.302 98.7839 123.867 98.4137L125.747 97.1885C126.457 96.7268 126.794 95.8628 126.594 95.0399L125.911 92.2879C125.706 91.4651 125.005 90.8617 124.163 90.7839L121.927 90.5828C121.253 90.5234 120.647 90.1302 120.301 89.5314C119.559 88.2331 118.667 87.0217 117.651 85.9291C117.182 85.4262 116.986 84.7268 117.128 84.0639L117.597 81.8605C117.774 81.0285 117.405 80.1782 116.681 79.7394L114.263 78.2765C113.539 77.8377 112.615 77.9108 111.968 78.4548L110.247 79.8994C109.728 80.3337 109.022 80.4891 108.362 80.3108C106.928 79.9222 105.439 79.6982 103.95 79.648C103.262 79.6251 102.634 79.2685 102.265 78.7017L101.045 76.8137C100.585 76.1005 99.7244 75.7622 98.9047 75.9634L96.1636 76.6491C95.344 76.8548 94.7429 77.5588 94.6655 78.4045L94.4652 80.6491C94.406 81.3257 94.0144 81.9337 93.4179 82.2811C92.1247 83.0262 90.9135 83.9222 89.8298 84.9417C89.3289 85.4125 88.6322 85.6091 87.972 85.4674L85.7773 84.9965C84.9485 84.8182 84.1016 85.1885 83.6645 85.9154L82.2074 88.3428C81.7702 89.0697 81.8431 89.9977 82.385 90.6468L83.8238 92.3748C84.2564 92.8959 84.4112 93.6045 84.2336 94.2674C83.8466 95.7074 83.6235 97.2022 83.5734 98.6971C83.5506 99.3874 83.1955 100.018 82.6308 100.389L80.7503 101.614C80.0399 102.075 79.703 102.939 79.9033 103.762L80.5864 106.514C80.7913 107.337 81.4925 107.941 82.3349 108.018L84.5706 108.219C85.2445 108.279 85.8501 108.672 86.1962 109.271C86.9384 110.569 87.8308 111.781 88.8462 112.873C89.3153 113.376 89.511 114.075 89.3699 114.738L88.9009 116.942C88.7233 117.774 89.0921 118.624 89.8161 119.063L92.234 120.526C92.958 120.965 93.8823 120.891 94.5289 120.347L96.2501 118.903C96.6235 118.592 97.097 118.423 97.5843 118.423ZM103.24 116.151C100.813 116.151 98.3993 115.611 96.1408 114.542C87.8308 110.606 84.2564 100.613 88.1815 92.2697C92.1019 83.9268 102.056 80.3382 110.366 84.2742C114.391 86.1805 117.437 89.5497 118.94 93.7554C120.442 97.9611 120.224 102.505 118.325 106.546C116.426 110.587 113.07 113.646 108.881 115.154C107.042 115.822 105.138 116.151 103.24 116.151ZM96.3366 114.117C104.414 117.943 114.09 114.459 117.902 106.35C121.713 98.2399 118.243 88.5257 110.165 84.6994C102.088 80.8731 92.4116 84.3565 88.6004 92.4662C84.7892 100.581 88.2589 110.29 96.3366 114.117Z" fill="#FCFAFA"/>
<path d="M93.4542 94.8251C93.4542 94.8251 100.503 93.0514 107.952 94.1211C110.047 94.4228 111.905 95.648 113.034 97.4446C115.074 100.681 117.952 106.45 117.346 112.471L114.15 113.266C114.15 113.266 111.941 106.126 109.45 103.218C109.45 103.218 106.504 109.961 106.655 113.664C106.659 113.769 106.664 113.87 106.673 113.97C107.01 117.595 92.5299 114.647 92.5299 114.647L93.4542 94.8251Z" fill="url(#paint9_linear_50_1492)"/>
<path d="M93.4542 94.8251C93.4542 94.8251 100.503 93.0514 107.952 94.1211C110.047 94.4228 111.905 95.648 113.034 97.4446C115.074 100.681 117.952 106.45 117.346 112.471L114.15 113.266C114.15 113.266 111.941 106.126 109.45 103.218C109.45 103.218 106.504 109.961 106.655 113.664C106.659 113.769 106.664 113.87 106.673 113.97C107.01 117.595 92.5299 114.647 92.5299 114.647L93.4542 94.8251Z" fill="black"/>
<path d="M99.1461 88.7405L99.4694 93.76C99.5013 94.2263 99.8018 94.624 100.221 94.7474C101.195 95.0354 103.03 95.3828 104.829 94.656C105.157 94.5234 105.33 94.1303 105.216 93.7737L102.834 86.0983L99.1461 88.7405Z" fill="url(#paint10_linear_50_1492)"/>
<path d="M98.3402 81.4674C98.3402 81.4674 96.8194 84.9737 96.7192 86.816C96.619 88.6583 96.2229 89.8514 98.3402 90.2217C100.458 90.592 102.247 89.5314 103.212 87.6983C103.212 87.6983 104.729 84.8731 104.387 83.7166C104.05 82.56 98.3402 81.4674 98.3402 81.4674Z" fill="url(#paint11_linear_50_1492)"/>
<path d="M102.488 86.3817H102.22C102.22 86.3817 103.326 84.1097 102.352 83.7074C101.382 83.3097 97.5388 82.5189 96.71 81.152C95.9086 79.8309 96.6235 78.1257 97.689 77.6503C97.7573 77.6183 97.8347 77.6503 97.8712 77.7189L97.9577 77.888C98.0169 78.0023 98.1854 77.984 98.2218 77.8606C98.2582 77.7417 98.413 77.7143 98.4813 77.8194C98.7363 78.2309 99.4239 78.8937 101.268 79.2366C103.886 79.7211 105.612 80.7863 105.658 82.6011C105.662 82.7154 105.78 82.7794 105.881 82.72C106.072 82.6011 106.381 82.5463 106.796 82.8937C107.515 83.5017 107.219 85.0743 105.644 86.368C105.571 86.4274 105.571 86.5463 105.648 86.6011C105.935 86.7886 106.359 87.232 105.257 87.8217C104.128 88.4251 103.463 88.3611 103.208 88.2971C103.139 88.2789 103.094 88.2194 103.098 88.1463L103.199 86.5371C103.203 86.4549 103.139 86.3817 103.053 86.3817H102.488Z" fill="url(#paint12_linear_50_1492)"/>
<path d="M102.488 86.3817H102.22C102.22 86.3817 103.326 84.1097 102.352 83.7074C101.382 83.3097 97.5388 82.5189 96.71 81.152C95.9086 79.8309 96.6235 78.1257 97.689 77.6503C97.7573 77.6183 97.8347 77.6503 97.8712 77.7189L97.9577 77.888C98.0169 78.0023 98.1854 77.984 98.2218 77.8606C98.2582 77.7417 98.413 77.7143 98.4813 77.8194C98.7363 78.2309 99.4239 78.8937 101.268 79.2366C103.886 79.7211 105.612 80.7863 105.658 82.6011C105.662 82.7154 105.78 82.7794 105.881 82.72C106.072 82.6011 106.381 82.5463 106.796 82.8937C107.515 83.5017 107.219 85.0743 105.644 86.368C105.571 86.4274 105.571 86.5463 105.648 86.6011C105.935 86.7886 106.359 87.232 105.257 87.8217C104.128 88.4251 103.463 88.3611 103.208 88.2971C103.139 88.2789 103.094 88.2194 103.098 88.1463L103.199 86.5371C103.203 86.4549 103.139 86.3817 103.053 86.3817H102.488Z" fill="url(#paint13_linear_50_1492)"/>
<path d="M102.488 86.3817H102.22C102.22 86.3817 103.326 84.1097 102.352 83.7074C101.382 83.3097 97.5388 82.5189 96.71 81.152C95.9086 79.8309 96.6235 78.1257 97.689 77.6503C97.7573 77.6183 97.8347 77.6503 97.8712 77.7189L97.9577 77.888C98.0169 78.0023 98.1854 77.984 98.2218 77.8606C98.2582 77.7417 98.413 77.7143 98.4813 77.8194C98.7363 78.2309 99.4239 78.8937 101.268 79.2366C103.886 79.7211 105.612 80.7863 105.658 82.6011C105.662 82.7154 105.78 82.7794 105.881 82.72C106.072 82.6011 106.381 82.5463 106.796 82.8937C107.515 83.5017 107.219 85.0743 105.644 86.368C105.571 86.4274 105.571 86.5463 105.648 86.6011C105.935 86.7886 106.359 87.232 105.257 87.8217C104.128 88.4251 103.463 88.3611 103.208 88.2971C103.139 88.2789 103.094 88.2194 103.098 88.1463L103.199 86.5371C103.203 86.4549 103.139 86.3817 103.053 86.3817H102.488Z" fill="url(#paint14_linear_50_1492)"/>
<path d="M102.425 86.7154C102.425 86.7154 103.003 84.4754 104.005 85.1017C105.006 85.728 103.486 87.6114 102.68 87.6937L102.425 86.7154Z" fill="url(#paint15_linear_50_1492)"/>
<path d="M93.4998 109.262C93.1856 107.049 95.4715 103.794 96.414 102.56C96.6827 102.208 96.8375 101.774 96.8375 101.33C96.8648 98.1943 95.5534 96.1829 93.4543 94.8297C93.4543 94.8297 85.8273 103.749 87.7716 110.61C87.9811 111.351 88.3044 111.986 88.7187 112.535C89.0238 109.943 91.9972 109.381 93.4998 109.262Z" fill="black"/>
<path d="M93.641 108.407L93.3496 108.375C93.5955 106.203 95.4943 103.525 96.3002 102.473L96.5324 102.651C95.7401 103.68 93.8778 106.309 93.641 108.407Z" fill="#212121"/>
<path d="M93.559 109.568C93.5317 109.467 93.5135 109.367 93.4998 109.262C92.0018 109.381 89.0238 109.943 88.7188 112.53C92.1202 117.051 101.505 115.419 101.505 115.419V113.659C101.5 113.659 94.2967 112.315 93.559 109.568Z" fill="url(#paint16_linear_50_1492)"/>
<path d="M100.599 114.935C100.599 114.935 101.983 111.653 104.424 112.818C106.864 113.984 106.673 114.743 106.673 114.743L100.599 114.935Z" fill="url(#paint17_linear_50_1492)"/>
<path d="M100.289 115.616C100.307 115.863 100.521 116.055 100.767 116.046L113.416 115.602C113.612 115.593 113.785 115.465 113.844 115.278L114.213 114.098C114.304 113.81 114.099 113.513 113.794 113.495L109.182 113.248C109.141 113.248 109.1 113.248 109.059 113.257L100.658 115.127C100.426 115.173 100.271 115.383 100.289 115.616Z" fill="url(#paint18_linear_50_1492)"/>
<path d="M100.289 115.616C100.307 115.863 100.521 116.055 100.767 116.046L113.416 115.602C113.612 115.593 113.785 115.465 113.844 115.278L114.213 114.098C114.304 113.81 114.099 113.513 113.794 113.495L109.182 113.248C109.141 113.248 109.1 113.248 109.059 113.257L100.658 115.127C100.426 115.173 100.271 115.383 100.289 115.616Z" fill="#373737"/>
<path d="M108.767 115.15L109.114 113.522L113.849 113.751L113.539 115.099L108.767 115.15Z" fill="url(#paint19_linear_50_1492)"/>
<path d="M108.767 115.15L109.114 113.522L113.849 113.751L113.539 115.099L108.767 115.15Z" fill="#373737"/>
<path d="M106.336 97.6274C106.067 99.8262 104.861 108.763 104.514 111.319C104.464 111.68 104.751 111.995 105.111 111.982L125.574 111.392C125.843 111.383 126.07 111.195 126.13 110.93L129.312 96.5394C129.394 96.16 129.094 95.8034 128.707 95.8262L106.882 97.1108C106.6 97.1291 106.372 97.344 106.336 97.6274Z" fill="#373737"/>
<path d="M114.559 106.651L111.536 115.269L118.566 115.419L119.154 106.706C119.181 106.299 118.844 105.957 118.434 105.984L115.151 106.203C114.883 106.222 114.65 106.395 114.559 106.651Z" fill="url(#paint20_linear_50_1492)"/>
<path d="M114.559 106.651L111.536 115.269L118.566 115.419L119.154 106.706C119.181 106.299 118.844 105.957 118.434 105.984L115.151 106.203C114.883 106.222 114.65 106.395 114.559 106.651Z" fill="#373737"/>
<path d="M108.685 115.393C108.608 115.63 108.786 115.873 109.032 115.873H120.042C120.242 115.873 120.406 115.708 120.406 115.507V115.031C120.406 114.821 120.233 114.656 120.023 114.665L109.013 115.141C108.868 115.146 108.736 115.246 108.685 115.393Z" fill="url(#paint21_linear_50_1492)"/>
<path d="M108.685 115.393C108.608 115.63 108.786 115.873 109.032 115.873H120.042C120.242 115.873 120.406 115.708 120.406 115.507V115.031C120.406 114.821 120.233 114.656 120.023 114.665L109.013 115.141C108.868 115.146 108.736 115.246 108.685 115.393Z" fill="#373737"/>
<path d="M106.031 106.72L105.876 106.702L106.882 98.7428C106.946 98.2445 107.351 97.865 107.848 97.833L126.708 96.6902L126.717 96.8456L107.857 97.9885C107.433 98.0159 107.087 98.3405 107.037 98.761L106.031 106.72Z" fill="white"/>
<path d="M105.596 108.961L105.38 110.684L105.533 110.704L105.749 108.98L105.596 108.961Z" fill="white"/>
<path d="M44.4595 45.8103L42.6381 44.7589C42.1463 44.4755 41.8276 43.9635 41.7775 43.3966C41.65 41.9658 41.3586 40.5715 40.9215 39.2366C40.7439 38.6926 40.8349 38.0983 41.1719 37.6412L42.4332 35.9498C42.9659 35.2366 42.9887 34.2675 42.4878 33.5315L41.0034 31.3326C40.5071 30.5966 39.5964 30.2583 38.7404 30.4915L36.7095 31.0446C36.1586 31.1955 35.5757 31.0584 35.1386 30.6926C34.064 29.7921 32.8801 29.0058 31.6052 28.3566C31.0997 28.1006 30.7446 27.6161 30.6626 27.0492L30.3621 24.9601C30.2346 24.0778 29.5652 23.3783 28.6955 23.2092L26.0955 22.7109C25.2258 22.5418 24.347 22.9486 23.9053 23.7212L22.8581 25.5498C22.5757 26.0435 22.0658 26.3635 21.5011 26.4138C20.0759 26.5418 18.6871 26.8343 17.3575 27.2732C16.8157 27.4515 16.2237 27.3601 15.7684 27.0218L14.0836 25.7555C13.3733 25.2206 12.408 25.1978 11.6749 25.7006L9.48468 27.1909C8.75158 27.6892 8.41463 28.6035 8.64685 29.4629L9.19781 31.5018C9.34808 32.0549 9.21147 32.6401 8.8472 33.0789C7.95018 34.1578 7.16699 35.3463 6.52041 36.6263C6.26541 37.1338 5.78275 37.4903 5.21813 37.5726L3.13722 37.8743C2.25841 38.0023 1.56174 38.6743 1.39326 39.5475L0.910599 42.1441C0.742122 43.0172 1.14738 43.8995 1.9169 44.3429L3.73827 45.3944C4.23004 45.6778 4.54878 46.1898 4.59887 46.7566C4.72636 48.1875 5.01778 49.5818 5.45491 50.9166C5.63249 51.4606 5.54142 52.0549 5.20447 52.5121L3.94317 54.2035C3.41042 54.9166 3.38766 55.8858 3.88853 56.6218L5.37295 58.8206C5.86927 59.5566 6.77995 59.8949 7.63599 59.6618L9.66682 59.1086C10.2178 58.9578 10.8006 59.0949 11.2377 59.4606C12.3124 60.3612 13.4962 61.1475 14.7712 61.7966C15.2766 62.0526 15.6318 62.5372 15.7137 63.1041L16.0143 65.1932C16.1418 66.0755 16.8111 66.7749 17.6808 66.9441L20.2808 67.4424C21.1505 67.6115 22.0293 67.2046 22.471 66.4321L23.5183 64.6035C23.8006 64.1098 24.3106 63.7898 24.8752 63.7395C26.3004 63.6115 27.6892 63.3189 29.0188 62.8801C29.5607 62.7018 30.1526 62.7932 30.608 63.1315L32.2927 64.3978C33.0031 64.9326 33.9684 64.9555 34.7015 64.4526L36.8917 62.9624C37.6248 62.4641 37.9617 61.5498 37.7295 60.6903L37.1786 58.6515C37.0283 58.0984 37.1649 57.5132 37.5292 57.0744C38.4262 55.9955 39.2094 54.8069 39.856 53.5269C40.1109 53.0195 40.5936 52.6629 41.1582 52.5806L43.2391 52.2789C44.118 52.1509 44.8146 51.4789 44.9831 50.6058L45.4794 47.9955C45.6297 47.1361 45.2244 46.2538 44.4595 45.8103ZM21.829 60.4709C13.3596 59.7166 7.10324 52.2149 7.85 43.7121C8.60132 35.2092 16.0735 28.9281 24.5428 29.6778C33.0122 30.4321 39.2686 37.9338 38.5218 46.4366C37.7705 54.9441 30.2983 61.2252 21.829 60.4709Z" fill="url(#paint22_linear_50_1492)"/>
<path d="M44.4595 45.8103L42.6381 44.7589C42.1463 44.4755 41.8276 43.9635 41.7775 43.3966C41.65 41.9658 41.3586 40.5715 40.9215 39.2366C40.7439 38.6926 40.8349 38.0983 41.1719 37.6412L42.4332 35.9498C42.9659 35.2366 42.9887 34.2675 42.4878 33.5315L41.0034 31.3326C40.5071 30.5966 39.5964 30.2583 38.7404 30.4915L36.7095 31.0446C36.1586 31.1955 35.5757 31.0584 35.1386 30.6926C34.064 29.7921 32.8801 29.0058 31.6052 28.3566C31.0997 28.1006 30.7446 27.6161 30.6626 27.0492L30.3621 24.9601C30.2346 24.0778 29.5652 23.3783 28.6955 23.2092L26.0955 22.7109C25.2258 22.5418 24.347 22.9486 23.9053 23.7212L22.8581 25.5498C22.5757 26.0435 22.0658 26.3635 21.5011 26.4138C20.0759 26.5418 18.6871 26.8343 17.3575 27.2732C16.8157 27.4515 16.2237 27.3601 15.7684 27.0218L14.0836 25.7555C13.3733 25.2206 12.408 25.1978 11.6749 25.7006L9.48468 27.1909C8.75158 27.6892 8.41463 28.6035 8.64685 29.4629L9.19781 31.5018C9.34808 32.0549 9.21147 32.6401 8.8472 33.0789C7.95018 34.1578 7.16699 35.3463 6.52041 36.6263C6.26541 37.1338 5.78275 37.4903 5.21813 37.5726L3.13722 37.8743C2.25841 38.0023 1.56174 38.6743 1.39326 39.5475L0.910599 42.1441C0.742122 43.0172 1.14738 43.8995 1.9169 44.3429L3.73827 45.3944C4.23004 45.6778 4.54878 46.1898 4.59887 46.7566C4.72636 48.1875 5.01778 49.5818 5.45491 50.9166C5.63249 51.4606 5.54142 52.0549 5.20447 52.5121L3.94317 54.2035C3.41042 54.9166 3.38766 55.8858 3.88853 56.6218L5.37295 58.8206C5.86927 59.5566 6.77995 59.8949 7.63599 59.6618L9.66682 59.1086C10.2178 58.9578 10.8006 59.0949 11.2377 59.4606C12.3124 60.3612 13.4962 61.1475 14.7712 61.7966C15.2766 62.0526 15.6318 62.5372 15.7137 63.1041L16.0143 65.1932C16.1418 66.0755 16.8111 66.7749 17.6808 66.9441L20.2808 67.4424C21.1505 67.6115 22.0293 67.2046 22.471 66.4321L23.5183 64.6035C23.8006 64.1098 24.3106 63.7898 24.8752 63.7395C26.3004 63.6115 27.6892 63.3189 29.0188 62.8801C29.5607 62.7018 30.1526 62.7932 30.608 63.1315L32.2927 64.3978C33.0031 64.9326 33.9684 64.9555 34.7015 64.4526L36.8917 62.9624C37.6248 62.4641 37.9617 61.5498 37.7295 60.6903L37.1786 58.6515C37.0283 58.0984 37.1649 57.5132 37.5292 57.0744C38.4262 55.9955 39.2094 54.8069 39.856 53.5269C40.1109 53.0195 40.5936 52.6629 41.1582 52.5806L43.2391 52.2789C44.118 52.1509 44.8146 51.4789 44.9831 50.6058L45.4794 47.9955C45.6297 47.1361 45.2244 46.2538 44.4595 45.8103ZM21.829 60.4709C13.3596 59.7166 7.10324 52.2149 7.85 43.7121C8.60132 35.2092 16.0735 28.9281 24.5428 29.6778C33.0122 30.4321 39.2686 37.9338 38.5218 46.4366C37.7705 54.9441 30.2983 61.2252 21.829 60.4709Z" fill="#676767"/>
<path d="M20.6588 67.7165C20.5131 67.7165 20.3674 67.7028 20.2262 67.6754L17.6262 67.1771C16.6563 66.9897 15.9141 66.2079 15.773 65.2297L15.4724 63.1405C15.4041 62.6559 15.0991 62.2354 14.6574 62.0114C13.3824 61.3668 12.1803 60.5714 11.0784 59.6479C10.6959 59.3279 10.1905 59.2136 9.72148 59.3416L7.69066 59.8902C6.73899 60.1462 5.72813 59.7714 5.17717 58.9531L3.69276 56.7542C3.14179 55.9359 3.16456 54.8525 3.75651 54.0616L5.0178 52.3702C5.30922 51.9816 5.39118 51.4651 5.23637 50.9897C4.79013 49.6228 4.49871 48.2056 4.37122 46.7794C4.32568 46.2856 4.04792 45.8422 3.62901 45.5999L1.80764 44.5485C0.951602 44.0548 0.505367 43.0719 0.687504 42.0982L1.18383 39.4879C1.37052 38.5142 2.14915 37.7691 3.12358 37.6274L5.20449 37.3256C5.68715 37.2571 6.10607 36.9508 6.32919 36.5074C6.97122 35.2274 7.76351 34.0205 8.6833 32.9142C9.00204 32.5302 9.11588 32.0228 8.98838 31.5519L8.43742 29.5131C8.18243 28.5576 8.55581 27.5428 9.37087 26.9896L11.5611 25.4994C12.3761 24.9416 13.4553 24.9691 14.243 25.5634L15.9278 26.8296C16.3148 27.1222 16.8294 27.2045 17.3029 27.0491C18.6644 26.6011 20.0759 26.3085 21.4966 26.1805C21.9884 26.1348 22.4301 25.8559 22.6714 25.4354L23.7187 23.6068C24.2104 22.7474 25.1894 22.2994 26.1593 22.4822L28.7593 22.9805C29.7292 23.1679 30.4714 23.9496 30.6125 24.9279L30.9131 27.0171C30.9814 27.5016 31.2865 27.9222 31.7281 28.1462C33.0031 28.7908 34.2052 29.5908 35.3071 30.5096C35.6896 30.8296 36.195 30.9439 36.664 30.8159L38.6949 30.2674C39.6465 30.0114 40.6574 30.3862 41.2083 31.2045L42.6928 33.4034C43.2437 34.2216 43.221 35.3051 42.629 36.0959L41.3677 37.7874C41.0763 38.1805 40.9943 38.6925 41.1492 39.1679C41.5954 40.5348 41.8868 41.9519 42.0143 43.3782C42.0598 43.8719 42.3376 44.3154 42.7565 44.5576L44.5779 45.6091C45.4339 46.1028 45.8801 47.0857 45.698 48.0594L45.2017 50.6697C45.015 51.6434 44.2364 52.3885 43.2619 52.5302L41.181 52.8319C40.6984 52.9005 40.2794 53.2068 40.0563 53.6502C39.4143 54.9302 38.622 56.1371 37.7022 57.2434C37.3835 57.6274 37.2696 58.1348 37.3971 58.6057L37.9481 60.6445C38.2031 61.5999 37.8297 62.6148 37.0146 63.1679L34.8245 64.6582C34.0094 65.2114 32.9302 65.1885 32.1425 64.5942L30.4577 63.3279C30.0707 63.0354 29.5562 62.9531 29.0826 63.1085C27.7211 63.5565 26.3096 63.8491 24.8889 63.9771C24.3971 64.0228 23.9555 64.3017 23.7141 64.7222L22.6668 66.5508C22.2434 67.2777 21.4738 67.7165 20.6588 67.7165ZM10.104 58.8159C10.5639 58.8159 11.0146 58.9759 11.3789 59.2822C12.449 60.1828 13.6238 60.9599 14.8668 61.5862C15.4451 61.8788 15.8458 62.4319 15.9369 63.0674L16.2374 65.1519C16.3513 65.9336 16.9432 66.5599 17.7173 66.7062L20.3173 67.2045C21.0914 67.3554 21.87 66.9942 22.2616 66.3085L23.3089 64.4799C23.6276 63.9222 24.2013 63.5565 24.8479 63.5016C26.2367 63.3782 27.6118 63.0902 28.9369 62.6514C29.5516 62.4457 30.2255 62.5554 30.74 62.9394L32.4248 64.2057C33.0532 64.6765 33.9138 64.6994 34.5649 64.2559L36.7551 62.7657C37.4062 62.3222 37.7068 61.5131 37.4973 60.7497L36.9464 58.7108C36.7779 58.0937 36.9281 57.4216 37.347 56.9234C38.2441 55.8491 39.0182 54.6697 39.642 53.4216C39.9334 52.8411 40.4844 52.4388 41.1173 52.3474L43.1982 52.0457C43.9768 51.9314 44.6006 51.3371 44.7463 50.5599L45.2427 47.9497C45.3929 47.1725 45.0332 46.3908 44.3502 45.9977L42.5288 44.9462C41.9733 44.6262 41.609 44.0502 41.5544 43.4011C41.4315 42.0068 41.1446 40.6262 40.7075 39.2959C40.5026 38.6788 40.6118 38.0022 40.9943 37.4856L42.2556 35.7942C42.7246 35.1634 42.7474 34.2994 42.3057 33.6456L40.8213 31.4468C40.3796 30.7931 39.5737 30.4914 38.8132 30.7016L36.7824 31.2502C36.1677 31.4194 35.4984 31.2685 35.002 30.8479C33.932 29.9474 32.7572 29.1702 31.5141 28.5439C30.9358 28.2514 30.5351 27.6982 30.4441 27.0628L30.1435 24.9736C30.0297 24.1919 29.4378 23.5656 28.6637 23.4194L26.0637 22.9211C25.2896 22.7702 24.511 23.1314 24.1194 23.8171L23.0721 25.6456C22.7534 26.2034 22.1796 26.5691 21.533 26.6239C20.1442 26.7474 18.7691 27.0354 17.4441 27.4742C16.8294 27.6799 16.1555 27.5702 15.6455 27.1862L13.9607 25.9199C13.3323 25.4445 12.4717 25.4262 11.8206 25.8696L9.63041 27.3828C8.97927 27.8262 8.67875 28.6354 8.8882 29.3988L9.43917 31.4376C9.60764 32.0548 9.45738 32.7268 9.03847 33.2251C8.14144 34.2994 7.36736 35.4788 6.74355 36.7268C6.45213 37.3074 5.90116 37.7097 5.26824 37.8011L3.18733 38.0982C2.40869 38.2125 1.78488 38.8068 1.63917 39.5839L1.13829 42.1896C0.988029 42.9668 1.34775 43.7485 2.03076 44.1416L3.85213 45.1931C4.40764 45.5131 4.77192 46.0891 4.82656 46.7382C4.9495 48.1325 5.23637 49.5131 5.67349 50.8434C5.8784 51.4605 5.76911 52.1371 5.38663 52.6537L4.12533 54.3451C3.65633 54.9759 3.63356 55.8399 4.07524 56.4937L5.55966 58.6925C6.00134 59.3462 6.80729 59.6479 7.56771 59.4376L9.59854 58.8891C9.76701 58.8388 9.93549 58.8159 10.104 58.8159ZM23.1996 60.7679C22.7397 60.7679 22.2752 60.7497 21.8108 60.7039C17.6535 60.3337 13.8879 58.3634 11.2059 55.1497C8.52393 51.9359 7.25353 47.8674 7.62235 43.6936C8.37822 35.0765 15.9824 28.6856 24.5656 29.4491C33.1488 30.2125 39.5145 37.8422 38.7541 46.4639C38.0346 54.6102 31.1999 60.7679 23.1996 60.7679ZM23.1768 29.8559C15.4132 29.8559 8.78348 35.8308 8.0868 43.7348C7.73164 47.7851 8.96561 51.7302 11.5656 54.8479C14.1656 57.9657 17.8175 59.8811 21.8518 60.2376C30.18 60.9736 37.552 54.7794 38.2896 46.4182C39.0273 38.0571 32.8528 30.6559 24.5246 29.9154C24.0693 29.8742 23.6231 29.8559 23.1768 29.8559Z" fill="#FCFAFA"/>
<path d="M17.1617 34.4183C16.7838 34.5829 19.0332 49.1612 16.588 58.7383C16.588 58.7383 21.0777 61.0378 26.0363 60.0686C26.0363 60.0686 34.4374 47.1635 34.6651 45.6138C34.9246 43.8538 33.5814 34.8343 33.5814 34.8343C33.5814 34.8343 26.4689 30.3772 17.1617 34.4183Z" fill="#1D1D1D"/>
<path d="M28.4724 40.5577C32.8164 40.704 33.1625 36.9691 32.9166 34.4731C31.4868 33.7691 27.8577 32.3154 23.0539 32.8365C22.9674 34.9622 23.2542 40.3794 28.4724 40.5577Z" fill="url(#paint23_linear_50_1492)"/>
<path d="M29.7656 26.3131C29.7656 26.3131 27.6073 30.8937 26.346 32.8228C25.9772 33.3897 26.091 34.1485 26.6147 34.5737C27.2112 35.0628 28.1856 35.5474 29.6928 35.5611C30.3257 35.5657 30.8858 35.136 31.0542 34.5234L32.4749 29.2937L29.7656 26.3131Z" fill="url(#paint24_linear_50_1492)"/>
<path d="M33.5813 34.8297C33.5813 34.8297 39.9333 46.4823 51.4079 37.0971L52.7147 39.1771C52.7147 39.1771 44.3137 52.2057 33.9547 43.1634L33.5813 34.8297Z" fill="url(#paint25_linear_50_1492)"/>
<path d="M60.2007 38.8983C60.0595 38.4274 59.7135 38.048 59.2581 37.8605L54.8185 36.0685C54.8185 36.0685 54.7502 35.4971 55.7565 35.1085C56.7628 34.72 56.5261 33.5908 56.5261 33.5908C56.5261 33.5908 55.1555 34.2217 53.1429 35.2183C51.9954 35.7897 51.3488 36.7954 51.0073 37.5542L52.1502 39.0628C54.8868 39.8857 57.6553 40.0457 60.4466 39.7165L60.2007 38.8983Z" fill="url(#paint26_linear_50_1492)"/>
<path d="M17.1617 34.4183C17.1617 34.4183 6.3838 40.0229 7.57224 50.5966C8.76523 61.1703 25.0892 51.4652 25.0892 51.4652L24.6931 48.9189C24.6931 48.9189 14.7029 51.8309 13.0409 49.3258C11.8206 47.488 15.9095 43.1909 18.1771 41.0286C19.0104 40.2378 19.2472 39.0035 18.7691 37.9566L17.1617 34.4183Z" fill="url(#paint27_linear_50_1492)"/>
<path d="M23.6231 55.0446L28.1401 39.1954C28.1901 39.0172 28.345 38.8846 28.5316 38.8617C29.3513 38.7657 31.7236 38.496 34.4647 38.2629C37.766 37.984 41.6 37.7554 43.8903 37.9474C44.2182 37.9749 44.414 38.3223 44.2683 38.6149C42.966 41.2617 37.6066 52.0229 34.9246 55.5474C34.8336 55.6663 34.697 55.7303 34.5513 55.7303L24.0647 55.6343C23.7551 55.6343 23.5366 55.3417 23.6231 55.0446Z" fill="white"/>
<path d="M34.9338 36.8914L38.2122 36.3429C38.3853 36.3154 38.531 36.48 38.4763 36.6491L38.153 37.6366C38.1257 37.7234 38.0483 37.7829 37.9618 37.7966L34.8063 38.2217C34.6424 38.2446 34.5103 38.0937 34.5467 37.9337L34.7471 37.0743C34.7608 36.9783 34.8382 36.9097 34.9338 36.8914Z" fill="#D9D9D9"/>
<path d="M32.4795 39.6755L32.7481 38.2629C32.7754 38.1212 32.8938 38.0161 33.035 37.9978L39.6556 37.3212C39.8788 37.2983 40.0563 37.5041 40.0063 37.7235L39.5873 39.4835C39.5555 39.6252 39.4325 39.7258 39.2868 39.7349L32.8164 40.0641C32.6024 40.0778 32.4385 39.8858 32.4795 39.6755Z" fill="#D9D9D9"/>
<path d="M24.7113 51.2183C24.7113 51.2183 24.0829 48.6172 24.3334 47.6983C24.5884 46.7749 25.0801 45.5909 26.7194 45.856C28.3586 46.1212 30.2938 46.8115 30.2938 46.8115C30.2938 46.8115 30.1982 48.0138 28.9505 47.6252L29.7246 48.2241C29.7246 48.2241 29.6153 49.184 28.5589 48.672L29.2784 49.4675C29.2784 49.4675 28.8276 50.2583 28.0535 49.7509C27.2794 49.2435 26.9106 51.5292 24.7113 51.2183Z" fill="url(#paint28_linear_50_1492)"/>
<path d="M37.1421 22.5372C37.1421 22.5372 38.1439 24.8549 36.9691 28.3795C35.7943 31.904 33.8773 32.2103 32.6616 31.3372C31.4458 30.464 29.8703 28.9097 29.6745 25.7189C29.4787 22.528 35.767 19.6069 37.1421 22.5372Z" fill="url(#paint29_linear_50_1492)"/>
<path d="M32.0468 25.5132C32.0468 25.5132 34.1687 20.7452 37.347 23.7166L37.5929 24.9463C37.5929 24.9463 40.6209 24.0777 39.6283 21.3257C38.6356 18.5737 35.0111 16.6994 31.7736 18.4869C28.5316 20.2743 27.4342 22.3772 27.6073 24.8869C27.7803 27.3966 29.6563 26.5372 29.6563 26.5372C29.6563 26.5372 30.016 24.6949 30.8948 24.3657C31.7736 24.0366 31.7554 25.4354 31.7554 25.4354L32.0468 25.5132Z" fill="url(#paint30_linear_50_1492)"/>
<path d="M32.0468 25.5132C32.0468 25.5132 34.1687 20.7452 37.347 23.7166L37.5929 24.9463C37.5929 24.9463 40.6209 24.0777 39.6283 21.3257C38.6356 18.5737 35.0111 16.6994 31.7736 18.4869C28.5316 20.2743 27.4342 22.3772 27.6073 24.8869C27.7803 27.3966 29.6563 26.5372 29.6563 26.5372C29.6563 26.5372 30.016 24.6949 30.8948 24.3657C31.7736 24.0366 31.7554 25.4354 31.7554 25.4354L32.0468 25.5132Z" fill="url(#paint31_linear_50_1492)"/>
<path d="M31.3137 25.5725C31.3137 25.5725 32.4202 23.1268 30.872 23.04C29.3238 22.9531 29.9522 25.3988 30.2618 26.2903L31.3137 25.5725Z" fill="url(#paint32_linear_50_1492)"/>
<path d="M30.4349 20.2468C31.3001 20.1417 31.6507 19.0674 31.0587 18.4183C29.1554 16.3291 25.5628 14.016 20.4447 17.568C14.6847 21.5726 11.5656 23.3874 10.1495 23.0034C9.22057 22.752 8.41006 23.6754 8.85174 24.5394C9.17503 25.1748 9.83983 25.8377 11.0601 26.4457C20.4812 31.1131 25.3533 20.8686 30.4349 20.2468Z" fill="url(#paint33_linear_50_1492)"/>
<path d="M30.4349 20.2468C31.3001 20.1417 31.6507 19.0674 31.0587 18.4183C29.1554 16.3291 25.5628 14.016 20.4447 17.568C14.6847 21.5726 11.5656 23.3874 10.1495 23.0034C9.22057 22.752 8.41006 23.6754 8.85174 24.5394C9.17503 25.1748 9.83983 25.8377 11.0601 26.4457C20.4812 31.1131 25.3533 20.8686 30.4349 20.2468Z" fill="url(#paint34_linear_50_1492)"/>
<path d="M30.4349 20.2468C31.3001 20.1417 31.6507 19.0674 31.0587 18.4183C29.1554 16.3291 25.5628 14.016 20.4447 17.568C14.6847 21.5726 11.5656 23.3874 10.1495 23.0034C9.22057 22.752 8.41006 23.6754 8.85174 24.5394C9.17503 25.1748 9.83983 25.8377 11.0601 26.4457C20.4812 31.1131 25.3533 20.8686 30.4349 20.2468Z" fill="url(#paint35_linear_50_1492)"/>
<path d="M21.2826 85.5589C26.9132 85.5589 31.4777 80.9763 31.4777 75.3234C31.4777 69.6706 26.9132 65.088 21.2826 65.088C15.652 65.088 11.0875 69.6706 11.0875 75.3234C11.0875 80.9763 15.652 85.5589 21.2826 85.5589Z" fill="url(#paint36_linear_50_1492)"/>
<path d="M21.2827 85.2159C26.7247 85.2159 31.1363 80.7869 31.1363 75.3234C31.1363 69.8598 26.7247 65.4308 21.2827 65.4308C15.8407 65.4308 11.4291 69.8598 11.4291 75.3234C11.4291 80.7869 15.8407 85.2159 21.2827 85.2159Z" fill="url(#paint37_linear_50_1492)"/>
<path opacity="0.6" d="M13.1548 71.3691C13.132 71.3691 13.1093 71.3645 13.0865 71.3508C13.0091 71.3097 12.9772 71.2182 13.0182 71.1405C14.6028 67.9908 17.7674 66.0297 21.2826 66.0297C21.8427 66.0297 22.4028 66.0799 22.9537 66.1805C23.0403 66.1942 23.0949 66.2765 23.0812 66.3634C23.0676 66.4502 22.9856 66.5051 22.8991 66.4914C22.3709 66.3954 21.8291 66.3451 21.2872 66.3451C17.8903 66.3451 14.8305 68.2377 13.3005 71.2822C13.2686 71.3371 13.214 71.3691 13.1548 71.3691Z" fill="white"/>
<path opacity="0.78" d="M27.3944 81.4593C30.6521 78.1888 30.6521 72.8862 27.3944 69.6156C24.1368 66.3451 18.855 66.3451 15.5974 69.6156C12.3397 72.8862 12.3397 78.1888 15.5974 81.4593C18.855 84.7299 24.1368 84.7299 27.3944 81.4593Z" fill="white"/>
<path d="M20.6771 81.7645V80.8548C19.73 80.8182 18.7965 80.5942 18.1317 80.3016C17.8949 80.1965 17.772 79.9314 17.8403 79.6799L18.0725 78.8296C18.159 78.5188 18.496 78.3588 18.792 78.4822C19.4522 78.7611 20.2673 78.9805 21.1415 78.9805C22.0522 78.9805 22.7307 78.6696 22.7307 78.0342C22.7307 77.4628 22.207 77.1199 20.9412 76.7771C19.1335 76.2788 17.8357 75.4879 17.8357 73.8925C17.8357 72.4525 18.8876 71.3508 20.7089 71.0536V70.1439C20.7089 69.8514 20.9457 69.6136 21.2371 69.6136H21.7699C22.0613 69.6136 22.2981 69.8514 22.2981 70.1439V70.9622C23.1723 70.9988 23.8098 71.1496 24.3153 71.3279C24.5748 71.4194 24.716 71.6982 24.6431 71.9634L24.4291 72.7496C24.3471 73.0514 24.0238 73.2159 23.7324 73.1062C23.268 72.9279 22.6077 72.7451 21.7517 72.7451C20.6725 72.7451 20.3629 73.1931 20.3629 73.5999C20.3629 74.0982 21.0095 74.4365 22.4165 74.8708C24.4245 75.4742 25.2578 76.3108 25.2578 77.8148C25.2578 79.1954 24.2378 80.4342 22.2617 80.7451V81.7645C22.2617 82.0571 22.0249 82.2948 21.7335 82.2948H21.2007C20.9139 82.2948 20.6771 82.0571 20.6771 81.7645Z" fill="url(#paint38_linear_50_1492)"/>
<path d="M14.1155 98.5326C17.5934 98.5326 20.4129 95.702 20.4129 92.2103C20.4129 88.7186 17.5934 85.8881 14.1155 85.8881C10.6375 85.8881 7.81812 88.7186 7.81812 92.2103C7.81812 95.702 10.6375 98.5326 14.1155 98.5326Z" fill="url(#paint39_linear_50_1492)"/>
<path d="M14.1155 98.3224C17.4778 98.3224 20.2034 95.5859 20.2034 92.2104C20.2034 88.8348 17.4778 86.0984 14.1155 86.0984C10.7532 86.0984 8.02759 88.8348 8.02759 92.2104C8.02759 95.5859 10.7532 98.3224 14.1155 98.3224Z" fill="url(#paint40_linear_50_1492)"/>
<path opacity="0.6" d="M9.09315 89.8286C9.07038 89.8286 9.04762 89.824 9.02485 89.8103C8.94744 89.7692 8.91557 89.6778 8.95655 89.6C9.94464 87.6343 11.9254 86.4092 14.1156 86.4092C14.4662 86.4092 14.8168 86.4412 15.1583 86.5052C15.2448 86.5189 15.2995 86.6012 15.2812 86.688C15.2676 86.7749 15.1856 86.8298 15.0991 86.8115C14.7758 86.752 14.4434 86.7246 14.111 86.7246C12.0347 86.7246 10.1632 87.8812 9.22975 89.7418C9.20699 89.7966 9.15235 89.8286 9.09315 89.8286Z" fill="white"/>
<path opacity="0.78" d="M17.8905 96.003C19.9034 93.9821 19.9034 90.7056 17.8905 88.6847C15.8775 86.6638 12.6139 86.6638 10.601 88.6847C8.5881 90.7056 8.5881 93.9821 10.601 96.003C12.6139 98.0239 15.8775 98.0239 17.8905 96.003Z" fill="white"/>
<path d="M13.7422 96.1921V95.6298C13.1593 95.6069 12.581 95.4698 12.1667 95.2869C12.021 95.2229 11.9436 95.0583 11.9891 94.9029L12.1302 94.3772C12.1803 94.1852 12.3898 94.0846 12.5719 94.1623C12.9772 94.3361 13.4826 94.4686 14.0245 94.4686C14.5891 94.4686 15.008 94.2766 15.008 93.8835C15.008 93.5269 14.6847 93.3166 13.9015 93.1063C12.7859 92.8001 11.9845 92.3109 11.9845 91.3235C11.9845 90.4321 12.6357 89.7509 13.7604 89.5681V89.0058C13.7604 88.8229 13.9061 88.6766 14.0882 88.6766H14.4161C14.5982 88.6766 14.7439 88.8229 14.7439 89.0058V89.5132C15.2858 89.5361 15.6774 89.6275 15.9915 89.7372C16.1509 89.7921 16.2374 89.9658 16.1964 90.1303L16.0644 90.6149C16.0143 90.8023 15.814 90.9029 15.6364 90.8343C15.3495 90.7246 14.9397 90.6103 14.4115 90.6103C13.7422 90.6103 13.5509 90.8892 13.5509 91.1361C13.5509 91.4423 13.9516 91.6526 14.8213 91.9223C16.0598 92.2972 16.5789 92.8138 16.5789 93.7418C16.5789 94.5966 15.9506 95.3601 14.7257 95.5521V96.1829C14.7257 96.3658 14.58 96.5121 14.3979 96.5121H14.07C13.8879 96.5212 13.7422 96.3749 13.7422 96.1921Z" fill="url(#paint41_linear_50_1492)"/>
<path d="M30.558 100.882C34.7728 100.882 38.1896 97.452 38.1896 93.2206C38.1896 88.9891 34.7728 85.5588 30.558 85.5588C26.3433 85.5588 22.9265 88.9891 22.9265 93.2206C22.9265 97.452 26.3433 100.882 30.558 100.882Z" fill="url(#paint42_linear_50_1492)"/>
<path d="M30.5579 100.626C34.6319 100.626 37.9345 97.3106 37.9345 93.2205C37.9345 89.1305 34.6319 85.8148 30.5579 85.8148C26.484 85.8148 23.1814 89.1305 23.1814 93.2205C23.1814 97.3106 26.484 100.626 30.5579 100.626Z" fill="url(#paint43_linear_50_1492)"/>
<path opacity="0.6" d="M24.4746 90.2994C24.4519 90.2994 24.4291 90.2948 24.4063 90.2811C24.3289 90.24 24.297 90.1485 24.338 90.0708C25.531 87.6983 27.917 86.2217 30.5625 86.2217C30.986 86.2217 31.4095 86.2583 31.8193 86.336C31.9058 86.3497 31.9604 86.432 31.9422 86.5188C31.9286 86.6057 31.8466 86.6605 31.7601 86.6423C31.3685 86.5691 30.9632 86.5325 30.558 86.5325C28.0308 86.5325 25.7541 87.9405 24.6112 90.208C24.5839 90.2674 24.5293 90.2994 24.4746 90.2994Z" fill="white"/>
<path opacity="0.78" d="M35.1346 97.8164C37.5743 95.3671 37.5743 91.3959 35.1346 88.9465C32.6949 86.4972 28.7393 86.4972 26.2997 88.9465C23.86 91.3959 23.86 95.3671 26.2997 97.8164C28.7393 100.266 32.6949 100.266 35.1346 97.8164Z" fill="white"/>
<path d="M30.1071 98.0434V97.3622C29.3968 97.3348 28.7001 97.1656 28.1993 96.9462C28.0217 96.8685 27.9306 96.6674 27.9807 96.4799L28.1537 95.8445C28.2175 95.6114 28.4679 95.4925 28.691 95.5839C29.1828 95.7896 29.793 95.9542 30.4532 95.9542C31.1362 95.9542 31.6462 95.7211 31.6462 95.2457C31.6462 94.8159 31.2546 94.5599 30.3029 94.3039C28.9506 93.9336 27.9807 93.3394 27.9807 92.1462C27.9807 91.0674 28.7684 90.2445 30.1299 90.0205V89.3394C30.1299 89.1199 30.3075 88.9417 30.5261 88.9417H30.9268C31.1453 88.9417 31.3229 89.1199 31.3229 89.3394V89.9519C31.9786 89.9794 32.4567 90.0891 32.8346 90.2262C33.0304 90.2948 33.1352 90.5051 33.0805 90.7017L32.9211 91.2914C32.862 91.5199 32.6206 91.6434 32.4021 91.5611C32.0514 91.4285 31.5597 91.2914 30.9222 91.2914C30.1117 91.2914 29.8795 91.6297 29.8795 91.9314C29.8795 92.3017 30.3667 92.5577 31.4185 92.8822C32.9211 93.3348 33.545 93.9611 33.545 95.0857C33.545 96.1188 32.78 97.0468 31.3001 97.2799V98.0434C31.3001 98.2628 31.1225 98.4411 30.904 98.4411H30.5033C30.2847 98.4411 30.1071 98.2628 30.1071 98.0434Z" fill="url(#paint44_linear_50_1492)"/>
</g>
<defs>
<linearGradient id="paint0_linear_50_1492" x1="140.632" y1="148.702" x2="50.5348" y2="53.1703" gradientUnits="userSpaceOnUse">
<stop stop-color="#DAE3FE"/>
<stop offset="1" stop-color="#E9EFFD"/>
</linearGradient>
<linearGradient id="paint1_linear_50_1492" x1="65.0608" y1="100.494" x2="82.5084" y2="128.768" gradientUnits="userSpaceOnUse">
<stop stop-color="#4F52FF"/>
<stop offset="1" stop-color="#4042E2"/>
</linearGradient>
<linearGradient id="paint2_linear_50_1492" x1="66.7694" y1="99.4401" x2="84.217" y2="127.714" gradientUnits="userSpaceOnUse">
<stop stop-color="#4F52FF"/>
<stop offset="1" stop-color="#4042E2"/>
</linearGradient>
<linearGradient id="paint3_linear_50_1492" x1="68.478" y1="98.3856" x2="85.9256" y2="126.66" gradientUnits="userSpaceOnUse">
<stop stop-color="#4F52FF"/>
<stop offset="1" stop-color="#4042E2"/>
</linearGradient>
<linearGradient id="paint4_linear_50_1492" x1="70.1866" y1="97.3313" x2="87.6342" y2="125.605" gradientUnits="userSpaceOnUse">
<stop stop-color="#4F52FF"/>
<stop offset="1" stop-color="#4042E2"/>
</linearGradient>
<linearGradient id="paint5_linear_50_1492" x1="74.1952" y1="6.01984" x2="72.3179" y2="101.07" gradientUnits="userSpaceOnUse">
<stop stop-color="#E13030"/>
<stop offset="1" stop-color="#B72222"/>
</linearGradient>
<linearGradient id="paint6_linear_50_1492" x1="79.7451" y1="64.6418" x2="82.7042" y2="158.289" gradientUnits="userSpaceOnUse">
<stop stop-color="#E1473D"/>
<stop offset="1" stop-color="#E9605A"/>
</linearGradient>
<linearGradient id="paint7_linear_50_1492" x1="63.5732" y1="65.1527" x2="66.5322" y2="158.8" gradientUnits="userSpaceOnUse">
<stop stop-color="#E1473D"/>
<stop offset="1" stop-color="#E9605A"/>
</linearGradient>
<linearGradient id="paint8_linear_50_1492" x1="99.0901" y1="111.34" x2="103.482" y2="98.8399" gradientUnits="userSpaceOnUse">
<stop stop-color="#9192FB"/>
<stop offset="1" stop-color="#8284FD"/>
</linearGradient>
<linearGradient id="paint9_linear_50_1492" x1="115.675" y1="95.6982" x2="87.9716" y2="116.964" gradientUnits="userSpaceOnUse">
<stop stop-color="#FF928E"/>
<stop offset="1" stop-color="#FE7062"/>
</linearGradient>
<linearGradient id="paint10_linear_50_1492" x1="105.713" y1="98.4415" x2="100.071" y2="88.1391" gradientUnits="userSpaceOnUse">
<stop stop-color="#FEBBBA"/>
<stop offset="1" stop-color="#FF928E"/>
</linearGradient>
<linearGradient id="paint11_linear_50_1492" x1="98.0206" y1="84.5556" x2="106.74" y2="91.2011" gradientUnits="userSpaceOnUse">
<stop stop-color="#FEBBBA"/>
<stop offset="1" stop-color="#FF928E"/>
</linearGradient>
<linearGradient id="paint12_linear_50_1492" x1="104.129" y1="79.2835" x2="96.2171" y2="89.4294" gradientUnits="userSpaceOnUse">
<stop stop-color="#E1473D"/>
<stop offset="1" stop-color="#E9605A"/>
</linearGradient>
<linearGradient id="paint13_linear_50_1492" x1="75.8634" y1="77.0635" x2="100.547" y2="80.2736" gradientUnits="userSpaceOnUse">
<stop stop-color="#03013A"/>
<stop offset="1" stop-color="#03013A"/>
</linearGradient>
<linearGradient id="paint14_linear_50_1492" x1="96.3391" y1="82.9933" x2="107.132" y2="82.9933" gradientUnits="userSpaceOnUse">
<stop/>
<stop offset="1"/>
</linearGradient>
<linearGradient id="paint15_linear_50_1492" x1="99.099" y1="83.1406" x2="107.819" y2="89.7862" gradientUnits="userSpaceOnUse">
<stop stop-color="#FEBBBA"/>
<stop offset="1" stop-color="#FF928E"/>
</linearGradient>
<linearGradient id="paint16_linear_50_1492" x1="92.6966" y1="106.723" x2="98.2942" y2="121.396" gradientUnits="userSpaceOnUse">
<stop stop-color="#FEBBBA"/>
<stop offset="1" stop-color="#FF928E"/>
</linearGradient>
<linearGradient id="paint17_linear_50_1492" x1="99.5941" y1="104.092" x2="105.192" y2="118.765" gradientUnits="userSpaceOnUse">
<stop stop-color="#FEBBBA"/>
<stop offset="1" stop-color="#FF928E"/>
</linearGradient>
<linearGradient id="paint18_linear_50_1492" x1="114.344" y1="95.5189" x2="109.534" y2="108.538" gradientUnits="userSpaceOnUse">
<stop stop-color="#4F52FF"/>
<stop offset="1" stop-color="#4042E2"/>
</linearGradient>
<linearGradient id="paint19_linear_50_1492" x1="117.753" y1="96.7783" x2="112.943" y2="109.798" gradientUnits="userSpaceOnUse">
<stop stop-color="#4F52FF"/>
<stop offset="1" stop-color="#4042E2"/>
</linearGradient>
<linearGradient id="paint20_linear_50_1492" x1="115.397" y1="105.363" x2="115.292" y2="116.935" gradientUnits="userSpaceOnUse">
<stop stop-color="#4F52FF"/>
<stop offset="1" stop-color="#4042E2"/>
</linearGradient>
<linearGradient id="paint21_linear_50_1492" x1="114.408" y1="97.5879" x2="114.513" y2="111.569" gradientUnits="userSpaceOnUse">
<stop stop-color="#4F52FF"/>
<stop offset="1" stop-color="#4042E2"/>
</linearGradient>
<linearGradient id="paint22_linear_50_1492" x1="0.872805" y1="45.0774" x2="45.501" y2="45.0774" gradientUnits="userSpaceOnUse">
<stop stop-color="#8284FD"/>
<stop offset="1" stop-color="#8284FD"/>
</linearGradient>
<linearGradient id="paint23_linear_50_1492" x1="24.556" y1="41.6037" x2="34.1913" y2="23.7801" gradientUnits="userSpaceOnUse">
<stop stop-color="#FEBBBA"/>
<stop offset="1" stop-color="#FF928E"/>
</linearGradient>
<linearGradient id="paint24_linear_50_1492" x1="24.4557" y1="41.5495" x2="34.091" y2="23.7259" gradientUnits="userSpaceOnUse">
<stop stop-color="#FEBBBA"/>
<stop offset="1" stop-color="#FF928E"/>
</linearGradient>
<linearGradient id="paint25_linear_50_1492" x1="46.9742" y1="29.2415" x2="51.8859" y2="19.3528" gradientUnits="userSpaceOnUse">
<stop stop-color="#FEBBBA"/>
<stop offset="1" stop-color="#FF928E"/>
</linearGradient>
<linearGradient id="paint26_linear_50_1492" x1="57.7254" y1="34.5814" x2="62.6371" y2="24.6928" gradientUnits="userSpaceOnUse">
<stop stop-color="#FEBBBA"/>
<stop offset="1" stop-color="#FF928E"/>
</linearGradient>
<linearGradient id="paint27_linear_50_1492" x1="7.48111" y1="44.9741" x2="25.0907" y2="44.9741" gradientUnits="userSpaceOnUse">
<stop stop-color="#FEBBBA"/>
<stop offset="1" stop-color="#FF928E"/>
</linearGradient>
<linearGradient id="paint28_linear_50_1492" x1="24.277" y1="48.5293" x2="30.2991" y2="48.5293" gradientUnits="userSpaceOnUse">
<stop stop-color="#FEBBBA"/>
<stop offset="1" stop-color="#FF928E"/>
</linearGradient>
<linearGradient id="paint29_linear_50_1492" x1="37.9261" y1="27.1178" x2="24.5041" y2="24.8774" gradientUnits="userSpaceOnUse">
<stop stop-color="#FEBBBA"/>
<stop offset="1" stop-color="#FF928E"/>
</linearGradient>
<linearGradient id="paint30_linear_50_1492" x1="4.35708" y1="17.3076" x2="31.9327" y2="22.1958" gradientUnits="userSpaceOnUse">
<stop stop-color="#03013A"/>
<stop offset="1" stop-color="#03013A"/>
</linearGradient>
<linearGradient id="paint31_linear_50_1492" x1="27.5585" y1="22.2371" x2="39.7882" y2="22.2371" gradientUnits="userSpaceOnUse">
<stop/>
<stop offset="1"/>
</linearGradient>
<linearGradient id="paint32_linear_50_1492" x1="38.1244" y1="25.9291" x2="24.7024" y2="23.6886" gradientUnits="userSpaceOnUse">
<stop stop-color="#FEBBBA"/>
<stop offset="1" stop-color="#FF928E"/>
</linearGradient>
<linearGradient id="paint33_linear_50_1492" x1="4.10165" y1="18.7488" x2="31.6773" y2="23.637" gradientUnits="userSpaceOnUse">
<stop stop-color="#4F52FF"/>
<stop offset="1" stop-color="#4042E2"/>
</linearGradient>
<linearGradient id="paint34_linear_50_1492" x1="-34.2222" y1="15.0846" x2="15.3989" y2="27.2025" gradientUnits="userSpaceOnUse">
<stop stop-color="#03013A"/>
<stop offset="1" stop-color="#03013A"/>
</linearGradient>
<linearGradient id="paint35_linear_50_1492" x1="8.66988" y1="21.6995" x2="31.2787" y2="21.6995" gradientUnits="userSpaceOnUse">
<stop/>
<stop offset="1"/>
</linearGradient>
<linearGradient id="paint36_linear_50_1492" x1="7.33238" y1="91.5775" x2="21.0672" y2="75.6981" gradientUnits="userSpaceOnUse">
<stop stop-color="#E1473D"/>
<stop offset="1" stop-color="#E9605A"/>
</linearGradient>
<linearGradient id="paint37_linear_50_1492" x1="28.7313" y1="64.0235" x2="-11.9219" y2="125.197" gradientUnits="userSpaceOnUse">
<stop stop-color="#FF928E"/>
<stop offset="1" stop-color="#FE7062"/>
</linearGradient>
<linearGradient id="paint38_linear_50_1492" x1="27.9521" y1="56.8648" x2="17.8344" y2="86.6295" gradientUnits="userSpaceOnUse">
<stop stop-color="#FF928E"/>
<stop offset="1" stop-color="#FE7062"/>
</linearGradient>
<linearGradient id="paint39_linear_50_1492" x1="5.4959" y1="102.257" x2="13.9838" y2="92.4438" gradientUnits="userSpaceOnUse">
<stop stop-color="#E1473D"/>
<stop offset="1" stop-color="#E9605A"/>
</linearGradient>
<linearGradient id="paint40_linear_50_1492" x1="18.72" y1="85.2292" x2="-6.40297" y2="123.033" gradientUnits="userSpaceOnUse">
<stop stop-color="#FF928E"/>
<stop offset="1" stop-color="#FE7062"/>
</linearGradient>
<linearGradient id="paint41_linear_50_1492" x1="16.5326" y1="78.8074" x2="13.4719" y2="97.3336" gradientUnits="userSpaceOnUse">
<stop stop-color="#FF928E"/>
<stop offset="1" stop-color="#FE7062"/>
</linearGradient>
<linearGradient id="paint42_linear_50_1492" x1="20.1141" y1="105.39" x2="30.3982" y2="93.5002" gradientUnits="userSpaceOnUse">
<stop stop-color="#E1473D"/>
<stop offset="1" stop-color="#E9605A"/>
</linearGradient>
<linearGradient id="paint43_linear_50_1492" x1="36.1366" y1="84.7587" x2="5.69707" y2="130.563" gradientUnits="userSpaceOnUse">
<stop stop-color="#FF928E"/>
<stop offset="1" stop-color="#FE7062"/>
</linearGradient>
<linearGradient id="paint44_linear_50_1492" x1="32.5913" y1="80.7405" x2="30.0013" y2="98.7987" gradientUnits="userSpaceOnUse">
<stop stop-color="#FF928E"/>
<stop offset="1" stop-color="#FE7062"/>
</linearGradient>
<clipPath id="clip0_50_1492">
<rect width="130" height="128" fill="white"/>
</clipPath>
</defs>
</svg>
