<svg width="89" height="49" viewBox="0 0 89 49" fill="none" xmlns="http://www.w3.org/2000/svg">
<path d="M5.00161 27.0752L4.96631 27.7402C5.66426 27.7287 6.24913 27.6077 6.72096 27.377C6.56914 27.3211 6.41382 27.2744 6.25497 27.2369C5.80776 27.1291 5.38998 27.0752 5.00161 27.0752Z" fill="black"/>
<path d="M7.43775 22.4916C6.88462 21.9524 6.06671 21.6827 4.98399 21.6827H1.47107V23.4443H4.73685C5.2429 23.4443 5.64304 23.5881 5.93725 23.8757C6.23147 24.1513 6.37857 24.5707 6.37857 25.1339C6.37857 25.6851 6.21381 26.1045 5.88429 26.3921C5.56654 26.6677 5.19583 26.8115 4.77216 26.8235H1.47107V28.585H4.86042C5.18995 28.585 5.51947 28.633 5.84899 28.7288C6.17851 28.8247 6.45507 29.0104 6.67867 29.2861C6.90228 29.5617 7.01408 29.9811 7.01408 30.5443C7.01408 31.2154 6.82578 31.7187 6.44918 32.0542C6.07259 32.3777 5.57831 32.5395 4.96634 32.5395H1.47107V34.2651H4.98399C5.4312 34.2651 5.88429 34.2112 6.34327 34.1033C6.81401 33.9835 7.24357 33.7858 7.63193 33.5102C8.02029 33.2345 8.33216 32.8571 8.56753 32.3777C8.8029 31.8864 8.92059 31.2753 8.92059 30.5443C8.92059 29.8732 8.79114 29.316 8.53223 28.8726C8.27332 28.4173 7.9438 28.0578 7.54366 27.7941C7.28201 27.6219 7.0078 27.4828 6.72099 27.377C6.24917 27.6077 5.66429 27.7287 4.96634 27.7402L5.00165 27.0751C5.39001 27.0751 5.8078 27.1291 6.255 27.2369C6.41385 27.2744 6.56918 27.3211 6.72099 27.377C6.74242 27.3665 6.76363 27.3558 6.78459 27.3448C7.27887 27.0931 7.64958 26.7516 7.89672 26.3202C8.15563 25.8768 8.28509 25.3855 8.28509 24.8463C8.28509 23.8158 8.00264 23.0309 7.43775 22.4916Z" fill="black"/>
<path d="M54.8174 2.16498C54.8174 1.90135 54.9056 1.68565 55.0822 1.51788C55.2587 1.33813 55.4882 1.24826 55.7706 1.24826C56.006 1.24826 56.212 1.33813 56.3885 1.51788C56.5768 1.68565 56.6709 1.90135 56.6709 2.16498L56.8551 34.4449H55.0057L54.8174 2.16498Z" fill="black"/>
<path d="M85.237 21.515H79.1291H78.2288V22.4317V23.2406H80.0823H85.237C85.4841 23.2406 85.69 23.1627 85.8548 23.0069C86.0313 22.8511 86.1196 22.6474 86.1196 22.3957C86.1196 22.1441 86.0313 21.9344 85.8548 21.7666C85.69 21.5989 85.4841 21.515 85.237 21.515Z" fill="black"/>
<path d="M85.0604 27.0332C84.8957 26.8654 84.6897 26.7816 84.4426 26.7816H80.0823H78.2288V28.5251H80.0823H84.4426C84.6897 28.5251 84.8957 28.4472 85.0604 28.2914C85.237 28.1357 85.3252 27.9319 85.3252 27.6803C85.3252 27.4167 85.237 27.201 85.0604 27.0332Z" fill="black"/>
<path d="M85.8548 32.6414C85.69 32.4616 85.4841 32.3718 85.237 32.3718H80.0823H78.2288V33.0987V34.0974H79.1291H85.237C85.4841 34.0974 85.69 34.0195 85.8548 33.8637C86.0313 33.6959 86.1196 33.4862 86.1196 33.2346C86.1196 33.0069 86.0313 32.8092 85.8548 32.6414Z" fill="black"/>
<path fill-rule="evenodd" clip-rule="evenodd" d="M52.0204 21.6288C52.2558 21.6288 52.45 21.7247 52.6029 21.9164C52.7559 22.1081 52.8324 22.3059 52.8324 22.5096C52.8324 22.7253 52.7442 22.923 52.5676 23.1027L48.9755 26.5738L47.9232 25.3101L51.3143 21.9703C51.5261 21.7427 51.7615 21.6288 52.0204 21.6288Z" fill="black"/>
<path d="M10.425 22.5995C10.425 22.3358 10.5133 22.1201 10.6898 21.9524C10.8664 21.7726 11.0959 21.6827 11.3783 21.6827C11.6137 21.6827 11.8196 21.7726 11.9962 21.9524C12.1845 22.1201 12.2786 22.3358 12.2786 22.5995L12.2745 30.021H10.425V22.5995Z" fill="black"/>
<path d="M17.2567 32.5036C17.5039 32.5036 17.7098 32.5875 17.8746 32.7552C18.0511 32.923 18.1394 33.1327 18.1394 33.3843C18.1394 33.636 18.0511 33.8457 17.8746 34.0135C17.7098 34.1812 17.5039 34.2651 17.2567 34.2651H11.3253C11.0664 34.2651 10.8487 34.1812 10.6722 34.0135C10.5074 33.8337 10.425 33.612 10.425 33.3484V32.5036H12.2786H17.2567Z" fill="black"/>
<path fill-rule="evenodd" clip-rule="evenodd" d="M25.0292 24.6034L23.0469 29.4478L22.3407 31.1734L21.2963 33.7259C21.2257 33.9176 21.1198 34.0674 20.9785 34.1752C20.8373 34.2831 20.6784 34.337 20.5019 34.337C20.243 34.337 20.0488 34.2651 19.9194 34.1213C19.7899 33.9655 19.7193 33.7738 19.7075 33.5461C19.7075 33.4622 19.7252 33.3664 19.7605 33.2585L24.2443 22.222C24.3267 22.0183 24.4444 21.8625 24.5974 21.7546C24.7622 21.6468 24.9387 21.5988 25.127 21.6108C25.3035 21.6108 25.4683 21.6648 25.6213 21.7726C25.7743 21.8805 25.8861 22.0303 25.9567 22.222L30.3875 33.0967C30.4346 33.2166 30.4582 33.3364 30.4582 33.4562C30.4582 33.7199 30.3699 33.9356 30.1934 34.1033C30.0286 34.2591 29.8403 34.337 29.6285 34.337C29.4519 34.337 29.2872 34.2831 29.1342 34.1752C28.993 34.0554 28.887 33.9056 28.8164 33.7259L27.7568 31.1734L27.0404 29.4478L25.0292 24.6034ZM41.3098 23.0129C41.2745 22.7373 41.1274 22.5336 40.8685 22.4017C40.4095 22.1381 39.9093 21.9344 39.368 21.7906C38.8384 21.6468 38.2911 21.5749 37.7262 21.5749C36.8201 21.5749 35.9845 21.7367 35.2195 22.0602C34.4546 22.3718 33.7838 22.8152 33.2071 23.3904C32.6422 23.9536 32.2009 24.6306 31.8831 25.4215C31.5772 26.2004 31.4242 27.0512 31.4242 27.9739C31.4242 29.0045 31.5889 29.9212 31.9184 30.7241C32.2597 31.5269 32.7246 32.204 33.313 32.7552C33.9014 33.3064 34.5723 33.7259 35.3255 34.0135C36.0786 34.3011 36.8789 34.4449 37.7262 34.4449C38.1028 34.4449 38.4736 34.4089 38.8384 34.337C39.2032 34.2651 39.5621 34.1692 39.9152 34.0494C40.2683 33.9296 40.5919 33.7858 40.8861 33.618C41.1333 33.4862 41.2804 33.2945 41.3274 33.0428C41.3863 32.7792 41.3157 32.5215 41.1156 32.2699C40.9861 32.0901 40.8155 31.9883 40.6037 31.9643C40.4036 31.9284 40.1976 31.9643 39.9858 32.0722C39.6445 32.2639 39.2797 32.4077 38.8913 32.5036C38.5147 32.5994 38.1264 32.6474 37.7262 32.6474C37.1025 32.6474 36.52 32.5515 35.9786 32.3598C35.449 32.1561 34.9842 31.8565 34.584 31.461C34.1957 31.0536 33.8897 30.5623 33.6661 29.9871C33.4425 29.3999 33.3307 28.7288 33.3307 27.9739C33.3307 27.2909 33.4307 26.6677 33.6308 26.1045C33.8426 25.5413 34.1427 25.056 34.5311 24.6486C34.9194 24.2292 35.3784 23.9116 35.908 23.6959C36.4494 23.4682 37.0554 23.3544 37.7262 23.3544C38.1499 23.3544 38.55 23.4083 38.9266 23.5162C39.3032 23.624 39.6622 23.7678 40.0035 23.9476C40.2035 24.0554 40.4036 24.0974 40.6037 24.0734C40.8155 24.0494 40.9861 23.9476 41.1156 23.7678C41.2921 23.5401 41.3569 23.2885 41.3098 23.0129ZM51.279 33.9416C51.4438 34.1692 51.6615 34.2831 51.9322 34.2831C52.1793 34.2831 52.4088 34.1992 52.6206 34.0314C52.8325 33.8637 52.9384 33.636 52.9384 33.3484C52.9384 33.1207 52.8678 32.911 52.7265 32.7193L48.3964 27.1501L47.363 25.8619L46.0388 27.1658L47.0693 28.4155L51.279 33.9416ZM45.1711 22.5995V28.0206V30.2497V33.3484C45.1593 33.612 45.0711 33.8337 44.9063 34.0135C44.7416 34.1812 44.518 34.2651 44.2355 34.2651C43.9648 34.2651 43.7412 34.1812 43.5647 34.0135C43.3999 33.8337 43.3176 33.612 43.3176 33.3484V22.5995C43.3176 22.3358 43.4058 22.1201 43.5823 21.9524C43.7589 21.7726 43.9884 21.6827 44.2708 21.6827C44.5415 21.6827 44.7592 21.7726 44.924 21.9524C45.0887 22.1201 45.1711 22.3358 45.1711 22.5995ZM62.1294 33.8457C62.3177 33.6659 62.4177 33.4443 62.4295 33.1806V22.4317C62.4295 22.1681 62.3354 21.9524 62.1471 21.7846C61.9705 21.6049 61.7646 21.515 61.5292 21.515C61.2468 21.515 61.0173 21.6049 60.8407 21.7846C60.6642 21.9524 60.576 22.1681 60.576 22.4317V33.1806C60.576 33.4443 60.6583 33.6659 60.8231 33.8457C60.9996 34.0135 61.2232 34.0973 61.4939 34.0973C61.741 34.0973 61.9529 34.0135 62.1294 33.8457ZM75.1148 21.7666C74.9736 21.5989 74.7853 21.515 74.5499 21.515C74.3146 21.515 74.1204 21.5989 73.9674 21.7666C73.8144 21.9224 73.7379 22.1201 73.7379 22.3598V30.8704L71.5534 28.1057L70.123 29.1647L73.7556 33.8277C73.8262 33.9116 73.9262 33.9775 74.0556 34.0254C74.1969 34.0734 74.3263 34.0973 74.444 34.0973C74.7029 34.0973 74.9148 34.0135 75.0795 33.8457C75.256 33.6659 75.3443 33.4443 75.3443 33.1806V22.3598C75.3443 22.1201 75.2678 21.9224 75.1148 21.7666Z" fill="black"/>
<path d="M70.7057 26.9823L69.3209 28.1057L70.1229 29.1647L71.5533 28.1057L70.7057 26.9823Z" fill="black"/>
<path d="M66.6767 33.8637C66.8297 33.6959 66.9062 33.4982 66.9062 33.2705V24.7833L69.3209 28.1057L70.7057 26.9823L66.9238 21.8385C66.8532 21.7307 66.7414 21.6528 66.5884 21.6049C66.4472 21.5449 66.3119 21.515 66.1824 21.515C65.9353 21.515 65.7234 21.5989 65.5469 21.7666C65.3704 21.9344 65.2821 22.1561 65.2821 22.4317V33.2705C65.2821 33.4982 65.3527 33.6959 65.4939 33.8637C65.6469 34.0194 65.847 34.0973 66.0941 34.0973C66.3295 34.0973 66.5237 34.0194 66.6767 33.8637Z" fill="black"/>
<path d="M48.3963 27.15L52.5676 23.1028L48.9755 26.5739L47.9232 25.3101L47.3629 25.8618L48.3963 27.15Z" fill="black"/>
<path d="M45.171 28.0206V30.2497L47.0692 28.4155L46.0387 27.1658L45.171 28.0206Z" fill="black"/>
<path d="M86.9857 35.9358C87.2328 35.9358 87.4387 36.0196 87.6035 36.1874C87.78 36.3552 87.8683 36.5649 87.8683 36.8165C87.8683 37.0682 87.78 37.2779 87.6035 37.4457C87.4387 37.6134 87.2328 37.6973 86.9857 37.6973H55.8236C55.5647 37.6973 55.347 37.6134 55.1705 37.4457C55.0057 37.2659 54.9233 37.0442 54.9233 36.7806V35.9358H56.7769H86.9857Z" fill="black"/>
<path d="M55.9655 40.6752H56.6952V42.1451H57.5896V42.7283H56.6952V45.4365H55.9655V42.7283H55.3693V42.1451H55.9655V40.6752ZM62.4961 42.1291L62.5667 43.0878L62.5275 42.96C62.6111 42.7575 62.7315 42.5872 62.8884 42.4487C63.0505 42.3049 63.2179 42.1958 63.3905 42.1211C63.5683 42.0412 63.7228 42.0013 63.8534 42.0013L63.8142 42.7363C63.5683 42.7203 63.3513 42.7682 63.163 42.8801C62.9799 42.9919 62.8335 43.141 62.7237 43.3275C62.619 43.5139 62.5667 43.7137 62.5667 43.9266V45.4365H61.8449V42.1291H62.4961ZM69.4413 45.5164C69.138 45.5164 68.8607 45.4497 68.6097 45.3167C68.3638 45.1836 68.1676 44.9891 68.0212 44.7335C67.88 44.4726 67.8094 44.1555 67.8094 43.7828C67.8094 43.4153 67.8852 43.0985 68.0369 42.8321C68.1887 42.5605 68.39 42.3528 68.6411 42.209C68.8973 42.0652 69.1773 41.9933 69.4805 41.9933C69.7838 41.9933 70.0403 42.0652 70.2494 42.209C70.4586 42.3476 70.6182 42.5126 70.728 42.7043L70.6809 42.8321L70.7516 42.1291H71.4263V45.4365H70.6966V44.5737L70.7751 44.7654C70.7542 44.8186 70.7072 44.888 70.6339 44.9731C70.566 45.053 70.4718 45.1357 70.3514 45.2208C70.2364 45.3059 70.1031 45.3778 69.9513 45.4365C69.7995 45.4897 69.6296 45.5164 69.4413 45.5164ZM69.6375 44.9013C69.8206 44.9013 69.9854 44.8665 70.1317 44.7974C70.2781 44.7282 70.3985 44.6324 70.4926 44.5098C70.5919 44.382 70.6601 44.2302 70.6966 44.0544V43.4073C70.6547 43.2476 70.5816 43.109 70.4769 42.9919C70.3723 42.8693 70.2467 42.7762 70.1004 42.7123C69.954 42.6432 69.7917 42.6085 69.6139 42.6085C69.4205 42.6085 69.2425 42.6564 69.0804 42.7523C68.9183 42.8481 68.7874 42.9812 68.6881 43.1517C68.594 43.3222 68.5469 43.5219 68.5469 43.7509C68.5469 43.9638 68.5967 44.1583 68.696 44.334C68.7953 44.5098 68.9286 44.6484 69.0961 44.7495C69.2636 44.8506 69.444 44.9013 69.6375 44.9013ZM77.3807 45.5164C77.0826 45.5164 76.8107 45.4445 76.5647 45.3007C76.3242 45.1516 76.1332 44.9439 75.992 44.6776C75.8508 44.4059 75.7802 44.0944 75.7802 43.7429C75.7802 43.3754 75.8535 43.0611 75.9999 42.8002C76.1516 42.5393 76.3556 42.3396 76.6118 42.201C76.868 42.0625 77.1559 41.9933 77.4749 41.9933C77.7311 41.9933 77.9743 42.0492 78.2045 42.1611C78.4399 42.2729 78.623 42.4275 78.7537 42.6244L78.7223 42.8881V39.2531H79.4441V45.4365H78.7145V44.6137L78.7929 44.8214C78.6412 45.0238 78.445 45.1916 78.2045 45.3247C77.964 45.4525 77.6894 45.5164 77.3807 45.5164ZM77.6082 44.8853C77.8017 44.8853 77.9743 44.8506 78.126 44.7814C78.2778 44.7068 78.4033 44.6057 78.5026 44.4778C78.6019 44.35 78.6726 44.1982 78.7145 44.0225V43.3993C78.6726 43.2396 78.5968 43.101 78.487 42.9839C78.3823 42.8613 78.2543 42.7655 78.1025 42.6963C77.9561 42.6217 77.7914 42.5845 77.6082 42.5845C77.4094 42.5845 77.2265 42.6352 77.059 42.7363C76.897 42.8321 76.766 42.9652 76.6667 43.1357C76.5674 43.3062 76.5177 43.5032 76.5177 43.7269C76.5177 43.9453 76.5674 44.1423 76.6667 44.3181C76.766 44.4886 76.8994 44.6269 77.0669 44.7335C77.2343 44.8346 77.4148 44.8853 77.6082 44.8853ZM85.5935 45.5164C85.222 45.5164 84.903 45.4417 84.6363 45.2927C84.3695 45.1382 84.1628 44.9305 84.0165 44.6696C83.8753 44.4032 83.8046 44.0996 83.8046 43.7588C83.8046 43.4341 83.8856 43.1385 84.0479 42.8721C84.2099 42.6057 84.4269 42.3928 84.6991 42.233C84.971 42.0732 85.2742 41.9933 85.6092 41.9933C86.038 41.9933 86.3937 42.1211 86.6762 42.3768C86.9586 42.6324 87.1494 42.9839 87.2489 43.4313L84.5735 44.39L84.4009 43.9506L86.5977 43.1357L86.4408 43.2396C86.378 43.0638 86.2734 42.912 86.127 42.7842C85.9804 42.6511 85.7896 42.5845 85.5542 42.5845C85.3554 42.5845 85.1776 42.6352 85.0207 42.7363C84.8638 42.8321 84.7407 42.9652 84.652 43.1357C84.563 43.3062 84.5186 43.5005 84.5186 43.7189C84.5186 43.9478 84.5657 44.1503 84.6598 44.3261C84.754 44.4966 84.882 44.6324 85.0443 44.7335C85.2115 44.8294 85.3998 44.8773 85.6092 44.8773C85.7504 44.8773 85.8862 44.8506 86.0171 44.7974C86.153 44.7442 86.2785 44.6748 86.3937 44.5897L86.7311 45.1409C86.5688 45.2528 86.3859 45.3434 86.1819 45.4125C85.9831 45.4817 85.7869 45.5164 85.5935 45.5164Z" fill="black"/>
</svg>
