<svg width="1440" height="696" viewBox="0 0 1440 696" fill="none" xmlns="http://www.w3.org/2000/svg">
<g opacity="0.3">
<mask id="mask0_29_3023" style="mask-type:luminance" maskUnits="userSpaceOnUse" x="574" y="82" width="849" height="567">
<path d="M1422.77 82.5879H574V648.258H1422.77V82.5879Z" fill="white"/>
</mask>
<g mask="url(#mask0_29_3023)">
<path opacity="0.07" d="M1543.87 357.956L1249.62 250.479L1134.19 399.816L1027.81 373.795L912.378 456.383L961.041 544.174L906.719 669.753L1557.45 665.68L1543.87 357.956Z" fill="white"/>
</g>
<mask id="mask1_29_3023" style="mask-type:luminance" maskUnits="userSpaceOnUse" x="574" y="82" width="849" height="567">
<path d="M1422.77 82.5879H574V648.258H1422.77V82.5879Z" fill="white"/>
</mask>
<g mask="url(#mask1_29_3023)">
<path opacity="0.07" d="M1048.52 197.079L1166.22 446.427L1329.75 426.854L1380.11 509.103L1502.78 530.485L1526.32 446.313L1557.22 123.769L1228.69 0L1048.52 197.079Z" fill="white"/>
</g>
<mask id="mask2_29_3023" style="mask-type:luminance" maskUnits="userSpaceOnUse" x="574" y="82" width="849" height="567">
<path d="M1422.77 82.5879H574V648.258H1422.77V82.5879Z" fill="white"/>
</mask>
<g mask="url(#mask2_29_3023)">
<g opacity="0.62">
<path d="M990.239 695.887L989.673 695.661L1066.06 514.646V514.533L1344.46 297.995L1390.97 168.57L1496.67 51.2498L1497.01 51.7023L1391.43 168.909L1345.03 298.334H1344.91L1066.51 514.986L990.239 695.887Z" fill="white"/>
<path d="M1469.06 278.31L1391.09 169.022L1150.94 10.4083L1151.28 9.95581L1391.43 168.57L1469.51 277.97L1469.06 278.31Z" fill="white"/>
<path d="M1649 592.369L1647.87 592.03L1214.31 458.079L1475.4 425.044L1072.85 35.2978L1073.19 34.8452L1649 592.369ZM1216.92 458.306L1646.85 591.125L1475.96 425.497L1216.92 458.306Z" fill="white"/>
<path d="M1475.96 425.497L1258.11 365.649L1151.05 329.446L1065.72 343.135L1065.84 342.683L1173.57 47.8557L1236.5 193.12L1236.38 193.233L1151.51 328.767L1580.98 259.869L1581.1 260.434L1152.18 329.22L1258.22 365.083L1475.96 424.931V425.497ZM1173.8 49.4396L1066.74 342.457L1151.05 328.994L1236.04 193.233L1173.8 49.4396Z" fill="white"/>
<path d="M1052.93 696L1052.48 695.661L1216.24 456.722L1189.98 564.312L1603.85 622.01L1603.73 622.576L1189.3 564.765V564.425L1214.99 459.663L1052.93 696Z" fill="white"/>
<path d="M1384.07 696L1215.45 458.419L1066.52 343.362V514.646L1270.79 678.464L1189.42 564.765L1189.87 564.425L1273.62 681.406L1065.95 514.873V342.23L1066.4 342.57L1215.79 457.966L1384.52 695.661L1384.07 696Z" fill="white"/>
<path d="M1065.95 342.909L998.047 227.399L998.16 227.286L1139.62 48.5344L1140.08 48.8738L998.726 227.399L1066.51 342.683L1065.95 342.909Z" fill="white"/>
<path d="M1394.71 168.796C1394.71 170.719 1393.12 172.303 1391.2 172.303C1389.28 172.303 1387.69 170.719 1387.69 168.796C1387.69 166.873 1389.28 165.289 1391.2 165.289C1393.12 165.289 1394.71 166.873 1394.71 168.796Z" fill="white"/>
<path d="M1348.19 298.108C1348.19 300.031 1346.61 301.615 1344.69 301.615C1342.76 301.615 1341.18 300.031 1341.18 298.108C1341.18 296.185 1342.76 294.601 1344.69 294.601C1346.72 294.601 1348.19 296.185 1348.19 298.108Z" fill="white"/>
<path d="M1215.67 461.7C1217.61 461.7 1219.18 460.13 1219.18 458.193C1219.18 456.256 1217.61 454.686 1215.67 454.686C1213.74 454.686 1212.16 456.256 1212.16 458.193C1212.16 460.13 1213.74 461.7 1215.67 461.7Z" fill="white"/>
<path d="M1306.32 580.49C1306.32 582.413 1304.74 583.997 1302.81 583.997C1300.89 583.997 1299.31 582.413 1299.31 580.49C1299.31 578.567 1300.89 576.983 1302.81 576.983C1304.74 576.983 1306.32 578.567 1306.32 580.49Z" fill="white"/>
<path d="M1069.8 515.778C1069.8 517.701 1068.21 519.285 1066.29 519.285C1064.36 519.285 1062.78 517.701 1062.78 515.778C1062.78 513.854 1064.36 512.271 1066.29 512.271C1068.21 512.271 1069.8 513.854 1069.8 515.778Z" fill="white"/>
<path d="M1189.64 568.046C1191.58 568.046 1193.15 566.475 1193.15 564.538C1193.15 562.601 1191.58 561.031 1189.64 561.031C1187.71 561.031 1186.14 562.601 1186.14 564.538C1186.14 566.475 1187.71 568.046 1189.64 568.046Z" fill="white"/>
<path d="M1141.09 571.553C1141.09 573.476 1139.51 575.06 1137.59 575.06C1135.66 575.06 1134.08 573.476 1134.08 571.553C1134.08 569.629 1135.66 568.045 1137.59 568.045C1139.51 568.045 1141.09 569.629 1141.09 571.553Z" fill="white"/>
<path d="M1180.7 428.778C1180.7 430.701 1179.12 432.285 1177.2 432.285C1175.27 432.285 1173.69 430.701 1173.69 428.778C1173.69 426.854 1175.27 425.271 1177.2 425.271C1179.12 425.271 1180.7 426.854 1180.7 428.778Z" fill="white"/>
<path d="M1066.29 346.303C1068.23 346.303 1069.8 344.733 1069.8 342.796C1069.8 340.859 1068.23 339.289 1066.29 339.289C1064.35 339.289 1062.78 340.859 1062.78 342.796C1062.78 344.733 1064.35 346.303 1066.29 346.303Z" fill="white"/>
<path d="M1156.6 328.428C1156.6 330.351 1155.01 331.935 1153.09 331.935C1151.17 331.935 1149.58 330.351 1149.58 328.428C1149.58 326.505 1151.17 324.921 1153.09 324.921C1155.01 324.921 1156.6 326.505 1156.6 328.428Z" fill="white"/>
<path d="M998.387 230.906C1000.32 230.906 1001.9 229.336 1001.9 227.399C1001.9 225.462 1000.32 223.892 998.387 223.892C996.449 223.892 994.879 225.462 994.879 227.399C994.879 229.336 996.449 230.906 998.387 230.906Z" fill="white"/>
<path d="M1261.73 365.423C1261.73 367.346 1260.15 368.93 1258.22 368.93C1256.3 368.93 1254.72 367.346 1254.72 365.423C1254.72 363.499 1256.3 361.916 1258.22 361.916C1260.15 361.916 1261.73 363.499 1261.73 365.423Z" fill="white"/>
<path d="M1239.44 193.346C1239.44 195.269 1237.85 196.853 1235.93 196.853C1234.01 196.853 1232.42 195.269 1232.42 193.346C1232.42 191.423 1234.01 189.839 1235.93 189.839C1237.85 189.839 1239.44 191.31 1239.44 193.346Z" fill="white"/>
<path d="M1154.67 110.419C1154.67 112.342 1153.09 113.926 1151.17 113.926C1149.24 113.926 1147.66 112.342 1147.66 110.419C1147.66 108.495 1149.24 106.912 1151.17 106.912C1153.09 106.912 1154.67 108.495 1154.67 110.419Z" fill="white"/>
</g>
</g>
<mask id="mask3_29_3023" style="mask-type:luminance" maskUnits="userSpaceOnUse" x="574" y="82" width="849" height="567">
<path d="M1422.77 82.5879H574V648.258H1422.77V82.5879Z" fill="white"/>
</mask>
<g mask="url(#mask3_29_3023)">
<path d="M1145.9 518.721L1145.19 520.012L1428.01 674.079L1428.72 672.788L1145.9 518.721Z" fill="white"/>
<path d="M1250.42 287.7L1315.94 37.5606L1314.47 37.2212L1248.83 287.813L1248.72 288.265L1437.49 433.869L1326.13 524.942L1145.73 518.493L1033.58 386.918C1033.24 387.258 1032.9 387.71 1032.56 388.05L1144.83 519.851L1145.05 520.19L1326.35 526.978L1439.18 435.113L1440.77 434.774L1250.42 287.7Z" fill="white"/>
<path d="M1109.18 673.939L968.057 472.9L968.284 472.447L1125.36 264.734L997.708 47.8558L999.066 47.177L1127.06 264.847L1126.83 265.186L969.868 472.9L1110.42 673.147L1109.18 673.939Z" fill="white"/>
<path d="M1151.28 519.398C1151.28 522.566 1148.68 525.168 1145.51 525.168C1142.34 525.168 1139.74 522.566 1139.74 519.398C1139.74 516.231 1142.34 513.628 1145.51 513.628C1148.68 513.515 1151.28 516.231 1151.28 519.398Z" fill="white"/>
<path d="M1256.19 287.587C1256.19 290.754 1253.58 293.357 1250.42 293.357C1247.25 293.357 1244.64 290.754 1244.64 287.587C1244.64 284.419 1247.25 281.817 1250.42 281.817C1253.58 281.704 1256.19 284.419 1256.19 287.587Z" fill="white"/>
<path d="M970.094 480.367C973.282 480.367 975.866 477.784 975.866 474.597C975.866 471.41 973.282 468.827 970.094 468.827C966.907 468.827 964.323 471.41 964.323 474.597C964.323 477.784 966.907 480.367 970.094 480.367Z" fill="white"/>
<path d="M1038.45 388.955C1038.45 392.122 1035.85 394.724 1032.68 394.724C1029.51 394.724 1026.91 392.122 1026.91 388.955C1026.91 385.787 1029.51 383.185 1032.68 383.185C1035.85 383.185 1038.45 385.787 1038.45 388.955Z" fill="white"/>
<path d="M1132.04 265.299C1132.04 268.467 1129.44 271.069 1126.27 271.069C1123.1 271.069 1120.5 268.467 1120.5 265.299C1120.5 262.131 1123.1 259.529 1126.27 259.529C1129.44 259.529 1132.04 262.131 1132.04 265.299Z" fill="white"/>
<path d="M1073.19 342.23C1073.19 345.398 1070.59 348 1067.42 348C1064.25 348 1061.65 345.398 1061.65 342.23C1061.65 339.063 1064.25 336.46 1067.42 336.46C1070.59 336.46 1073.19 339.063 1073.19 342.23Z" fill="white"/>
<path d="M1332.58 525.168C1332.58 528.336 1329.97 530.938 1326.81 530.938C1323.64 530.938 1321.03 528.336 1321.03 525.168C1321.03 522 1323.64 519.398 1326.81 519.398C1329.97 519.398 1332.58 522 1332.58 525.168Z" fill="white"/>
</g>
<mask id="mask4_29_3023" style="mask-type:luminance" maskUnits="userSpaceOnUse" x="574" y="82" width="849" height="567">
<path d="M1422.77 82.5879H574V648.258H1422.77V82.5879Z" fill="white"/>
</mask>
<g mask="url(#mask4_29_3023)">
<path opacity="0.07" d="M1463.51 130.104L1300.55 211.56L897.666 79.1937L1434.09 65.6177L1463.51 130.104Z" fill="white"/>
</g>
</g>
<g opacity="0.3">
<mask id="mask5_29_3023" style="mask-type:luminance" maskUnits="userSpaceOnUse" x="4" y="82" width="849" height="567">
<path d="M4.22638 82.5879H853V648.258H4.22638V82.5879Z" fill="white"/>
</mask>
<g mask="url(#mask5_29_3023)">
<path opacity="0.07" d="M-116.865 357.956L177.376 250.479L292.809 399.816L399.189 373.795L514.622 456.383L465.959 544.174L520.281 669.753L-130.446 665.68L-116.865 357.956Z" fill="white"/>
</g>
<mask id="mask6_29_3023" style="mask-type:luminance" maskUnits="userSpaceOnUse" x="4" y="82" width="849" height="567">
<path d="M4.22638 82.5879H853V648.258H4.22638V82.5879Z" fill="white"/>
</mask>
<g mask="url(#mask6_29_3023)">
<path opacity="0.07" d="M378.479 197.079L260.782 446.427L97.2521 426.854L46.8915 509.103L-75.7846 530.485L-99.3239 446.313L-130.219 123.769L198.313 0L378.479 197.079Z" fill="white"/>
</g>
<mask id="mask7_29_3023" style="mask-type:luminance" maskUnits="userSpaceOnUse" x="4" y="82" width="849" height="567">
<path d="M4.22638 82.5879H853V648.258H4.22638V82.5879Z" fill="white"/>
</mask>
<g mask="url(#mask7_29_3023)">
<g opacity="0.62">
<path d="M436.761 695.887L437.327 695.661L360.938 514.646V514.533L82.54 297.995L36.0272 168.57L-69.6734 51.2498L-70.0129 51.7023L35.5745 168.909L81.9742 298.334H82.0873L360.485 514.986L436.761 695.887Z" fill="white"/>
<path d="M-42.06 278.31L35.914 169.022L276.06 10.4083L275.721 9.95581L35.5745 168.57L-42.5126 277.97L-42.06 278.31Z" fill="white"/>
<path d="M-222 592.369L-220.868 592.03L212.685 458.079L-48.3975 425.044L354.148 35.2978L353.808 34.8452L-222 592.369ZM210.082 458.306L-219.85 591.125L-48.9633 425.497L210.082 458.306Z" fill="white"/>
<path d="M-48.9633 425.497L168.889 365.649L275.947 329.446L361.277 343.135L361.164 342.683L253.426 47.8557L190.504 193.12L190.617 193.233L275.494 328.767L-153.985 259.869L-154.098 260.434L274.815 329.22L168.775 365.083L-48.9633 424.931V425.497ZM253.2 49.4396L360.259 342.457L275.947 328.994L190.957 193.233L253.2 49.4396Z" fill="white"/>
<path d="M374.065 696L374.518 695.661L210.761 456.722L237.017 564.312L-176.845 622.01L-176.732 622.576L237.696 564.765V564.425L212.006 459.663L374.065 696Z" fill="white"/>
<path d="M42.9306 696L211.554 458.419L360.485 343.362V514.646L156.214 678.464L237.583 564.765L237.13 564.425L153.384 681.406L361.051 514.873V342.23L360.598 342.57L211.214 457.966L42.4778 695.661L42.9306 696Z" fill="white"/>
<path d="M361.051 342.909L428.953 227.399L428.84 227.286L287.377 48.5344L286.925 48.8738L428.274 227.399L360.485 342.683L361.051 342.909Z" fill="white"/>
<path d="M32.2925 168.796C32.2925 170.719 33.877 172.303 35.8008 172.303C37.7247 172.303 39.3091 170.719 39.3091 168.796C39.3091 166.873 37.7247 165.289 35.8008 165.289C33.877 165.289 32.2925 166.873 32.2925 168.796Z" fill="white"/>
<path d="M78.8054 298.108C78.8054 300.031 80.3898 301.615 82.3137 301.615C84.2375 301.615 85.8219 300.031 85.8219 298.108C85.8219 296.185 84.2375 294.601 82.3137 294.601C80.2766 294.601 78.8054 296.185 78.8054 298.108Z" fill="white"/>
<path d="M211.327 461.7C209.39 461.7 207.819 460.13 207.819 458.193C207.819 456.256 209.39 454.686 211.327 454.686C213.265 454.686 214.835 456.256 214.835 458.193C214.835 460.13 213.265 461.7 211.327 461.7Z" fill="white"/>
<path d="M120.678 580.49C120.678 582.413 122.263 583.997 124.186 583.997C126.11 583.997 127.695 582.413 127.695 580.49C127.695 578.567 126.11 576.983 124.186 576.983C122.263 576.983 120.678 578.567 120.678 580.49Z" fill="white"/>
<path d="M357.203 515.778C357.203 517.701 358.787 519.285 360.711 519.285C362.635 519.285 364.22 517.701 364.22 515.778C364.22 513.854 362.635 512.271 360.711 512.271C358.787 512.271 357.203 513.854 357.203 515.778Z" fill="white"/>
<path d="M237.356 568.046C235.419 568.046 233.848 566.475 233.848 564.538C233.848 562.601 235.419 561.031 237.356 561.031C239.294 561.031 240.865 562.601 240.865 564.538C240.865 566.475 239.294 568.046 237.356 568.046Z" fill="white"/>
<path d="M285.906 571.553C285.906 573.476 287.49 575.06 289.414 575.06C291.338 575.06 292.923 573.476 292.923 571.553C292.923 569.629 291.338 568.045 289.414 568.045C287.49 568.045 285.906 569.629 285.906 571.553Z" fill="white"/>
<path d="M246.297 428.778C246.297 430.701 247.881 432.285 249.805 432.285C251.729 432.285 253.313 430.701 253.313 428.778C253.313 426.854 251.729 425.271 249.805 425.271C247.881 425.271 246.297 426.854 246.297 428.778Z" fill="white"/>
<path d="M360.711 346.303C358.774 346.303 357.203 344.733 357.203 342.796C357.203 340.859 358.774 339.289 360.711 339.289C362.649 339.289 364.22 340.859 364.22 342.796C364.22 344.733 362.649 346.303 360.711 346.303Z" fill="white"/>
<path d="M270.402 328.428C270.402 330.351 271.986 331.935 273.91 331.935C275.834 331.935 277.418 330.351 277.418 328.428C277.418 326.505 275.834 324.921 273.91 324.921C271.986 324.921 270.402 326.505 270.402 328.428Z" fill="white"/>
<path d="M428.613 230.906C426.676 230.906 425.105 229.336 425.105 227.399C425.105 225.462 426.676 223.892 428.613 223.892C430.551 223.892 432.121 225.462 432.121 227.399C432.121 229.336 430.551 230.906 428.613 230.906Z" fill="white"/>
<path d="M165.267 365.423C165.267 367.346 166.852 368.93 168.775 368.93C170.699 368.93 172.284 367.346 172.284 365.423C172.284 363.499 170.699 361.916 168.775 361.916C166.852 361.916 165.267 363.499 165.267 365.423Z" fill="white"/>
<path d="M187.562 193.346C187.562 195.269 189.146 196.853 191.07 196.853C192.994 196.853 194.578 195.269 194.578 193.346C194.578 191.423 192.994 189.839 191.07 189.839C189.146 189.839 187.562 191.31 187.562 193.346Z" fill="white"/>
<path d="M272.326 110.419C272.326 112.342 273.91 113.926 275.834 113.926C277.758 113.926 279.342 112.342 279.342 110.419C279.342 108.495 277.758 106.912 275.834 106.912C273.91 106.912 272.326 108.495 272.326 110.419Z" fill="white"/>
</g>
</g>
<mask id="mask8_29_3023" style="mask-type:luminance" maskUnits="userSpaceOnUse" x="4" y="82" width="849" height="567">
<path d="M4.22638 82.5879H853V648.258H4.22638V82.5879Z" fill="white"/>
</mask>
<g mask="url(#mask8_29_3023)">
<path d="M281.102 518.721L281.806 520.012L-1.01337 674.079L-1.71733 672.788L281.102 518.721Z" fill="white"/>
<path d="M176.584 287.7L111.059 37.5606L112.53 37.2212L178.168 287.813L178.282 288.265L-10.4856 433.869L100.874 524.942L281.266 518.493L393.417 386.918C393.757 387.258 394.096 387.71 394.436 388.05L282.171 519.851L281.945 520.19L100.647 526.978L-12.1832 435.113L-13.7676 434.774L176.584 287.7Z" fill="white"/>
<path d="M317.82 673.939L458.943 472.9L458.716 472.447L301.637 264.734L429.292 47.8558L427.934 47.177L299.939 264.847L300.165 265.186L457.132 472.9L316.575 673.147L317.82 673.939Z" fill="white"/>
<path d="M275.721 519.398C275.721 522.566 278.324 525.168 281.492 525.168C284.661 525.168 287.264 522.566 287.264 519.398C287.264 516.231 284.661 513.628 281.492 513.628C278.324 513.515 275.721 516.231 275.721 519.398Z" fill="white"/>
<path d="M170.812 287.587C170.812 290.754 173.415 293.357 176.584 293.357C179.753 293.357 182.356 290.754 182.356 287.587C182.356 284.419 179.753 281.817 176.584 281.817C173.415 281.704 170.812 284.419 170.812 287.587Z" fill="white"/>
<path d="M456.906 480.367C453.718 480.367 451.134 477.784 451.134 474.597C451.134 471.41 453.718 468.827 456.906 468.827C460.093 468.827 462.677 471.41 462.677 474.597C462.677 477.784 460.093 480.367 456.906 480.367Z" fill="white"/>
<path d="M388.551 388.955C388.551 392.122 391.154 394.724 394.323 394.724C397.492 394.724 400.094 392.122 400.094 388.955C400.094 385.787 397.492 383.185 394.323 383.185C391.154 383.185 388.551 385.787 388.551 388.955Z" fill="white"/>
<path d="M294.96 265.299C294.96 268.467 297.563 271.069 300.731 271.069C303.9 271.069 306.503 268.467 306.503 265.299C306.503 262.131 303.9 259.529 300.731 259.529C297.563 259.529 294.96 262.131 294.96 265.299Z" fill="white"/>
<path d="M353.808 342.23C353.808 345.398 356.411 348 359.58 348C362.748 348 365.351 345.398 365.351 342.23C365.351 339.063 362.748 336.46 359.58 336.46C356.411 336.46 353.808 339.063 353.808 342.23Z" fill="white"/>
<path d="M94.4229 525.168C94.4229 528.336 97.0257 530.938 100.194 530.938C103.363 530.938 105.966 528.336 105.966 525.168C105.966 522 103.363 519.398 100.194 519.398C97.0257 519.398 94.4229 522 94.4229 525.168Z" fill="white"/>
</g>
<mask id="mask9_29_3023" style="mask-type:luminance" maskUnits="userSpaceOnUse" x="4" y="82" width="849" height="567">
<path d="M4.22644 82.5879H853V648.258H4.22644V82.5879Z" fill="white"/>
</mask>
<g mask="url(#mask9_29_3023)">
<path opacity="0.07" d="M-36.5146 130.104L126.45 211.56L529.334 79.1937L-7.09052 65.6177L-36.5146 130.104Z" fill="white"/>
</g>
</g>
</svg>
