<svg width="490" height="488" viewBox="0 0 490 488" fill="none" xmlns="http://www.w3.org/2000/svg">
<path d="M60.8167 419C73.5162 432.159 84.8725 439.897 93.5772 445.736C178.427 502.675 275.417 486.257 305.404 480.645C353.777 471.599 394.614 465.203 429.712 433.344C509.433 360.963 505.56 209.944 444.645 116.388C437.423 105.303 376.594 14.6747 279.394 1.89951C277.022 1.5858 275.243 1.41151 273.69 1.23723C258.636 -0.348774 165.465 -8.80163 89.4778 55.1787C78.61 64.3287 61.0958 80.8509 44.8726 106.053C-14.4731 198.163 -14.6476 340.816 60.8167 419Z" fill="white"/>
<path d="M90.8209 232.567C90.8209 232.567 39.081 171.811 41.6279 95.6826C43.8607 29.4889 84.0177 40.1726 64.2881 69.2435C58.4791 77.8009 47.8381 86.6372 46.774 96.1183C41.9768 138.783 59.9095 187.008 90.8209 232.567Z" fill="#AAAAAA"/>
<path d="M95.5135 243.529C95.5135 243.529 58.2873 179.061 67.8119 109.904C76.0979 49.7581 108.527 66.4547 89.251 89.6173C83.5641 96.4493 73.8476 102.689 72.0509 111.176C63.8869 149.38 74.1442 196.559 95.5135 243.529Z" fill="#AAAAAA"/>
<path d="M87.9601 228.053C87.9601 228.053 56.9615 191.644 58.4966 146.034C59.8223 106.384 83.8955 112.78 72.0683 130.191C68.5794 135.315 62.2122 140.614 61.5668 146.295C58.7059 171.863 69.4342 200.76 87.9601 228.053Z" fill="#AAAAAA"/>
<path d="M266.294 17.0974C266.329 15.7554 266.904 14.5006 267.899 13.6117C268.893 12.7229 270.219 12.2872 271.544 12.3917L405.953 24.0166C408.448 24.2257 410.454 26.3172 410.454 28.8269V298.778C410.454 301.445 408.134 303.414 405.465 303.414H264.724C263.415 303.414 262.177 302.996 261.27 302.055C260.363 301.131 259.857 299.911 259.892 298.621L266.294 17.0974Z" fill="#949494"/>
<g opacity="0.3">
<path d="M383.834 37.3493L394.091 38.0465C395.207 38.1162 395.783 39.1619 395.783 40.3645V286.595C395.783 287.833 395.539 289.297 394.388 289.297H383.677C382.525 289.297 381.601 288.059 381.601 286.822L381.758 39.5279C381.758 38.3079 382.7 37.2622 383.834 37.3493Z" fill="white"/>
<path d="M358.941 35.7113L369.669 36.4084C370.803 36.4782 371.902 37.5413 371.902 38.7613L371.64 286.805C371.64 288.042 370.524 289.28 369.372 289.28H358.522C357.371 289.28 356.586 288.042 356.603 286.787L357.022 37.8899C357.022 36.6873 357.789 35.6416 358.941 35.7113Z" fill="white"/>
<path d="M333.734 34.0556L344.601 34.7702C345.753 34.8399 346.416 35.8856 346.416 37.1056L345.892 286.787C345.892 288.042 345.212 289.28 344.043 289.28H333.053C331.884 289.28 330.646 288.025 330.646 286.77L331.344 36.2342C331.344 35.0142 332.565 33.9859 333.734 34.0556Z" fill="white"/>
<path d="M308.178 32.3822L319.185 33.0968C320.354 33.1665 321.209 34.2296 321.209 35.4496L320.406 286.752C320.406 288.007 319.534 289.262 318.348 289.262H307.218C306.032 289.262 304.968 288.007 304.968 286.752L305.927 34.5782C305.945 33.3582 307.009 32.3125 308.178 32.3822Z" fill="white"/>
<path d="M282.308 30.6917L293.472 31.4237C294.658 31.4934 295.705 32.574 295.705 33.8114L294.623 286.77C294.623 288.042 293.542 289.297 292.356 289.297H281.069C279.865 289.297 278.976 288.042 278.976 286.77L280.232 32.94C280.214 31.6851 281.104 30.622 282.308 30.6917Z" fill="white"/>
</g>
<path d="M105.858 51.3442C105.91 48.7125 108.056 46.499 110.69 46.499H210.28C212.949 46.499 215.269 48.8693 215.269 51.5359V289.976C215.269 291.266 214.676 292.486 213.769 293.392C212.862 294.298 211.588 294.804 210.297 294.804L106.207 294.525C104.916 294.525 103.66 294.002 102.753 293.078C101.846 292.155 101.34 290.848 101.375 289.558L105.858 51.3442Z" fill="#949494"/>
<g opacity="0.5">
<path d="M181.793 55.9976H207.524C208.291 55.9976 208.169 57.3047 208.169 58.1238V62.7773C208.169 63.5964 208.291 64.8164 207.524 64.8164H181.793C181.026 64.8164 180.537 63.5964 180.537 62.7773V58.1238C180.52 57.3047 181.026 55.9976 181.793 55.9976Z" fill="white"/>
<path d="M147.341 55.9976H173.071C173.839 55.9976 174.048 57.3047 174.048 58.1238V62.7773C174.048 63.5964 173.839 64.8164 173.071 64.8164H147.341C146.573 64.8164 146.399 63.5964 146.399 62.7773V58.1238C146.416 57.3047 146.573 55.9976 147.341 55.9976Z" fill="white"/>
<path d="M112.906 55.9976H138.636C139.404 55.9976 140.537 57.3047 140.537 58.1238V62.7773C140.537 63.5964 139.404 64.8164 138.636 64.8164H112.906C112.138 64.8164 111.126 63.5964 111.126 62.7773V58.1238C111.126 57.3047 112.138 55.9976 112.906 55.9976Z" fill="white"/>
<path d="M181.793 75.9881H207.524C208.291 75.9881 208.169 75.7093 208.169 76.5284V81.1818C208.169 82.001 208.291 83.6218 207.524 83.6218H181.793C181.026 83.6218 180.537 82.001 180.537 81.1818V76.5284C180.52 75.7093 181.026 75.9881 181.793 75.9881Z" fill="white"/>
<path d="M147.341 75.9881H173.071C173.839 75.9881 174.048 75.7093 174.048 76.5284V81.1818C174.048 82.001 173.839 83.6218 173.071 83.6218H147.341C146.573 83.6218 146.399 82.001 146.399 81.1818V76.5284C146.416 75.7093 146.573 75.9881 147.341 75.9881Z" fill="white"/>
<path d="M112.906 75.9881H138.636C139.404 75.9881 140.537 75.7093 140.537 76.5284V81.1818C140.537 82.001 139.404 83.6218 138.636 83.6218H112.906C112.138 83.6218 111.126 82.001 111.126 81.1818V76.5284C111.126 75.7093 112.138 75.9881 112.906 75.9881Z" fill="white"/>
<path d="M181.793 93.6084H207.524C208.291 93.6084 208.169 94.1138 208.169 94.933V99.5864C208.169 100.406 208.291 101.26 207.524 101.26H181.793C181.026 101.26 180.537 100.406 180.537 99.5864V94.933C180.52 94.1138 181.026 93.6084 181.793 93.6084Z" fill="white"/>
<path d="M147.341 93.6084H173.071C173.839 93.6084 174.048 94.1138 174.048 94.933V99.5864C174.048 100.406 173.839 101.26 173.071 101.26H147.341C146.573 101.26 146.399 100.406 146.399 99.5864V94.933C146.416 94.1138 146.573 93.6084 147.341 93.6084Z" fill="white"/>
<path d="M112.906 93.6084H138.636C139.404 93.6084 140.537 94.1138 140.537 94.933V99.5864C140.537 100.406 139.404 101.26 138.636 101.26H112.906C112.138 101.26 111.126 100.406 111.126 99.5864V94.933C111.126 94.1138 112.138 93.6084 112.906 93.6084Z" fill="white"/>
<path d="M181.793 112.414H207.524C208.291 112.414 208.169 112.519 208.169 113.338V117.991C208.169 118.81 208.291 120.065 207.524 120.065H181.793C181.026 120.065 180.537 118.81 180.537 117.991V113.338C180.52 112.519 181.026 112.414 181.793 112.414Z" fill="white"/>
<path d="M147.341 112.414H173.071C173.839 112.414 174.048 112.519 174.048 113.338V117.991C174.048 118.81 173.839 120.065 173.071 120.065H147.341C146.573 120.065 146.399 118.81 146.399 117.991V113.338C146.416 112.519 146.573 112.414 147.341 112.414Z" fill="white"/>
<path d="M112.906 112.414H138.636C139.404 112.414 140.537 112.519 140.537 113.338V117.991C140.537 118.81 139.404 120.065 138.636 120.065H112.906C112.138 120.065 111.126 118.81 111.126 117.991V113.338C111.126 112.519 112.138 112.414 112.906 112.414Z" fill="white"/>
<path d="M181.793 130.052H207.524C208.291 130.052 208.169 130.923 208.169 131.742V136.396C208.169 137.215 208.291 137.685 207.524 137.685H181.793C181.026 137.685 180.537 137.215 180.537 136.396V131.742C180.52 130.923 181.026 130.052 181.793 130.052Z" fill="white"/>
<path d="M147.341 130.052H173.071C173.839 130.052 174.048 130.923 174.048 131.742V136.396C174.048 137.215 173.839 137.685 173.071 137.685H147.341C146.573 137.685 146.399 137.215 146.399 136.396V131.742C146.416 130.923 146.573 130.052 147.341 130.052Z" fill="white"/>
<path d="M112.906 130.052H138.636C139.404 130.052 140.537 130.923 140.537 131.742V136.396C140.537 137.215 139.404 137.685 138.636 137.685H112.906C112.138 137.685 111.126 137.215 111.126 136.396V131.742C111.126 130.923 112.138 130.052 112.906 130.052Z" fill="white"/>
<path d="M181.793 148.839H207.524C208.291 148.839 208.169 149.31 208.169 150.129V154.782C208.169 155.602 208.291 156.473 207.524 156.473H181.793C181.026 156.473 180.537 155.584 180.537 154.782V150.129C180.52 149.31 181.026 148.839 181.793 148.839Z" fill="white"/>
<path d="M147.341 148.839H173.071C173.839 148.839 174.048 149.31 174.048 150.129V154.782C174.048 155.602 173.839 156.473 173.071 156.473H147.341C146.573 156.473 146.399 155.584 146.399 154.782V150.129C146.416 149.31 146.573 148.839 147.341 148.839Z" fill="white"/>
<path d="M112.906 148.839H138.636C139.404 148.839 140.537 149.31 140.537 150.129V154.782C140.537 155.602 139.404 156.473 138.636 156.473H112.906C112.138 156.473 111.126 155.584 111.126 154.782V150.129C111.126 149.31 112.138 148.839 112.906 148.839Z" fill="white"/>
<path d="M181.793 166.477H207.524C208.291 166.477 208.169 167.714 208.169 168.534V173.187C208.169 174.006 208.291 175.278 207.524 175.278H181.793C181.026 175.278 180.537 173.989 180.537 173.187V168.534C180.52 167.714 181.026 166.477 181.793 166.477Z" fill="white"/>
<path d="M147.341 166.477H173.071C173.839 166.477 174.048 167.714 174.048 168.534V173.187C174.048 174.006 173.839 175.278 173.071 175.278H147.341C146.573 175.278 146.399 173.989 146.399 173.187V168.534C146.416 167.714 146.573 166.477 147.341 166.477Z" fill="white"/>
<path d="M112.906 166.477H138.636C139.404 166.477 140.537 167.714 140.537 168.534V173.187C140.537 174.006 139.404 175.278 138.636 175.278H112.906C112.138 175.278 111.126 173.989 111.126 173.187V168.534C111.126 167.714 112.138 166.477 112.906 166.477Z" fill="white"/>
<path d="M181.793 185.283H207.524C208.291 185.283 208.169 186.119 208.169 186.938V191.592C208.169 192.411 208.291 194.084 207.524 194.084H181.793C181.026 194.084 180.537 192.394 180.537 191.592V186.938C180.52 186.119 181.026 185.283 181.793 185.283Z" fill="white"/>
<path d="M147.341 185.283H173.071C173.839 185.283 174.048 186.119 174.048 186.938V191.592C174.048 192.411 173.839 194.084 173.071 194.084H147.341C146.573 194.084 146.399 192.394 146.399 191.592V186.938C146.416 186.119 146.573 185.283 147.341 185.283Z" fill="white"/>
<path d="M112.906 185.283H138.636C139.404 185.283 140.537 186.119 140.537 186.938V191.592C140.537 192.411 139.404 194.084 138.636 194.084H112.906C112.138 194.084 111.126 192.394 111.126 191.592V186.938C111.126 186.119 112.138 185.283 112.906 185.283Z" fill="white"/>
<path d="M181.793 203.496H207.524C208.291 203.496 208.169 204.524 208.169 205.343V209.996C208.169 210.816 208.291 211.722 207.524 211.722H181.793C181.026 211.722 180.537 210.816 180.537 209.996V205.343C180.52 204.524 181.026 203.496 181.793 203.496Z" fill="white"/>
<path d="M147.341 203.496H173.071C173.839 203.496 174.048 204.524 174.048 205.343V209.996C174.048 210.816 173.839 211.722 173.071 211.722H147.341C146.573 211.722 146.399 210.816 146.399 209.996V205.343C146.416 204.524 146.573 203.496 147.341 203.496Z" fill="white"/>
<path d="M112.906 203.496H138.636C139.404 203.496 140.537 204.524 140.537 205.343V209.996C140.537 210.816 139.404 211.722 138.636 211.722H112.906C112.138 211.722 111.126 210.816 111.126 209.996V205.343C111.126 204.524 112.138 203.496 112.906 203.496Z" fill="white"/>
<path d="M181.793 222.894H207.524C208.291 222.894 208.169 222.928 208.169 223.748V228.401C208.169 229.22 208.291 230.527 207.524 230.527H181.793C181.026 230.527 180.537 229.22 180.537 228.401V223.748C180.52 222.928 181.026 222.894 181.793 222.894Z" fill="white"/>
<path d="M147.341 222.894H173.071C173.839 222.894 174.048 222.928 174.048 223.748V228.401C174.048 229.22 173.839 230.527 173.071 230.527H147.341C146.573 230.527 146.399 229.22 146.399 228.401V223.748C146.416 222.928 146.573 222.894 147.341 222.894Z" fill="white"/>
<path d="M112.906 222.894H138.636C139.404 222.894 140.537 222.928 140.537 223.748V228.401C140.537 229.22 139.404 230.527 138.636 230.527H112.906C112.138 230.527 111.126 229.22 111.126 228.401V223.748C111.126 222.928 112.138 222.894 112.906 222.894Z" fill="white"/>
<path d="M181.793 241.699H207.524C208.291 241.699 208.169 241.333 208.169 242.152V246.806C208.169 247.625 208.291 248.165 207.524 248.165H181.793C181.026 248.165 180.537 247.625 180.537 246.806V242.152C180.52 241.333 181.026 241.699 181.793 241.699Z" fill="white"/>
<path d="M147.341 241.699H173.071C173.839 241.699 174.048 241.333 174.048 242.152V246.806C174.048 247.625 173.839 248.165 173.071 248.165H147.341C146.573 248.165 146.399 247.625 146.399 246.806V242.152C146.416 241.333 146.573 241.699 147.341 241.699Z" fill="white"/>
<path d="M112.906 241.699H138.636C139.404 241.699 140.537 241.333 140.537 242.152V246.806C140.537 247.625 139.404 248.165 138.636 248.165H112.906C112.138 248.165 111.126 247.625 111.126 246.806V242.152C111.126 241.333 112.138 241.699 112.906 241.699Z" fill="white"/>
<path d="M181.793 259.319H207.524C208.291 259.319 208.169 259.738 208.169 260.557V265.21C208.169 266.029 208.291 266.97 207.524 266.97H181.793C181.026 266.97 180.537 266.029 180.537 265.21V260.557C180.52 259.738 181.026 259.319 181.793 259.319Z" fill="white"/>
<path d="M147.341 259.319H173.071C173.839 259.319 174.048 259.738 174.048 260.557V265.21C174.048 266.029 173.839 266.97 173.071 266.97H147.341C146.573 266.97 146.399 266.029 146.399 265.21V260.557C146.416 259.738 146.573 259.319 147.341 259.319Z" fill="white"/>
<path d="M112.906 259.319H138.636C139.404 259.319 140.537 259.738 140.537 260.557V265.21C140.537 266.029 139.404 266.97 138.636 266.97H112.906C112.138 266.97 111.126 266.029 111.126 265.21V260.557C111.126 259.738 112.138 259.319 112.906 259.319Z" fill="white"/>
</g>
<path d="M381.548 60.9303C381.566 59.6231 382.107 58.3857 383.049 57.4968C383.991 56.608 385.264 56.12 386.572 56.1723L485.604 60.146C487.296 60.2157 488.639 61.6274 488.587 63.3354L483.563 274.831L383.432 273.611C382.142 273.594 380.92 273.071 380.031 272.147C379.141 271.223 378.635 269.986 378.653 268.714L381.548 60.9303Z" fill="#626262"/>
<g opacity="0.5">
<path d="M461.304 99.7961L477.231 99.7264L477.423 72.4507H461.444L461.304 99.7961Z" fill="white"/>
<path d="M438.417 99.7438L454.291 99.6741L454.431 72.4507H438.522L438.417 99.7438Z" fill="white"/>
<path d="M414.379 99.6915L430.183 99.6218L430.271 72.4507H414.431L414.379 99.6915Z" fill="white"/>
<path d="M390.497 99.831L406.511 99.6741L406.825 72.4507H390.497V99.831Z" fill="white"/>
<path d="M461.077 138.557L476.969 138.627L477.161 111.63L461.234 111.578L461.077 138.557Z" fill="white"/>
<path d="M438.278 138.435L454.1 138.505L454.239 111.56L438.382 111.508L438.278 138.435Z" fill="white"/>
<path d="M414.292 138.296L430.061 138.383L430.148 111.473L414.344 111.421L414.292 138.296Z" fill="white"/>
<path d="M390.497 138.174L406.477 138.261L406.372 111.403L390.497 111.351V138.174Z" fill="white"/>
<path d="M460.851 178.155L476.69 178.294L476.882 151.454L461.008 151.35L460.851 178.155Z" fill="white"/>
<path d="M438.121 177.963L453.908 178.103L454.047 151.315L438.225 151.21L438.121 177.963Z" fill="white"/>
<path d="M414.222 177.754L429.939 177.894L430.026 151.158L414.274 151.054L414.222 177.754Z" fill="white"/>
<path d="M390.497 177.562L406.424 177.684L406.319 151.001L390.497 150.914V177.562Z" fill="white"/>
<path d="M460.641 216.881L476.428 217.055L476.603 191.034L460.781 190.877L460.641 216.881Z" fill="white"/>
<path d="M437.981 216.62L453.698 216.794L453.838 190.808L438.086 190.668L437.981 216.62Z" fill="white"/>
<path d="M414.152 216.341L429.817 216.515L429.904 190.581L414.204 190.424L414.152 216.341Z" fill="white"/>
<path d="M390.497 216.062L406.372 216.254L406.267 190.355L390.497 190.215V216.062Z" fill="white"/>
<path d="M460.414 255.991L476.149 256.217L476.324 230.353L460.571 230.162L460.414 255.991Z" fill="white"/>
<path d="M437.824 255.642L453.506 255.886L453.646 230.057L437.929 229.865L437.824 255.642Z" fill="white"/>
<path d="M414.082 255.294L429.695 255.538L429.782 229.761L414.135 229.552L414.082 255.294Z" fill="white"/>
<path d="M390.497 254.945L406.319 255.189L406.215 229.465L390.497 229.255V254.945Z" fill="white"/>
</g>
<path d="M181.828 82.1755C181.846 80.8858 182.386 79.6484 183.328 78.7595C184.27 77.8707 185.526 77.3827 186.817 77.435L291.501 80.7813C294.17 80.8684 296.263 83.0818 296.176 85.7484L291.012 258.971C290.943 261.603 288.762 263.677 286.128 263.659L183.538 262.666C182.247 262.648 181.026 262.126 180.119 261.202C179.211 260.278 178.723 259.041 178.758 257.751L181.828 82.1755Z" fill="#626262"/>
<g opacity="0.43">
<path d="M192.748 90.6807H285.971C286.878 90.6807 287.611 91.1512 287.593 92.0052L287.506 100.127C287.489 100.998 286.756 101.922 285.831 101.922L192.347 101.992C191.422 101.992 190.707 100.981 190.742 100.11L191.021 92.0052C191.056 91.1512 191.824 90.6807 192.748 90.6807Z" fill="white"/>
<path d="M192.138 108.179L285.779 108.022C286.686 108.022 287.419 108.893 287.401 109.747L287.314 118.061C287.297 118.932 286.564 119.751 285.639 119.751L191.736 120.013C190.812 120.013 190.079 119.194 190.114 118.305L190.393 109.922C190.428 109.05 191.213 108.179 192.138 108.179Z" fill="white"/>
<path d="M191.51 126.915L285.57 126.601C286.477 126.601 287.227 127.019 287.209 127.891L287.122 136.274C287.105 137.145 286.355 137.808 285.448 137.825L191.143 138.243C190.201 138.243 189.469 137.581 189.504 136.692L189.8 128.239C189.8 127.35 190.568 126.915 191.51 126.915Z" fill="white"/>
<path d="M190.899 145.18L285.36 144.692C286.285 144.692 287.018 145.284 287 146.156L286.913 154.609C286.895 155.498 286.145 155.986 285.238 156.003L190.515 156.578C189.573 156.578 188.841 156.09 188.858 155.201L189.155 146.661C189.172 145.79 189.957 145.18 190.899 145.18Z" fill="white"/>
<path d="M190.271 163.602L285.151 162.957C286.076 162.957 286.808 163.724 286.808 164.613L286.721 173.135C286.704 174.024 285.953 175 285.029 175L189.87 175.75C188.928 175.75 188.195 174.791 188.23 173.885L188.527 165.275C188.544 164.404 189.329 163.619 190.271 163.602Z" fill="white"/>
<path d="M189.643 182.198L284.942 181.379C285.866 181.379 286.616 182.32 286.599 183.226L286.512 191.836C286.494 192.742 285.744 193.544 284.802 193.544L189.225 194.468C188.283 194.485 187.532 193.683 187.567 192.777L187.864 184.098C187.899 183.191 188.701 182.215 189.643 182.198Z" fill="white"/>
<path d="M188.98 201.614L284.732 200.62C285.657 200.603 286.407 201.091 286.407 201.997L286.32 210.676C286.302 211.583 285.552 212.228 284.61 212.228L188.597 213.326C187.637 213.343 186.904 212.716 186.922 211.792L187.218 203.025C187.253 202.136 188.038 201.614 188.98 201.614Z" fill="white"/>
<path d="M188.352 220.541L284.523 219.373C285.465 219.356 286.215 220.036 286.198 220.942L286.11 229.709C286.093 230.632 285.343 231.085 284.401 231.103L187.951 232.375C186.992 232.393 186.242 231.939 186.276 231.016L186.573 222.162C186.608 221.238 187.393 220.559 188.352 220.541Z" fill="white"/>
<path d="M187.707 239.643L284.314 238.301C285.256 238.283 286.006 239.137 285.988 240.061L285.901 248.897C285.884 249.821 285.116 250.779 284.174 250.779L187.288 252.226C186.329 252.243 185.579 251.302 185.614 250.361L185.91 241.438C185.945 240.531 186.747 239.66 187.707 239.643Z" fill="white"/>
</g>
<path d="M297.257 397.754L307.009 464.976H193.865L208.605 397.754H297.257Z" fill="url(#paint0_linear_8_152)"/>
<path d="M297.257 397.754L307.009 464.976H193.865L208.605 397.754H297.257Z" fill="#242424"/>
<path d="M487.314 182.459V382.592C487.314 399.062 474.178 412.517 457.711 412.935C384.549 414.817 128.658 419.383 59.0199 418.373C47.0531 418.198 37.354 408.63 37.0051 396.674C35.6619 350.175 33.4814 238.388 41.5581 186.485C43.2502 175.558 52.4957 167.384 63.5554 167.035C124.855 165.083 396.115 158.861 465.717 160.412C477.719 160.656 487.314 170.469 487.314 182.459Z" fill="url(#paint1_linear_8_152)"/>
<path d="M487.314 182.459V382.592C487.314 399.062 474.178 412.517 457.711 412.935C384.549 414.817 128.658 419.383 59.0199 418.373C47.0531 418.198 37.354 408.63 37.0051 396.674C35.6619 350.175 33.4814 238.388 41.5581 186.485C43.2502 175.558 52.4957 167.384 63.5554 167.035C124.855 165.083 396.115 158.861 465.717 160.412C477.719 160.656 487.314 170.469 487.314 182.459Z" fill="#343434"/>
<path d="M474.754 181.483V371.612C474.754 381.232 467.026 389.058 457.414 389.197L69.0504 393.99C59.5083 394.129 51.6933 386.461 51.6584 376.945L51.0129 188.507C50.9955 181.692 56.4207 176.115 63.2415 175.941L460.851 167.924C468.456 167.732 474.754 173.867 474.754 181.483Z" fill="#7D97F4"/>
<path d="M474.754 181.483V371.612C474.754 381.232 467.026 389.058 457.414 389.197L69.0504 393.99C59.5083 394.129 51.6933 386.461 51.6584 376.945L51.0129 188.507C50.9955 181.692 56.4207 176.115 63.2415 175.941L460.851 167.924C468.456 167.732 474.754 173.867 474.754 181.483Z" fill="#747474"/>
<path d="M48.7278 401.798L474.754 394.548C475.05 394.548 475.294 394.304 475.277 394.007C475.277 393.711 475.015 393.484 474.736 393.484L48.7104 400.735C48.4138 400.735 48.1696 400.979 48.187 401.275C48.187 401.554 48.4312 401.798 48.7278 401.798Z" fill="white"/>
<path d="M257.537 410.652C260.275 410.652 262.508 408.421 262.508 405.684C262.508 402.948 260.275 400.717 257.537 400.717C254.798 400.717 252.565 402.948 252.565 405.684C252.565 408.421 254.798 410.652 257.537 410.652ZM257.537 401.798C259.682 401.798 261.427 403.541 261.427 405.684C261.427 407.828 259.682 409.571 257.537 409.571C255.391 409.571 253.647 407.828 253.647 405.684C253.647 403.541 255.391 401.798 257.537 401.798Z" fill="white"/>
<path d="M169.495 482.858H335.094C339.595 482.858 342.979 479.652 342.107 476.218L339.979 467.818C339.333 465.29 336.56 463.443 333.263 463.338L173.629 458.354C170.175 458.249 167.123 460.079 166.372 462.694L162.535 476.061C161.54 479.564 164.925 482.858 169.495 482.858Z" fill="url(#paint2_linear_8_152)"/>
<path d="M169.495 482.858H335.094C339.595 482.858 342.979 479.652 342.107 476.218L339.979 467.818C339.333 465.29 336.56 463.443 333.263 463.338L173.629 458.354C170.175 458.249 167.123 460.079 166.372 462.694L162.535 476.061C161.54 479.564 164.925 482.858 169.495 482.858Z" fill="#343434"/>
<path d="M245.954 465.621C246.25 465.621 246.494 465.377 246.494 465.099C246.494 464.802 246.268 464.558 245.971 464.558L239.133 464.454C238.854 464.454 238.592 464.68 238.592 464.976C238.592 465.273 238.819 465.517 239.115 465.517L245.954 465.621Z" fill="white"/>
<path d="M335.966 478.239C336.001 478.239 336.019 478.239 336.054 478.239C336.35 478.187 336.542 477.908 336.507 477.629L335.53 471.529C335.007 468.253 332.216 465.83 328.884 465.778L256.333 464.715C256.036 464.715 255.792 464.959 255.792 465.238C255.792 465.534 256.019 465.778 256.316 465.778L328.867 466.841C331.675 466.876 334.013 468.915 334.466 471.686L335.443 477.786C335.478 478.048 335.705 478.239 335.966 478.239Z" fill="white"/>
<path d="M474.3 151.751L474.998 162.957C475.242 166.704 473.062 170.207 469.59 171.654L461.356 175.087C459.124 176.011 457.519 177.98 457.013 180.333C455.704 186.259 453.751 191.941 451.186 197.309C450.14 199.487 450.209 202.032 451.396 204.123L455.809 211.879C457.658 215.156 457.24 219.234 454.745 222.057L447.314 230.475C444.819 233.299 440.824 234.222 437.336 232.793L429.084 229.395C426.851 228.471 424.322 228.733 422.281 230.04C417.275 233.247 411.867 235.913 406.145 237.935C403.877 238.736 402.115 240.584 401.47 242.902L399.098 251.494C398.103 255.119 394.911 257.716 391.143 257.943L379.926 258.64C376.176 258.884 372.669 256.705 371.221 253.237L367.785 245.011C366.86 242.78 364.889 241.177 362.534 240.671C356.603 239.364 350.916 237.412 345.543 234.85C343.363 233.804 340.816 233.874 338.723 235.059L330.96 239.469C327.68 241.316 323.598 240.898 320.772 238.405L312.347 230.981C309.521 228.489 308.596 224.497 310.027 221.012L313.428 212.768C314.353 210.537 314.091 208.01 312.783 205.971C309.573 200.969 306.904 195.566 304.881 189.849C304.078 187.584 302.229 185.823 299.909 185.179L291.309 182.808C287.68 181.815 285.081 178.625 284.854 174.861L284.157 163.654C283.912 159.907 286.093 156.404 289.564 154.957L297.798 151.524C300.031 150.6 301.636 148.631 302.142 146.278C303.45 140.352 305.404 134.671 307.968 129.303C309.015 127.124 308.945 124.579 307.759 122.488L303.345 114.732C301.496 111.456 301.915 107.377 304.41 104.554L311.841 96.1359C314.335 93.3125 318.33 92.3888 321.819 93.8179L330.07 97.2165C332.303 98.1402 334.833 97.8788 336.874 96.5716C341.88 93.3648 347.288 90.6982 353.01 88.6765C355.277 87.8748 357.039 86.0274 357.685 83.7094L360.04 75.1345C361.034 71.5094 364.226 68.9125 367.994 68.6859L379.211 67.9888C382.961 67.7448 386.468 69.9234 387.916 73.3917L391.352 81.6179C392.277 83.8488 394.248 85.4522 396.603 85.9577C402.534 87.2648 408.221 89.2168 413.594 91.7788C415.774 92.8245 418.321 92.7548 420.415 91.5697L428.177 87.1602C431.457 85.3128 435.539 85.7311 438.365 88.2234L446.79 95.6479C449.616 98.1402 450.541 102.131 449.11 105.617L445.709 113.861C444.784 116.092 445.046 118.619 446.354 120.658C449.564 125.66 452.233 131.063 454.257 136.779C455.059 139.045 456.908 140.805 459.228 141.45L467.846 143.803C471.474 144.797 474.056 147.986 474.3 151.751ZM444.086 152.674C438.208 117.068 404.54 92.9814 368.919 98.8722C333.28 104.746 309.172 138.383 315.068 173.972C320.947 209.579 354.614 233.665 390.236 227.774C425.857 221.883 449.965 188.263 444.086 152.674Z" fill="black"/>
<mask id="mask0_8_152" style="mask-type:luminance" maskUnits="userSpaceOnUse" x="313" y="97" width="132" height="133">
<path d="M379.106 229.012C342.833 229.012 313.428 199.633 313.428 163.393C313.428 127.153 342.833 97.7744 379.106 97.7744C415.379 97.7744 444.784 127.153 444.784 163.393C444.784 199.633 415.379 229.012 379.106 229.012Z" fill="white"/>
</mask>
<g mask="url(#mask0_8_152)">
<path d="M363.092 191.104C363.092 191.104 357.458 219.966 355.399 219.966C353.341 219.966 315.347 215.417 315.347 215.417V207.191L345.404 208.289L352.661 186.834L363.092 191.104Z" fill="url(#paint3_linear_8_152)"/>
<path d="M370.245 222.598H420.92L417.85 186.503C417.85 186.503 421.636 159.315 404.348 156.317C394.161 153.546 394.161 153.511 394.161 153.511C394.161 153.511 381.13 151.455 370.245 156.265C359.359 161.075 350.358 189.919 350.358 189.919L363.389 195.113L366.703 184.604L370.245 222.598Z" fill="white"/>
<path d="M391.701 136.169L396.865 155.968C396.865 155.968 386.084 161.162 376.926 156.665L379.822 137.477L391.701 136.169Z" fill="url(#paint4_linear_8_152)"/>
<path d="M367.419 120.188C367.419 120.188 366.599 134.531 368.622 141.154C370.663 147.777 370.803 152.5 378.81 151.036C386.799 149.572 391.753 143.507 392.783 135.786C392.783 135.786 394.475 123.848 391.771 120.205C389.067 116.58 367.419 120.188 367.419 120.188Z" fill="url(#paint5_linear_8_152)"/>
<path d="M388.509 132.091L388.02 132.056C387.392 132.022 386.921 131.464 386.991 130.819C387.288 128.379 387.637 122.941 384.566 122.837C380.606 122.697 365.971 124.946 361.243 121.198C356.708 117.608 357.004 110.689 360.127 107.604C360.336 107.395 360.668 107.378 360.877 107.569L361.4 108.04C361.767 108.371 362.342 108.092 362.307 107.604C362.272 107.134 362.813 106.855 363.18 107.134C364.61 108.249 367.924 109.696 374.885 108.493C384.776 106.785 392.294 108.284 394.806 114.61C394.963 115.011 395.487 115.081 395.748 114.732C396.272 114.07 397.301 113.46 399.22 114.157C402.551 115.36 403.563 121.286 399.656 127.908C399.464 128.222 399.621 128.64 399.987 128.71C401.243 128.989 403.319 130 400.196 133.538C396.952 137.18 393.864 138.122 392.643 138.348C392.329 138.4 392.05 138.191 391.998 137.895L391.16 131.812C391.108 131.464 390.759 131.255 390.428 131.377L388.509 132.091Z" fill="url(#paint6_linear_8_152)"/>
<path d="M388.509 132.091L388.02 132.056C387.392 132.022 386.921 131.464 386.991 130.819C387.288 128.379 387.637 122.941 384.566 122.837C380.606 122.697 365.971 124.946 361.243 121.198C356.708 117.608 357.004 110.689 360.127 107.604C360.336 107.395 360.668 107.378 360.877 107.569L361.4 108.04C361.767 108.371 362.342 108.092 362.307 107.604C362.272 107.134 362.813 106.855 363.18 107.134C364.61 108.249 367.924 109.696 374.885 108.493C384.776 106.785 392.294 108.284 394.806 114.61C394.963 115.011 395.487 115.081 395.748 114.732C396.272 114.07 397.301 113.46 399.22 114.157C402.551 115.36 403.563 121.286 399.656 127.908C399.464 128.222 399.621 128.64 399.987 128.71C401.243 128.989 403.319 130 400.196 133.538C396.952 137.18 393.864 138.122 392.643 138.348C392.329 138.4 392.05 138.191 391.998 137.895L391.16 131.812C391.108 131.464 390.759 131.255 390.428 131.377L388.509 132.091Z" fill="url(#paint7_linear_8_152)"/>
<path d="M388.509 132.091L388.02 132.056C387.392 132.022 386.921 131.464 386.991 130.819C387.288 128.379 387.637 122.941 384.566 122.837C380.606 122.697 365.971 124.946 361.243 121.198C356.708 117.608 357.004 110.689 360.127 107.604C360.336 107.395 360.668 107.378 360.877 107.569L361.4 108.04C361.767 108.371 362.342 108.092 362.307 107.604C362.272 107.134 362.813 106.855 363.18 107.134C364.61 108.249 367.924 109.696 374.885 108.493C384.776 106.785 392.294 108.284 394.806 114.61C394.963 115.011 395.487 115.081 395.748 114.732C396.272 114.07 397.301 113.46 399.22 114.157C402.551 115.36 403.563 121.286 399.656 127.908C399.464 128.222 399.621 128.64 399.987 128.71C401.243 128.989 403.319 130 400.196 133.538C396.952 137.18 393.864 138.122 392.643 138.348C392.329 138.4 392.05 138.191 391.998 137.895L391.16 131.812C391.108 131.464 390.759 131.255 390.428 131.377L388.509 132.091Z" fill="url(#paint8_linear_8_152)"/>
<path d="M388.718 133.363C388.718 133.363 387.863 124.701 392.224 125.625C396.586 126.531 393.655 135.159 390.916 136.501L388.718 133.363Z" fill="url(#paint9_linear_8_152)"/>
<path d="M377.937 144.378C387.218 143.507 390.916 133.119 390.951 133.015L390.288 132.788C390.253 132.893 386.695 142.827 377.885 143.664L377.937 144.378Z" fill="#D80707"/>
<path d="M374.745 145.093H379.333C379.507 145.093 379.664 144.936 379.664 144.762V143.036C379.664 142.862 379.507 142.705 379.333 142.705H374.745C374.571 142.705 374.414 142.862 374.414 143.036V144.762C374.414 144.936 374.553 145.093 374.745 145.093Z" fill="#D80707"/>
<path d="M388.648 122.697C388.648 122.697 382.822 108.65 373.454 108.719C373.454 108.719 375.809 107.116 378.74 107.987C381.671 108.859 389.8 114.854 390.986 122.697C389.259 123.603 388.648 122.697 388.648 122.697Z" fill="#D80707"/>
<path d="M390.061 121.547C395.277 121.704 395.748 128.17 395.748 128.17C396.9 132.719 395.94 135.246 394.405 136.623C393.358 137.564 391.876 137.895 390.532 137.477C389.172 137.058 388.142 135.96 387.794 134.601C387.48 133.363 387.166 132.178 387.009 131.777C386.59 130.784 384.845 121.39 390.061 121.547Z" fill="#D80707"/>
<path d="M389.869 123.238C390.881 122.872 392.015 123.255 392.591 124.161C396.795 130.61 393.882 135.769 392.085 136.17C390.183 136.605 388.648 127.403 388.648 124.981C388.648 123.97 389.207 123.464 389.869 123.238Z" fill="#D80707"/>
<path d="M320.999 219.67L451.012 220.75C451.553 220.75 452.024 221.883 452.093 223.26L452.285 227.53C452.355 228.924 451.971 230.057 451.431 230.04L320.737 228.158C320.284 228.158 319.952 227.112 320.005 225.84L320.127 221.953C320.179 220.681 320.563 219.67 320.999 219.67Z" fill="#D80707"/>
<path d="M365.5 219.862H349.154C349.154 219.862 352.87 211.897 359.656 212.298C366.459 212.681 365.5 219.862 365.5 219.862Z" fill="black"/>
<path d="M410.053 197.606L398.679 192.377L388.631 210.015C388.631 210.015 360.214 205.605 355.155 210.956C350.096 216.324 352.469 216.237 353.097 216.237C353.725 216.237 356.655 213.082 356.655 213.082C356.655 213.082 354.091 216.934 355.469 217.108C356.847 217.282 360.197 213.64 360.197 213.64C360.197 213.64 357.44 218.45 359.098 217.892C360.755 217.335 362.098 214.738 362.098 214.738C362.098 214.738 359.883 217.823 361.383 217.945C362.883 218.067 365.168 215.4 365.168 215.4C365.168 215.4 368.675 216.986 370.698 216.986C372.722 216.986 392.992 222.04 396.673 219.949C400.353 217.858 410.053 197.606 410.053 197.606Z" fill="url(#paint10_linear_8_152)"/>
<path d="M398.679 192.621C398.749 192.621 398.818 192.586 398.871 192.534C398.958 192.429 398.923 192.272 398.818 192.203L396.725 190.634L403.459 172.02C403.511 171.898 403.441 171.759 403.319 171.724C403.197 171.672 403.057 171.742 403.022 171.864L396.237 190.634C396.202 190.739 396.237 190.843 396.324 190.896L398.557 192.569C398.574 192.604 398.627 192.621 398.679 192.621Z" fill="#D9D9D9"/>
<path d="M411.134 196.856C411.204 196.856 411.291 196.821 411.326 196.751L417.013 188.386C417.083 188.281 417.065 188.124 416.943 188.054C416.838 187.985 416.681 188.002 416.612 188.124L410.925 196.49C410.855 196.594 410.872 196.751 410.995 196.821C411.029 196.838 411.082 196.856 411.134 196.856Z" fill="#D9D9D9"/>
</g>
<path d="M329.582 266.378H442.307C444.348 266.378 446.302 267.389 447.697 269.219C449.093 271.049 449.791 273.506 449.651 276.016L447.645 309.078C447.349 313.906 443.999 317.601 440.039 317.426L329.355 312.529C325.395 312.354 322.273 308.363 322.273 303.518V275.336C322.273 270.334 325.517 266.378 329.582 266.378Z" fill="#D80707"/>
<path d="M428.683 306.742L433.201 304.79C433.55 304.633 433.951 304.668 434.283 304.877L438.452 307.492C439.272 307.997 440.319 307.352 440.231 306.394L439.778 301.496C439.743 301.113 439.9 300.747 440.196 300.503L443.982 297.348C444.714 296.738 444.435 295.536 443.493 295.327L438.679 294.246C438.312 294.159 437.998 293.897 437.859 293.549L436.027 288.983C435.661 288.094 434.44 287.989 433.951 288.826L431.439 293.061C431.247 293.392 430.899 293.601 430.515 293.636L425.595 293.967C424.636 294.037 424.165 295.17 424.793 295.902L428.055 299.597C428.317 299.875 428.404 300.276 428.317 300.642L427.113 305.418C426.869 306.324 427.793 307.126 428.683 306.742Z" fill="white"/>
<path d="M405.046 306.743L409.564 304.791C409.913 304.634 410.314 304.669 410.646 304.878L414.815 307.492C415.635 307.998 416.681 307.353 416.594 306.394L416.141 301.497C416.106 301.113 416.263 300.747 416.559 300.503L420.345 297.349C421.077 296.739 420.798 295.536 419.856 295.327L415.042 294.246C414.675 294.159 414.361 293.898 414.222 293.549L412.373 288.965C412.006 288.077 410.785 287.972 410.297 288.809L407.785 293.044C407.593 293.375 407.244 293.584 406.86 293.619L401.941 293.95C400.982 294.02 400.511 295.153 401.139 295.885L404.401 299.58C404.662 299.858 404.749 300.259 404.662 300.625L403.459 305.401C403.232 306.324 404.156 307.126 405.046 306.743Z" fill="white"/>
<path d="M379.891 306.742L384.409 304.79C384.758 304.633 385.159 304.668 385.491 304.877L389.66 307.492C390.48 307.997 391.527 307.352 391.439 306.394L390.986 301.496C390.951 301.113 391.108 300.747 391.405 300.503L395.19 297.348C395.923 296.738 395.644 295.536 394.702 295.327L389.887 294.246C389.521 294.159 389.207 293.897 389.067 293.549L387.235 288.983C386.869 288.094 385.648 287.989 385.159 288.826L382.647 293.061C382.456 293.392 382.107 293.601 381.723 293.636L376.804 293.967C375.844 294.037 375.373 295.17 376.001 295.902L379.263 299.597C379.525 299.875 379.612 300.276 379.525 300.642L378.321 305.418C378.06 306.324 379.002 307.126 379.891 306.742Z" fill="white"/>
<path d="M355.556 306.742L360.075 304.79C360.423 304.633 360.825 304.668 361.156 304.877L365.325 307.492C366.145 307.997 367.192 307.352 367.105 306.394L366.651 301.496C366.616 301.113 366.773 300.747 367.07 300.503L370.855 297.348C371.588 296.738 371.309 295.536 370.367 295.327L365.552 294.246C365.186 294.159 364.872 293.897 364.732 293.549L362.9 288.983C362.534 288.094 361.313 287.989 360.825 288.826L358.313 293.061C358.121 293.392 357.772 293.601 357.388 293.636L352.469 293.967C351.509 294.037 351.038 295.17 351.666 295.902L354.928 299.597C355.19 299.875 355.277 300.276 355.19 300.642L353.986 305.418C353.725 306.324 354.667 307.126 355.556 306.742Z" fill="white"/>
<path d="M330.576 306.742L335.094 304.79C335.443 304.633 335.844 304.668 336.176 304.877L340.345 307.492C341.165 307.997 342.211 307.352 342.124 306.394L341.671 301.496C341.636 301.113 341.793 300.747 342.089 300.503L345.875 297.348C346.607 296.738 346.328 295.536 345.386 295.327L340.572 294.246C340.205 294.159 339.891 293.897 339.752 293.549L337.92 288.983C337.554 288.094 336.333 287.989 335.844 288.826L333.332 293.061C333.14 293.392 332.792 293.601 332.408 293.636L327.488 293.967C326.529 294.037 326.058 295.17 326.686 295.902L329.948 299.597C330.21 299.875 330.297 300.276 330.21 300.642L329.006 305.418C328.744 306.324 329.686 307.126 330.576 306.742Z" fill="white"/>
<path opacity="0.7" d="M331.675 278.055C331.675 280.164 333.21 281.645 335.112 281.645H427.636C429.538 281.645 431.073 280.164 431.073 278.055V277.863C431.073 275.755 429.538 274.012 427.636 274.012H335.129C333.228 274.012 331.693 275.755 331.693 277.863V278.055H331.675Z" fill="white"/>
<g opacity="0.7">
<path d="M75.3827 221.465H245.029C246.18 221.465 247.122 220.523 247.122 219.373V185.91C247.122 184.76 246.18 183.819 245.029 183.819H75.3827C74.2314 183.819 73.2894 184.76 73.2894 185.91V219.373C73.2894 220.523 74.2314 221.465 75.3827 221.465Z" fill="white"/>
<path d="M112.016 220.14L103.904 233.037L96.4206 219.513L112.016 220.14Z" fill="white"/>
</g>
<path d="M212.843 214.136C206.944 208.242 206.944 198.685 212.843 192.791C218.743 186.897 228.308 186.897 234.207 192.791C240.107 198.685 240.107 208.242 234.207 214.136C228.308 220.03 218.743 220.03 212.843 214.136Z" fill="white"/>
<path d="M218.915 197.744C218.915 200.323 220.991 203.06 223.555 202.99C226.119 202.92 228.213 200.045 228.213 197.448C228.213 194.851 226.119 193.073 223.555 193.178C220.991 193.247 218.915 195.147 218.915 197.744Z" fill="#D80707"/>
<path d="M229.347 212.82L218.008 213.099C216.822 213.134 215.775 212.384 215.409 211.234L214.798 209.334C214.362 207.94 215.077 206.406 216.438 205.848C221.026 204.018 225.788 204.088 230.707 205.604C232.085 206.023 232.853 207.504 232.469 208.916L231.998 210.694C231.684 211.931 230.585 212.802 229.347 212.82Z" fill="#D80707"/>
<g opacity="0.7">
<path d="M72.452 325.775H242.098C243.25 325.775 244.192 324.833 244.192 323.683V290.22C244.192 289.07 243.25 288.129 242.098 288.129H72.452C71.3007 288.129 70.3587 289.07 70.3587 290.22V323.683C70.3587 324.833 71.3007 325.775 72.452 325.775Z" fill="white"/>
<path d="M109.068 324.468L100.956 337.347L93.49 323.823L109.068 324.468Z" fill="white"/>
</g>
<path d="M209.901 318.441C204.002 312.547 204.002 302.991 209.901 297.097C215.801 291.203 225.366 291.203 231.265 297.097C237.165 302.991 237.165 312.547 231.265 318.441C225.366 324.336 215.801 324.336 209.901 318.441Z" fill="white"/>
<path d="M215.984 302.054C215.984 304.633 218.06 307.37 220.624 307.3C223.189 307.23 225.282 304.355 225.282 301.758C225.282 299.161 223.189 297.383 220.624 297.488C218.06 297.557 215.984 299.457 215.984 302.054Z" fill="#D80707"/>
<path d="M226.398 317.147L215.06 317.426C213.873 317.461 212.827 316.711 212.46 315.561L211.85 313.661C211.414 312.267 212.129 310.733 213.49 310.176C218.077 308.346 222.84 308.415 227.759 309.932C229.137 310.35 229.905 311.831 229.521 313.243L229.05 315.021C228.736 316.241 227.654 317.112 226.398 317.147Z" fill="#D80707"/>
<g opacity="0.7">
<path d="M242.081 273.366H72.4346C71.2833 273.366 70.3413 272.425 70.3413 271.275V237.812C70.3413 236.662 71.2833 235.721 72.4346 235.721H242.081C243.232 235.721 244.174 236.662 244.174 237.812V271.275C244.174 272.425 243.232 273.366 242.081 273.366Z" fill="white"/>
<path d="M205.448 272.059L213.577 284.939L221.043 271.432L205.448 272.059Z" fill="white"/>
</g>
<path d="M83.2782 266.058C77.3787 260.164 77.3787 250.608 83.2782 244.713C89.1778 238.819 98.7428 238.819 104.642 244.713C110.542 250.608 110.542 260.164 104.642 266.058C98.7428 271.952 89.1777 271.952 83.2782 266.058Z" fill="white"/>
<path d="M98.5488 249.646C98.5488 252.226 96.4729 254.962 93.9086 254.892C91.3443 254.823 89.251 251.947 89.251 249.35C89.251 246.753 91.3443 244.975 93.9086 245.08C96.4729 245.15 98.5488 247.067 98.5488 249.646Z" fill="#D80707"/>
<path d="M88.1345 264.739L99.4734 265.018C100.66 265.053 101.706 264.304 102.073 263.153L102.683 261.254C103.119 259.859 102.404 258.326 101.043 257.768C96.4555 255.938 91.6932 256.008 86.7739 257.524C85.3958 257.942 84.6282 259.424 85.012 260.835L85.483 262.613C85.7796 263.833 86.8785 264.704 88.1345 264.739Z" fill="#D80707"/>
<g opacity="0.7">
<path d="M240.127 376.718H70.4809C69.3295 376.718 68.3875 375.777 68.3875 374.627V341.164C68.3875 340.014 69.3295 339.073 70.4809 339.073H240.127C241.278 339.073 242.22 340.014 242.22 341.164V374.627C242.22 375.777 241.278 376.718 240.127 376.718Z" fill="white"/>
<path d="M203.494 375.394L211.606 388.274L219.089 374.767L203.494 375.394Z" fill="white"/>
</g>
<path d="M81.3117 369.385C75.4122 363.491 75.4122 353.934 81.3117 348.04C87.2113 342.146 96.7763 342.146 102.676 348.04C108.575 353.934 108.575 363.491 102.676 369.385C96.7763 375.279 87.2112 375.279 81.3117 369.385Z" fill="white"/>
<path d="M96.595 352.981C96.595 355.56 94.5192 358.297 91.9548 358.227C89.3905 358.157 87.2972 355.281 87.2972 352.685C87.2972 350.088 89.3905 348.31 91.9548 348.415C94.5192 348.484 96.595 350.401 96.595 352.981Z" fill="#D80707"/>
<path d="M86.1633 368.074L97.5021 368.353C98.6883 368.387 99.735 367.638 100.101 366.488L100.712 364.588C101.148 363.194 100.433 361.66 99.0721 361.102C94.4842 359.272 89.7219 359.342 84.8026 360.858C83.4245 361.277 82.657 362.758 83.0408 364.17L83.5118 365.947C83.8258 367.167 84.9247 368.039 86.1633 368.074Z" fill="#D80707"/>
<path d="M85.64 485.246C80.7556 485.664 72.2602 486.362 65.579 486.64C61.5494 486.815 59.2467 486.431 57.9035 485.891C57.9035 486.048 57.9035 486.187 57.921 486.309C57.9558 487.006 58.5315 487.582 59.2293 487.616C71.8764 488.314 81.9244 487.86 85.5004 487.651C86.2331 487.599 86.6867 486.797 86.3029 486.17C86.111 485.856 85.8842 485.542 85.64 485.246Z" fill="url(#paint11_linear_8_152)"/>
<path d="M85.64 485.246C80.7556 485.664 72.2602 486.362 65.579 486.64C61.5494 486.815 59.2467 486.431 57.9035 485.891C57.9035 486.048 57.9035 486.187 57.921 486.309C57.9558 487.006 58.5315 487.582 59.2293 487.616C71.8764 488.314 81.9244 487.86 85.5004 487.651C86.2331 487.599 86.6867 486.797 86.3029 486.17C86.111 485.856 85.8842 485.542 85.64 485.246Z" fill="url(#paint12_linear_8_152)"/>
<path d="M65.579 486.64C72.2776 486.344 80.7556 485.664 85.64 485.246C80.8254 479.355 65.579 475.381 65.579 475.381H61.2703C58.3047 479.651 57.8686 483.712 57.9035 485.891C59.2293 486.431 61.5494 486.814 65.579 486.64Z" fill="url(#paint13_linear_8_152)"/>
<path d="M65.579 486.64C72.2776 486.344 80.7556 485.664 85.64 485.246C80.8254 479.355 65.579 475.381 65.579 475.381H61.2703C58.3047 479.651 57.8686 483.712 57.9035 485.891C59.2293 486.431 61.5494 486.814 65.579 486.64Z" fill="url(#paint14_linear_8_152)"/>
<path d="M60.5376 468.34L60.9388 476.305C60.9911 477.177 61.6366 477.891 62.4914 478.013C63.3461 478.135 64.4974 478.153 65.736 477.752C66.4861 477.508 67.0443 476.863 67.1839 476.096L68.5794 468.34H60.5376Z" fill="url(#paint15_linear_8_152)"/>
<path d="M4.55865 486.588C2.43044 486.292 1.471 485.194 1.06978 484.009C1.06978 484.026 1.06978 484.026 1.06978 484.044C0.755785 485.281 1.48847 486.571 2.9189 487.181C4.66334 487.913 6.58222 488.052 8.06499 487.982C9.65242 487.913 11.1177 487.25 11.9202 486.205L11.9376 486.187C10.3502 486.989 8.09986 487.076 4.55865 486.588Z" fill="url(#paint16_linear_8_152)"/>
<path d="M14.5543 468.305H10.9956C5.58788 468.201 2.18621 479.599 1.06977 484.026C1.47099 485.211 2.43043 486.309 4.55864 486.605C8.09984 487.093 10.3327 487.006 11.9376 486.222C14.8683 482.37 16.3162 476.741 17.0139 473.464C17.7989 469.7 14.5543 468.305 14.5543 468.305Z" fill="url(#paint17_linear_8_152)"/>
<path d="M14.5543 468.305H10.9956C5.58788 468.201 2.18621 479.599 1.06977 484.026C1.47099 485.211 2.43043 486.309 4.55864 486.605C8.09984 487.093 10.3327 487.006 11.9376 486.222C14.8683 482.37 16.3162 476.741 17.0139 473.464C17.7989 469.7 14.5543 468.305 14.5543 468.305Z" fill="url(#paint18_linear_8_152)"/>
<path d="M14.5543 468.305H10.9956C5.58788 468.201 2.18621 479.599 1.06977 484.026C1.47099 485.211 2.43043 486.309 4.55864 486.605C8.09984 487.093 10.3327 487.006 11.9376 486.222C14.8683 482.37 16.3162 476.741 17.0139 473.464C17.7989 469.7 14.5543 468.305 14.5543 468.305Z" fill="url(#paint19_linear_8_152)"/>
<path d="M11.4666 460.898L9.49541 468.741C9.25119 469.7 9.72217 470.693 10.6118 471.146C11.7108 471.704 13.2634 472.314 14.6938 472.14C15.3742 472.053 15.9324 471.582 16.1417 470.955L19.0375 462.711L11.4666 460.898Z" fill="url(#paint20_linear_8_152)"/>
<path d="M9.11165 463.164C11.5713 465.343 19.5608 465.622 19.5608 465.622C48.3265 396.639 60.1015 386.845 60.1015 386.845C55.9497 412.883 59.4386 470.519 59.4386 470.519C64.1835 472.611 70.3064 470.519 70.3064 470.519C70.6902 427.889 77.2493 390.714 84.9946 361.416C65.5441 360.981 55.217 354.34 51.8328 351.656C35.6096 377.782 9.11165 463.164 9.11165 463.164Z" fill="url(#paint21_linear_8_152)"/>
<path d="M9.11165 463.164C11.5713 465.343 19.5608 465.622 19.5608 465.622C48.3265 396.639 60.1015 386.845 60.1015 386.845C55.9497 412.883 59.4386 470.519 59.4386 470.519C64.1835 472.611 70.3064 470.519 70.3064 470.519C70.6902 427.889 77.2493 390.714 84.9946 361.416C65.5441 360.981 55.217 354.34 51.8328 351.656C35.6096 377.782 9.11165 463.164 9.11165 463.164Z" fill="url(#paint22_linear_8_152)"/>
<path d="M56.7521 272.338C53.0714 290.673 54.3972 323.509 55.252 338.48C55.4962 342.68 52.5481 348.519 50.1756 352.51C49.8093 353.137 50.0361 353.939 50.6815 354.27C54.6589 356.309 68.1433 362.653 83.756 363.438C84.8027 363.49 85.7272 362.775 86.0064 361.782C97.5894 318.542 111.056 290.917 111.056 290.917C96.1938 267.197 56.7521 272.338 56.7521 272.338Z" fill="black"/>
<path d="M62.0552 385.206C61.8982 385.206 61.7238 385.154 61.5843 385.067C61.1482 384.805 61.0086 384.23 61.2703 383.794C61.4273 383.533 65.1429 377.537 72.6788 373.895C73.1324 373.668 73.6906 373.86 73.9174 374.331C74.1442 374.784 73.9523 375.341 73.4813 375.568C66.4687 378.949 62.8751 384.701 62.8402 384.753C62.6658 385.049 62.3518 385.206 62.0552 385.206Z" fill="url(#paint23_linear_8_152)"/>
<path d="M62.0552 385.206C61.8982 385.206 61.7238 385.154 61.5843 385.067C61.1482 384.805 61.0086 384.23 61.2703 383.794C61.4273 383.533 65.1429 377.537 72.6788 373.895C73.1324 373.668 73.6906 373.86 73.9174 374.331C74.1442 374.784 73.9523 375.341 73.4813 375.568C66.4687 378.949 62.8751 384.701 62.8402 384.753C62.6658 385.049 62.3518 385.206 62.0552 385.206Z" fill="url(#paint24_linear_8_152)"/>
<path d="M33.6733 324.973C34.8595 333.513 38.3483 342.837 45.3261 352.737L47.9777 350.575C47.9777 350.575 44.9074 338.149 46.6519 324.049C42.3606 323.195 37.2668 324.067 33.6733 324.973Z" fill="black"/>
<path d="M60.869 294.961L56.7521 272.338C56.7521 272.338 29.2948 293.305 33.6733 324.973C37.2668 324.066 42.3606 323.195 46.6693 324.032C47.9253 313.888 51.6758 302.856 60.869 294.961Z" fill="black"/>
<path d="M111.056 290.9L100.468 313.714C102.177 327.482 109.591 333.443 117.563 335.726C118.069 329.452 119.656 324.38 121.122 320.877C110.917 310.333 111.056 290.9 111.056 290.9Z" fill="black"/>
<path d="M121.122 320.86C119.656 324.363 118.052 329.435 117.563 335.709C138.863 343.97 144.497 327.953 144.497 327.953L140.555 327.256C131.676 328.197 125.465 325.339 121.122 320.86Z" fill="black"/>
<path d="M101.288 262.735L96.1764 281.523C95.6007 283.632 93.3155 284.765 91.2745 283.963C89.0765 283.092 86.3029 281.889 83.8956 280.6C81.3312 279.223 80.5288 275.929 82.1511 273.524L92.7922 257.681L101.288 262.735Z" fill="url(#paint25_linear_8_152)"/>
<path d="M154.266 315.387L23.1195 363.072C17.6245 365.076 14.9904 371.333 17.4151 376.649L17.8163 377.52C19.962 382.226 25.5267 384.3 30.2367 382.121L157.58 323.265L154.266 315.387Z" fill="#D80707"/>
<path d="M286.581 286.7C286.581 325.722 254.327 357.373 214.554 357.373C174.763 357.373 142.526 325.74 142.526 286.7C142.526 247.677 174.781 216.027 214.554 216.027C254.327 216.027 286.581 247.66 286.581 286.7ZM275.993 286.7C275.993 253.411 248.483 226.414 214.536 226.414C180.59 226.414 153.08 253.411 153.08 286.7C153.08 320.006 180.59 346.985 214.536 346.985C248.483 346.985 275.993 319.988 275.993 286.7Z" fill="#D80707"/>
<path d="M148.038 295.449C148.3 295.414 148.492 295.17 148.457 294.909C148.248 293.253 148.091 291.562 148.021 289.924C148.004 289.663 147.829 289.454 147.515 289.471C147.253 289.488 147.044 289.715 147.062 289.976C147.149 291.65 147.288 293.358 147.515 295.048C147.55 295.292 147.759 295.466 148.004 295.466C148.004 295.449 148.021 295.449 148.038 295.449ZM148.946 275.302C149.748 270.822 151.039 266.413 152.766 262.213C163.006 237.412 187.236 221.378 214.519 221.378C227.236 221.378 239.604 224.916 250.28 231.591C250.507 231.73 250.803 231.66 250.943 231.434C251.082 231.207 251.012 230.911 250.786 230.772C239.953 223.992 227.41 220.419 214.501 220.419C186.817 220.419 162.238 236.68 151.841 261.847C150.079 266.117 148.771 270.596 147.951 275.127C147.899 275.389 148.073 275.633 148.335 275.685C148.37 275.685 148.387 275.685 148.422 275.685C148.701 275.685 148.911 275.528 148.946 275.302Z" fill="white"/>
<path d="M112.487 248.462C112.539 248.793 108.213 269.916 108.213 269.916L96.1938 267.197L97.3102 246.562C97.3102 246.562 111.719 243.059 112.487 248.462Z" fill="url(#paint26_linear_8_152)"/>
<path d="M100.014 251.163L98.5837 261.986C98.5662 262.126 98.5662 262.265 98.5837 262.404C98.7058 263.258 99.3338 266.134 102.247 265.315C104.899 264.566 107.323 263.921 108.998 264.426C109.748 264.653 110.202 265.42 110.045 266.186C109.643 268.104 108.684 272.408 107.271 276.034C106.992 276.766 106.172 277.149 105.422 276.94C103.137 276.278 98.3744 274.744 94.8332 272.6C94.3447 272.304 94.0656 271.781 94.083 271.223C94.2052 268.487 94.5192 260.191 94.2575 257.873C94.0133 255.694 91.3268 254.387 90.1581 253.917C89.7743 253.76 89.4778 253.464 89.3208 253.08C88.78 251.721 88.0299 248.601 91.9723 247.329C92.7922 247.067 93.2283 246.178 92.9317 245.359C92.3561 243.738 92.0944 241.264 95.1472 239.887C98.2523 238.492 100.572 240.148 101.811 241.49C102.317 242.03 103.119 242.118 103.747 241.717C104.096 241.49 104.567 241.42 105.125 241.769C105.875 242.24 106.87 241.926 107.254 241.124C108.004 239.608 109.504 237.97 112.539 238.492C117.929 239.416 118.54 245.377 117.11 248.88C115.697 252.383 109.905 251.041 107.009 249.281C104.811 247.939 101.933 249.35 100.694 250.1C100.346 250.292 100.084 250.692 100.014 251.163Z" fill="url(#paint27_linear_8_152)"/>
<path d="M100.014 251.163L98.5837 261.986C98.5662 262.126 98.5662 262.265 98.5837 262.404C98.7058 263.258 99.3338 266.134 102.247 265.315C104.899 264.566 107.323 263.921 108.998 264.426C109.748 264.653 110.202 265.42 110.045 266.186C109.643 268.104 108.684 272.408 107.271 276.034C106.992 276.766 106.172 277.149 105.422 276.94C103.137 276.278 98.3744 274.744 94.8332 272.6C94.3447 272.304 94.0656 271.781 94.083 271.223C94.2052 268.487 94.5192 260.191 94.2575 257.873C94.0133 255.694 91.3268 254.387 90.1581 253.917C89.7743 253.76 89.4778 253.464 89.3208 253.08C88.78 251.721 88.0299 248.601 91.9723 247.329C92.7922 247.067 93.2283 246.178 92.9317 245.359C92.3561 243.738 92.0944 241.264 95.1472 239.887C98.2523 238.492 100.572 240.148 101.811 241.49C102.317 242.03 103.119 242.118 103.747 241.717C104.096 241.49 104.567 241.42 105.125 241.769C105.875 242.24 106.87 241.926 107.254 241.124C108.004 239.608 109.504 237.97 112.539 238.492C117.929 239.416 118.54 245.377 117.11 248.88C115.697 252.383 109.905 251.041 107.009 249.281C104.811 247.939 101.933 249.35 100.694 250.1C100.346 250.292 100.084 250.692 100.014 251.163Z" fill="url(#paint28_linear_8_152)"/>
<path d="M100.014 251.163L98.5837 261.986C98.5662 262.126 98.5662 262.265 98.5837 262.404C98.7058 263.258 99.3338 266.134 102.247 265.315C104.899 264.566 107.323 263.921 108.998 264.426C109.748 264.653 110.202 265.42 110.045 266.186C109.643 268.104 108.684 272.408 107.271 276.034C106.992 276.766 106.172 277.149 105.422 276.94C103.137 276.278 98.3744 274.744 94.8332 272.6C94.3447 272.304 94.0656 271.781 94.083 271.223C94.2052 268.487 94.5192 260.191 94.2575 257.873C94.0133 255.694 91.3268 254.387 90.1581 253.917C89.7743 253.76 89.4778 253.464 89.3208 253.08C88.78 251.721 88.0299 248.601 91.9723 247.329C92.7922 247.067 93.2283 246.178 92.9317 245.359C92.3561 243.738 92.0944 241.264 95.1472 239.887C98.2523 238.492 100.572 240.148 101.811 241.49C102.317 242.03 103.119 242.118 103.747 241.717C104.096 241.49 104.567 241.42 105.125 241.769C105.875 242.24 106.87 241.926 107.254 241.124C108.004 239.608 109.504 237.97 112.539 238.492C117.929 239.416 118.54 245.377 117.11 248.88C115.697 252.383 109.905 251.041 107.009 249.281C104.811 247.939 101.933 249.35 100.694 250.1C100.346 250.292 100.084 250.692 100.014 251.163Z" fill="url(#paint29_linear_8_152)"/>
<path d="M93.7691 261.794C93.7691 261.794 95.9845 255.59 93.7168 254.074C91.449 252.557 88.0648 253.342 88.8149 257.838C89.7394 263.433 93.7691 261.794 93.7691 261.794Z" fill="url(#paint30_linear_8_152)"/>
<path d="M46.8961 350.192L59.299 349.181L64.6719 354.131C64.6719 354.131 63.3985 355.891 59.4386 354.88C55.4787 353.869 50.0361 353.625 50.0361 353.625C50.0361 353.625 44.5586 356.1 44.4888 351.482L46.8961 350.192Z" fill="url(#paint31_linear_8_152)"/>
<path d="M142.927 330.899C143.991 331.735 147.672 329.992 149.922 328.772C151.021 328.18 151.545 326.908 151.178 325.722C150.638 324.014 149.731 321.818 148.632 321.54C146.765 321.086 138.496 327.448 142.927 330.899Z" fill="url(#paint32_linear_8_152)"/>
<path d="M25.7187 380.291C25.6663 380.291 25.614 380.291 25.5617 380.256C20.433 378.479 19.2468 375.464 19.1421 373.233C19.0026 369.974 21.0436 366.958 24.2359 365.721L39.9881 359.586C40.2324 359.482 40.5115 359.604 40.6161 359.865C40.7208 360.109 40.5987 360.388 40.337 360.492L24.5848 366.627C21.7937 367.725 19.9969 370.357 20.119 373.198C20.2411 376.004 22.1774 378.06 25.8756 379.35C26.1199 379.437 26.2595 379.716 26.1722 379.96C26.1025 380.169 25.9105 380.291 25.7187 380.291Z" fill="white"/>
<path d="M44.9947 358.645C44.8028 358.645 44.6109 358.523 44.5411 358.331C44.4364 358.087 44.5586 357.808 44.8202 357.704L46.8612 356.902C47.1054 356.797 47.3846 356.937 47.4892 357.181C47.5939 357.425 47.4718 357.704 47.2101 357.808L45.1691 358.61C45.1168 358.645 45.0644 358.645 44.9947 358.645Z" fill="white"/>
<path opacity="0.56" d="M314.929 346.985H459.472C460.484 346.985 461.304 346.166 461.304 345.155V336.476C461.304 335.465 460.484 334.646 459.472 334.646H314.929C313.917 334.646 313.097 335.465 313.097 336.476V345.155C313.097 346.166 313.917 346.985 314.929 346.985Z" fill="white"/>
<path opacity="0.56" d="M315.836 365.791H460.38C461.391 365.791 462.211 364.971 462.211 363.961V355.281C462.211 354.27 461.391 353.451 460.38 353.451H315.836C314.824 353.451 314.004 354.27 314.004 355.281V363.961C314.004 364.971 314.824 365.791 315.836 365.791Z" fill="white"/>
<defs>
<linearGradient id="paint0_linear_8_152" x1="250.442" y1="455.528" x2="250.442" y2="593.904" gradientUnits="userSpaceOnUse">
<stop stop-color="#09005D"/>
<stop offset="1" stop-color="#1A0F91"/>
</linearGradient>
<linearGradient id="paint1_linear_8_152" x1="264.04" y1="-13.7923" x2="262.279" y2="233.875" gradientUnits="userSpaceOnUse">
<stop stop-color="#09005D"/>
<stop offset="0.1925" stop-color="#0C0367"/>
<stop offset="1" stop-color="#1A0F91"/>
</linearGradient>
<linearGradient id="paint2_linear_8_152" x1="252.295" y1="392.069" x2="252.295" y2="496.953" gradientUnits="userSpaceOnUse">
<stop stop-color="#09005D"/>
<stop offset="1" stop-color="#1A0F91"/>
</linearGradient>
<linearGradient id="paint3_linear_8_152" x1="390.636" y1="204.015" x2="172.991" y2="200.384" gradientUnits="userSpaceOnUse">
<stop stop-color="#FEBBBA"/>
<stop offset="1" stop-color="#FF928E"/>
</linearGradient>
<linearGradient id="paint4_linear_8_152" x1="378.759" y1="132.705" x2="405.668" y2="199.258" gradientUnits="userSpaceOnUse">
<stop stop-color="#FEBBBA"/>
<stop offset="1" stop-color="#FF928E"/>
</linearGradient>
<linearGradient id="paint5_linear_8_152" x1="370.315" y1="131.492" x2="409.795" y2="143.708" gradientUnits="userSpaceOnUse">
<stop stop-color="#FEBBBA"/>
<stop offset="1" stop-color="#FF928E"/>
</linearGradient>
<linearGradient id="paint6_linear_8_152" x1="385.113" y1="104.864" x2="370.075" y2="152.334" gradientUnits="userSpaceOnUse">
<stop stop-color="#09005D"/>
<stop offset="1" stop-color="#1A0F91"/>
</linearGradient>
<linearGradient id="paint7_linear_8_152" x1="486.418" y1="105.341" x2="386.613" y2="123.549" gradientUnits="userSpaceOnUse">
<stop stop-color="#03013A"/>
<stop offset="1" stop-color="#03013A"/>
</linearGradient>
<linearGradient id="paint8_linear_8_152" x1="402.293" y1="122.707" x2="357.95" y2="122.707" gradientUnits="userSpaceOnUse">
<stop/>
<stop offset="1"/>
</linearGradient>
<linearGradient id="paint9_linear_8_152" x1="372.293" y1="125.097" x2="411.774" y2="137.312" gradientUnits="userSpaceOnUse">
<stop stop-color="#FEBBBA"/>
<stop offset="1" stop-color="#FF928E"/>
</linearGradient>
<linearGradient id="paint10_linear_8_152" x1="443.638" y1="207.224" x2="178.967" y2="202.809" gradientUnits="userSpaceOnUse">
<stop stop-color="#FEBBBA"/>
<stop offset="1" stop-color="#FF928E"/>
</linearGradient>
<linearGradient id="paint11_linear_8_152" x1="57.9027" y1="486.621" x2="86.444" y2="486.621" gradientUnits="userSpaceOnUse">
<stop stop-color="#4F52FF"/>
<stop offset="1" stop-color="#4042E2"/>
</linearGradient>
<linearGradient id="paint12_linear_8_152" x1="86.5155" y1="486.62" x2="57.9965" y2="486.62" gradientUnits="userSpaceOnUse">
<stop/>
<stop offset="1"/>
</linearGradient>
<linearGradient id="paint13_linear_8_152" x1="57.9011" y1="481.032" x2="85.638" y2="481.032" gradientUnits="userSpaceOnUse">
<stop stop-color="#09005D"/>
<stop offset="1" stop-color="#1A0F91"/>
</linearGradient>
<linearGradient id="paint14_linear_8_152" x1="85.711" y1="481.038" x2="57.9921" y2="481.038" gradientUnits="userSpaceOnUse">
<stop/>
<stop offset="1"/>
</linearGradient>
<linearGradient id="paint15_linear_8_152" x1="60.5378" y1="473.229" x2="68.5772" y2="473.229" gradientUnits="userSpaceOnUse">
<stop stop-color="#FEBBBA"/>
<stop offset="1" stop-color="#FF928E"/>
</linearGradient>
<linearGradient id="paint16_linear_8_152" x1="1.00329" y1="486.006" x2="11.9408" y2="486.006" gradientUnits="userSpaceOnUse">
<stop stop-color="#4F52FF"/>
<stop offset="1" stop-color="#4042E2"/>
</linearGradient>
<linearGradient id="paint17_linear_8_152" x1="1.08284" y1="477.592" x2="17.1369" y2="477.592" gradientUnits="userSpaceOnUse">
<stop stop-color="#09005D"/>
<stop offset="1" stop-color="#1A0F91"/>
</linearGradient>
<linearGradient id="paint18_linear_8_152" x1="17.1775" y1="477.616" x2="1.12214" y2="477.616" gradientUnits="userSpaceOnUse">
<stop/>
<stop offset="1"/>
</linearGradient>
<linearGradient id="paint19_linear_8_152" x1="17.1775" y1="477.616" x2="1.12214" y2="477.616" gradientUnits="userSpaceOnUse">
<stop/>
<stop offset="1"/>
</linearGradient>
<linearGradient id="paint20_linear_8_152" x1="9.42751" y1="466.533" x2="19.0355" y2="466.533" gradientUnits="userSpaceOnUse">
<stop stop-color="#FEBBBA"/>
<stop offset="1" stop-color="#FF928E"/>
</linearGradient>
<linearGradient id="paint21_linear_8_152" x1="-34.275" y1="331.048" x2="-0.976845" y2="364.376" gradientUnits="userSpaceOnUse">
<stop stop-color="#4F52FF"/>
<stop offset="1" stop-color="#4042E2"/>
</linearGradient>
<linearGradient id="paint22_linear_8_152" x1="85.1888" y1="411.619" x2="9.359" y2="411.619" gradientUnits="userSpaceOnUse">
<stop/>
<stop offset="1"/>
</linearGradient>
<linearGradient id="paint23_linear_8_152" x1="66.1331" y1="375.093" x2="36.7739" y2="283.801" gradientUnits="userSpaceOnUse">
<stop stop-color="#4F52FF"/>
<stop offset="1" stop-color="#4042E2"/>
</linearGradient>
<linearGradient id="paint24_linear_8_152" x1="74.0455" y1="379.509" x2="61.1803" y2="379.509" gradientUnits="userSpaceOnUse">
<stop/>
<stop offset="1"/>
</linearGradient>
<linearGradient id="paint25_linear_8_152" x1="91.3808" y1="257.555" x2="91.0871" y2="307.811" gradientUnits="userSpaceOnUse">
<stop stop-color="#FEBBBA"/>
<stop offset="1" stop-color="#FF928E"/>
</linearGradient>
<linearGradient id="paint26_linear_8_152" x1="107.703" y1="249.292" x2="87.9026" y2="285.229" gradientUnits="userSpaceOnUse">
<stop stop-color="#FEBBBA"/>
<stop offset="1" stop-color="#FF928E"/>
</linearGradient>
<linearGradient id="paint27_linear_8_152" x1="85.1287" y1="254.678" x2="171.034" y2="265.549" gradientUnits="userSpaceOnUse">
<stop stop-color="#09005D"/>
<stop offset="1" stop-color="#1A0F91"/>
</linearGradient>
<linearGradient id="paint28_linear_8_152" x1="172.616" y1="236.321" x2="106.093" y2="242.734" gradientUnits="userSpaceOnUse">
<stop stop-color="#03013A"/>
<stop offset="1" stop-color="#03013A"/>
</linearGradient>
<linearGradient id="paint29_linear_8_152" x1="117.846" y1="257.716" x2="88.9767" y2="257.716" gradientUnits="userSpaceOnUse">
<stop/>
<stop offset="1"/>
</linearGradient>
<linearGradient id="paint30_linear_8_152" x1="75.5163" y1="280.116" x2="92.2422" y2="257.12" gradientUnits="userSpaceOnUse">
<stop stop-color="#FEBBBA"/>
<stop offset="1" stop-color="#FF928E"/>
</linearGradient>
<linearGradient id="paint31_linear_8_152" x1="66.9529" y1="341.85" x2="32.7774" y2="372.141" gradientUnits="userSpaceOnUse">
<stop stop-color="#FEBBBA"/>
<stop offset="1" stop-color="#FF928E"/>
</linearGradient>
<linearGradient id="paint32_linear_8_152" x1="141.638" y1="326.313" x2="151.284" y2="326.313" gradientUnits="userSpaceOnUse">
<stop stop-color="#FEBBBA"/>
<stop offset="1" stop-color="#FF928E"/>
</linearGradient>
</defs>
</svg>
