<svg width="320" height="362" viewBox="0 0 320 362" fill="none" xmlns="http://www.w3.org/2000/svg">
<g clip-path="url(#clip0_55_5164)">
<g opacity="0.3">
<mask id="mask0_55_5164" style="mask-type:luminance" maskUnits="userSpaceOnUse" x="-186" y="-26" width="849" height="567">
<path d="M662.774 -25.4121H-186V540.258H662.774V-25.4121Z" fill="white"/>
</mask>
<g mask="url(#mask0_55_5164)">
<path opacity="0.07" d="M783.865 249.956L489.624 142.479L374.191 291.815L267.811 265.795L152.378 348.382L201.041 436.174L146.719 561.753L797.446 557.68L783.865 249.956Z" fill="white"/>
</g>
<mask id="mask1_55_5164" style="mask-type:luminance" maskUnits="userSpaceOnUse" x="-186" y="-26" width="849" height="567">
<path d="M662.774 -25.4121H-186V540.258H662.774V-25.4121Z" fill="white"/>
</mask>
<g mask="url(#mask1_55_5164)">
<path opacity="0.07" d="M288.521 89.0793L406.218 338.427L569.748 318.854L620.109 401.103L742.785 422.485L766.324 338.313L797.219 15.7685L468.687 -108L288.521 89.0793Z" fill="white"/>
</g>
<mask id="mask2_55_5164" style="mask-type:luminance" maskUnits="userSpaceOnUse" x="-186" y="-26" width="849" height="567">
<path d="M662.774 -25.4121H-186V540.258H662.774V-25.4121Z" fill="white"/>
</mask>
<g mask="url(#mask2_55_5164)">
<g opacity="0.62">
<path d="M230.238 587.887L229.673 587.661L306.062 406.647V406.533L584.46 189.995L630.973 60.5699L736.673 -56.75L737.013 -56.2975L631.425 60.9093L585.026 190.335H584.913L306.515 406.986L230.238 587.887Z" fill="white"/>
<path d="M889 484.37L887.868 484.03L454.315 350.08L715.397 317.045L312.852 -72.7018L313.192 -73.1543L889 484.37ZM456.918 350.306L886.85 483.125L715.963 317.497L456.918 350.306Z" fill="white"/>
<path d="M715.963 317.497L498.111 257.649L391.053 221.446L305.723 235.136L305.836 234.683L413.574 -60.144L476.496 85.1199L476.383 85.2331L391.505 220.768L820.985 151.869L821.098 152.435L392.185 221.22L498.225 257.084L715.963 316.931V317.497ZM413.8 -58.5602L306.741 234.457L391.053 220.994L476.043 85.2331L413.8 -58.5602Z" fill="white"/>
<path d="M292.935 588L292.482 587.661L456.239 348.722L429.983 456.313L843.845 514.011L843.732 514.576L429.304 456.765V456.426L454.994 351.664L292.935 588Z" fill="white"/>
<path d="M624.069 588L455.446 350.419L306.515 235.362V406.647L510.786 570.465L429.417 456.765L429.87 456.426L513.616 573.406L305.949 406.873V234.23L306.402 234.57L455.786 349.966L624.522 587.661L624.069 588Z" fill="white"/>
<path d="M305.949 234.909L238.047 119.399L238.16 119.286L379.623 -59.4653L380.075 -59.1259L238.726 119.399L306.515 234.683L305.949 234.909Z" fill="white"/>
<path d="M306.289 238.303C308.226 238.303 309.797 236.733 309.797 234.796C309.797 232.859 308.226 231.289 306.289 231.289C304.351 231.289 302.78 232.859 302.78 234.796C302.78 236.733 304.351 238.303 306.289 238.303Z" fill="white"/>
<path d="M238.387 122.906C240.324 122.906 241.895 121.336 241.895 119.399C241.895 117.462 240.324 115.892 238.387 115.892C236.449 115.892 234.878 117.462 234.878 119.399C234.878 121.336 236.449 122.906 238.387 122.906Z" fill="white"/>
</g>
</g>
<mask id="mask3_55_5164" style="mask-type:luminance" maskUnits="userSpaceOnUse" x="-186" y="-26" width="849" height="567">
<path d="M662.774 -25.4121H-186V540.258H662.774V-25.4121Z" fill="white"/>
</mask>
<g mask="url(#mask3_55_5164)">
<path d="M490.416 179.7L555.941 -70.4394L554.47 -70.7788L488.832 179.813L488.718 180.265L677.486 325.869L566.126 416.942L385.734 410.493L273.583 278.918C273.243 279.258 272.904 279.71 272.564 280.05L384.829 411.851L385.055 412.19L566.353 418.978L679.183 327.113L680.768 326.774L490.416 179.7Z" fill="white"/>
<path d="M349.18 565.939L208.057 364.9L208.284 364.447L365.363 156.733L237.708 -60.1444L239.066 -60.8232L367.061 156.846L366.834 157.186L209.868 364.9L350.425 565.147L349.18 565.939Z" fill="white"/>
<path d="M210.094 372.367C213.282 372.367 215.866 369.784 215.866 366.597C215.866 363.41 213.282 360.827 210.094 360.827C206.907 360.827 204.323 363.41 204.323 366.597C204.323 369.784 206.907 372.367 210.094 372.367Z" fill="white"/>
<path d="M278.449 280.954C278.449 284.122 275.846 286.724 272.677 286.724C269.508 286.724 266.906 284.122 266.906 280.954C266.906 277.787 269.508 275.185 272.677 275.185C275.846 275.185 278.449 277.787 278.449 280.954Z" fill="white"/>
<path d="M313.192 234.23C313.192 237.398 310.589 240 307.42 240C304.252 240 301.649 237.398 301.649 234.23C301.649 231.063 304.252 228.46 307.42 228.46C310.589 228.46 313.192 231.063 313.192 234.23Z" fill="white"/>
</g>
<mask id="mask4_55_5164" style="mask-type:luminance" maskUnits="userSpaceOnUse" x="-186" y="-26" width="849" height="567">
<path d="M662.774 -25.4121H-186V540.258H662.774V-25.4121Z" fill="white"/>
</mask>
<g mask="url(#mask4_55_5164)">
<path opacity="0.07" d="M703.515 22.104L540.55 103.56L137.666 -28.8063L674.091 -42.3823L703.515 22.104Z" fill="white"/>
</g>
</g>
<g opacity="0.3">
<mask id="mask5_55_5164" style="mask-type:luminance" maskUnits="userSpaceOnUse" x="-353" y="-26" width="849" height="567">
<path d="M-352.774 -25.4121H496V540.258H-352.774V-25.4121Z" fill="white"/>
</mask>
<g mask="url(#mask5_55_5164)">
<path opacity="0.07" d="M-473.865 249.956L-179.624 142.479L-64.1905 291.815L42.1891 265.795L157.622 348.382L108.959 436.174L163.281 561.753L-487.446 557.68L-473.865 249.956Z" fill="white"/>
</g>
<mask id="mask6_55_5164" style="mask-type:luminance" maskUnits="userSpaceOnUse" x="-353" y="-26" width="849" height="567">
<path d="M-352.774 -25.4121H496V540.258H-352.774V-25.4121Z" fill="white"/>
</mask>
<g mask="url(#mask6_55_5164)">
<path opacity="0.07" d="M21.479 89.0793L-96.2176 338.427L-259.748 318.854L-310.109 401.103L-432.785 422.485L-456.324 338.313L-487.219 15.7685L-158.687 -108L21.479 89.0793Z" fill="white"/>
</g>
<mask id="mask7_55_5164" style="mask-type:luminance" maskUnits="userSpaceOnUse" x="-353" y="-26" width="849" height="567">
<path d="M-352.774 -25.4121H496V540.258H-352.774V-25.4121Z" fill="white"/>
</mask>
<g mask="url(#mask7_55_5164)">
<g opacity="0.62">
<path d="M79.7615 587.887L80.3274 587.661L3.93777 406.647V406.533L-274.46 189.995L-320.973 60.5699L-426.673 -56.75L-427.013 -56.2975L-321.425 60.9093L-275.026 190.335H-274.913L3.48507 406.986L79.7615 587.887Z" fill="white"/>
<path d="M-405.963 317.497L-188.111 257.649L-81.0528 221.446L4.27722 235.136L4.16404 234.683L-103.574 -60.144L-166.496 85.1199L-166.383 85.2331L-81.5055 220.768L-510.985 151.869L-511.098 152.435L-82.1845 221.22L-188.225 257.084L-405.963 316.931V317.497ZM-103.8 -58.5602L3.2587 234.457L-81.0528 220.994L-166.043 85.2331L-103.8 -58.5602Z" fill="white"/>
<path d="M17.0655 588L17.5182 587.661L-146.239 348.722L-119.983 456.313L-533.845 514.011L-533.732 514.576L-119.304 456.765V456.426L-144.994 351.664L17.0655 588Z" fill="white"/>
<path d="M-314.069 588L-145.446 350.419L3.48505 235.362V406.647L-200.786 570.465L-119.417 456.765L-119.87 456.426L-203.616 573.406L4.0509 406.873V234.23L3.59823 234.57L-145.786 349.966L-314.522 587.661L-314.069 588Z" fill="white"/>
<path d="M4.05088 234.909L71.9528 119.399L71.8396 119.286L-69.6226 -59.4653L-70.0753 -59.1259L71.2738 119.399L3.48503 234.683L4.05088 234.909Z" fill="white"/>
<path d="M3.71146 238.303C1.7739 238.303 0.203185 236.733 0.203185 234.796C0.203185 232.859 1.7739 231.289 3.71146 231.289C5.64902 231.289 7.21973 232.859 7.21973 234.796C7.21973 236.733 5.64902 238.303 3.71146 238.303Z" fill="white"/>
<path d="M71.6133 122.906C69.6758 122.906 68.105 121.336 68.105 119.399C68.105 117.462 69.6758 115.892 71.6133 115.892C73.5509 115.892 75.1216 117.462 75.1216 119.399C75.1216 121.336 73.5509 122.906 71.6133 122.906Z" fill="white"/>
</g>
</g>
<mask id="mask8_55_5164" style="mask-type:luminance" maskUnits="userSpaceOnUse" x="-353" y="-26" width="849" height="567">
<path d="M-352.774 -25.4121H496V540.258H-352.774V-25.4121Z" fill="white"/>
</mask>
<g mask="url(#mask8_55_5164)">
<path d="M-180.416 179.7L-245.941 -70.4394L-244.47 -70.7788L-178.832 179.813L-178.718 180.265L-367.486 325.869L-256.126 416.942L-75.7339 410.493L36.4174 278.918C36.7569 279.258 37.0964 279.71 37.4359 280.05L-74.8285 411.851L-75.0549 412.19L-256.353 418.978L-369.183 327.113L-370.768 326.774L-180.416 179.7Z" fill="white"/>
<path d="M-39.18 565.939L101.943 364.9L101.716 364.447L-55.3633 156.733L72.2923 -60.1444L70.9342 -60.8232L-57.0608 156.846L-56.8345 157.186L100.132 364.9L-40.4249 565.147L-39.18 565.939Z" fill="white"/>
<path d="M99.9057 372.367C96.7181 372.367 94.134 369.784 94.134 366.597C94.134 363.41 96.7181 360.827 99.9057 360.827C103.093 360.827 105.677 363.41 105.677 366.597C105.677 369.784 103.093 372.367 99.9057 372.367Z" fill="white"/>
<path d="M31.5512 280.954C31.5512 284.122 34.1541 286.724 37.3228 286.724C40.4916 286.724 43.0945 284.122 43.0945 280.954C43.0945 277.787 40.4916 275.185 37.3228 275.185C34.1541 275.185 31.5512 277.787 31.5512 280.954Z" fill="white"/>
<path d="M-3.19202 234.23C-3.19202 237.398 -0.589103 240 2.57965 240C5.74841 240 8.35132 237.398 8.35132 234.23C8.35132 231.063 5.74841 228.46 2.57965 228.46C-0.589103 228.46 -3.19202 231.063 -3.19202 234.23Z" fill="white"/>
</g>
<mask id="mask9_55_5164" style="mask-type:luminance" maskUnits="userSpaceOnUse" x="-353" y="-26" width="849" height="567">
<path d="M-352.774 -25.4121H496V540.258H-352.774V-25.4121Z" fill="white"/>
</mask>
<g mask="url(#mask9_55_5164)">
<path opacity="0.07" d="M-393.515 22.104L-230.55 103.56L172.334 -28.8063L-364.091 -42.3823L-393.515 22.104Z" fill="white"/>
</g>
</g>
</g>
<defs>
<clipPath id="clip0_55_5164">
<rect width="320" height="362" fill="white"/>
</clipPath>
</defs>
</svg>
